<svg width="981" height="1209" viewBox="0 0 981 1209" fill="none" xmlns="http://www.w3.org/2000/svg">
<g opacity="0.8">
<path d="M415.428 500.078C407.46 501.148 398.814 503.196 394.093 509.546C388.392 517.216 390.752 527.959 394.608 536.63C398.463 545.302 403.721 554.019 403.137 563.464C401.641 587.111 367.875 594.941 357.009 616.13C349.391 630.992 354.929 649.223 364.019 663.288C371.38 674.668 381.498 684.979 394.561 689.348C407.623 693.718 423.817 690.805 431.949 679.994C437.814 672.279 438.819 662.082 443.142 653.456C451.765 636.25 474.875 627.487 493.172 634.543C507.029 639.891 520.348 653.069 534.252 647.835C544.557 643.943 548.506 631.129 546.45 620.523C544.393 609.917 538.014 600.745 533.107 591.094C528.2 581.444 524.765 570.019 528.924 560.027C532.78 550.764 542.804 543.8 542.945 533.785C543.879 495.071 438.095 497.005 415.428 500.078Z" stroke="#8179B8" stroke-miterlimit="10"/>
<path d="M385.985 496.163C379.419 503.742 380.33 514.713 383.111 523.976C384.606 529.029 386.686 534.195 388.439 539.566C390.048 543.964 391.008 548.562 391.289 553.222C391.289 554.064 391.289 554.906 391.289 555.726C390.308 570.884 378.204 580.625 366.006 592.141C359.416 597.936 353.634 604.547 348.807 611.806C345.683 616.676 343.717 622.166 343.054 627.872C342.391 633.579 343.047 639.358 344.975 644.785C347.008 650.68 350.139 656.324 352.406 662.31C354.112 666.862 355.116 671.277 357.079 675.465C360.945 683.559 366.575 690.735 373.577 696.495C379.151 701.125 385.926 704.172 393.159 705.303C395.552 705.69 397.978 705.85 400.403 705.781C406.877 705.48 413.263 704.198 419.33 701.98C426.224 699.59 433.094 696.723 437.721 691.602C444.17 684.455 445.011 674.145 449.404 665.724C458.424 648.654 481.371 639.96 499.621 646.378C513.432 651.271 527.055 664.586 540.351 658.168C545.352 655.892 548.039 650.93 550.492 645.832C553.939 639.15 556.086 631.904 556.825 624.46C557.001 621.789 556.93 619.108 556.615 616.449C555.61 607.345 551.941 597.763 547.829 588.204C544.266 580.624 541.684 572.643 540.141 564.443C539.462 560.464 539.462 556.404 540.141 552.426C540.935 548.836 542.224 545.368 543.973 542.115C547.338 535.492 551.661 528.915 551.217 521.199C550.539 509.159 541.473 500.488 527.849 494.57C512.614 487.902 492.074 484.943 472.492 484.579C462.467 484.419 452.676 484.943 443.492 485.193C429.168 485.58 416.947 486.058 409.937 486.786C401.15 487.629 391.57 489.609 385.985 496.163Z" stroke="#8678B4" stroke-miterlimit="10"/>
<path d="M377.876 482.508C370.445 489.996 369.885 501.216 371.59 511.048C372.705 516.765 374.14 522.418 375.89 527.982C377.533 532.76 378.73 537.673 379.465 542.662C379.465 543.572 379.629 544.437 379.652 545.302C379.956 561.234 370.445 572.34 358.762 585.245C352.223 592.104 346.143 599.364 340.558 606.981C331.866 619.613 329.342 633.815 335.511 648.267C338.619 655.55 343.316 662.378 345.863 670.071C347.779 675.852 348.2 681.633 350.069 687.118C353.793 696.971 360.13 705.688 368.436 712.381C374.998 717.733 383.246 720.729 391.803 720.871C394.542 720.943 397.282 720.752 399.982 720.302C407.292 718.835 414.432 716.654 421.293 713.793C429.262 710.788 437.65 708.33 443.446 702.8C450.316 696.154 451.134 685.821 455.807 677.604C465.154 661.172 487.984 652.569 506.094 658.395C519.881 662.947 533.738 675.875 546.473 668.705C552.175 665.519 554.278 659.123 557.082 652.978C560.938 644.466 565.19 636.295 567.247 628.58C568.056 625.598 568.588 622.551 568.836 619.476C569.677 608.961 566.943 597.103 562.573 585.336C558.874 576.377 555.752 567.203 553.226 557.865C552.119 553.501 551.546 549.024 551.52 544.528C551.686 540.513 552.474 536.546 553.857 532.761C556.498 525 560.751 517.148 559.699 508.294C558.134 495.23 548.319 485.535 533.668 479.116C516.75 471.583 494.177 468.601 472.912 469.284C462.046 469.648 451.554 470.991 441.459 471.56C426.2 472.311 412.904 472.584 404.656 473.29C394.911 474.155 384.373 476.021 377.876 482.508Z" stroke="#8B77B0" stroke-miterlimit="10"/>
<path d="M369.768 469.056C361.519 476.453 359.439 487.924 360.094 498.303C360.559 504.463 361.655 510.563 363.365 516.511C364.837 521.882 366.73 527.048 367.641 532.26C367.805 533.216 367.969 534.149 368.039 535.06C369.628 551.675 362.711 564.238 351.518 578.599C345.559 586.269 338.385 594.304 332.356 602.406C321.14 617.473 317.635 634.566 326.071 652C330.253 660.694 336.516 668.683 339.343 678.082C341.446 685.161 341.119 692.239 343.106 699.044C346.733 710.534 353.775 720.719 363.342 728.313C370.837 734.411 380.509 737.366 390.238 736.529C393.332 736.294 396.393 735.752 399.375 734.914C407.434 732.313 415.337 729.273 423.046 725.81C432.089 722.168 442.114 720.142 448.937 714.225C456.111 707.989 457.046 697.724 461.906 689.667C471.58 673.735 494.293 665.018 512.333 670.344C526.073 674.35 540.071 686.913 552.362 679.175C558.765 675.146 560.26 667.226 563.391 660.011C567.738 649.951 573.696 641.143 577.412 632.586C578.847 629.348 579.974 625.988 580.777 622.548C583.487 610.645 581.711 596.466 577.085 582.719C573.603 572.363 569.093 561.666 566.102 551.675C564.534 546.881 563.37 541.972 562.62 536.994C562.087 532.59 562.3 528.131 563.251 523.794C565.167 514.895 569.373 505.745 567.691 495.799C565.354 481.711 554.722 471.173 539.066 464.072C520.372 455.628 495.836 452.692 473.076 454.376C461.392 455.264 450.176 457.426 439.146 458.2C422.976 459.338 408.605 459.429 399.094 460.066C388.509 460.681 377.175 462.433 369.768 469.056Z" stroke="#8F75AC" stroke-miterlimit="10"/>
<path d="M361.683 455.56C352.593 462.889 348.994 474.587 348.574 485.535C348.409 492.141 349.196 498.737 350.91 505.131C352.359 510.935 354.602 516.511 355.888 521.95C356.121 522.952 356.355 523.93 356.519 524.909C359.323 542.229 355.046 556.226 344.367 572.045C338.596 580.579 330.931 589.387 324.201 597.922C310.438 615.379 306.021 635.385 316.677 655.823C321.935 665.906 329.786 675.078 332.871 686.185C335.207 694.538 334.249 702.936 336.189 711.061C339.736 724.192 347.488 735.879 358.318 744.427C362.526 747.819 367.442 750.277 372.725 751.629C378.008 752.981 383.53 753.195 388.906 752.257C392.359 751.725 395.744 750.832 399.001 749.594C407.483 746.453 415.685 741.628 425.009 737.69C435.15 733.389 446.694 731.795 454.686 725.468C462.093 719.619 463.215 709.536 468.239 701.593C478.264 685.957 500.953 677.377 518.806 682.111C532.5 685.661 546.59 697.656 558.531 689.462C565.541 684.569 566.499 675.192 569.981 666.907C574.842 655.3 582.506 645.832 587.857 636.455C589.921 632.932 591.642 629.229 592.998 625.393C597.672 612.125 596.76 595.624 591.876 579.874C588.278 568.198 583.16 556.295 579.235 545.256C577.203 540.039 575.456 534.721 574 529.324C572.792 524.533 572.459 519.571 573.019 514.667C574.187 504.63 578.37 494.183 576.057 483.122C572.879 468.032 561.475 456.539 544.791 448.846C524.484 439.514 497.845 436.556 473.473 439.309C460.995 440.743 449.054 443.702 437.09 444.749C420.008 446.251 404.539 446.16 393.79 446.752C382.2 447.207 369.978 448.846 361.683 455.56Z" stroke="#9474A8" stroke-miterlimit="10"/>
<path d="M353.574 442.063C343.666 449.324 338.549 461.25 337.053 472.766C336.214 479.763 336.633 486.849 338.292 493.705C339.764 499.919 342.311 505.791 343.994 511.549C344.297 512.619 344.601 513.666 344.835 514.69C348.877 532.716 347.172 548.169 337.077 565.421C331.515 574.821 323.313 584.38 315.906 593.37C299.548 613.217 294.244 636.159 307.166 659.601C313.499 670.981 322.916 681.405 326.281 694.219C328.828 703.846 327.239 713.565 329.155 722.987C332.602 737.755 341.056 750.96 353.154 760.473C357.853 764.255 363.402 766.907 369.349 768.211C375.297 769.516 381.476 769.438 387.387 767.984C391.196 767.143 394.901 765.906 398.44 764.296C407.787 760.131 416.503 754.191 426.831 749.662C438.048 744.746 451.064 743.54 460.27 736.825C467.841 731.318 469.197 721.28 474.408 713.633C484.783 698.384 507.122 689.895 525.115 694.014C538.739 697.155 552.899 708.444 564.443 699.886C572.224 694.083 572.505 683.249 576.337 673.895C581.665 660.762 591.035 650.611 598.045 640.415C600.76 636.614 603.106 632.575 605.056 628.352C611.528 613.695 611.622 594.895 606.481 576.915C602.766 563.919 597.134 550.81 592.203 538.747C589.867 532.625 587.039 527.003 585.193 521.45C583.329 516.277 582.45 510.816 582.599 505.336C583.043 494.161 587.273 482.462 584.235 470.263C580.309 454.126 568.065 441.676 550.376 433.437C528.387 423.196 499.691 420.259 473.73 424.038C460.411 425.995 447.792 429.773 434.87 431.093C416.877 432.937 400.333 432.709 388.322 433.21C376.311 433.711 362.804 435.281 353.574 442.063Z" stroke="#9872A4" stroke-miterlimit="10"/>
<path d="M345.466 428.567C334.763 435.782 328.08 447.913 325.557 459.998C324.028 467.35 324.1 474.933 325.767 482.257C327.524 488.677 329.662 494.992 332.17 501.171C332.543 502.286 332.917 503.447 333.221 504.471C338.479 523.202 339.554 540.135 329.833 558.798C324.505 569.086 315.812 579.282 307.68 588.818C288.706 611.009 282.537 636.933 297.726 663.357C305.11 676.216 316.116 687.733 319.761 702.253C322.519 713.178 320.322 724.171 322.098 734.936C325.504 751.351 334.737 766.073 348.176 776.518C353.383 780.691 359.575 783.533 366.192 784.789C372.81 786.045 379.645 785.674 386.078 783.711C390.247 782.562 394.274 780.975 398.089 778.977C408.044 773.833 417.484 766.777 428.841 761.634C441.132 756.08 454.545 753.326 466.042 748.205C472.655 741.696 475.389 733.116 480.764 725.673C491.489 710.811 513.805 702.367 531.611 705.895C545.188 708.603 557.947 717.115 570.565 710.287C577.739 702.253 578.744 691.329 582.903 680.882C588.745 666.225 599.798 655.414 608.467 644.466C611.776 640.376 614.686 635.995 617.16 631.379C625.526 615.447 626.507 594.235 621.156 574.138C616.906 559.847 611.579 545.88 605.219 532.351C602.298 525.728 598.933 519.697 596.433 513.711C593.872 508.18 592.413 502.225 592.133 496.163C591.853 483.85 596.012 470.877 592.367 457.472C587.694 440.334 574.584 426.928 555.867 418.097C532.196 406.945 501.444 404.032 473.917 408.857C459.78 411.338 446.437 415.912 432.58 417.528C413.652 419.804 396.056 419.326 382.807 419.804C369.558 420.282 355.631 421.716 345.466 428.567Z" stroke="#9C70A0" stroke-miterlimit="10"/>
<path d="M337.357 415.07C325.867 422.71 317.575 434.114 313.99 447.207C311.807 454.91 311.535 463.007 313.195 470.832C314.968 477.661 317.313 484.336 320.205 490.792C320.673 491.976 321.117 493.068 321.514 494.252C327.963 513.688 331.749 532.078 322.495 552.198C317.378 563.35 308.078 574.343 299.338 584.267C277.723 608.802 270.713 637.684 288.145 667.112C296.604 681.383 309.176 694.06 313.125 710.356C316.093 722.555 313.289 734.868 315.088 746.931C317.588 763.841 328.594 781.685 342.849 792.655C348.574 797.208 355.417 800.232 362.706 801.429C369.995 802.626 377.478 801.956 384.419 799.483C388.948 798.028 393.297 796.089 397.388 793.702C408.067 787.557 418.139 779.386 430.477 773.673C443.866 767.483 458.518 764.797 471.44 759.608C478.193 753.303 481.208 744.996 486.769 737.759C497.845 723.283 520.021 714.999 537.757 717.844C551.287 720.12 563.952 727.835 576.36 720.757C583.978 711.653 584.609 699.431 589.142 687.937C595.475 671.71 608.21 660.239 618.539 648.426C622.467 644.042 625.979 639.319 629.031 634.315C639.266 616.904 641.182 593.484 635.55 571.271C631.165 555.677 625.281 540.52 617.978 526.001C614.613 518.878 610.57 512.346 607.416 506.041C604.252 500.126 602.285 493.675 601.621 487.037C600.616 473.586 604.799 459.315 600.452 444.863C595.008 426.655 581.081 412.362 561.358 402.962C536.005 390.899 503.197 388.009 474.081 393.858C459.102 396.885 445.058 402.234 430.29 404.123C410.427 406.672 391.733 406.148 377.246 406.513C363.272 406.831 348.48 408.151 337.357 415.07Z" stroke="#A06F9C" stroke-miterlimit="10"/>
<path d="M329.249 401.574C316.74 409.228 307.305 420.828 302.516 434.439C299.667 442.485 299.047 451.12 300.717 459.475C302.142 466.963 305.647 473.859 308.498 480.505C309.036 481.734 309.573 482.917 310.017 484.101C317.658 504.266 324.178 524.135 315.392 545.666C310.485 557.706 300.647 569.404 291.23 579.806C266.951 606.617 259.099 638.526 278.822 670.845C288.355 686.526 302.493 700.433 306.722 718.299C309.9 731.795 306.489 745.383 308.218 758.789C310.555 777.201 322.402 796.752 337.895 808.61C352.78 819.99 368.553 820.354 383.088 815.142C388.008 813.382 392.711 811.092 397.108 808.314C408.535 801.167 419.19 791.881 432.557 785.554C447.044 778.726 463.075 776.132 477.282 770.897C484.152 764.797 487.47 756.74 493.195 749.685C504.622 735.619 526.681 727.289 544.324 729.656C557.807 731.454 570.378 738.419 582.576 731.067C590.661 720.894 590.918 707.397 595.779 694.834C602.602 677.081 617.043 664.95 629.031 652.296C633.589 647.628 637.695 642.562 641.299 637.16C653.427 618.406 656.254 592.665 650.389 568.335C646.299 551.356 638.705 534.605 631.181 519.515C627.325 511.89 622.628 505.062 618.819 498.235C615.008 491.942 612.5 484.983 611.435 477.751C609.683 463.162 613.889 447.617 608.865 432.049C602.672 412.863 587.834 397.545 567.13 387.576C540.094 374.603 505.253 371.758 474.525 378.632C458.752 382.182 443.983 388.328 428.28 390.512C407.507 393.403 387.738 392.788 371.988 393.039C356.963 393.38 341.306 394.609 329.249 401.574Z" stroke="#A36D98" stroke-miterlimit="10"/>
<path d="M321.14 388.077C307.576 395.739 296.988 407.548 291.019 421.671C287.505 429.979 286.515 439.095 288.168 447.935C289.617 455.856 293.426 463.093 296.674 470.035C297.282 471.31 297.889 472.561 298.403 473.79C307.236 494.661 316.49 515.987 308.171 538.952C303.498 551.857 293.076 564.283 283.004 575.185C256.038 604.295 247.392 639.231 269.381 674.646C279.966 691.693 295.693 706.691 300.203 726.356C303.591 741.127 299.595 755.944 301.254 770.76C303.591 790.675 316.093 811.955 332.8 824.678C348.971 836.946 366.029 837.014 381.662 830.892C386.915 828.827 391.909 826.185 396.547 823.017C408.722 814.891 419.915 804.467 434.379 797.571C449.942 790.129 467.327 787.602 482.867 782.299C489.877 776.405 493.452 768.644 499.364 761.816C511.048 748.16 533.06 739.852 550.633 741.628C564.069 742.993 576.547 749.184 588.511 741.628C597.064 730.362 596.97 715.613 602.158 701.957C609.495 682.68 625.526 669.866 639.266 656.438C644.442 651.485 649.136 646.075 653.286 640.278C667.307 620.159 671.022 592.096 664.97 565.649C660.764 547.441 652.679 529.393 644.126 513.301C639.803 505.176 634.452 497.939 629.989 490.678C625.525 484.027 622.467 476.576 620.992 468.761C618.539 453.056 622.745 436.214 617.02 419.531C610.009 399.32 594.447 383.115 572.621 372.532C543.926 358.649 507.029 355.804 474.711 363.724C458.097 367.798 442.651 374.74 425.99 377.221C404.305 380.453 383.461 379.656 366.473 379.861C350.653 379.929 334.156 381.067 321.14 388.077Z" stroke="#A76B94" stroke-miterlimit="10"/>
<path d="M313.125 374.581C298.489 382.252 286.743 394.266 279.593 408.88C275.451 417.493 274.106 427.132 275.737 436.51C277.186 444.84 281.322 452.442 284.944 459.657C285.621 460.977 286.299 462.274 286.907 463.571C296.908 485.17 308.895 507.953 300.927 532.329C296.487 546.121 285.504 559.254 274.779 570.633C245.125 602.019 235.685 640.005 259.917 678.401C271.601 696.859 288.893 713.019 293.683 734.39C297.282 750.436 292.678 766.641 294.291 782.686C296.394 804.103 309.783 827.136 327.706 840.724C345.138 853.925 363.529 853.651 380.236 846.619C385.843 844.239 391.157 841.253 396.08 837.72C408.979 828.616 420.873 817.054 436.248 809.543C452.91 801.463 471.65 799.028 488.498 793.611C495.509 787.921 499.504 780.388 505.603 773.742C517.731 760.45 539.51 752.211 557.012 753.417C570.402 754.328 584.375 761.611 594.54 751.87C605.616 741.264 603.069 723.511 608.561 708.808C616.365 687.983 634.265 674.486 649.501 660.216C655.315 654.991 660.611 649.246 665.32 643.055C681.257 621.593 685.861 591.186 679.528 562.622C675.182 543.003 666.512 523.93 657.025 506.701C652.352 498.075 646.229 490.451 641.135 482.758C636.025 475.738 632.417 467.789 630.526 459.384C627.325 442.541 631.554 424.402 625.152 406.626C617.487 385.369 600.966 368.162 578.183 357.078C547.805 342.262 508.851 339.462 474.945 348.407C457.513 352.959 441.343 360.743 423.747 363.519C401.127 367.07 379.208 366.159 360.982 366.296C344.344 366.433 327.005 367.502 313.125 374.581Z" stroke="#AB6990" stroke-miterlimit="10"/>
<path d="M304.923 361.084C289.219 368.753 276.326 380.953 268.002 396.02C263.211 404.905 261.498 415.06 263.119 424.971C264.544 433.733 269.007 441.654 273.026 449.164C273.751 450.553 274.522 451.918 275.2 453.261C286.393 475.589 301.138 499.828 293.707 525.615C289.477 540.295 277.934 554.133 266.554 565.99C234.213 599.652 223.978 640.688 250.477 682.065C263.189 701.935 282.093 719.255 287.164 742.333C290.973 759.676 285.785 777.179 287.304 794.544C289.314 817.463 303.474 842.203 322.612 856.701C341.306 870.812 361.029 870.198 378.694 862.255C384.665 859.56 390.309 856.224 395.519 852.309C409.142 842.158 421.644 829.549 438.048 821.446C455.784 812.707 475.88 810.362 494.13 804.945C501.374 799.46 505.557 792.2 511.819 785.759C524.321 772.877 545.959 764.661 563.368 765.275C576.711 765.753 590.591 772.103 600.546 762.248C612.23 750.641 609.168 731.568 615.057 715.773C623.376 693.422 642.911 679.357 659.853 664.176C666.281 658.647 672.171 652.552 677.448 645.968C695.278 623.209 700.816 590.412 694.203 559.754C689.74 538.792 680.486 518.4 670.064 500.237C664.83 491.133 658.147 483.099 652.398 474.974C646.884 467.213 642.187 459.429 640.177 450.166C636.251 432.186 640.504 412.749 633.401 393.858C625.035 371.554 607.696 353.437 583.815 341.761C551.754 326.034 510.768 323.257 475.272 333.249C457.022 338.393 440.221 346.905 421.527 349.954C397.973 353.869 374.979 352.822 355.49 352.868C338.035 353.05 319.832 353.983 304.923 361.084Z" stroke="#AE678C" stroke-miterlimit="10"/>
<path d="M296.768 347.588C279.947 355.307 265.889 367.762 256.412 383.343C250.975 392.497 248.891 403.178 250.5 413.636C251.949 422.74 256.716 431.07 261.132 438.877C261.927 440.334 262.768 441.722 263.469 443.133C275.83 466.189 293.333 491.885 286.369 519.083C282.373 534.65 270.245 549.194 258.328 561.53C223.277 597.444 212.271 641.553 241.036 685.912C254.823 707.169 275.293 725.673 280.644 750.459C284.663 769.076 278.891 787.898 280.34 806.584C282.21 831.005 297.165 857.475 317.518 872.838C337.497 887.859 358.505 886.926 377.362 878.073C383.695 875.098 389.661 871.433 395.145 867.148C409.493 856.018 422.625 842.249 440.034 833.577C458.845 824.223 480.296 821.947 499.808 816.485C507.169 811.182 511.632 804.194 518.058 797.958C530.934 785.463 552.432 777.474 569.771 777.338C583.067 777.224 596.83 782.914 606.598 772.786C618.819 760.131 615.314 739.739 621.553 722.874C630.363 698.976 651.58 684.182 670.181 668.25C677.229 662.431 683.72 656.002 689.576 649.041C709.251 624.825 715.677 589.865 708.878 557.023C704.204 534.741 694.436 513.119 683.173 493.956C677.472 484.351 670.134 475.93 663.731 467.372C657.609 459.179 652.305 450.94 649.921 441.107C645.248 421.989 649.547 401.255 641.743 381.272C632.629 357.92 614.356 338.848 589.54 326.649C555.797 310.011 512.73 307.257 475.646 318.273C456.578 323.94 438.982 333.226 419.564 336.481C395.098 340.714 371.03 339.553 350.279 339.531C331.819 339.599 312.681 340.441 296.768 347.588Z" stroke="#B26588" stroke-miterlimit="10"/>
<path d="M288.729 334.091C272.372 341.055 254.8 354.575 244.962 370.507C238.874 379.911 236.391 391.107 237.952 402.12C239.4 411.747 244.471 420.328 249.262 428.43C250.15 429.932 251.061 431.389 251.879 432.846C265.432 456.63 285.692 483.759 279.149 512.505C275.41 528.938 262.791 544.164 250.009 557C212.224 595.168 200.447 642.35 231.479 689.69C246.341 712.45 268.4 732.023 274.031 758.515C278.261 778.408 271.905 798.527 273.26 818.533C275.036 844.479 290.762 872.656 312.331 888.906C333.899 905.157 355.911 903.586 375.843 893.822C382.521 890.509 388.792 886.47 394.538 881.782C409.656 869.652 423.373 854.767 441.787 845.503C461.696 835.512 485.788 836.695 505.346 827.796C513.618 824.041 517.591 816.007 524.181 809.93C538.612 797.598 556.847 790.295 576.01 789.173C589.283 788.763 602.929 793.452 612.486 783.187C625.292 769.531 621.319 747.796 627.886 729.884C637.233 704.438 660.11 688.916 680.369 672.233C688.046 666.141 695.133 659.376 701.54 652.022C723.108 626.44 730.422 589.092 723.389 554.155C718.715 530.553 708.247 507.725 695.955 487.537C689.786 477.432 681.795 468.601 674.738 459.634C667.984 451.031 662.072 442.337 659.315 431.913C653.941 411.656 658.24 389.625 649.734 368.527C639.92 344.151 620.759 324.145 594.914 311.331C559.512 293.783 514.39 291.052 475.74 303.115C455.854 309.328 437.534 319.388 417.157 323.052C391.757 327.604 366.613 326.353 344.718 326.239C325.416 326.148 305.531 326.899 288.729 334.091Z" stroke="#B56284" stroke-miterlimit="10"/>
<path d="M280.621 320.594C263.562 327.422 244.308 341.215 233.465 357.784C226.777 367.457 223.952 379.178 225.52 390.74C226.945 400.8 232.343 409.722 237.531 418.052C238.489 419.599 239.47 421.102 240.382 422.604C255.08 447.139 278.12 475.725 272.021 505.791C268.516 523.111 255.22 539.043 241.877 552.357C201.381 592.779 188.739 643.078 222.132 693.468C237.998 717.548 261.693 738.35 267.605 766.55C272.021 787.739 265.105 809.156 266.39 830.482C268.026 857.93 284.523 887.837 307.33 904.975C330.136 922.113 353.481 920.224 374.511 909.527C381.554 905.899 388.154 901.509 394.187 896.44C410.03 883.307 424.354 867.33 443.796 857.475C464.827 846.846 490.181 848.166 511.095 839.131C519.437 835.535 523.76 827.751 530.537 821.947C545.299 810.05 563.42 802.796 582.506 801.145C595.732 800.257 609.262 804.081 618.632 793.679C631.952 778.886 627.535 755.944 634.452 736.939C644.266 709.969 668.872 693.696 690.791 676.284C699.093 669.907 706.774 662.798 713.738 655.05C737.106 628.079 745.401 588.432 738.157 551.424C733.273 526.388 722.291 502.445 709.065 481.256C702.452 470.65 693.782 461.432 686.071 452.009C678.71 442.906 672.191 433.802 669.059 422.854C662.937 401.46 667.283 378.131 658.077 355.94C646.997 329.852 626.547 308.583 600.546 296.105C563.438 277.624 516.282 274.938 476.02 288.025C455.293 294.853 436.295 305.618 414.961 309.579C388.649 314.472 362.43 313.084 339.203 312.879C319.107 312.697 298.38 313.38 280.621 320.594Z" stroke="#B86080" stroke-miterlimit="10"/>
<path d="M272.512 307.098C254.683 313.926 233.839 327.878 221.945 345.016C214.637 354.945 211.441 367.192 212.995 379.315C214.421 389.784 220.005 399.047 225.707 407.742C226.735 409.335 227.787 410.905 228.768 412.453C244.635 437.716 270.456 467.759 264.801 499.236C261.529 517.444 247.649 534.058 233.652 547.874C190.422 590.525 177.032 643.92 212.621 697.201C229.539 722.692 254.823 744.655 261.015 774.584C265.689 797.048 258.141 819.785 259.333 842.431C260.875 871.381 278.027 902.995 302.166 921.02C326.304 939.046 350.91 936.952 372.993 925.276C380.406 921.352 387.336 916.618 393.65 911.165C410.217 897.031 425.172 879.916 445.619 869.469C467.678 858.203 494.41 859.66 516.68 850.533C525.092 847.097 529.742 839.677 536.706 834.01C551.782 822.5 569.801 815.221 588.815 812.957C601.994 811.637 615.384 814.596 624.591 804.012C638.401 788.08 633.587 763.932 640.948 743.858C651.253 715.363 677.542 698.498 701.12 680.131C710.045 673.474 718.321 666.031 725.842 657.894C751.173 629.558 760.286 587.589 752.832 548.465C747.808 522.223 736.241 496.96 722.08 474.746C715.07 463.64 705.723 454.012 697.334 444.18C689.319 434.735 682.192 425.153 678.64 413.568C671.817 391.036 676.186 366.41 666.255 343.013C654.501 315.939 633.203 293.847 606.201 280.719C567.434 261.328 518.222 258.665 476.371 272.799C454.826 280.082 435.08 291.689 412.834 295.946C385.588 301.18 358.318 299.678 333.829 299.405C312.798 299.268 291.23 299.86 272.512 307.098Z" stroke="#BC5E7C" stroke-miterlimit="10"/>
<path d="M264.404 293.601C245.71 300.429 223.37 314.54 210.448 332.293C202.511 342.46 198.927 355.226 200.447 367.912C201.872 378.814 207.901 388.396 213.883 397.5C214.981 399.161 216.22 400.754 217.155 402.37C234.19 428.362 262.815 459.839 257.58 492.749C254.543 511.822 240.078 529.165 225.427 543.458C179.463 588.204 165.325 644.694 203.298 701.001C221.314 727.881 248.163 751.073 254.706 782.641C259.543 806.402 251.481 830.436 252.58 854.38C253.982 884.855 272.045 918.107 297.282 937.089C322.519 956.07 348.69 953.521 371.778 941.026C379.54 936.785 386.784 931.7 393.369 925.868C410.685 910.733 426.247 892.502 447.722 881.464C470.856 869.583 498.874 871.131 522.498 861.913C530.957 858.636 535.981 851.535 543.108 845.981C558.488 834.87 576.427 827.595 595.358 824.792C608.491 823.017 621.717 825.088 630.783 814.368C645.061 797.389 639.873 771.944 647.468 750.8C658.264 720.734 686.211 703.186 711.495 684.091C721.028 677.129 729.897 669.344 737.994 660.83C765.217 631.129 775.241 586.838 767.53 545.598C762.389 518.035 750.285 491.52 735.143 468.214C727.618 456.607 717.594 446.593 708.621 436.351C699.975 426.473 692.263 416.436 688.384 404.282C680.813 380.612 685.23 354.688 674.598 330.29C662.189 302.161 639.987 279.198 611.902 265.447C571.523 244.964 520.208 242.506 476.745 257.664C454.382 265.47 433.959 277.874 410.778 282.426C382.597 287.98 354.229 286.386 328.501 285.999C306.465 285.817 284.079 286.318 264.404 293.601Z" stroke="#BF5B78" stroke-miterlimit="10"/>
<path d="M256.295 280.105C236.877 286.933 212.902 301.203 198.928 319.456C190.889 329.971 186.169 342.216 187.922 356.441C189.347 367.821 195.703 377.699 201.942 386.985C203.111 388.692 204.279 390.353 205.447 392.015C223.627 418.757 255.033 451.668 250.22 485.99C247.439 505.95 232.39 523.976 217.084 538.77C168.386 585.86 153.501 645.468 193.717 704.711C212.785 733.002 241.223 757.287 247.976 790.63C253.024 815.665 244.378 840.997 245.406 866.283C246.691 898.261 265.525 933.311 292.001 953.089C318.476 972.867 345.933 970.159 370.142 956.708C378.27 952.164 385.836 946.727 392.692 940.503C410.731 924.366 426.925 905.043 449.381 893.413C473.613 880.872 502.94 882.488 527.966 873.248C536.519 870.084 541.87 863.324 549.184 858.044C564.881 847.369 582.746 840.096 601.574 836.718C614.66 834.442 627.746 835.717 636.625 824.815C651.394 806.721 645.809 780.046 653.777 757.833C665.064 726.242 694.717 708.012 721.543 688.119C731.797 680.884 741.355 672.756 750.098 663.835C779.214 632.768 790.127 586.178 782.205 542.798C776.807 513.916 764.118 486.195 748.042 462.024C740.073 449.938 729.348 439.514 719.744 428.817C710.397 418.553 702.148 408.06 697.895 395.315C689.599 370.507 694.063 343.263 682.706 317.772C669.64 288.599 646.557 264.764 617.417 250.358C575.356 229.077 521.984 226.551 476.931 242.733C453.751 251.063 432.533 264.241 408.488 269.112C379.395 274.984 349.952 273.277 322.986 272.822C300.156 272.366 276.929 272.799 256.295 280.105Z" stroke="#C25974" stroke-miterlimit="10"/>
<path d="M248.187 266.608C227.997 273.436 202.41 287.843 187.431 306.688C178.808 317.545 173.668 330.245 175.42 344.993C176.822 356.737 183.505 367.024 190.259 376.584C191.497 378.359 192.759 380.066 193.974 381.796C213.322 409.267 247.509 443.634 243.046 479.367C240.499 500.215 224.866 518.923 208.906 534.218C157.497 583.538 141.841 646.242 184.276 708.49C204.396 738.077 234.423 763.614 241.457 798.664C246.715 824.974 237.484 851.626 238.419 878.323C239.587 911.803 259.216 948.583 286.907 969.248C314.597 989.914 343.409 986.887 368.693 972.526C377.195 967.68 385.091 961.891 392.224 955.274C410.918 938.159 427.79 917.698 451.274 905.476C476.604 892.298 507.192 893.936 533.621 884.696C542.22 881.692 547.945 875.251 555.423 870.175C571.419 859.916 589.23 852.639 607.953 848.713C620.992 846.05 633.915 846.437 642.654 835.33C657.843 816.098 652.001 788.194 660.226 764.934C671.91 731.796 703.363 712.882 731.941 692.102C742.747 684.588 752.836 676.14 762.086 666.862C793.048 634.406 804.872 585.518 796.716 540.022C791.295 509.819 778.022 480.846 761.034 455.628C752.598 443.042 741.242 432.231 730.96 421.102C721.076 410.405 712.149 399.457 707.592 386.12C698.573 360.196 703.059 331.656 691.002 305.049C677.25 274.852 653.27 250.17 623.072 235.131C579.328 212.918 523.924 210.414 477.282 227.643C453.26 236.52 431.412 250.403 406.362 255.638C376.217 261.738 345.84 259.962 317.542 259.462C293.847 258.938 269.755 259.28 248.187 266.608Z" stroke="#C45670" stroke-miterlimit="10"/>
<path d="M240.078 253.112C219.047 259.94 191.941 274.506 175.911 293.92C166.564 305.095 161.119 318.25 162.848 333.545C164.274 345.721 171.261 356.304 178.388 366.205L182.267 371.554C202.784 399.798 239.774 435.577 235.825 472.766C233.488 494.479 217.295 513.871 200.774 529.666C146.585 581.194 130.227 647.015 174.929 712.245C196.124 743.312 227.717 769.941 235.007 806.698C240.499 834.306 230.684 862.255 231.549 890.158C232.601 925.163 253 963.672 281.906 985.203C310.812 1006.73 341.003 1003.41 367.361 988.185C376.2 983.03 384.415 976.922 391.85 969.977C411.362 951.769 428.771 930.261 453.26 917.447C479.666 903.655 511.539 905.271 539.37 896.076C548.039 893.208 554.091 887.086 561.756 882.215C578.05 872.381 595.821 865.086 614.426 860.593C627.418 857.475 640.13 856.952 648.776 845.731C664.363 825.384 658.123 796.274 666.769 771.921C679.061 737.258 712.102 717.662 742.34 696.154C753.737 688.322 764.396 679.517 774.19 669.843C807.045 636.022 819.757 584.813 811.391 537.222C805.83 505.677 791.996 475.52 774.003 449.255C765.1 436.169 753.089 424.948 742.153 413.409C731.661 402.279 722.104 390.899 717.103 376.993C707.359 349.932 711.892 320.094 699.133 292.395C684.714 261.127 659.848 235.536 628.587 219.791C583.16 196.667 525.77 194.209 477.469 212.463C452.629 221.862 430.056 236.588 404.072 242.05C373.133 248.582 341.54 246.602 312.074 246.033C287.538 245.487 262.604 245.806 240.078 253.112Z" stroke="#C7536B" stroke-miterlimit="10"/>
<path d="M231.993 239.615C210.191 246.443 181.472 261.146 164.391 281.152C154.553 292.668 148.571 306.187 150.37 322.119C151.795 334.705 159.086 345.676 166.727 355.827C168.129 357.693 169.531 359.514 170.887 361.334C192.572 390.33 232.343 427.543 228.815 466.143C226.759 488.721 209.957 508.818 192.689 525.114C135.532 578.85 118.497 647.766 165.442 716C187.711 748.478 220.893 776.268 228.534 814.732C234.236 843.614 223.861 872.861 224.609 902.107C225.567 938.523 246.738 978.83 276.859 1001.25C306.979 1023.67 338.525 1020.07 365.982 1003.91C375.188 998.431 383.719 991.94 391.406 984.566C411.666 965.447 429.682 942.733 455.176 929.35C482.68 914.898 515.932 916.491 545.071 907.342C553.811 904.611 560.213 898.83 568.041 894.164C584.622 884.751 602.369 877.439 620.852 872.405C633.798 868.832 646.369 867.444 654.828 856.041C670.812 834.533 664.316 804.24 673.289 778.817C686.071 742.606 720.795 722.373 752.738 700.023C764.77 691.925 776.024 682.784 786.364 672.711C821.112 637.547 834.712 583.948 826.089 534.309C820.411 501.444 805.993 470.058 787.112 442.792C777.765 429.136 765.053 417.619 753.486 405.602C742.34 394.222 732.222 382.228 726.847 367.73C716.355 339.531 720.935 308.372 707.452 279.581C692.371 247.282 666.612 220.838 634.288 204.474C587.179 180.44 527.662 177.982 477.843 197.282C452.138 207.205 428.911 222.705 402.015 228.486C370.118 235.313 337.474 233.333 306.769 232.582C281.228 232.15 255.454 232.264 231.993 239.615Z" stroke="#CA5067" stroke-miterlimit="10"/>
<path d="M223.884 226.118C201.288 232.946 170.98 247.809 152.894 268.361C142.542 280.218 136.046 294.261 137.868 310.671C139.271 323.712 146.888 335.001 154.81 345.448C156.282 347.383 157.754 349.249 159.203 351.115C182.033 380.84 224.632 419.395 221.501 459.52C219.678 482.985 202.269 503.788 184.37 520.562C124.619 576.505 106.79 648.654 156.002 719.755C179.369 753.645 214.093 782.595 221.945 822.766C227.857 852.923 216.897 883.489 217.575 914.033C218.416 952.065 240.358 994.011 271.694 1017.29C303.03 1040.58 335.955 1036.69 364.463 1019.57C374.038 1013.75 382.898 1006.87 390.869 999.086C411.9 978.967 430.477 955.16 456.999 941.163C485.577 926.096 520.091 927.507 550.633 918.562C559.466 915.945 566.195 910.505 574.21 906.044C591.072 897.055 608.81 889.721 627.161 884.149C640.06 880.121 652.468 877.845 660.787 866.306C677.145 843.546 670.345 812.16 679.668 785.668C692.941 747.909 729.394 726.993 762.927 703.846C775.578 695.448 787.426 685.957 798.329 675.488C834.946 638.936 849.457 583.106 840.647 531.282C834.829 497.142 819.827 464.505 800.011 436.214C790.197 422.126 776.83 410.131 764.633 397.705C752.949 385.778 742.106 373.465 736.358 358.376C725.165 329.038 729.768 296.583 715.584 266.699C699.79 233.451 673.145 206.226 639.803 189.27C591.012 164.235 529.438 161.959 478.03 182.238C451.554 192.707 427.556 208.98 399.725 215.057C367.011 222.227 333.198 220.11 301.231 219.291C274.919 218.608 248.303 218.744 223.884 226.118Z" stroke="#CD4D64" stroke-miterlimit="10"/>
<path d="M215.776 212.645C192.408 219.473 160.512 234.449 141.374 255.592C130.321 267.792 123.521 282.29 125.25 299.246C126.675 312.697 134.597 324.281 142.916 335.07C144.458 337.05 146 338.984 147.589 340.896C171.588 371.371 216.944 411.451 214.28 452.897C212.715 477.25 194.698 498.735 176.144 516.01C113.706 574.161 95.1291 649.314 146.631 723.511C171.027 758.789 207.387 788.922 215.495 830.8C221.618 862.255 210.074 894.118 210.658 925.982C211.383 965.516 234.026 1009.17 266.74 1033.36C299.455 1057.56 333.595 1053.32 363.178 1035.37C373.104 1029.25 382.285 1022.06 390.542 1013.93C412.273 992.805 431.505 967.883 459.032 953.294C488.685 937.589 524.461 939.001 556.428 930.079C565.331 927.598 572.388 922.522 580.59 918.221C597.74 909.685 615.48 902.323 633.681 896.189C646.533 891.637 658.754 888.588 666.956 876.866C683.617 853.037 676.607 820.377 686.281 792.814C700.045 753.531 738.18 731.932 773.372 707.966C786.642 699.283 799.084 689.457 810.55 678.606C849.059 640.688 864.295 582.56 855.415 528.596C849.387 493.091 833.871 459.27 813.144 429.978C802.862 415.389 788.841 403.008 775.989 390.148C763.581 377.79 752.248 365.113 746.125 349.363C734.185 318.887 738.835 285.112 723.926 254.136C707.498 219.795 679.957 191.651 645.528 174.021C595.078 148.143 531.448 145.754 478.45 167.193C450.993 178.118 426.294 195.165 397.528 201.561C363.786 209.049 328.991 206.841 295.786 205.908C268.727 205.157 241.153 205.225 215.776 212.645Z" stroke="#CF4A60" stroke-miterlimit="10"/>
<path d="M207.667 199.148C183.505 205.976 150.043 221.111 129.853 242.824C118.17 255.342 110.972 270.295 112.725 287.798C114.127 301.681 122.376 313.675 131.092 324.691C132.681 326.717 134.317 328.697 135.906 330.677C161.072 361.903 209.233 403.508 206.966 446.274C205.658 471.515 187.057 493.683 167.872 511.458C102.677 571.817 83.352 650.088 137.097 727.289C162.568 763.955 200.493 795.25 208.906 838.812C215.238 871.541 203.134 904.815 203.625 937.908C204.232 978.876 227.717 1024.4 261.506 1049.43C295.296 1074.47 330.931 1069.91 361.613 1051.12C371.901 1044.7 381.397 1037.16 389.911 1028.63C412.39 1006.53 432.229 980.469 460.761 965.288C491.513 948.969 528.527 950.244 561.943 941.459C570.916 939.183 578.3 934.38 586.689 930.284C603.443 922.136 623.493 914.352 639.897 908.116C652.702 903.177 664.76 899.194 672.845 887.313C689.833 862.277 682.589 828.456 692.59 799.825C706.845 759.016 746.686 736.757 783.537 711.972C797.442 702.989 810.494 692.813 822.537 681.565C862.916 642.281 879.11 581.831 869.95 525.751C863.781 488.926 847.681 453.876 826.019 423.582C815.27 408.493 800.595 395.702 787.089 382.41C774.073 369.642 762.109 356.441 755.613 340.191C742.947 308.577 747.668 273.504 732.035 241.436C714.931 206.052 686.492 177.034 650.996 158.75C598.84 132.007 533.177 129.731 478.567 152.013C450.526 163.529 425.032 181.35 395.332 188.041C360.678 195.871 324.809 193.549 290.342 192.593C262.301 191.728 234.003 191.706 207.667 199.148Z" stroke="#D2475C" stroke-miterlimit="10"/>
<path d="M199.559 185.652C174.602 192.48 139.551 207.774 118.356 230.033C106.089 242.915 98.4473 258.301 100.2 276.349C101.602 290.665 110.178 303.001 119.268 314.313C120.927 316.384 122.633 318.432 124.315 320.458C150.627 352.322 201.568 395.338 199.746 439.674C198.671 465.756 179.486 488.63 159.647 506.906C91.6941 569.45 71.6448 650.93 127.657 731.044C154.179 769.122 193.693 801.6 202.433 846.869C208.976 881.009 196.287 915.376 196.708 949.857C197.199 992.441 221.454 1039.51 256.459 1065.45C291.463 1091.4 328.477 1086.6 360.21 1066.82C370.857 1060.09 380.681 1052.21 389.49 1043.31C412.694 1020.18 433.164 993.01 462.7 977.305C494.527 960.327 532.803 961.374 567.621 952.861C576.687 950.585 584.422 946.238 592.974 942.346C610.08 934.585 630.012 926.915 646.323 920.019C659.081 914.648 670.952 909.8 678.897 897.737C696.189 871.541 688.735 836.559 699.11 806.857C713.855 764.479 755.379 741.559 793.889 715.977C808.414 706.721 822.053 696.209 834.642 684.569C876.913 643.92 894.018 581.126 884.601 522.974C878.315 484.829 861.631 448.573 839.035 417.232C827.842 401.665 812.489 388.487 798.328 374.763C784.682 361.585 772.133 347.929 765.263 331.087C751.874 298.335 756.617 261.942 740.26 228.781C722.516 192.339 693.19 162.435 656.628 143.5C602.882 115.802 535.116 113.48 478.894 136.9C449.965 148.963 423.817 167.535 393.182 174.545C357.593 182.693 320.743 180.28 284.967 179.097C255.991 178.277 226.829 178.209 199.559 185.652Z" stroke="#D54358" stroke-miterlimit="10"/>
<path d="M191.45 172.155C165.746 178.983 129.059 194.369 106.836 217.265C93.961 230.443 85.9225 246.306 87.6751 264.924C89.0538 279.65 97.9568 292.236 107.421 303.911C109.173 306.051 110.949 308.145 112.702 310.216C140.205 342.967 193.951 387.281 192.525 433.051C191.684 460.021 171.915 483.577 151.422 502.354C80.7116 567.106 59.9378 651.635 118.216 734.8C145.814 774.265 186.94 807.972 195.867 854.903C202.597 890.204 189.371 925.982 189.674 961.874C190.072 1005.96 215.098 1054.76 251.318 1081.59C287.538 1108.42 325.931 1103.3 358.809 1082.61C369.811 1075.57 379.956 1067.33 389.046 1058.06C412.975 1033.93 434.052 1005.71 464.617 989.3C497.518 971.684 537.056 972.617 573.299 964.264C582.459 962.147 590.521 958.119 599.237 954.432C616.693 947.058 636.485 939.433 652.726 931.968C665.437 926.119 677.098 920.451 684.949 908.207C702.498 880.895 694.881 844.661 705.583 813.89C720.842 769.986 764.002 746.384 804.217 719.983C819.366 710.448 833.6 699.601 846.746 687.573C890.887 645.536 908.927 580.443 899.276 520.152C892.874 480.687 875.582 443.201 852.051 410.905C840.367 394.837 824.384 381.317 809.569 367.093C795.314 353.437 782.158 339.394 774.891 321.983C760.871 288.093 765.544 250.403 748.509 216.15C730.077 178.691 699.853 147.937 662.236 128.365C606.691 99.6196 536.893 97.3209 479.035 121.765C449.264 134.374 422.415 153.629 390.869 161.048C354.345 169.515 316.326 167.057 279.382 165.805C249.659 164.895 219.655 164.69 191.45 172.155Z" stroke="#D74054" stroke-miterlimit="10"/>
<path d="M183.342 158.659C156.82 165.486 118.59 181.031 95.3396 204.497C81.7865 218.016 73.3975 234.426 75.1267 253.476C76.5288 268.634 85.7356 281.652 95.5967 293.533C97.4193 295.809 99.2887 297.88 101.088 299.997C129.737 333.499 186.286 379.246 185.211 426.427C184.627 454.285 164.18 478.525 143.15 497.802C69.7288 564.739 48.2307 652.409 108.753 738.555C137.425 779.523 180.094 814.209 189.347 862.937C196.357 899.512 182.477 936.611 182.711 973.755C182.968 1019.27 208.789 1069.85 246.247 1097.57C283.705 1125.29 323.36 1119.87 357.313 1098.27C368.677 1090.92 379.143 1082.33 388.509 1072.67C413.162 1047.63 434.847 1018.16 466.416 1001.2C500.416 982.995 541.192 983.678 578.884 975.553C587.967 973.233 596.837 970.188 605.406 966.449C623.212 959.462 642.794 951.86 659.035 943.826C671.7 937.544 683.173 931.012 690.908 918.585C708.714 889.976 700.933 852.718 711.939 820.855C727.689 775.335 772.694 751.141 814.429 723.943C830.224 714.113 845.083 702.923 858.827 690.509C904.861 647.106 923.789 579.692 913.928 517.307C907.385 476.499 889.509 437.807 865.043 404.441C852.915 387.872 836.231 373.898 820.785 359.309C805.9 345.289 792.136 330.745 784.495 312.742C769.657 277.715 774.494 238.705 756.711 203.359C737.645 164.878 706.561 133.265 667.914 113.048C610.734 83.4602 538.902 81.1842 479.549 106.721C448.961 119.853 421.387 139.995 388.906 147.688C351.518 156.451 312.377 153.924 274.171 152.582C243.35 151.444 212.645 151.171 183.342 158.659Z" stroke="#DA3C50" stroke-miterlimit="10"/>
<path d="M175.256 145.162C147.94 151.99 108.145 167.694 83.8427 191.728C69.8221 205.589 60.8724 222.34 62.6249 242.028C64.027 257.618 73.5376 270.978 83.7959 283.155C85.6887 285.431 87.6282 287.706 89.521 289.778C119.315 324.031 178.645 371.189 178.084 419.804C177.757 448.527 156.796 473.472 134.994 493.25C58.7226 562.372 36.5234 653.206 99.312 742.333C129.035 784.598 173.294 820.536 182.828 870.972C189.978 908.844 175.584 947.24 175.817 985.681C175.981 1032.79 202.573 1085.03 241.246 1113.61C280.294 1142.47 321 1136.51 355.981 1114C367.698 1106.34 378.478 1097.4 388.111 1087.35C413.535 1061.24 435.828 1030.72 468.402 1013.2C503.454 994.307 545.515 994.785 584.632 986.91C593.881 984.763 602.944 981.917 611.739 978.398C630.172 972.028 648.13 964.423 665.484 955.638C678.079 948.81 689.366 941.504 696.983 928.918C715.023 899.08 707.125 860.639 718.505 827.774C734.745 780.797 781.364 755.853 824.827 727.813C841.185 717.229 857.191 706.213 870.908 693.377C918.835 648.608 938.674 578.872 928.556 514.371C921.896 472.22 903.436 432.436 878.035 397.955C865.44 380.885 848.101 366.501 832.025 351.502C816.508 337.072 802.137 322.051 794.122 303.479C778.56 267.314 783.443 227.006 764.936 190.568C745.171 151.038 713.164 118.55 673.429 97.685C614.59 67.2551 540.701 65.0019 479.736 91.5171C448.353 105.173 420.031 126.044 386.639 134.01C348.246 143.114 308.101 140.473 268.657 139.04C237.04 137.993 205.377 137.674 175.256 145.162Z" stroke="#DC394C" stroke-miterlimit="10"/>
<path d="M167.148 131.665C139.107 138.493 97.6529 154.425 72.2991 178.937C57.6243 193.14 48.324 210.346 50.0766 230.602C51.4553 246.534 61.293 260.304 71.9486 272.776C73.9115 275.052 75.8977 277.328 77.8839 279.604C108.776 314.677 171.074 363.178 170.84 413.227C170.84 442.814 149.202 468.465 126.745 488.744C47.7398 560.05 24.8163 653.98 89.8715 746.134C120.647 789.787 166.494 826.909 176.331 879.051C183.692 918.198 168.807 957.914 168.784 997.675C168.924 1046.29 196.194 1100.25 236.082 1129.68C276.415 1159.47 318.406 1153.17 354.462 1129.68C366.542 1121.7 377.651 1112.41 387.574 1101.98C413.722 1074.88 436.646 1043.24 470.225 1025.12C506.398 1005.62 549.675 1005.8 590.194 998.244C599.609 996.263 608.87 993.639 617.908 990.392C636.415 984.202 655.787 976.736 671.817 967.496C684.365 960.281 695.441 952.088 702.966 939.297C721.216 908.275 713.177 868.741 724.908 834.738C741.639 786.237 789.963 760.609 835.086 731.773C852.121 720.894 868.688 709.536 882.966 696.313C932.739 650.156 953.489 578.121 943.16 511.504C936.361 468.032 917.316 426.928 890.981 391.537C877.942 373.966 859.925 359.195 843.194 343.741C827.047 328.902 812.069 313.448 803.68 294.261C787.322 256.981 792.323 215.353 773.092 177.822C752.668 137.266 719.776 103.917 678.99 82.4132C618.445 51.0502 542.524 48.8425 479.969 76.3818C447.722 90.6295 418.7 112.274 384.373 120.627C345.045 130.004 303.848 127.295 263.165 125.793C230.731 124.542 198.227 124.155 167.148 131.665Z" stroke="#DF3548" stroke-miterlimit="10"/>
<path d="M159.039 118.169C130.134 124.997 87.1841 141.111 60.7554 166.146C45.4731 180.69 35.7522 198.329 37.3879 219.131C38.79 235.564 48.9315 249.607 59.9843 262.375C62.0173 264.651 64.0736 266.927 66.13 269.203C98.3538 305.14 163.386 355.053 163.573 406.558C163.76 437.033 141.56 463.458 118.473 484.146C36.757 557.615 13.109 654.708 80.4075 749.844C112.281 794.908 159.694 833.19 169.788 887.017C177.359 927.484 161.867 968.497 161.773 1009.58C161.773 1059.65 189.814 1115.37 230.965 1145.73C272.559 1176.43 315.882 1169.76 353.013 1145.45C365.449 1137.17 376.878 1127.53 387.083 1116.73C413.956 1088.62 437.487 1055.87 472.094 1037.07C509.342 1016.93 553.881 1016.84 595.825 1009.58C605.405 1007.78 614.857 1005.38 624.123 1002.41C642.981 996.606 662.212 989.118 678.172 979.376C690.674 971.706 701.54 962.671 708.971 949.789C727.408 917.538 719.276 876.957 731.357 841.816C748.579 791.745 798.585 765.48 845.367 735.847C863.01 724.649 880.208 712.973 895.023 699.431C946.689 651.909 968.351 577.552 957.765 508.818C950.755 464.027 931.22 421.693 904.02 385.3C890.513 367.229 871.843 352.048 854.457 336.185C837.633 320.913 822.046 304.981 813.19 285.135C796.155 246.716 801.179 203.746 781.2 165.145C760.122 123.562 726.322 89.3693 684.458 67.2779C622.254 34.9818 544.253 32.7968 480.133 61.3831C447.184 76.0632 417.438 98.4588 382.199 106.971C341.937 116.689 299.665 113.799 257.72 112.251C224.328 111.091 191.076 110.704 159.039 118.169Z" stroke="#E13145" stroke-miterlimit="10"/>
<path d="M150.931 104.695C121.208 111.523 76.7158 127.682 49.2823 153.424C33.4157 168.263 23.3677 186.357 25.0034 207.729C26.3821 224.594 36.8741 238.955 48.3709 252.019C50.474 254.295 52.6238 256.776 54.7269 259.12C88.0023 295.65 155.792 347.041 156.446 399.958C156.89 431.298 134.083 458.314 110.365 479.617C25.7044 555.202 1.40219 655.482 70.9674 753.599C103.892 800.052 152.894 839.518 163.269 895.052C171.051 936.793 154.974 979.126 154.81 1021.5C154.67 1073.15 183.552 1130.55 225.871 1161.77C268.75 1193.41 313.382 1186.4 351.588 1161.18C364.388 1152.58 376.146 1142.59 386.639 1131.41C414.237 1102.3 438.375 1068.44 473.987 1049.14C512.333 1028.36 558.251 1027.92 601.504 1021.03C611.253 1019.4 620.896 1017.23 630.386 1014.52C649.594 1009.1 668.709 1001.66 684.576 991.325C697.187 983.541 707.624 972.837 714.953 960.167C733.647 926.688 725.352 884.901 737.76 848.781C755.496 797.184 807.185 770.214 855.626 739.761C873.899 728.382 891.705 716.273 907.035 702.276C960.593 653.388 983.143 576.71 972.347 505.859C965.337 459.748 945.077 416.208 916.872 378.768C902.852 360.219 883.574 344.629 865.464 328.355C848.078 312.651 831.885 296.31 822.748 276.008C805.012 236.451 810.059 192.184 789.356 152.491C767.413 110.226 733.274 74.4245 689.997 51.9833C657.793 35.594 622.181 26.5601 585.861 25.5664C549.54 24.5726 513.464 31.6452 480.367 46.2479C446.484 61.5197 416.059 84.7119 379.886 93.5882C338.829 103.58 295.459 100.621 252.37 98.9595C218.113 97.6395 183.903 97.1843 150.931 104.695Z" stroke="#E42C41" stroke-miterlimit="10"/>
<path d="M12.4782 196.28C14.1139 216.764 28.9523 233.629 43.0663 248.878C77.5101 286.159 148.033 338.984 149.155 393.335C149.809 425.563 126.465 453.284 102.069 475.042C14.7916 552.904 -10.3051 656.256 61.5267 757.264C95.5031 805.059 146.094 845.754 156.749 902.926C164.741 945.942 148.057 989.573 147.846 1033.29C147.566 1086.46 177.219 1145.55 220.776 1177.66C279.195 1220.9 341.002 1193.86 386.125 1145.93C414.47 1115.82 439.216 1080.84 475.856 1060.95C515.278 1039.53 562.48 1038.78 607.112 1032.22C651.744 1025.67 699.998 1009.33 721.005 970.409C739.699 935.723 731.497 892.821 744.256 855.609C769.353 782.436 861.211 757.628 919.185 705.053C974.613 654.799 998.098 575.823 986.951 502.855C979.777 455.423 958.91 410.655 929.841 372.214C901.496 334.796 851.794 309.283 832.422 266.631C813.938 225.936 819.009 180.371 797.628 139.563C774.938 96.3194 739.863 59.5168 695.652 36.5294C662.633 19.6773 626.092 10.4109 588.828 9.44041C551.564 8.46992 514.566 15.8211 480.67 30.9305C445.993 46.7258 414.844 70.7146 377.713 79.8641C302.399 98.4361 219.678 73.9465 142.729 91.0164C94.6619 101.85 7.71124 136.559 12.4782 196.28Z" stroke="#E6273D" stroke-miterlimit="10"/>
</g>
</svg>
