<svg width="670" height="997" viewBox="0 0 670 997" fill="none" xmlns="http://www.w3.org/2000/svg">
<path d="M336.248 584.611C342.65 583.729 349.596 582.04 353.388 576.803C357.969 570.478 356.073 561.62 352.975 554.469C349.877 547.318 345.653 540.129 346.123 532.34C347.324 512.839 374.452 506.383 383.181 488.909C389.301 476.653 384.852 461.619 377.549 450.02C371.636 440.636 363.507 432.133 353.013 428.53C342.518 424.926 329.508 427.329 322.975 436.244C318.263 442.606 317.456 451.015 313.983 458.128C307.055 472.317 288.489 479.543 273.789 473.725C262.657 469.314 251.956 458.447 240.786 462.764C232.507 465.974 229.334 476.54 230.986 485.287C232.638 494.033 237.763 501.597 241.706 509.555C245.648 517.513 248.408 526.935 245.066 535.174C241.968 542.813 233.915 548.556 233.802 556.815C233.051 588.74 318.038 587.145 336.248 584.611Z" stroke="#E6273D" stroke-miterlimit="10"/>
<path d="M359.902 587.84C365.178 581.59 364.446 572.543 362.211 564.904C361.01 560.738 359.339 556.477 357.931 552.048C356.638 548.421 355.867 544.63 355.641 540.786C355.641 540.092 355.641 539.397 355.641 538.722C356.429 526.222 366.154 518.189 375.954 508.692C381.248 503.913 385.893 498.461 389.771 492.475C392.281 488.459 393.86 483.932 394.393 479.226C394.926 474.52 394.398 469.755 392.85 465.279C391.216 460.418 388.701 455.764 386.88 450.827C385.509 447.074 384.702 443.432 383.125 439.979C380.019 433.304 375.496 427.386 369.871 422.637C365.393 418.819 359.95 416.306 354.139 415.373C352.216 415.054 350.267 414.922 348.319 414.979C343.118 415.227 337.988 416.284 333.113 418.113C327.575 420.084 322.055 422.449 318.338 426.672C313.157 432.565 312.481 441.068 308.952 448.012C301.705 462.089 283.27 469.258 268.608 463.965C257.513 459.93 246.568 448.95 235.886 454.243C231.868 456.12 229.709 460.212 227.738 464.416C224.969 469.926 223.244 475.902 222.651 482.04C222.51 484.243 222.566 486.454 222.82 488.646C223.627 496.154 226.574 504.056 229.878 511.939C232.74 518.189 234.815 524.771 236.055 531.533C236.6 534.814 236.6 538.162 236.055 541.443C235.416 544.403 234.381 547.263 232.976 549.945C230.273 555.407 226.8 560.831 227.156 567.194C227.701 577.123 234.985 584.274 245.93 589.154C258.17 594.653 274.671 597.093 290.404 597.393C298.457 597.524 306.323 597.093 313.701 596.886C325.209 596.567 335.028 596.173 340.66 595.572C347.718 594.878 355.416 593.245 359.902 587.84Z" stroke="#E6323E" stroke-miterlimit="10"/>
<path d="M366.417 599.101C372.386 592.926 372.837 583.673 371.467 575.565C370.571 570.851 369.418 566.189 368.012 561.601C366.692 557.66 365.731 553.608 365.14 549.495C365.14 548.744 365.009 548.031 364.99 547.318C364.746 534.18 372.387 525.02 381.773 514.378C387.026 508.722 391.911 502.735 396.398 496.454C403.381 486.038 405.409 474.326 400.453 462.408C397.956 456.402 394.182 450.771 392.136 444.427C390.597 439.66 390.259 434.893 388.757 430.369C385.765 422.244 380.674 415.056 374.001 409.536C368.729 405.123 362.102 402.652 355.228 402.535C353.027 402.476 350.827 402.633 348.657 403.004C342.784 404.214 337.048 406.013 331.536 408.372C325.134 410.85 318.394 412.877 313.739 417.437C308.219 422.918 307.562 431.439 303.808 438.215C296.298 451.766 277.957 458.86 263.407 454.055C252.331 450.302 241.199 439.641 230.967 445.553C226.386 448.181 224.697 453.455 222.444 458.522C219.346 465.542 215.93 472.28 214.278 478.643C213.628 481.102 213.2 483.614 213.001 486.15C212.325 494.821 214.522 504.6 218.032 514.303C221.004 521.691 223.512 529.257 225.542 536.957C226.431 540.557 226.891 544.248 226.912 547.956C226.779 551.267 226.146 554.538 225.035 557.659C222.913 564.06 219.497 570.535 220.341 577.836C221.599 588.609 229.484 596.605 241.255 601.898C254.847 608.11 272.982 610.569 290.065 610.006C298.795 609.705 307.224 608.598 315.334 608.129C327.593 607.509 338.275 607.284 344.902 606.702C352.731 605.989 361.198 604.45 366.417 599.101Z" stroke="#E53A3E" stroke-miterlimit="10"/>
<path d="M372.931 610.193C379.558 604.093 381.229 594.634 380.703 586.075C380.33 580.995 379.449 575.965 378.075 571.06C376.892 566.631 375.372 562.37 374.639 558.072C374.508 557.284 374.377 556.514 374.32 555.764C373.044 542.062 378.601 531.702 387.593 519.859C392.38 513.534 398.144 506.908 402.987 500.227C411.998 487.802 414.814 473.706 408.037 459.329C404.677 452.16 399.645 445.572 397.374 437.82C395.684 431.983 395.947 426.146 394.351 420.534C391.437 411.059 385.78 402.66 378.094 396.398C372.072 391.369 364.301 388.933 356.486 389.622C354 389.816 351.54 390.263 349.145 390.955C342.671 393.099 336.321 395.606 330.128 398.462C322.863 401.465 314.809 403.136 309.327 408.015C303.564 413.158 302.813 421.623 298.908 428.267C291.136 441.405 272.888 448.594 258.395 444.202C247.356 440.898 236.111 430.538 226.236 436.919C221.092 440.242 219.891 446.773 217.375 452.723C213.883 461.019 209.096 468.282 206.111 475.339C204.958 478.009 204.053 480.78 203.408 483.616C201.23 493.432 202.657 505.125 206.374 516.462C209.171 525.002 212.795 533.823 215.198 542.062C216.457 546.015 217.393 550.064 217.995 554.168C218.423 557.8 218.252 561.478 217.488 565.054C215.948 572.393 212.569 579.938 213.921 588.14C215.798 599.758 224.34 608.448 236.918 614.304C251.937 621.267 271.649 623.688 289.934 622.299C299.321 621.567 308.332 619.784 317.193 619.146C330.184 618.208 341.73 618.132 349.37 617.607C357.875 617.1 366.98 615.655 372.931 610.193Z" stroke="#E5433E" stroke-miterlimit="10"/>
<path d="M379.427 621.323C386.729 615.28 389.62 605.633 389.958 596.605C390.091 591.157 389.459 585.717 388.081 580.445C386.917 575.659 385.115 571.06 384.082 566.575C383.895 565.749 383.707 564.942 383.575 564.135C381.323 549.852 384.758 538.309 393.338 525.264C397.975 518.226 404.132 510.963 409.539 503.924C420.596 489.529 424.145 473.031 415.584 456.176C411.36 447.862 405.052 440.298 402.574 431.139C400.697 424.251 401.466 417.325 399.908 410.624C397.058 399.797 390.831 390.159 382.13 383.109C378.749 380.312 374.799 378.285 370.555 377.17C366.311 376.055 361.875 375.879 357.556 376.653C354.781 377.091 352.062 377.827 349.446 378.849C342.631 381.439 336.041 385.418 328.551 388.665C320.403 392.212 311.129 393.526 304.709 398.744C298.758 403.567 297.856 411.882 293.82 418.432C285.766 431.326 267.538 438.402 253.195 434.498C242.194 431.57 230.873 421.679 221.28 428.436C215.648 432.471 214.878 440.204 212.081 447.036C208.176 456.608 202.019 464.416 197.72 472.149C196.061 475.054 194.679 478.108 193.589 481.27C189.835 492.213 190.567 505.82 194.491 518.808C197.382 528.436 201.493 538.252 204.647 547.355C206.279 551.658 207.683 556.043 208.852 560.493C209.823 564.445 210.09 568.537 209.641 572.581C208.702 580.858 205.342 589.473 207.2 598.594C209.753 611.038 218.915 620.516 232.319 626.86C248.633 634.555 270.034 636.995 289.615 634.724C299.64 633.542 309.233 631.102 318.845 630.238C332.568 629 344.996 629.075 353.632 628.587C362.944 628.211 372.762 626.86 379.427 621.323Z" stroke="#E44B3F" stroke-miterlimit="10"/>
<path d="M385.941 632.453C393.901 626.466 398.012 616.631 399.214 607.134C399.888 601.364 399.552 595.521 398.219 589.867C397.036 584.743 394.99 579.9 393.638 575.152C393.394 574.27 393.15 573.406 392.962 572.562C389.714 557.697 391.085 544.953 399.195 530.726C403.663 522.975 410.252 515.092 416.204 507.678C429.345 491.312 433.606 472.393 423.225 453.061C418.137 443.676 410.572 435.08 407.868 424.513C405.822 416.574 407.098 408.56 405.559 400.79C402.79 388.612 395.998 377.722 386.279 369.877C382.503 366.758 378.046 364.572 373.267 363.496C368.489 362.42 363.525 362.484 358.776 363.684C355.716 364.377 352.739 365.397 349.896 366.724C342.387 370.159 335.384 375.058 327.087 378.793C318.075 382.847 307.619 383.841 300.222 389.378C294.139 393.92 293.051 402.197 288.864 408.504C280.529 421.079 262.581 428.079 248.126 424.682C237.181 422.092 225.805 412.783 216.53 419.84C210.279 424.626 210.054 433.56 206.975 441.274C202.695 452.104 195.166 460.474 189.534 468.883C187.354 472.018 185.468 475.348 183.902 478.83C178.702 490.917 178.627 506.421 182.757 521.248C185.742 531.965 190.267 542.776 194.228 552.723C196.105 557.772 198.377 562.408 199.86 566.988C201.358 571.253 202.064 575.757 201.944 580.276C201.587 589.491 198.189 599.139 200.629 609.199C203.783 622.506 213.621 632.772 227.832 639.567C245.498 648.013 268.551 650.434 289.409 647.318C300.109 645.704 310.247 642.588 320.629 641.5C335.084 639.979 348.376 640.167 358.025 639.754C367.674 639.341 378.525 638.046 385.941 632.453Z" stroke="#E4533F" stroke-miterlimit="10"/>
<path d="M392.455 643.583C401.053 637.633 406.423 627.63 408.45 617.663C409.678 611.6 409.621 605.347 408.281 599.307C406.869 594.014 405.152 588.806 403.137 583.711C402.837 582.791 402.536 581.834 402.292 580.989C398.068 565.542 397.205 551.578 405.015 536.188C409.295 527.704 416.279 519.296 422.812 511.432C438.056 493.132 443.012 471.754 430.809 449.964C424.877 439.359 416.034 429.862 413.106 417.888C410.891 408.879 412.655 399.814 411.229 390.936C408.492 377.4 401.074 365.259 390.277 356.645C386.095 353.205 381.12 350.861 375.803 349.825C370.487 348.79 364.996 349.095 359.827 350.714C356.478 351.661 353.243 352.97 350.178 354.618C342.18 358.86 334.596 364.678 325.472 368.92C315.597 373.5 304.821 375.771 295.585 379.994C290.272 385.362 288.075 392.437 283.758 398.575C275.141 410.831 257.212 417.794 242.907 414.885C232 412.651 221.749 405.632 211.612 411.263C205.848 417.888 205.041 426.897 201.699 435.512C197.006 447.599 188.126 456.514 181.161 465.542C178.503 468.915 176.165 472.528 174.178 476.334C167.457 489.472 166.668 506.965 170.967 523.538C174.382 535.323 178.661 546.841 183.771 557.997C186.118 563.459 188.821 568.433 190.83 573.369C192.887 577.93 194.06 582.841 194.284 587.84C194.509 597.994 191.168 608.692 194.096 619.747C197.851 633.88 208.383 644.934 223.42 652.217C242.438 661.413 267.143 663.816 289.258 659.837C300.616 657.791 311.336 654.019 322.468 652.686C337.675 650.809 351.811 651.203 362.455 650.809C373.1 650.415 384.289 649.232 392.455 643.583Z" stroke="#E35A40" stroke-miterlimit="10"/>
<path d="M398.97 654.713C408.201 648.413 414.863 639.008 417.743 628.211C419.496 621.86 419.715 615.182 418.381 608.729C416.957 603.098 415.073 597.593 412.749 592.269C412.374 591.293 412.017 590.392 411.698 589.416C406.516 573.388 403.475 558.222 410.909 541.631C415.021 532.434 422.493 523.369 429.514 515.186C446.879 494.953 452.511 471.135 438.506 446.867C431.71 435.099 421.61 424.645 418.438 411.206C416.053 401.146 418.306 390.992 416.861 381.045C414.852 367.1 406.01 352.385 394.558 343.338C389.958 339.584 384.46 337.09 378.605 336.103C372.749 335.116 366.737 335.669 361.16 337.708C357.522 338.908 354.028 340.507 350.741 342.475C342.162 347.542 334.07 354.28 324.158 358.991C313.401 364.097 301.63 366.311 291.248 370.591C285.823 375.789 283.401 382.64 278.933 388.609C270.034 400.546 252.219 407.377 237.97 405.031C227.1 403.154 216.925 396.792 206.956 402.629C200.836 410.136 200.329 420.215 196.687 429.694C191.6 443.076 181.368 452.535 173.07 462.276C169.914 465.892 167.093 469.787 164.641 473.913C156.418 488.271 154.879 507.584 159.403 525.903C162.927 538.762 167.653 551.261 173.521 563.234C176.224 569.108 179.472 574.495 182.006 579.694C184.548 584.572 186.128 589.892 186.662 595.366C187.469 606.458 184.109 618.226 187.601 630.145C191.975 645.16 203.164 656.946 219.009 664.698C239.378 674.645 265.735 677.029 289.127 672.206C301.161 669.709 312.443 665.299 324.308 663.741C340.265 661.639 355.284 662.07 366.924 661.77C378.15 661.507 390.034 660.419 398.97 654.713Z" stroke="#E36140" stroke-miterlimit="10"/>
<path d="M405.484 665.843C415.533 659.531 423.114 649.965 426.961 638.741C429.249 632.105 429.748 624.984 428.406 618.095C427.261 611.92 424.445 606.233 422.155 600.753C421.723 599.739 421.291 598.763 420.934 597.787C414.796 581.158 409.558 564.773 416.617 547.017C420.559 537.089 428.462 527.441 436.028 518.864C455.534 496.754 461.841 470.441 445.997 443.789C438.337 430.857 426.979 419.389 423.581 404.656C421.028 393.526 423.769 382.321 422.38 371.266C420.503 356.082 410.985 339.96 398.538 330.181C386.579 320.797 373.907 320.496 362.23 324.794C358.277 326.246 354.499 328.134 350.966 330.425C341.786 336.319 333.225 343.976 322.487 349.194C310.848 354.825 297.969 356.964 286.555 361.281C281.036 366.311 278.37 372.955 273.77 378.774C264.59 390.373 246.868 397.242 232.694 395.29C221.862 393.807 211.762 388.064 201.962 394.127C195.467 402.516 195.26 413.646 191.355 424.006C185.874 438.646 174.272 448.65 164.641 459.085C160.979 462.934 157.68 467.112 154.785 471.567C145.042 487.032 142.77 508.26 147.482 528.324C150.768 542.325 156.869 556.139 162.914 568.583C166.011 574.87 169.785 580.501 172.845 586.132C175.907 591.321 177.922 597.06 178.777 603.024C180.185 615.054 176.806 627.873 180.842 640.711C185.817 656.533 197.738 669.165 214.372 677.386C236.092 688.084 264.083 690.43 288.77 684.762C301.442 681.834 313.307 676.766 325.923 674.964C342.612 672.581 358.494 673.088 371.148 672.881C383.219 672.6 395.797 671.586 405.484 665.843Z" stroke="#E26840" stroke-miterlimit="10"/>
<path d="M411.998 676.973C422.896 670.654 431.402 660.916 436.197 649.27C439.021 642.419 439.816 634.901 438.487 627.611C437.323 621.079 434.263 615.111 431.654 609.386C431.166 608.335 430.678 607.303 430.265 606.289C423.168 589.078 415.734 571.492 422.417 552.554C426.172 541.912 434.545 531.665 442.636 522.674C464.301 498.669 471.247 469.859 453.581 440.655C445.077 426.597 432.442 414.228 428.819 398.012C426.097 385.831 429.307 373.612 427.974 361.394C426.097 344.971 416.053 327.422 402.63 316.93C389.639 306.814 375.935 306.758 363.375 311.807C359.155 313.509 355.143 315.688 351.417 318.301C341.636 325.001 332.643 333.597 321.023 339.284C308.52 345.422 294.552 347.505 282.068 351.878C276.436 356.739 273.564 363.139 268.814 368.77C259.427 380.031 241.743 386.882 227.625 385.418C216.831 384.292 206.806 379.187 197.194 385.418C190.323 394.708 190.398 406.871 186.23 418.132C180.335 434.029 167.457 444.596 156.418 455.67C152.26 459.754 148.489 464.215 145.154 468.995C133.89 485.587 130.905 508.729 135.768 530.538C139.147 545.554 145.642 560.437 152.513 573.707C155.986 580.407 160.286 586.376 163.871 592.363C167.457 597.848 169.915 603.992 171.099 610.437C173.07 623.388 169.691 637.277 174.29 651.034C179.922 667.701 192.425 681.064 209.96 689.792C233.013 701.241 262.656 703.587 288.62 697.055C301.968 693.696 314.377 687.971 327.762 685.926C345.184 683.26 361.93 683.917 375.578 683.748C388.288 683.692 401.542 682.754 411.998 676.973Z" stroke="#E26E40" stroke-miterlimit="10"/>
<path d="M418.437 688.103C430.196 681.777 439.633 671.869 445.377 659.818C448.704 652.715 449.785 644.766 448.475 637.033C447.311 630.163 443.988 623.895 441.078 617.945C440.534 616.856 439.989 615.786 439.501 614.717C431.466 596.905 421.835 578.117 428.237 558.016C431.804 546.642 440.628 535.812 449.245 526.428C473.068 500.546 480.652 469.221 461.184 437.558C451.798 422.336 437.905 409.01 434.057 391.386C431.166 378.154 434.864 364.791 433.569 351.559C431.879 333.897 421.122 314.903 406.723 303.698C392.718 292.812 377.943 293.038 364.521 298.837C360.017 300.8 355.747 303.262 351.792 306.176C341.429 313.683 331.874 323.218 319.521 329.412C306.135 336.075 291.079 338.083 277.544 342.55C271.912 347.242 268.701 353.455 263.802 358.935C254.058 369.896 236.562 376.69 222.5 375.696C211.743 374.945 200.517 368.939 192.35 376.972C183.452 385.718 185.498 400.358 181.086 412.483C174.816 429.656 160.436 440.786 148.195 452.554C143.525 456.863 139.269 461.601 135.486 466.706C122.683 484.405 118.984 509.48 124.072 533.035C127.564 549.213 134.529 564.942 142.15 579.15C145.905 586.263 150.824 592.551 154.916 598.895C159.022 604.683 161.92 611.238 163.439 618.17C166.011 632.059 162.613 647.018 167.757 661.676C173.915 679.206 187.188 693.396 205.492 702.536C229.897 714.754 261.192 717.063 288.432 709.687C302.437 705.933 315.428 699.514 329.565 697.224C347.737 694.296 365.347 695.047 379.99 694.935C393.356 694.822 407.286 693.94 418.437 688.103Z" stroke="#E1753F" stroke-miterlimit="10"/>
<path d="M425.027 699.233C437.643 692.908 448.001 682.848 454.689 670.422C458.538 663.096 459.915 654.721 458.612 646.549C457.467 639.323 453.882 632.791 450.653 626.597C450.071 625.452 449.451 624.326 448.907 623.219C439.914 604.807 428.068 584.818 434.038 563.553C437.436 551.447 446.71 540.035 455.853 530.257C481.835 502.498 490.058 468.658 468.769 434.536C458.556 418.151 443.369 403.868 439.295 384.836C436.235 370.534 440.402 356.101 439.182 341.78C437.568 322.88 426.191 302.478 410.816 290.523C395.797 278.886 379.952 279.393 365.76 285.943C360.963 288.165 356.429 290.916 352.243 294.145C341.298 302.516 331.254 312.914 318.075 319.596C303.826 326.803 287.681 328.736 273.019 333.203C267.2 337.726 263.839 343.714 258.808 349.025C248.764 359.648 231.38 366.424 217.394 365.917C206.675 365.523 195.523 360.286 187.526 368.413C178.139 377.985 180.598 393.714 175.868 406.739C169.184 425.17 153.49 436.769 139.879 449.288C134.715 453.847 129.982 458.874 125.743 464.303C111.419 483.072 106.969 510.118 112.282 535.4C115.868 552.686 123.302 569.502 131.675 584.48C135.88 591.988 141.25 598.613 145.868 605.313C150.298 611.714 154.072 618.133 155.686 625.771C158.84 640.599 155.423 656.627 161.13 672.205C167.851 690.599 181.781 705.539 200.967 715.167C226.724 728.137 259.653 730.426 288.17 722.187C302.831 717.945 316.329 710.926 331.348 708.411C350.272 705.182 368.745 706.046 384.402 706.008C398.425 705.858 413.05 705.088 425.027 699.233Z" stroke="#E17B3F" stroke-miterlimit="10"/>
<path d="M431.579 710.362C445.093 703.997 456.386 693.726 464 680.877C468.368 673.328 470.043 664.52 468.75 655.895C467.586 648.388 463.756 641.518 460.208 635.081C459.57 633.879 458.894 632.735 458.331 631.571C448.4 612.558 434.339 591.368 439.933 568.939C443.143 556.101 452.887 544.108 462.461 533.936C490.621 504.318 499.463 467.944 476.353 431.364C465.277 413.834 448.832 398.575 444.532 378.135C441.303 362.783 445.94 347.261 444.777 331.852C443.275 311.713 431.26 289.884 414.908 277.215C398.857 264.828 381.98 265.598 366.83 272.899C361.742 275.352 356.949 278.374 352.543 281.908C341.016 291.086 330.466 302.441 316.48 309.592C301.367 317.306 284.133 319.183 268.457 323.687C262.544 328.06 258.958 333.822 253.796 338.965C243.451 349.269 226.18 355.857 212.25 355.969C201.568 356.063 190.511 351.371 182.663 359.723C172.845 370.159 175.661 386.976 170.648 400.883C163.571 420.591 146.525 432.79 131.581 445.929C125.919 450.727 120.704 456.029 115.999 461.769C100.192 481.739 95.0296 510.568 100.493 537.652C104.247 556.026 112.095 573.857 121.143 589.66C125.724 597.581 131.619 604.525 136.763 611.582C141.681 618.339 145.943 625.133 147.858 633.241C151.612 649.007 148.158 666.106 154.428 682.585C161.75 701.841 176.431 717.57 196.368 727.63C223.477 741.35 258.076 743.621 287.869 734.537C303.188 729.863 317.324 722.206 332.925 719.522C352.581 716.031 371.917 716.988 388.588 717.007C403.419 716.95 418.794 716.256 431.579 710.362Z" stroke="#E0803E" stroke-miterlimit="10"/>
<path d="M438.037 721.493C451.178 715.749 465.296 704.601 473.199 691.462C478.09 683.707 480.085 674.474 478.831 665.393C477.667 657.453 473.593 650.377 469.745 643.696C469.032 642.457 468.299 641.256 467.642 640.055C456.754 620.441 440.477 598.069 445.734 574.364C448.738 560.813 458.875 548.256 469.144 537.671C499.501 506.195 508.962 467.288 484.031 428.248C472.092 409.48 454.37 393.338 449.845 371.491C446.447 355.088 451.554 338.496 450.465 321.998C449.038 300.602 436.403 277.366 419.076 263.965C401.748 250.564 384.064 251.859 368.05 259.911C362.685 262.643 357.647 265.974 353.031 269.84C340.885 279.843 329.865 292.118 315.072 299.757C299.077 307.997 279.721 307.021 264.008 314.359C257.362 317.456 254.171 324.081 248.877 329.093C237.283 339.262 222.633 345.284 207.238 346.21C196.574 346.548 185.611 342.681 177.932 351.146C167.645 362.407 170.836 380.332 165.561 395.103C158.051 416.086 139.672 428.887 123.396 442.644C117.228 447.668 111.535 453.247 106.387 459.311C89.0595 480.407 83.1835 511.207 88.8342 540.017C92.5889 559.48 100.999 578.305 110.874 594.953C115.83 603.286 122.251 610.569 127.92 617.964C133.346 625.058 138.095 632.228 140.311 640.824C144.629 657.528 141.174 675.697 148.008 693.095C155.893 713.197 171.287 729.695 192.05 740.261C220.492 754.732 256.743 756.984 287.794 747.037C303.77 741.913 318.488 733.617 334.859 730.595C355.265 726.842 375.465 727.874 393.056 727.968C408.563 728.043 424.539 727.423 438.037 721.493Z" stroke="#E0863E" stroke-miterlimit="10"/>
<path d="M444.551 732.622C458.256 726.992 473.725 715.618 482.436 701.954C487.809 693.977 490.079 684.311 488.819 674.777C487.673 666.481 483.337 659.124 479.169 652.254C478.399 650.978 477.611 649.739 476.879 648.501C465.07 628.268 446.56 604.694 451.46 579.9C454.276 565.617 464.958 552.479 475.677 541.499C508.211 508.166 518.368 466.687 491.541 425.133C478.794 405.275 459.758 388.121 455.008 364.866C451.46 347.392 457.017 329.731 455.984 312.144C454.67 289.509 441.416 264.847 423.093 250.714C404.77 236.581 386.016 238.139 369.12 246.96C363.462 249.952 358.159 253.572 353.313 257.752C340.584 268.582 329.076 281.758 313.457 289.885C296.561 298.65 276.192 297.561 259.39 305.012C252.688 307.978 249.215 314.397 243.77 319.183C231.91 328.994 217.352 334.975 202.019 336.337C191.393 337.069 180.523 333.916 172.995 342.494C162.294 354.693 165.842 373.612 160.285 389.284C152.401 411.525 132.632 424.945 115.023 439.303C108.354 444.563 102.182 450.424 96.5876 456.815C77.8143 479.056 71.1497 511.751 76.9694 542.269C80.8931 562.915 89.7166 582.659 100.342 600.133C105.655 608.88 112.62 616.481 118.815 624.251C124.729 631.759 129.967 639.266 132.482 648.294C137.401 665.937 133.909 685.175 141.306 703.474C150.207 724.988 166.636 742.528 187.526 752.818C217.338 768.058 255.222 770.273 287.569 759.481C304.221 753.85 319.483 744.972 336.623 741.706C357.762 737.671 378.826 738.816 397.486 738.985C413.631 739.135 430.283 738.572 444.551 732.622Z" stroke="#DF8C3D" stroke-miterlimit="10"/>
<path d="M451.066 743.752C465.39 738.122 482.135 726.616 491.691 712.483C497.562 704.295 500.13 694.196 498.881 684.199C497.736 675.565 493.249 667.926 488.669 660.756C487.843 659.443 486.998 658.148 486.209 656.871C473.462 636.038 452.718 611.263 457.261 585.306C459.889 570.291 471.04 556.589 482.286 545.197C517.016 510.024 527.773 465.992 499.182 422.054C485.59 401.033 465.277 382.921 460.302 358.24C456.547 339.716 462.611 320.966 461.654 302.291C460.415 278.417 446.635 252.347 427.242 237.482C407.849 222.617 388.081 224.344 370.34 233.972C364.384 237.208 358.817 241.112 353.745 245.609C340.434 257.264 328.419 271.378 311.993 279.993C294.271 289.284 272.794 288.083 254.903 295.609C248.145 298.443 244.409 304.562 238.814 309.235C226.702 318.726 212.226 324.73 196.95 326.596C186.362 327.685 175.605 325.245 168.208 333.972C157.113 347.111 160.98 367.024 155.067 383.578C146.788 407.077 125.668 420.985 106.725 436.131C99.5549 441.62 92.9061 447.759 86.8631 454.468C66.5129 477.835 59.1912 512.445 65.1799 544.709C69.2162 566.349 78.509 587.183 89.8856 605.501C95.5176 614.66 103.027 622.599 109.767 630.708C116.206 638.497 121.932 646.398 124.785 655.952C130.267 674.533 126.756 694.841 134.735 714.135C144.178 736.461 161.289 754.679 182.983 765.505C214.127 781.496 253.664 783.692 287.287 772.037C304.596 766.031 320.46 756.459 338.332 752.949C360.221 748.632 382.13 749.871 401.804 750.096C418.7 750.209 436.028 749.721 451.066 743.752Z" stroke="#DF913C" stroke-miterlimit="10"/>
<path d="M457.58 754.882C472.599 749.252 490.546 737.615 500.928 722.975C507.304 714.591 510.184 704.063 508.962 693.602C507.817 684.612 502.974 676.71 498.168 669.202C497.285 667.832 496.291 666.519 495.54 665.186C481.854 643.752 458.856 617.795 463.062 590.655C465.502 574.927 477.123 560.625 488.894 548.838C525.821 511.938 537.179 465.354 506.672 418.92C492.198 396.754 470.627 377.629 465.371 351.596C461.485 332.002 467.962 312.182 467.079 292.437C465.953 267.306 451.441 239.884 431.166 224.231C410.891 208.578 389.865 210.68 371.316 220.984C365.08 224.481 359.261 228.675 353.97 233.484C340.059 245.965 327.556 260.999 310.303 270.102C291.718 279.899 269.208 278.623 250.229 286.225C243.433 288.927 239.396 294.783 233.671 299.363C221.315 308.526 206.903 314.525 191.693 316.836C181.143 318.3 170.517 316.593 163.233 325.433C151.763 339.434 155.93 360.418 149.829 377.854C141.156 402.648 118.703 417.118 98.39 432.865C90.7311 438.606 83.6059 445.026 77.101 452.047C55.2301 476.54 47.1764 513.065 53.3716 547.074C57.5017 569.803 67.2263 591.668 79.3914 610.888C85.4364 620.46 93.4901 628.718 100.699 637.164C107.645 645.31 113.84 653.587 116.957 663.609C123.039 683.129 119.491 704.507 128.033 724.627C138.002 747.824 155.839 766.759 178.402 778.099C210.842 794.991 252.068 797.018 286.987 784.518C304.953 778.08 321.361 767.851 339.984 764.098C362.624 759.518 385.415 760.832 406.085 761.151C423.788 761.301 441.773 760.888 457.58 754.882Z" stroke="#DE973B" stroke-miterlimit="10"/>
<path d="M464.094 766.012C479.695 760.381 498.956 748.613 510.183 733.561C516.641 724.89 520.433 714.792 519.025 703.061C517.88 693.677 512.773 685.531 507.761 677.874C506.822 676.466 505.884 675.096 504.945 673.726C490.339 651.672 465.108 624.533 468.975 596.229C471.209 579.769 483.299 564.904 495.596 552.704C534.719 513.872 546.678 464.716 514.369 415.861C499.05 392.531 476.203 372.505 470.777 345.008C466.722 324.363 473.669 303.473 472.843 282.621C471.81 256.251 456.679 227.347 435.409 211.037C414.138 194.726 392.08 196.96 372.631 208.052C366.1 211.799 360.022 216.283 354.514 221.416C340.021 234.723 327.011 250.658 308.97 260.248C289.502 270.59 265.942 269.258 245.836 276.878C238.964 279.487 234.665 285.061 228.789 289.415C216.179 298.219 201.826 304.216 186.7 307.002C176.187 308.878 165.673 307.827 158.54 316.818C146.675 331.739 151.162 353.736 144.76 372.054C135.692 398.106 111.869 413.139 90.3173 429.543C82.079 435.51 74.4003 442.213 67.3763 449.57C43.9848 475.189 35.2176 513.609 41.5818 549.382C45.9184 573.2 56.1124 596.06 69.0284 615.993C75.4301 625.959 84.047 634.555 91.7629 643.377C99.2722 651.841 105.899 660.494 109.316 671.004C115.98 691.462 112.395 713.929 121.519 734.95C132.016 759.008 150.561 778.663 173.971 790.543C207.763 808.092 250.641 810.175 286.836 796.83C305.46 789.961 322.506 779.094 341.824 775.077C365.196 770.235 388.851 771.643 410.515 772.018C428.857 772.393 447.517 772.037 464.094 766.012Z" stroke="#DD9C3A" stroke-miterlimit="10"/>
<path d="M470.609 777.142C486.829 771.511 507.386 759.631 519.419 744.09C526.347 735.137 530.477 724.664 529.069 712.502C527.942 702.817 522.573 694.334 517.148 686.451C516.153 684.987 515.139 683.579 514.163 682.153C498.618 659.499 471.153 631.158 474.739 601.691C476.785 584.499 489.344 569.071 502.167 556.458C543.468 515.786 556.046 464.078 521.954 412.745C505.79 388.346 481.666 367.287 476.015 338.383C471.791 316.686 479.207 294.708 478.456 272.692C477.517 245.083 461.748 214.753 439.501 197.711C417.255 180.669 394.107 183.165 373.795 195.008C366.964 199.004 360.621 203.778 354.89 209.235C339.871 223.349 326.317 240.222 307.45 250.301C287.099 261.168 262.525 259.817 241.292 267.437C234.384 269.914 229.784 275.226 223.777 279.412C210.926 287.871 196.616 293.873 181.575 297.111C171.099 299.306 160.717 298.987 153.696 308.147C141.494 324.006 146.187 347.017 139.579 366.199C130.192 393.526 104.923 409.123 81.9633 426.259C73.282 432.456 65.1768 439.422 57.7458 447.073C32.8711 473.838 23.3718 514.153 29.9237 551.672C34.2791 576.578 44.9424 600.471 58.5906 621.267C65.3677 631.646 74.4915 640.561 82.7518 649.739C90.6929 658.561 97.8643 667.588 101.525 678.587C108.772 699.965 105.167 723.501 114.854 745.441C125.902 770.344 145.167 790.698 169.428 803.099C204.572 821.418 249.083 823.482 286.555 809.274C305.854 801.954 323.407 790.505 343.532 786.189C367.75 781.159 392.155 782.623 414.889 783.035C433.926 783.467 453.281 783.186 470.609 777.142Z" stroke="#DDA138" stroke-miterlimit="10"/>
<path d="M477.123 788.272C494.019 782.641 515.796 770.629 528.674 754.619C536.184 745.404 540.558 734.556 539.169 721.943C538.024 711.902 532.41 703.174 526.684 695.01L523.568 690.599C507.085 667.307 477.367 637.802 480.54 607.134C482.417 589.229 495.427 573.237 508.7 560.212C552.235 517.719 565.376 463.44 529.463 409.648C512.435 384.029 487.054 362.069 481.197 331.758C476.785 308.991 484.67 285.943 483.975 262.933C483.13 234.066 466.741 202.309 443.519 184.554C420.296 166.799 396.041 169.539 374.865 182.095C367.763 186.346 361.164 191.383 355.19 197.11C339.514 212.125 325.528 229.862 305.854 240.429C284.64 251.803 259.033 250.47 236.674 258.053C229.709 260.418 224.847 265.466 218.689 269.483C205.599 277.592 191.322 283.608 176.374 287.313C165.936 289.885 155.724 290.316 148.778 299.569C136.256 316.349 141.268 340.354 134.322 360.437C124.447 389.021 97.9019 405.181 73.6092 422.918C64.4526 429.377 55.8895 436.638 48.0212 444.615C21.6259 472.505 11.4132 514.735 18.134 553.981C22.6021 579.994 33.7159 604.863 48.1713 626.522C55.324 637.314 64.9734 646.567 73.7593 656.083C82.1886 665.261 89.8669 674.645 93.8843 686.113C101.713 708.429 98.0708 733.035 108.321 755.877C119.906 781.662 139.883 802.766 164.998 815.749C201.493 834.819 247.6 836.846 286.405 821.793C306.361 814.042 324.496 801.898 345.372 797.394C370.228 792.007 395.609 793.64 419.282 794.109C438.994 794.559 459.025 794.297 477.123 788.272Z" stroke="#DCA637" stroke-miterlimit="10"/>
<path d="M483.618 799.402C501.134 793.771 524.206 781.646 537.93 765.149C545.833 755.652 550.639 744.503 549.194 731.365C548.049 720.986 542.191 711.939 536.052 703.568C534.926 702.029 533.8 700.528 532.711 699.026C515.289 675.115 483.337 644.428 486.172 612.596C487.824 593.977 501.322 577.404 515.195 563.966C561.115 519.652 574.8 462.82 537.085 406.551C519.194 379.768 492.536 356.852 486.397 325.132C481.816 301.315 490.152 277.197 489.551 253.079C488.781 223.049 471.773 189.809 447.574 171.322C423.375 152.834 398.031 155.8 375.972 169.126C368.576 173.645 361.723 178.998 355.547 185.079C339.27 200.845 324.796 219.576 304.315 230.612C282.218 242.531 255.504 241.217 232.094 248.762C225.072 251.014 219.928 255.781 213.639 259.629C200.318 267.391 186.06 273.421 171.212 277.572C160.811 280.519 150.711 281.664 143.915 291.067C131.074 308.803 136.293 333.785 129.084 354.749C118.815 384.611 90.9181 401.296 65.255 419.727C55.5891 426.405 46.5474 433.943 38.2402 442.25C10.3243 471.248 -0.60179 515.448 6.32557 556.383C10.8875 583.485 22.4706 609.367 37.6395 631.852C45.1488 643.114 55.3614 652.611 64.6542 662.521C73.6091 671.905 81.738 681.796 86.0559 693.752C94.4851 717.007 90.8055 742.701 101.638 766.444C113.753 793.079 134.449 814.886 160.417 828.381C198.264 848.201 246.08 850.228 286.104 834.312C306.755 826.129 325.416 813.347 347.024 808.58C372.649 802.949 398.876 804.582 423.544 805.201C444.063 805.558 464.77 805.464 483.618 799.402Z" stroke="#DBAB35" stroke-miterlimit="10"/>
<path d="M490.133 810.532C508.287 804.901 532.636 792.645 547.166 775.697C555.483 765.918 560.702 754.338 559.237 740.806C558.111 730.051 551.991 720.742 545.627 712.127C544.444 710.532 543.261 708.992 542.097 707.453C523.756 682.941 489.532 651.147 492.048 618.058C493.512 598.707 507.498 581.552 521.879 567.72C569.882 521.586 584.206 462.089 544.669 403.455C525.896 375.508 497.999 351.634 491.691 318.507C486.941 293.638 495.746 268.432 495.202 243.244C494.526 211.881 476.898 177.29 451.723 158.09C426.548 138.889 400.096 142.099 377.193 156.213C369.5 161.017 362.383 166.684 355.979 173.105C339.083 189.697 324.158 209.329 302.85 220.872C279.89 233.297 252.162 232.133 227.626 239.509C220.529 241.668 215.123 246.153 208.683 249.832C195.137 257.245 180.886 263.293 166.143 267.888C155.78 271.21 145.811 273.087 139.128 282.602C125.987 301.371 131.45 327.253 123.959 349.1C113.296 380.238 84.0096 397.486 57.0699 416.574C46.9064 423.5 37.3873 431.327 28.6283 439.96C-0.789513 470.103 -12.4477 516.143 -5.37018 558.879C-0.695618 587.033 11.3569 613.947 27.2767 637.277C35.1614 648.895 45.8998 658.786 55.6994 669.034C65.0861 678.869 73.7969 689.022 78.4152 701.466C87.4076 725.659 83.7092 752.424 95.1046 777.067C107.793 804.485 129.2 826.936 155.987 840.919C195.185 861.564 244.653 863.441 285.954 846.718C307.224 838.084 326.505 824.665 348.864 819.654C375.146 813.741 402.311 815.487 427.993 816.163C449.132 816.726 470.515 816.613 490.133 810.532Z" stroke="#DBAF33" stroke-miterlimit="10"/>
<path d="M496.647 821.643C515.42 816.012 541.046 803.662 556.421 786.226C565.301 776.166 570.764 764.21 569.375 750.227C568.23 739.135 561.866 729.582 555.182 720.685C553.943 719.052 552.704 717.457 551.428 715.881C532.148 690.749 495.708 657.697 497.849 623.519C499.106 603.436 513.581 585.719 528.487 571.473C578.649 523.519 593.574 461.544 552.197 400.358C532.598 371.266 503.387 346.416 496.872 311.882C491.954 285.943 501.228 259.667 500.759 233.39C500.177 200.789 481.985 164.79 455.703 144.839C429.42 124.888 401.992 128.379 378.225 143.187C370.25 148.229 362.875 154.16 356.241 160.868C338.782 178.285 323.332 198.837 301.217 210.868C277.394 223.818 248.652 222.655 222.97 230.012C215.817 232.058 210.147 236.243 203.558 239.791C189.78 246.83 175.528 252.901 160.905 257.959C150.58 261.713 140.761 264.228 134.172 273.894C120.786 293.544 126.418 320.478 118.646 343.207C107.589 375.602 76.9508 393.413 48.6782 413.177C38.0173 420.338 28.021 428.441 18.8098 437.389C-12.1286 468.658 -24.3688 516.593 -17.235 561.094C-12.3915 590.373 0.0740151 618.264 16.726 642.419C24.9862 654.45 36.2503 664.66 46.5756 675.265C56.5442 685.456 65.6493 695.911 70.5679 708.899C80.161 734.03 76.4252 761.883 88.4025 787.427C101.601 815.747 123.727 838.955 151.387 853.494C191.919 874.834 243.038 876.804 285.616 859.124C307.675 850.115 327.518 836.057 350.628 830.783C377.737 824.608 405.69 826.429 432.367 827.198C454.107 827.818 476.259 827.762 496.647 821.643Z" stroke="#DAB431" stroke-miterlimit="10"/>
<path d="M503.161 832.773C522.573 827.142 549.456 814.661 565.677 796.755C575.063 786.433 580.845 774.101 579.437 759.668C578.311 748.219 571.684 738.328 564.682 729.244C563.405 727.573 562.091 725.941 560.814 724.308C540.595 698.557 501.904 664.247 503.725 628.981C504.776 608.166 519.72 589.885 535.132 575.227C587.51 525.452 603.036 460.906 559.857 397.242C539.394 367.006 508.925 341.199 502.167 305.275C497.079 278.285 506.804 250.845 506.409 223.556C505.921 189.772 487.054 152.234 459.908 131.588C432.762 110.943 404.132 114.696 379.483 130.199C371.217 135.486 363.588 141.709 356.748 148.743C338.688 166.967 322.75 188.458 299.828 200.977C275.122 214.434 245.385 213.383 218.539 220.628C211.33 222.504 205.398 226.465 198.658 229.843C185.198 236.562 169.09 242.981 155.911 248.124C145.624 252.197 135.937 255.481 129.441 265.279C115.793 285.924 121.613 313.815 113.578 337.426C102.126 371.078 70.1174 389.434 40.5119 409.874C29.3408 417.281 18.8548 425.673 9.17919 434.949C-23.2611 467.344 -36.271 517.194 -28.9119 563.44C-23.9557 593.808 -11.0209 622.712 6.38198 647.693C15.0177 660.137 26.8074 670.685 37.6583 681.646C48.1151 692.175 57.727 703.061 62.946 716.462C73.1211 742.532 69.3289 771.455 81.8883 797.9C95.6296 827.08 118.477 851.009 146.994 866.087C188.896 888.141 241.649 890.018 285.522 871.643C308.05 862.146 328.532 847.45 352.393 841.932C380.234 835.475 409.051 837.39 436.742 838.178C459.269 838.891 482.004 838.91 503.161 832.773Z" stroke="#D9B82F" stroke-miterlimit="10"/>
<path d="M509.676 843.903C529.726 838.272 557.886 825.659 574.913 807.304C584.769 796.68 590.908 783.993 589.5 769.109C588.374 757.303 581.484 747.131 574.181 737.803C572.848 736.095 571.478 734.405 570.126 732.735C548.987 706.459 508.061 670.986 509.526 634.424C510.389 612.915 525.802 594.052 541.741 578.981C596.334 527.404 612.441 460.212 567.441 394.145C546.134 362.745 514.388 335.962 507.367 298.631C502.11 270.478 512.304 242.137 511.966 213.702C511.572 178.585 492.085 139.771 463.963 118.375C435.84 96.9786 406.103 100.939 380.609 117.249C372.056 122.796 364.164 129.3 357.086 136.637C338.444 155.706 321.999 178.116 298.27 191.067C272.7 205.068 241.95 204.205 213.977 211.224C206.693 213.101 200.479 216.686 193.608 219.896C179.866 226.296 163.853 232.621 150.749 238.308C140.499 242.737 130.962 246.735 124.579 256.683C110.686 278.285 116.675 307.133 108.34 331.626C96.4939 366.574 63.1337 385.474 32.1952 406.57C20.5259 414.204 9.56804 422.872 -0.545451 432.471C-34.5064 465.992 -48.2485 517.776 -40.6828 565.73C-35.6328 597.187 -22.2286 627.085 -4.07485 652.93C4.91758 665.768 17.2516 676.635 28.6282 687.953C39.5919 698.82 49.6732 710.081 55.1925 723.97C65.9497 750.978 62.1386 780.99 75.28 808.336C89.5351 838.388 113.096 863.048 142.47 878.663C185.648 901.504 240.091 903.419 285.26 884.106C308.501 874.158 329.508 858.843 354.12 853.062C382.712 846.343 412.317 848.332 441.059 849.308C464.338 849.984 487.767 850.04 509.676 843.903Z" stroke="#D8BC2C" stroke-miterlimit="10"/>
<path d="M516.19 855.033C536.841 849.402 566.315 836.714 584.168 817.833C594.513 806.966 600.971 793.884 599.563 778.531C598.455 766.387 591.302 756.008 583.699 746.38C582.291 744.616 580.864 742.889 579.456 741.181C557.36 714.173 514.181 677.63 515.327 639.886C516.002 617.645 531.885 598.219 548.349 582.735C605.157 529.337 621.846 459.63 575.026 391.049C552.855 358.503 519.813 330.707 512.642 292.005C507.235 262.895 517.861 233.39 517.617 203.792C517.298 167.437 497.192 127.196 468.093 105.068C438.994 82.9395 408.15 87.1625 381.736 104.223C372.896 110.031 364.746 116.825 357.443 124.475C338.219 144.37 321.286 167.643 296.73 181.176C270.297 195.703 238.533 194.933 209.415 201.821C202.056 203.567 195.579 206.889 188.577 209.929C174.553 216.01 158.652 222.298 145.605 228.454C135.392 233.278 126.024 237.951 119.716 248.049C105.618 270.571 111.738 300.451 103.14 325.827C90.8806 362.032 56.2063 381.495 23.8974 403.267C11.7273 411.13 0.29178 420.075 -10.27 429.994C-45.7328 464.66 -60.2259 518.339 -52.4725 568.057C-47.3286 600.602 -33.4364 631.515 -14.5316 658.148C-5.14496 671.398 7.69598 682.547 19.5983 694.278C31.05 705.539 41.6194 717.119 47.4579 731.477C58.7219 759.424 54.9672 790.505 68.653 818.753C83.4612 849.643 107.743 875.004 137.964 891.144C182.588 914.849 238.664 916.745 285.147 896.587C309.064 886.189 330.635 870.31 355.979 864.192C385.321 857.21 415.866 859.237 445.546 860.269C469.426 861.02 493.531 861.189 516.19 855.033Z" stroke="#D7C029" stroke-miterlimit="10"/>
<path d="M522.705 866.163C544.012 860.532 574.725 847.713 593.405 828.362C604.293 817.213 611.033 803.681 609.644 787.972C608.517 775.472 601.121 764.736 593.198 754.938C591.734 753.062 590.232 751.354 588.787 749.608C565.771 721.98 520.339 684.255 521.203 645.347C521.672 622.374 538.099 602.385 554.995 586.488C613.98 531.289 631.252 458.992 582.629 387.952C559.594 354.168 525.314 325.564 517.88 285.38C512.248 255.219 523.399 224.625 523.211 193.995C523.005 156.457 502.26 114.753 472.167 91.8923C442.073 69.0319 410.215 73.4988 382.937 91.3105C373.807 97.3732 365.399 104.457 357.875 112.425C338.069 133.071 320.647 157.377 295.285 171.359C267.969 186.375 235.21 185.811 204.929 192.512C197.632 194.425 190.505 196.936 183.621 200.019C169.316 205.781 153.584 212.05 140.536 218.676C130.361 223.856 121.143 229.243 114.929 239.49C100.624 263.083 106.876 293.807 98.0333 320.084C85.3801 357.621 49.2227 377.573 15.6936 400.001C3.00392 408.108 -8.93358 417.335 -19.9758 427.573C-56.9592 463.365 -72.1656 518.958 -64.2432 570.403C-58.9867 604.056 -44.6251 635.963 -24.9695 663.478C-15.2261 677.142 -1.82196 688.666 10.5872 700.697C22.5458 712.258 33.6033 724.251 39.7422 739.098C51.6632 767.983 47.7772 800.153 62.0637 829.301C77.3815 861.033 102.354 887.104 133.402 903.775C179.341 928.175 237.05 930.052 284.734 908.993C309.308 898.163 331.461 881.553 357.556 875.209C387.593 867.983 419.038 870.066 449.733 871.174C474.495 872.112 499.163 872.337 522.705 866.163Z" stroke="#D6C426" stroke-miterlimit="10"/>
<path d="M529.2 877.292C551.146 871.662 583.117 858.711 602.641 838.891C613.905 827.461 621.096 813.647 619.688 797.412C618.561 784.556 610.92 773.538 602.679 763.497C601.158 761.62 599.6 759.743 598.079 758.035C574.143 729.788 526.478 690.899 526.929 650.809C527.191 627.123 544.031 606.552 561.547 590.242C622.823 533.241 640.657 458.335 590.213 384.836C566.334 349.982 530.777 320.346 523.118 278.754C517.373 247.523 528.937 215.86 528.75 184.16C528.618 145.308 507.254 102.234 476.184 78.66C444.814 54.8611 412.111 59.7786 384.007 78.341C374.594 84.6604 365.933 92.0343 358.194 100.319C337.769 121.847 319.859 147.016 293.689 161.468C265.529 177.046 231.737 176.652 200.31 183.146C192.88 184.917 185.599 187.264 178.533 190.166C163.724 195.418 149.297 201.69 135.355 208.934C125.236 214.565 116.168 220.59 110.048 230.969C95.5551 255.575 101.9 287.276 92.7579 314.378C79.7104 353.117 42.2576 373.687 7.33925 396.81C-5.80208 405.538 -18.6618 414.622 -29.6817 425.208C-68.1858 462.126 -84.1244 519.634 -75.9955 572.824C-70.6451 607.584 -55.8142 640.392 -35.4076 668.827C-25.2888 682.904 -11.359 694.765 1.55709 707.134C14.0226 719.034 25.5682 731.421 32.0074 746.736C44.5105 776.56 40.5868 809.8 55.4553 839.848C71.3343 872.446 97.0488 899.238 128.972 916.444C176.243 941.538 235.604 943.396 284.584 921.53C309.796 910.269 332.55 893.058 359.377 886.489C390.221 878.982 422.474 881.159 454.163 882.341C479.563 883.204 505.001 883.467 529.2 877.292Z" stroke="#D5C822" stroke-miterlimit="10"/>
<path d="M535.714 888.422C558.242 882.792 591.546 869.653 611.915 849.439C623.705 837.728 631.177 823.538 629.769 806.834C628.661 793.696 620.758 782.341 612.197 772.056C610.62 770.179 609.024 768.302 607.429 766.425C582.61 737.502 532.561 697.506 532.748 656.233C532.748 631.834 550.132 610.681 568.174 593.958C631.646 535.155 650.063 457.697 597.798 381.702C573.073 345.703 536.24 315.091 528.337 272.092C522.423 239.809 534.382 207.058 534.4 174.268C534.288 134.178 512.379 89.6773 480.333 65.4093C447.93 40.8409 414.195 46.0398 385.228 65.4093C375.523 71.9901 366.598 79.6533 358.626 88.2509C337.618 110.605 319.202 136.693 292.224 151.633C263.163 167.718 228.395 167.568 195.842 173.799C188.278 175.433 180.838 177.597 173.577 180.274C158.709 185.38 143.146 191.536 130.267 199.156C120.186 205.106 111.287 211.862 105.242 222.41C90.5803 247.992 97.0383 280.594 87.6141 308.634C74.1724 348.631 35.3492 369.765 -0.902104 393.545C-14.5879 402.516 -27.8981 411.882 -39.3686 422.786C-79.3558 460.85 -96.0265 520.253 -87.7287 575.189C-82.2657 611.038 -66.9654 644.934 -45.8079 674.12C-35.3324 688.609 -20.8581 700.79 -7.41645 713.534C5.55592 725.772 17.5896 738.516 24.3292 754.338C37.4706 785.081 33.4531 819.409 48.9035 850.359C65.3117 883.804 91.7367 911.305 124.504 929.038C173.145 954.901 234.14 956.722 284.396 934.012C310.303 922.262 333.62 904.413 361.198 897.525C392.793 889.792 425.891 892.026 458.575 893.265C484.632 894.297 510.746 894.616 535.714 888.422Z" stroke="#D4CC1E" stroke-miterlimit="10"/>
<path d="M542.229 899.552C565.451 893.922 599.957 880.633 621.189 859.988C633.467 847.994 641.277 833.449 639.963 816.294C638.836 802.743 630.689 791.162 621.809 780.633C620.176 778.756 618.524 776.879 616.872 775.002C590.983 745.366 538.737 704.206 538.587 661.733C538.437 636.601 556.271 614.811 574.819 597.75C640.47 537.164 659.468 457.096 605.401 378.642C579.794 341.48 541.703 309.911 533.593 265.523C527.51 232.152 539.957 198.33 540.032 164.453C540.032 123.161 517.504 77.2152 484.444 52.1776C451.028 26.8584 416.222 32.3577 386.391 52.4028C376.401 59.2379 367.218 67.1842 359.02 76.089C337.431 99.2685 318.526 126.277 290.723 141.78C260.798 158.39 225.016 158.465 191.318 164.453C183.622 165.938 176.028 167.912 168.583 170.365C153.433 175.151 137.983 181.326 125.161 189.359C115.117 195.684 106.387 203.135 100.417 213.758C85.6052 240.354 92.1383 273.819 82.4325 302.798C68.5966 344.089 28.4217 365.748 -9.16248 390.185C-23.3363 399.42 -37.1535 409.048 -49.0558 420.215C-90.5636 459.405 -107.966 520.722 -99.4622 577.404C-93.8302 614.341 -78.1357 649.251 -56.2835 679.263C-45.4326 694.165 -30.4327 706.684 -16.4653 719.766C-2.94854 732.36 9.57328 745.498 16.6884 761.864C30.3741 793.546 26.3379 828.982 42.3891 860.813C59.3232 895.105 86.4776 923.302 120.111 941.519C170.085 968.152 232.751 969.954 284.265 946.381C310.735 934.275 334.633 915.806 362.944 908.787C395.29 900.772 429.251 903.156 462.949 904.432C489.776 905.389 516.491 905.709 542.229 899.552Z" stroke="#D3D018" stroke-miterlimit="10"/>
<path d="M548.743 910.663C572.623 905.033 608.367 891.707 630.407 870.479C643.154 858.242 651.227 843.321 649.913 825.697C648.805 811.789 640.376 799.946 631.139 789.173C629.45 787.296 627.723 785.25 626.033 783.317C599.3 753.193 544.838 710.813 544.313 667.175C543.956 641.331 562.279 619.052 581.334 601.484C649.349 539.153 668.874 456.458 612.985 375.545C586.534 337.238 547.166 304.693 538.831 258.897C532.579 224.475 545.495 189.565 545.627 154.618C545.739 112.031 522.536 64.6961 488.537 38.9452C454.088 12.8566 418.231 18.6374 387.537 39.4333C377.254 46.5282 367.807 54.7639 359.377 63.9829C337.205 87.9882 317.813 115.916 289.202 131.832C258.395 148.968 221.505 149.325 186.756 155.012C178.924 156.35 171.176 158.142 163.552 160.38C148.121 164.847 132.764 170.984 120.017 179.505C109.885 185.924 101.5 194.752 95.6116 205.2C80.5929 232.808 87.2574 267.268 77.2888 297.054C63.0398 339.603 21.5133 361.844 -17.4038 386.957C-32.0846 396.341 -46.3898 406.326 -58.7051 417.869C-101.734 458.185 -119.85 521.417 -111.177 579.844C-105.545 617.87 -89.2681 653.774 -66.6087 684.649C-55.3447 699.946 -39.8567 712.802 -25.3074 726.222C-11.34 739.173 1.66987 752.649 9.01024 769.39C23.2592 802.011 19.2042 838.516 35.8373 871.249C53.4655 906.102 80.8933 935.626 115.661 954.132C141.534 967.647 170.144 975.097 199.324 975.917C228.503 976.736 257.487 970.904 284.077 958.862C311.298 946.268 335.741 927.142 364.802 919.822C397.787 911.583 432.63 914.023 467.248 915.393C494.77 916.482 522.254 916.857 548.743 910.663Z" stroke="#D2D311" stroke-miterlimit="10"/>
<path d="M659.975 835.138C658.661 818.246 646.74 804.338 635.401 791.763C607.729 761.02 551.071 717.457 550.17 672.637C549.644 646.061 568.399 623.2 587.998 605.257C658.116 541.049 678.279 455.82 620.57 372.524C593.273 333.109 552.629 299.551 544.069 252.403C537.648 216.93 551.052 180.95 551.221 144.896C551.446 101.052 527.623 52.3278 492.63 25.8449C445.696 -9.81582 396.041 12.4815 359.79 52.0086C337.018 76.8398 317.137 105.687 287.7 122.091C256.03 139.753 218.107 140.372 182.25 145.778C146.393 151.183 107.626 164.659 90.7492 196.754C75.7305 225.357 82.3199 260.737 72.0697 291.424C51.9072 351.766 -21.8907 372.224 -68.4673 415.579C-112.998 457.021 -131.865 522.149 -122.91 582.322C-117.147 621.436 -100.382 658.354 -77.028 690.055C-54.256 720.911 -14.3251 741.951 1.23794 777.123C16.0876 810.682 12.0139 848.257 29.1914 881.91C47.4203 917.57 75.5991 947.92 111.118 966.876C137.645 980.773 167.002 988.415 196.94 989.215C226.877 990.015 256.601 983.953 283.833 971.493C311.692 958.468 336.717 938.685 366.548 931.14C427.054 915.825 493.512 936.02 555.333 921.944C593.949 913.01 663.805 884.387 659.975 835.138Z" stroke="#D1D706" stroke-miterlimit="10"/>
</svg>
