<svg width="185" height="99" viewBox="0 0 185 99" fill="none" xmlns="http://www.w3.org/2000/svg">
<path d="M108.366 40.9893H82.0625V47.7834H108.366V40.9893Z" fill="#FAFAFA"/>
<path d="M108.366 28.5874H82.0625V35.3815H108.366V28.5874Z" fill="#FAFAFA"/>
<path d="M108.366 53.4004H82.0625V60.1945H108.366V53.4004Z" fill="#FAFAFA"/>
<path d="M108.366 65.8022H82.0625V72.5964H108.366V65.8022Z" fill="#FAFAFA"/>
<path d="M35.7387 53.4004H9.43555V60.1945H35.7387V53.4004Z" fill="#FAFAFA"/>
<path d="M35.7387 65.8022H9.43555V72.5964H35.7387V65.8022Z" fill="#FAFAFA"/>
<path d="M108.366 78.2043H82.0625V84.9985H108.366V78.2043Z" fill="#FAFAFA"/>
<path d="M144.686 53.4004H118.383V60.1945H144.686V53.4004Z" fill="#FAFAFA"/>
<path d="M144.686 65.8022H118.383V72.5964H144.686V65.8022Z" fill="#FAFAFA"/>
<path d="M144.686 78.2043H118.383V84.9985H144.686V78.2043Z" fill="#FAFAFA"/>
<path d="M181.006 40.9893H154.703V47.7834H181.006V40.9893Z" fill="#FAFAFA"/>
<path d="M181.006 53.4004H154.703V60.1945H181.006V53.4004Z" fill="#FAFAFA"/>
<path d="M181.006 65.8022H154.703V72.5964H181.006V65.8022Z" fill="#FAFAFA"/>
<path d="M181.006 78.2043H154.703V84.9985H181.006V78.2043Z" fill="#FAFAFA"/>
<path d="M72.059 78.2043H45.7559V84.9985H72.059V78.2043Z" fill="#FAFAFA"/>
<path d="M35.7387 78.2043H9.43555V84.9985H35.7387V78.2043Z" fill="#FAFAFA"/>
</svg>
