<svg width="26" height="26" viewBox="0 0 26 26" fill="none" xmlns="http://www.w3.org/2000/svg">
<path d="M12.9999 9.6154C11.1362 9.6154 9.61531 11.1363 9.61531 13C9.61531 14.8636 11.1362 16.3845 12.9999 16.3845C14.8635 16.3845 16.3844 14.8636 16.3844 13C16.3844 11.1363 14.8635 9.6154 12.9999 9.6154ZM23.151 13C23.151 11.5984 23.1637 10.2095 23.085 8.81052C23.0063 7.18552 22.6356 5.74333 21.4473 4.55505C20.2565 3.36423 18.8169 2.99607 17.1919 2.91736C15.7903 2.83865 14.4014 2.85134 13.0024 2.85134C11.6009 2.85134 10.212 2.83865 8.81296 2.91736C7.18796 2.99607 5.74577 3.36677 4.55749 4.55505C3.36667 5.74587 2.99851 7.18552 2.9198 8.81052C2.84109 10.2121 2.85378 11.6009 2.85378 13C2.85378 14.399 2.84109 15.7904 2.9198 17.1894C2.99851 18.8144 3.36921 20.2566 4.55749 21.4449C5.74831 22.6357 7.18796 23.0039 8.81296 23.0826C10.2145 23.1613 11.6034 23.1486 13.0024 23.1486C14.404 23.1486 15.7928 23.1613 17.1919 23.0826C18.8169 23.0039 20.2591 22.6332 21.4473 21.4449C22.6382 20.2541 23.0063 18.8144 23.085 17.1894C23.1663 15.7904 23.151 14.4015 23.151 13ZM12.9999 18.2076C10.118 18.2076 7.79226 15.8818 7.79226 13C7.79226 10.1181 10.118 7.79236 12.9999 7.79236C15.8817 7.79236 18.2075 10.1181 18.2075 13C18.2075 15.8818 15.8817 18.2076 12.9999 18.2076ZM18.4208 8.79529C17.7479 8.79529 17.2046 8.25193 17.2046 7.57907C17.2046 6.90622 17.7479 6.36286 18.4208 6.36286C19.0936 6.36286 19.637 6.90622 19.637 7.57907C19.6372 7.73885 19.6059 7.89709 19.5448 8.04474C19.4838 8.19238 19.3942 8.32654 19.2812 8.43951C19.1682 8.55249 19.0341 8.64207 18.8864 8.70312C18.7388 8.76417 18.5805 8.79549 18.4208 8.79529Z" fill="#98A2B3"/>
</svg>
