<svg width="805" height="997" viewBox="0 0 805 997" fill="none" xmlns="http://www.w3.org/2000/svg">
<path d="M471.248 584.611C477.65 583.729 484.596 582.04 488.388 576.803C492.969 570.478 491.073 561.62 487.975 554.469C484.877 547.318 480.653 540.129 481.123 532.34C482.324 512.839 509.452 506.383 518.181 488.909C524.301 476.653 519.852 461.619 512.549 450.02C506.636 440.636 498.507 432.133 488.013 428.53C477.518 424.926 464.508 427.329 457.975 436.244C453.263 442.606 452.456 451.015 448.983 458.128C442.055 472.317 423.489 479.543 408.789 473.725C397.657 469.314 386.956 458.447 375.786 462.764C367.507 465.974 364.334 476.54 365.986 485.287C367.638 494.033 372.763 501.597 376.706 509.555C380.648 517.513 383.408 526.935 380.066 535.174C376.968 542.813 368.915 548.556 368.802 556.815C368.051 588.74 453.038 587.145 471.248 584.611Z" stroke="#E6273D" stroke-miterlimit="10"/>
<path d="M494.902 587.84C500.178 581.59 499.446 572.543 497.211 564.904C496.01 560.738 494.339 556.477 492.931 552.048C491.638 548.421 490.867 544.63 490.641 540.786C490.641 540.092 490.641 539.397 490.641 538.722C491.429 526.222 501.154 518.189 510.954 508.692C516.248 503.913 520.893 498.461 524.771 492.475C527.281 488.459 528.86 483.932 529.393 479.226C529.926 474.52 529.398 469.755 527.85 465.279C526.216 460.418 523.701 455.764 521.88 450.827C520.509 447.074 519.702 443.432 518.125 439.979C515.019 433.304 510.496 427.386 504.871 422.637C500.393 418.819 494.95 416.306 489.139 415.373C487.216 415.054 485.267 414.922 483.319 414.979C478.118 415.227 472.988 416.284 468.113 418.113C462.575 420.084 457.055 422.449 453.338 426.672C448.157 432.565 447.481 441.068 443.952 448.012C436.705 462.089 418.27 469.258 403.608 463.965C392.513 459.93 381.568 448.95 370.886 454.243C366.868 456.12 364.709 460.212 362.738 464.416C359.969 469.926 358.244 475.902 357.651 482.04C357.51 484.243 357.566 486.454 357.82 488.646C358.627 496.154 361.574 504.056 364.878 511.939C367.74 518.189 369.815 524.771 371.055 531.533C371.6 534.814 371.6 538.162 371.055 541.443C370.416 544.403 369.381 547.263 367.976 549.945C365.273 555.407 361.8 560.831 362.156 567.194C362.701 577.123 369.985 584.274 380.93 589.154C393.17 594.653 409.671 597.093 425.404 597.393C433.457 597.524 441.323 597.093 448.701 596.886C460.209 596.567 470.028 596.173 475.66 595.572C482.718 594.878 490.416 593.245 494.902 587.84Z" stroke="#E6323E" stroke-miterlimit="10"/>
<path d="M501.417 599.101C507.386 592.926 507.837 583.673 506.467 575.565C505.571 570.851 504.418 566.189 503.012 561.601C501.692 557.66 500.731 553.608 500.14 549.495C500.14 548.744 500.009 548.031 499.99 547.318C499.746 534.18 507.387 525.02 516.773 514.378C522.026 508.722 526.911 502.735 531.398 496.454C538.381 486.038 540.409 474.326 535.453 462.408C532.956 456.402 529.182 450.771 527.136 444.427C525.597 439.66 525.259 434.893 523.757 430.369C520.765 422.244 515.674 415.056 509.001 409.536C503.729 405.123 497.102 402.652 490.228 402.535C488.027 402.476 485.827 402.633 483.657 403.004C477.784 404.214 472.048 406.013 466.536 408.372C460.134 410.85 453.394 412.877 448.739 417.437C443.219 422.918 442.562 431.439 438.808 438.215C431.298 451.766 412.957 458.86 398.407 454.055C387.331 450.302 376.199 439.641 365.967 445.553C361.386 448.181 359.697 453.455 357.444 458.522C354.346 465.542 350.93 472.28 349.278 478.643C348.628 481.102 348.2 483.614 348.001 486.15C347.325 494.821 349.522 504.6 353.032 514.303C356.004 521.691 358.512 529.257 360.542 536.957C361.431 540.557 361.891 544.248 361.912 547.956C361.779 551.267 361.146 554.538 360.035 557.659C357.913 564.06 354.497 570.535 355.341 577.836C356.599 588.609 364.484 596.605 376.255 601.898C389.847 608.11 407.982 610.569 425.065 610.006C433.795 609.705 442.224 608.598 450.334 608.129C462.593 607.509 473.275 607.284 479.902 606.702C487.731 605.989 496.198 604.45 501.417 599.101Z" stroke="#E53A3E" stroke-miterlimit="10"/>
<path d="M507.931 610.193C514.558 604.093 516.229 594.634 515.703 586.075C515.33 580.995 514.449 575.965 513.075 571.06C511.892 566.631 510.372 562.37 509.639 558.072C509.508 557.284 509.377 556.514 509.32 555.764C508.044 542.062 513.601 531.702 522.593 519.859C527.38 513.534 533.144 506.908 537.987 500.227C546.998 487.802 549.814 473.706 543.037 459.329C539.677 452.16 534.645 445.572 532.374 437.82C530.684 431.983 530.947 426.146 529.351 420.534C526.437 411.059 520.78 402.66 513.094 396.398C507.072 391.369 499.301 388.933 491.486 389.622C489 389.816 486.54 390.263 484.145 390.955C477.671 393.099 471.321 395.606 465.128 398.462C457.863 401.465 449.809 403.136 444.327 408.015C438.564 413.158 437.813 421.623 433.908 428.267C426.136 441.405 407.888 448.594 393.395 444.202C382.356 440.898 371.111 430.538 361.236 436.919C356.092 440.242 354.891 446.773 352.375 452.723C348.883 461.019 344.096 468.282 341.111 475.339C339.958 478.009 339.053 480.78 338.408 483.616C336.23 493.432 337.657 505.125 341.374 516.462C344.171 525.002 347.795 533.823 350.198 542.062C351.457 546.015 352.393 550.064 352.995 554.168C353.423 557.8 353.252 561.478 352.488 565.054C350.948 572.393 347.569 579.938 348.921 588.14C350.798 599.758 359.34 608.448 371.918 614.304C386.937 621.267 406.649 623.688 424.934 622.299C434.321 621.567 443.332 619.784 452.193 619.146C465.184 618.208 476.73 618.132 484.37 617.607C492.875 617.1 501.98 615.655 507.931 610.193Z" stroke="#E5433E" stroke-miterlimit="10"/>
<path d="M514.427 621.323C521.729 615.28 524.62 605.633 524.958 596.605C525.091 591.157 524.459 585.717 523.081 580.445C521.917 575.659 520.115 571.06 519.082 566.575C518.895 565.749 518.707 564.942 518.575 564.135C516.323 549.852 519.758 538.309 528.338 525.264C532.975 518.226 539.132 510.963 544.539 503.924C555.596 489.529 559.145 473.031 550.584 456.176C546.36 447.862 540.052 440.298 537.574 431.139C535.697 424.251 536.466 417.325 534.908 410.624C532.058 399.797 525.831 390.159 517.13 383.109C513.749 380.312 509.799 378.285 505.555 377.17C501.311 376.055 496.875 375.879 492.556 376.653C489.781 377.091 487.062 377.827 484.446 378.849C477.631 381.439 471.041 385.418 463.551 388.665C455.403 392.212 446.129 393.526 439.709 398.744C433.758 403.567 432.856 411.882 428.82 418.432C420.766 431.326 402.538 438.402 388.195 434.498C377.194 431.57 365.873 421.679 356.28 428.436C350.648 432.471 349.878 440.204 347.081 447.036C343.176 456.608 337.019 464.416 332.72 472.149C331.061 475.054 329.679 478.108 328.589 481.27C324.835 492.213 325.567 505.82 329.491 518.808C332.382 528.436 336.493 538.252 339.647 547.355C341.279 551.658 342.683 556.043 343.852 560.493C344.823 564.445 345.09 568.537 344.641 572.581C343.702 580.858 340.342 589.473 342.2 598.594C344.753 611.038 353.915 620.516 367.319 626.86C383.633 634.555 405.034 636.995 424.615 634.724C434.64 633.542 444.233 631.102 453.845 630.238C467.568 629 479.996 629.075 488.632 628.587C497.944 628.211 507.762 626.86 514.427 621.323Z" stroke="#E44B3F" stroke-miterlimit="10"/>
<path d="M520.941 632.453C528.901 626.466 533.012 616.631 534.214 607.134C534.888 601.364 534.552 595.521 533.219 589.867C532.036 584.743 529.99 579.9 528.638 575.152C528.394 574.27 528.15 573.406 527.962 572.562C524.714 557.697 526.085 544.953 534.195 530.726C538.663 522.975 545.252 515.092 551.204 507.678C564.345 491.312 568.606 472.393 558.225 453.061C553.137 443.676 545.572 435.08 542.868 424.513C540.822 416.574 542.098 408.56 540.559 400.79C537.79 388.612 530.998 377.722 521.279 369.877C517.503 366.758 513.046 364.572 508.267 363.496C503.489 362.42 498.525 362.484 493.776 363.684C490.716 364.377 487.739 365.397 484.896 366.724C477.387 370.159 470.384 375.058 462.087 378.793C453.075 382.847 442.619 383.841 435.222 389.378C429.139 393.92 428.051 402.197 423.864 408.504C415.529 421.079 397.581 428.079 383.126 424.682C372.181 422.092 360.805 412.783 351.53 419.84C345.279 424.626 345.054 433.56 341.975 441.274C337.695 452.104 330.166 460.474 324.534 468.883C322.354 472.018 320.468 475.348 318.902 478.83C313.702 490.917 313.627 506.421 317.757 521.248C320.742 531.965 325.267 542.776 329.228 552.723C331.105 557.772 333.377 562.408 334.86 566.988C336.358 571.253 337.064 575.757 336.944 580.276C336.587 589.491 333.189 599.139 335.629 609.199C338.783 622.506 348.621 632.772 362.832 639.567C380.498 648.013 403.551 650.434 424.409 647.318C435.109 645.704 445.247 642.588 455.629 641.5C470.084 639.979 483.376 640.167 493.025 639.754C502.674 639.341 513.525 638.046 520.941 632.453Z" stroke="#E4533F" stroke-miterlimit="10"/>
<path d="M527.455 643.583C536.053 637.633 541.423 627.63 543.45 617.663C544.678 611.6 544.621 605.347 543.281 599.307C541.869 594.014 540.152 588.806 538.137 583.711C537.837 582.791 537.536 581.834 537.292 580.989C533.068 565.542 532.205 551.578 540.015 536.188C544.295 527.704 551.279 519.296 557.812 511.432C573.056 493.132 578.012 471.754 565.809 449.964C559.877 439.359 551.034 429.862 548.106 417.888C545.891 408.879 547.655 399.814 546.229 390.936C543.492 377.4 536.074 365.259 525.277 356.645C521.095 353.205 516.12 350.861 510.803 349.825C505.487 348.79 499.996 349.095 494.827 350.714C491.478 351.661 488.243 352.97 485.178 354.618C477.18 358.86 469.596 364.678 460.472 368.92C450.597 373.5 439.821 375.771 430.585 379.994C425.272 385.362 423.075 392.437 418.758 398.575C410.141 410.831 392.212 417.794 377.907 414.885C367 412.651 356.749 405.632 346.612 411.263C340.848 417.888 340.041 426.897 336.699 435.512C332.006 447.599 323.126 456.514 316.161 465.542C313.503 468.915 311.165 472.528 309.178 476.334C302.457 489.472 301.668 506.965 305.967 523.538C309.382 535.323 313.661 546.841 318.771 557.997C321.118 563.459 323.821 568.433 325.83 573.369C327.887 577.93 329.06 582.841 329.284 587.84C329.509 597.994 326.168 608.692 329.096 619.747C332.851 633.88 343.383 644.934 358.42 652.217C377.438 661.413 402.143 663.816 424.258 659.837C435.616 657.791 446.336 654.019 457.468 652.686C472.675 650.809 486.811 651.203 497.455 650.809C508.1 650.415 519.289 649.232 527.455 643.583Z" stroke="#E35A40" stroke-miterlimit="10"/>
<path d="M533.97 654.713C543.201 648.413 549.863 639.008 552.743 628.211C554.496 621.86 554.715 615.182 553.381 608.729C551.957 603.098 550.073 597.593 547.749 592.269C547.374 591.293 547.017 590.392 546.698 589.416C541.516 573.388 538.475 558.222 545.909 541.631C550.021 532.434 557.493 523.369 564.514 515.186C581.879 494.953 587.511 471.135 573.506 446.867C566.71 435.099 556.61 424.645 553.438 411.206C551.053 401.146 553.306 390.992 551.861 381.045C549.852 367.1 541.01 352.385 529.558 343.338C524.958 339.584 519.46 337.09 513.605 336.103C507.749 335.116 501.737 335.669 496.16 337.708C492.522 338.908 489.028 340.507 485.741 342.475C477.162 347.542 469.07 354.28 459.158 358.991C448.401 364.097 436.63 366.311 426.248 370.591C420.823 375.789 418.401 382.64 413.933 388.609C405.034 400.546 387.219 407.377 372.97 405.031C362.1 403.154 351.925 396.792 341.956 402.629C335.836 410.136 335.329 420.215 331.687 429.694C326.6 443.076 316.368 452.535 308.07 462.276C304.914 465.892 302.093 469.787 299.641 473.913C291.418 488.271 289.879 507.584 294.403 525.903C297.927 538.762 302.653 551.261 308.521 563.234C311.224 569.108 314.472 574.495 317.006 579.694C319.548 584.572 321.128 589.892 321.662 595.366C322.469 606.458 319.109 618.226 322.601 630.145C326.975 645.16 338.164 656.946 354.009 664.698C374.378 674.645 400.735 677.029 424.127 672.206C436.161 669.709 447.443 665.299 459.308 663.741C475.265 661.639 490.284 662.07 501.924 661.77C513.15 661.507 525.034 660.419 533.97 654.713Z" stroke="#E36140" stroke-miterlimit="10"/>
<path d="M540.484 665.843C550.533 659.531 558.114 649.965 561.961 638.741C564.249 632.105 564.748 624.984 563.406 618.095C562.261 611.92 559.445 606.233 557.155 600.753C556.723 599.739 556.291 598.763 555.934 597.787C549.796 581.158 544.558 564.773 551.617 547.017C555.559 537.089 563.462 527.441 571.028 518.864C590.534 496.754 596.841 470.441 580.997 443.789C573.337 430.857 561.979 419.389 558.581 404.656C556.028 393.526 558.769 382.321 557.38 371.266C555.503 356.082 545.985 339.96 533.538 330.181C521.579 320.797 508.907 320.496 497.23 324.794C493.277 326.246 489.499 328.134 485.966 330.425C476.786 336.319 468.225 343.976 457.487 349.194C445.848 354.825 432.969 356.964 421.555 361.281C416.036 366.311 413.37 372.955 408.77 378.774C399.59 390.373 381.868 397.242 367.694 395.29C356.862 393.807 346.762 388.064 336.962 394.127C330.467 402.516 330.26 413.646 326.355 424.006C320.874 438.646 309.272 448.65 299.641 459.085C295.979 462.934 292.68 467.112 289.785 471.567C280.042 487.032 277.77 508.26 282.482 528.324C285.768 542.325 291.869 556.139 297.914 568.583C301.011 574.87 304.785 580.501 307.845 586.132C310.907 591.321 312.922 597.06 313.777 603.024C315.185 615.054 311.806 627.873 315.842 640.711C320.817 656.533 332.738 669.165 349.372 677.386C371.092 688.084 399.083 690.43 423.77 684.762C436.442 681.834 448.307 676.766 460.923 674.964C477.612 672.581 493.494 673.088 506.148 672.881C518.219 672.6 530.797 671.586 540.484 665.843Z" stroke="#E26840" stroke-miterlimit="10"/>
<path d="M546.998 676.973C557.896 670.654 566.402 660.916 571.197 649.27C574.021 642.419 574.816 634.901 573.487 627.611C572.323 621.079 569.263 615.111 566.654 609.386C566.166 608.335 565.678 607.303 565.265 606.289C558.168 589.078 550.734 571.492 557.417 552.554C561.172 541.912 569.545 531.665 577.636 522.674C599.301 498.669 606.247 469.859 588.581 440.655C580.077 426.597 567.442 414.228 563.819 398.012C561.097 385.831 564.307 373.612 562.974 361.394C561.097 344.971 551.053 327.422 537.63 316.93C524.639 306.814 510.935 306.758 498.375 311.807C494.155 313.509 490.143 315.688 486.417 318.301C476.636 325.001 467.643 333.597 456.023 339.284C443.52 345.422 429.552 347.505 417.068 351.878C411.436 356.739 408.564 363.139 403.814 368.77C394.427 380.031 376.743 386.882 362.625 385.418C351.831 384.292 341.806 379.187 332.194 385.418C325.323 394.708 325.398 406.871 321.23 418.132C315.335 434.029 302.457 444.596 291.418 455.67C287.26 459.754 283.489 464.215 280.154 468.995C268.89 485.587 265.905 508.729 270.768 530.538C274.147 545.554 280.642 560.437 287.513 573.707C290.986 580.407 295.286 586.376 298.871 592.363C302.457 597.848 304.915 603.992 306.099 610.437C308.07 623.388 304.691 637.277 309.29 651.034C314.922 667.701 327.425 681.064 344.96 689.792C368.013 701.241 397.656 703.587 423.62 697.055C436.968 693.696 449.377 687.971 462.762 685.926C480.184 683.26 496.93 683.917 510.578 683.748C523.288 683.692 536.542 682.754 546.998 676.973Z" stroke="#E26E40" stroke-miterlimit="10"/>
<path d="M553.437 688.103C565.196 681.777 574.633 671.869 580.377 659.818C583.704 652.715 584.785 644.766 583.475 637.033C582.311 630.163 578.988 623.895 576.078 617.945C575.534 616.856 574.989 615.786 574.501 614.717C566.466 596.905 556.835 578.117 563.237 558.016C566.804 546.642 575.628 535.812 584.245 526.428C608.068 500.546 615.652 469.221 596.184 437.558C586.798 422.336 572.905 409.01 569.057 391.386C566.166 378.154 569.864 364.791 568.569 351.559C566.879 333.897 556.122 314.903 541.723 303.698C527.718 292.812 512.943 293.038 499.521 298.837C495.017 300.8 490.747 303.262 486.792 306.176C476.429 313.683 466.874 323.218 454.521 329.412C441.135 336.075 426.079 338.083 412.544 342.55C406.912 347.242 403.701 353.455 398.802 358.935C389.058 369.896 371.562 376.69 357.5 375.696C346.743 374.945 335.517 368.939 327.35 376.972C318.452 385.718 320.498 400.358 316.086 412.483C309.816 429.656 295.436 440.786 283.195 452.554C278.525 456.863 274.269 461.601 270.486 466.706C257.683 484.405 253.984 509.48 259.072 533.035C262.564 549.213 269.529 564.942 277.15 579.15C280.905 586.263 285.824 592.551 289.916 598.895C294.022 604.683 296.92 611.238 298.439 618.17C301.011 632.059 297.613 647.018 302.757 661.676C308.915 679.206 322.188 693.396 340.492 702.536C364.897 714.754 396.192 717.063 423.432 709.687C437.437 705.933 450.428 699.514 464.565 697.224C482.737 694.296 500.347 695.047 514.99 694.935C528.356 694.822 542.286 693.94 553.437 688.103Z" stroke="#E1753F" stroke-miterlimit="10"/>
<path d="M560.027 699.233C572.643 692.908 583.001 682.848 589.689 670.422C593.538 663.096 594.915 654.721 593.612 646.549C592.467 639.323 588.882 632.791 585.653 626.597C585.071 625.452 584.451 624.326 583.907 623.219C574.914 604.807 563.068 584.818 569.038 563.553C572.436 551.447 581.71 540.035 590.853 530.257C616.835 502.498 625.058 468.658 603.769 434.536C593.556 418.151 578.369 403.868 574.295 384.836C571.235 370.534 575.402 356.101 574.182 341.78C572.568 322.88 561.191 302.478 545.816 290.523C530.797 278.886 514.952 279.393 500.76 285.943C495.963 288.165 491.429 290.916 487.243 294.145C476.298 302.516 466.254 312.914 453.075 319.596C438.826 326.803 422.681 328.736 408.019 333.203C402.2 337.726 398.839 343.714 393.808 349.025C383.764 359.648 366.38 366.424 352.394 365.917C341.675 365.523 330.523 360.286 322.526 368.413C313.139 377.985 315.598 393.714 310.868 406.739C304.184 425.17 288.49 436.769 274.879 449.288C269.715 453.847 264.982 458.874 260.743 464.303C246.419 483.072 241.969 510.118 247.282 535.4C250.868 552.686 258.302 569.502 266.675 584.48C270.88 591.988 276.25 598.613 280.868 605.313C285.298 611.714 289.072 618.133 290.686 625.771C293.84 640.599 290.423 656.627 296.13 672.205C302.851 690.599 316.781 705.539 335.967 715.167C361.724 728.137 394.653 730.426 423.17 722.187C437.831 717.945 451.329 710.926 466.348 708.411C485.272 705.182 503.745 706.046 519.402 706.008C533.425 705.858 548.05 705.088 560.027 699.233Z" stroke="#E17B3F" stroke-miterlimit="10"/>
<path d="M566.579 710.362C580.093 703.997 591.386 693.726 599 680.877C603.368 673.328 605.043 664.52 603.75 655.895C602.586 648.388 598.756 641.518 595.208 635.081C594.57 633.879 593.894 632.735 593.331 631.571C583.4 612.558 569.339 591.368 574.933 568.939C578.143 556.101 587.887 544.108 597.461 533.936C625.621 504.318 634.463 467.944 611.353 431.364C600.277 413.834 583.832 398.575 579.532 378.135C576.303 362.783 580.94 347.261 579.777 331.852C578.275 311.713 566.26 289.884 549.908 277.215C533.857 264.828 516.98 265.598 501.83 272.899C496.742 275.352 491.949 278.374 487.543 281.908C476.016 291.086 465.466 302.441 451.48 309.592C436.367 317.306 419.133 319.183 403.457 323.687C397.544 328.06 393.958 333.822 388.796 338.965C378.451 349.269 361.18 355.857 347.25 355.969C336.568 356.063 325.511 351.371 317.663 359.723C307.845 370.159 310.661 386.976 305.648 400.883C298.571 420.591 281.525 432.79 266.581 445.929C260.919 450.727 255.704 456.029 250.999 461.769C235.192 481.739 230.03 510.568 235.493 537.652C239.247 556.026 247.095 573.857 256.143 589.66C260.724 597.581 266.619 604.525 271.763 611.582C276.681 618.339 280.943 625.133 282.858 633.241C286.612 649.007 283.158 666.106 289.428 682.585C296.75 701.841 311.431 717.57 331.368 727.63C358.477 741.35 393.076 743.621 422.869 734.537C438.188 729.863 452.324 722.206 467.925 719.522C487.581 716.031 506.917 716.988 523.588 717.007C538.419 716.95 553.794 716.256 566.579 710.362Z" stroke="#E0803E" stroke-miterlimit="10"/>
<path d="M573.037 721.493C586.178 715.749 600.296 704.601 608.199 691.462C613.09 683.707 615.085 674.474 613.831 665.393C612.667 657.453 608.593 650.377 604.745 643.696C604.032 642.457 603.299 641.256 602.642 640.055C591.754 620.441 575.477 598.069 580.734 574.364C583.738 560.813 593.875 548.256 604.144 537.671C634.501 506.195 643.962 467.288 619.031 428.248C607.092 409.48 589.37 393.338 584.845 371.491C581.447 355.088 586.554 338.496 585.465 321.998C584.038 300.602 571.403 277.366 554.076 263.965C536.748 250.564 519.064 251.859 503.05 259.911C497.685 262.643 492.647 265.974 488.031 269.84C475.885 279.843 464.865 292.118 450.072 299.757C434.077 307.997 414.721 307.021 399.008 314.359C392.362 317.456 389.171 324.081 383.877 329.093C372.283 339.262 357.633 345.284 342.238 346.21C331.574 346.548 320.611 342.681 312.932 351.146C302.645 362.407 305.836 380.332 300.561 395.103C293.051 416.086 274.672 428.887 258.396 442.644C252.228 447.668 246.535 453.247 241.387 459.311C224.06 480.407 218.183 511.207 223.834 540.017C227.589 559.48 235.999 578.305 245.874 594.953C250.83 603.286 257.251 610.569 262.92 617.964C268.346 625.058 273.095 632.228 275.311 640.824C279.629 657.528 276.174 675.697 283.008 693.095C290.893 713.197 306.287 729.695 327.05 740.261C355.492 754.732 391.743 756.984 422.794 747.037C438.77 741.913 453.488 733.617 469.859 730.595C490.265 726.842 510.465 727.874 528.056 727.968C543.563 728.043 559.539 727.423 573.037 721.493Z" stroke="#E0863E" stroke-miterlimit="10"/>
<path d="M579.551 732.622C593.256 726.992 608.725 715.618 617.436 701.954C622.809 693.977 625.079 684.311 623.819 674.777C622.673 666.481 618.337 659.124 614.169 652.254C613.399 650.978 612.611 649.739 611.879 648.501C600.07 628.268 581.56 604.694 586.46 579.9C589.276 565.617 599.958 552.479 610.677 541.499C643.211 508.166 653.368 466.687 626.541 425.133C613.794 405.275 594.758 388.121 590.008 364.866C586.46 347.392 592.017 329.731 590.984 312.144C589.67 289.509 576.416 264.847 558.093 250.714C539.77 236.581 521.016 238.139 504.12 246.96C498.462 249.952 493.159 253.572 488.313 257.752C475.584 268.582 464.076 281.758 448.457 289.885C431.561 298.65 411.192 297.561 394.39 305.012C387.688 307.978 384.215 314.397 378.77 319.183C366.91 328.994 352.352 334.975 337.019 336.337C326.393 337.069 315.523 333.916 307.995 342.494C297.294 354.693 300.842 373.612 295.285 389.284C287.401 411.525 267.632 424.945 250.023 439.303C243.354 444.563 237.182 450.424 231.588 456.815C212.814 479.056 206.15 511.751 211.969 542.269C215.893 562.915 224.717 582.659 235.342 600.133C240.655 608.88 247.62 616.481 253.815 624.251C259.729 631.759 264.967 639.266 267.482 648.294C272.401 665.937 268.909 685.175 276.306 703.474C285.207 724.988 301.636 742.528 322.526 752.818C352.338 768.058 390.222 770.273 422.569 759.481C439.221 753.85 454.483 744.972 471.623 741.706C492.762 737.671 513.826 738.816 532.486 738.985C548.631 739.135 565.283 738.572 579.551 732.622Z" stroke="#DF8C3D" stroke-miterlimit="10"/>
<path d="M586.066 743.752C600.39 738.122 617.135 726.616 626.691 712.483C632.562 704.295 635.13 694.196 633.881 684.199C632.736 675.565 628.249 667.926 623.669 660.756C622.843 659.443 621.998 658.148 621.209 656.871C608.462 636.038 587.718 611.263 592.261 585.306C594.889 570.291 606.04 556.589 617.286 545.197C652.016 510.024 662.773 465.992 634.182 422.054C620.59 401.033 600.277 382.921 595.302 358.24C591.547 339.716 597.611 320.966 596.654 302.291C595.415 278.417 581.635 252.347 562.242 237.482C542.849 222.617 523.081 224.344 505.34 233.972C499.384 237.208 493.817 241.112 488.745 245.609C475.434 257.264 463.419 271.378 446.993 279.993C429.271 289.284 407.794 288.083 389.903 295.609C383.145 298.443 379.409 304.562 373.814 309.235C361.702 318.726 347.226 324.73 331.95 326.596C321.362 327.685 310.605 325.245 303.208 333.972C292.113 347.111 295.98 367.024 290.067 383.578C281.788 407.077 260.668 420.985 241.725 436.131C234.555 441.62 227.906 447.759 221.863 454.468C201.513 477.835 194.191 512.445 200.18 544.709C204.216 566.349 213.509 587.183 224.886 605.501C230.518 614.66 238.027 622.599 244.767 630.708C251.206 638.497 256.932 646.398 259.785 655.952C265.267 674.533 261.756 694.841 269.735 714.135C279.178 736.461 296.289 754.679 317.983 765.505C349.127 781.496 388.664 783.692 422.287 772.037C439.596 766.031 455.46 756.459 473.332 752.949C495.221 748.632 517.13 749.871 536.804 750.096C553.7 750.209 571.028 749.721 586.066 743.752Z" stroke="#DF913C" stroke-miterlimit="10"/>
<path d="M592.58 754.882C607.599 749.252 625.546 737.615 635.928 722.975C642.304 714.591 645.184 704.063 643.962 693.602C642.817 684.612 637.974 676.71 633.168 669.202C632.285 667.832 631.291 666.519 630.54 665.186C616.854 643.752 593.856 617.795 598.062 590.655C600.502 574.927 612.123 560.625 623.894 548.838C660.821 511.938 672.179 465.354 641.672 418.92C627.198 396.754 605.627 377.629 600.371 351.596C596.485 332.002 602.962 312.182 602.079 292.437C600.953 267.306 586.441 239.884 566.166 224.231C545.891 208.578 524.865 210.68 506.316 220.984C500.08 224.481 494.261 228.675 488.97 233.484C475.059 245.965 462.556 260.999 445.303 270.102C426.718 279.899 404.208 278.623 385.229 286.225C378.433 288.927 374.396 294.783 368.671 299.363C356.315 308.526 341.903 314.525 326.693 316.836C316.143 318.3 305.517 316.593 298.233 325.433C286.763 339.434 290.93 360.418 284.829 377.854C276.156 402.648 253.703 417.118 233.39 432.865C225.731 438.606 218.606 445.026 212.101 452.047C190.23 476.54 182.176 513.065 188.372 547.074C192.502 569.803 202.226 591.668 214.391 610.888C220.436 620.46 228.49 628.718 235.699 637.164C242.645 645.31 248.84 653.587 251.957 663.609C258.039 683.129 254.491 704.507 263.033 724.627C273.002 747.824 290.839 766.759 313.402 778.099C345.842 794.991 387.068 797.018 421.987 784.518C439.953 778.08 456.361 767.851 474.984 764.098C497.624 759.518 520.415 760.832 541.085 761.151C558.788 761.301 576.773 760.888 592.58 754.882Z" stroke="#DE973B" stroke-miterlimit="10"/>
<path d="M599.094 766.012C614.695 760.381 633.956 748.613 645.183 733.561C651.641 724.89 655.433 714.792 654.025 703.061C652.88 693.677 647.773 685.531 642.761 677.874C641.822 676.466 640.884 675.096 639.945 673.726C625.339 651.672 600.108 624.533 603.975 596.229C606.209 579.769 618.299 564.904 630.596 552.704C669.719 513.872 681.678 464.716 649.369 415.861C634.05 392.531 611.203 372.505 605.777 345.008C601.722 324.363 608.669 303.473 607.843 282.621C606.81 256.251 591.679 227.347 570.409 211.037C549.138 194.726 527.08 196.96 507.631 208.052C501.1 211.799 495.022 216.283 489.514 221.416C475.021 234.723 462.011 250.658 443.97 260.248C424.502 270.59 400.942 269.258 380.836 276.878C373.964 279.487 369.665 285.061 363.789 289.415C351.179 298.219 336.826 304.216 321.7 307.002C311.187 308.878 300.673 307.827 293.54 316.818C281.675 331.739 286.162 353.736 279.76 372.054C270.692 398.106 246.869 413.139 225.317 429.543C217.079 435.51 209.4 442.213 202.376 449.57C178.985 475.189 170.218 513.609 176.582 549.382C180.918 573.2 191.112 596.06 204.028 615.993C210.43 625.959 219.047 634.555 226.763 643.377C234.272 651.841 240.899 660.494 244.316 671.004C250.98 691.462 247.395 713.929 256.519 734.95C267.016 759.008 285.561 778.663 308.971 790.543C342.763 808.092 385.641 810.175 421.836 796.83C440.46 789.961 457.506 779.094 476.824 775.077C500.196 770.235 523.851 771.643 545.515 772.018C563.857 772.393 582.517 772.037 599.094 766.012Z" stroke="#DD9C3A" stroke-miterlimit="10"/>
<path d="M605.609 777.142C621.829 771.511 642.386 759.631 654.419 744.09C661.347 735.137 665.477 724.664 664.069 712.502C662.942 702.817 657.573 694.334 652.148 686.451C651.153 684.987 650.139 683.579 649.163 682.153C633.618 659.499 606.153 631.158 609.739 601.691C611.785 584.499 624.344 569.071 637.167 556.458C678.468 515.786 691.046 464.078 656.954 412.745C640.79 388.346 616.666 367.287 611.015 338.383C606.791 316.686 614.207 294.708 613.456 272.692C612.517 245.083 596.748 214.753 574.501 197.711C552.255 180.669 529.107 183.165 508.795 195.008C501.964 199.004 495.621 203.778 489.89 209.235C474.871 223.349 461.317 240.222 442.45 250.301C422.099 261.168 397.525 259.817 376.292 267.437C369.384 269.914 364.784 275.226 358.777 279.412C345.926 287.871 331.616 293.873 316.575 297.111C306.099 299.306 295.717 298.987 288.696 308.147C276.494 324.006 281.187 347.017 274.579 366.199C265.192 393.526 239.923 409.123 216.963 426.259C208.282 432.456 200.177 439.422 192.746 447.073C167.871 473.838 158.372 514.153 164.924 551.672C169.279 576.578 179.942 600.471 193.591 621.267C200.368 631.646 209.492 640.561 217.752 649.739C225.693 658.561 232.864 667.588 236.525 678.587C243.772 699.965 240.167 723.501 249.854 745.441C260.902 770.344 280.167 790.698 304.428 803.099C339.572 821.418 384.083 823.482 421.555 809.274C440.854 801.954 458.407 790.505 478.532 786.189C502.75 781.159 527.155 782.623 549.889 783.035C568.926 783.467 588.281 783.186 605.609 777.142Z" stroke="#DDA138" stroke-miterlimit="10"/>
<path d="M612.123 788.272C629.019 782.641 650.796 770.629 663.674 754.619C671.184 745.404 675.558 734.556 674.169 721.943C673.024 711.902 667.41 703.174 661.684 695.01L658.568 690.599C642.085 667.307 612.367 637.802 615.54 607.134C617.417 589.229 630.427 573.237 643.7 560.212C687.235 517.719 700.376 463.44 664.463 409.648C647.435 384.029 622.054 362.069 616.197 331.758C611.785 308.991 619.67 285.943 618.975 262.933C618.13 234.066 601.741 202.309 578.519 184.554C555.296 166.799 531.041 169.539 509.865 182.095C502.763 186.346 496.164 191.383 490.19 197.11C474.514 212.125 460.528 229.862 440.854 240.429C419.64 251.803 394.033 250.47 371.674 258.053C364.709 260.418 359.847 265.466 353.689 269.483C340.599 277.592 326.322 283.608 311.374 287.313C300.936 289.885 290.724 290.316 283.778 299.569C271.256 316.349 276.268 340.354 269.322 360.437C259.447 389.021 232.902 405.181 208.609 422.918C199.453 429.377 190.89 436.638 183.021 444.615C156.626 472.505 146.413 514.735 153.134 553.981C157.602 579.994 168.716 604.863 183.171 626.522C190.324 637.314 199.973 646.567 208.759 656.083C217.189 665.261 224.867 674.645 228.884 686.113C236.713 708.429 233.071 733.035 243.321 755.877C254.906 781.662 274.883 802.766 299.998 815.749C336.493 834.819 382.6 836.846 421.405 821.793C441.361 814.042 459.496 801.898 480.372 797.394C505.228 792.007 530.609 793.64 554.282 794.109C573.994 794.559 594.025 794.297 612.123 788.272Z" stroke="#DCA637" stroke-miterlimit="10"/>
<path d="M618.618 799.402C636.134 793.771 659.206 781.646 672.93 765.149C680.833 755.652 685.639 744.503 684.194 731.365C683.049 720.986 677.191 711.939 671.052 703.568C669.926 702.029 668.8 700.528 667.711 699.026C650.289 675.115 618.337 644.428 621.172 612.596C622.824 593.977 636.322 577.404 650.195 563.966C696.115 519.652 709.8 462.82 672.085 406.551C654.194 379.768 627.536 356.852 621.397 325.132C616.816 301.315 625.152 277.197 624.551 253.079C623.781 223.049 606.773 189.809 582.574 171.322C558.375 152.834 533.031 155.8 510.972 169.126C503.576 173.645 496.723 178.998 490.547 185.079C474.27 200.845 459.796 219.576 439.315 230.612C417.218 242.531 390.504 241.217 367.094 248.762C360.072 251.014 354.928 255.781 348.639 259.629C335.318 267.391 321.06 273.421 306.212 277.572C295.811 280.519 285.711 281.664 278.915 291.067C266.074 308.803 271.293 333.785 264.084 354.749C253.815 384.611 225.918 401.296 200.255 419.727C190.589 426.405 181.547 433.943 173.24 442.25C145.324 471.248 134.398 515.448 141.326 556.383C145.887 583.485 157.471 609.367 172.639 631.852C180.149 643.114 190.361 652.611 199.654 662.521C208.609 671.905 216.738 681.796 221.056 693.752C229.485 717.007 225.806 742.701 236.638 766.444C248.753 793.079 269.449 814.886 295.417 828.381C333.264 848.201 381.08 850.228 421.104 834.312C441.755 826.129 460.416 813.347 482.024 808.58C507.649 802.949 533.876 804.582 558.544 805.201C579.063 805.558 599.77 805.464 618.618 799.402Z" stroke="#DBAB35" stroke-miterlimit="10"/>
<path d="M625.133 810.532C643.287 804.901 667.636 792.645 682.166 775.697C690.483 765.918 695.702 754.338 694.237 740.806C693.111 730.051 686.991 720.742 680.627 712.127C679.444 710.532 678.261 708.992 677.097 707.453C658.756 682.941 624.532 651.147 627.048 618.058C628.512 598.707 642.498 581.552 656.879 567.72C704.882 521.586 719.206 462.089 679.669 403.455C660.896 375.508 632.999 351.634 626.691 318.507C621.941 293.638 630.746 268.432 630.202 243.244C629.526 211.881 611.898 177.29 586.723 158.09C561.548 138.889 535.096 142.099 512.193 156.213C504.5 161.017 497.383 166.684 490.979 173.105C474.083 189.697 459.158 209.329 437.85 220.872C414.89 233.297 387.162 232.133 362.626 239.509C355.529 241.668 350.123 246.153 343.683 249.832C330.137 257.245 315.886 263.293 301.143 267.888C290.78 271.21 280.811 273.087 274.128 282.602C260.987 301.371 266.45 327.253 258.959 349.1C248.296 380.238 219.01 397.486 192.07 416.574C181.906 423.5 172.387 431.327 163.628 439.96C134.21 470.103 122.552 516.143 129.63 558.879C134.304 587.033 146.357 613.947 162.277 637.277C170.161 648.895 180.9 658.786 190.699 669.034C200.086 678.869 208.797 689.022 213.415 701.466C222.408 725.659 218.709 752.424 230.105 777.067C242.793 804.485 264.2 826.936 290.987 840.919C330.185 861.564 379.653 863.441 420.954 846.718C442.224 838.084 461.505 824.665 483.864 819.654C510.146 813.741 537.311 815.487 562.993 816.163C584.132 816.726 605.515 816.613 625.133 810.532Z" stroke="#DBAF33" stroke-miterlimit="10"/>
<path d="M631.647 821.643C650.42 816.012 676.046 803.662 691.421 786.226C700.301 776.166 705.764 764.21 704.375 750.227C703.23 739.135 696.866 729.582 690.182 720.685C688.943 719.052 687.704 717.457 686.428 715.881C667.148 690.749 630.708 657.697 632.849 623.519C634.106 603.436 648.581 585.719 663.487 571.473C713.649 523.519 728.574 461.544 687.197 400.358C667.598 371.266 638.387 346.416 631.872 311.882C626.954 285.943 636.228 259.667 635.759 233.39C635.177 200.789 616.985 164.79 590.703 144.839C564.42 124.888 536.992 128.379 513.225 143.187C505.25 148.229 497.875 154.16 491.241 160.868C473.782 178.285 458.332 198.837 436.217 210.868C412.394 223.818 383.652 222.655 357.97 230.012C350.817 232.058 345.147 236.243 338.558 239.791C324.78 246.83 310.528 252.901 295.905 257.959C285.58 261.713 275.761 264.228 269.172 273.894C255.786 293.544 261.418 320.478 253.646 343.207C242.589 375.602 211.951 393.413 183.678 413.177C173.017 420.338 163.021 428.441 153.81 437.389C122.871 468.658 110.631 516.593 117.765 561.094C122.609 590.373 135.074 618.264 151.726 642.419C159.986 654.45 171.25 664.66 181.576 675.265C191.544 685.456 200.649 695.911 205.568 708.899C215.161 734.03 211.425 761.883 223.403 787.427C236.601 815.747 258.727 838.955 286.387 853.494C326.919 874.834 378.038 876.804 420.616 859.124C442.675 850.115 462.518 836.057 485.628 830.783C512.737 824.608 540.69 826.429 567.367 827.198C589.107 827.818 611.259 827.762 631.647 821.643Z" stroke="#DAB431" stroke-miterlimit="10"/>
<path d="M638.161 832.773C657.573 827.142 684.456 814.661 700.677 796.755C710.063 786.433 715.845 774.101 714.437 759.668C713.311 748.219 706.684 738.328 699.682 729.244C698.405 727.573 697.091 725.941 695.814 724.308C675.595 698.557 636.904 664.247 638.725 628.981C639.776 608.166 654.72 589.885 670.132 575.227C722.51 525.452 738.036 460.906 694.857 397.242C674.394 367.006 643.925 341.199 637.167 305.275C632.079 278.285 641.804 250.845 641.409 223.556C640.921 189.772 622.054 152.234 594.908 131.588C567.762 110.943 539.132 114.696 514.483 130.199C506.217 135.486 498.588 141.709 491.748 148.743C473.688 166.967 457.75 188.458 434.828 200.977C410.122 214.434 380.385 213.383 353.539 220.628C346.33 222.504 340.398 226.465 333.658 229.843C320.198 236.562 304.09 242.981 290.911 248.124C280.624 252.197 270.937 255.481 264.441 265.279C250.793 285.924 256.613 313.815 248.578 337.426C237.126 371.078 205.117 389.434 175.512 409.874C164.341 417.281 153.855 425.673 144.179 434.949C111.739 467.344 98.729 517.194 106.088 563.44C111.044 593.808 123.979 622.712 141.382 647.693C150.018 660.137 161.807 670.685 172.658 681.646C183.115 692.175 192.727 703.061 197.946 716.462C208.121 742.532 204.329 771.455 216.888 797.9C230.63 827.08 253.477 851.009 281.994 866.087C323.896 888.141 376.649 890.018 420.522 871.643C443.05 862.146 463.532 847.45 487.393 841.932C515.234 835.475 544.051 837.39 571.742 838.178C594.269 838.891 617.004 838.91 638.161 832.773Z" stroke="#D9B82F" stroke-miterlimit="10"/>
<path d="M644.676 843.903C664.726 838.272 692.886 825.659 709.913 807.304C719.769 796.68 725.908 783.993 724.5 769.109C723.374 757.303 716.484 747.131 709.181 737.803C707.848 736.095 706.478 734.405 705.126 732.735C683.987 706.459 643.061 670.986 644.526 634.424C645.389 612.915 660.802 594.052 676.741 578.981C731.334 527.404 747.441 460.212 702.441 394.145C681.134 362.745 649.388 335.962 642.367 298.631C637.11 270.478 647.304 242.137 646.966 213.702C646.572 178.585 627.085 139.771 598.963 118.375C570.84 96.9786 541.103 100.939 515.609 117.249C507.056 122.796 499.164 129.3 492.086 136.637C473.444 155.706 456.999 178.116 433.27 191.067C407.7 205.068 376.95 204.205 348.977 211.224C341.693 213.101 335.479 216.686 328.608 219.896C314.866 226.296 298.853 232.621 285.749 238.308C275.499 242.737 265.962 246.735 259.579 256.683C245.686 278.285 251.675 307.133 243.34 331.626C231.494 366.574 198.134 385.474 167.195 406.57C155.526 414.204 144.568 422.872 134.455 432.471C100.494 465.992 86.7515 517.776 94.3172 565.73C99.3672 597.187 112.771 627.085 130.925 652.93C139.918 665.768 152.252 676.635 163.628 687.953C174.592 698.82 184.673 710.081 190.193 723.97C200.95 750.978 197.139 780.99 210.28 808.336C224.535 838.388 248.096 863.048 277.47 878.663C320.648 901.504 375.091 903.419 420.26 884.106C443.501 874.158 464.508 858.843 489.12 853.062C517.712 846.343 547.317 848.332 576.059 849.308C599.338 849.984 622.767 850.04 644.676 843.903Z" stroke="#D8BC2C" stroke-miterlimit="10"/>
<path d="M651.19 855.033C671.841 849.402 701.315 836.714 719.168 817.833C729.513 806.966 735.971 793.884 734.563 778.531C733.455 766.387 726.302 756.008 718.699 746.38C717.291 744.616 715.864 742.889 714.456 741.181C692.36 714.173 649.181 677.63 650.327 639.886C651.002 617.645 666.885 598.219 683.349 582.735C740.157 529.337 756.846 459.63 710.026 391.049C687.855 358.503 654.813 330.707 647.642 292.005C642.235 262.895 652.861 233.39 652.617 203.792C652.298 167.437 632.192 127.196 603.093 105.068C573.994 82.9395 543.15 87.1625 516.736 104.223C507.896 110.031 499.746 116.825 492.443 124.475C473.219 144.37 456.286 167.643 431.73 181.176C405.297 195.703 373.533 194.933 344.415 201.821C337.056 203.567 330.579 206.889 323.577 209.929C309.553 216.01 293.652 222.298 280.605 228.454C270.392 233.278 261.024 237.951 254.716 248.049C240.618 270.571 246.738 300.451 238.14 325.827C225.881 362.032 191.206 381.495 158.897 403.267C146.727 411.13 135.292 420.075 124.73 429.994C89.2672 464.66 74.7741 518.339 82.5275 568.057C87.6714 600.602 101.564 631.515 120.468 658.148C129.855 671.398 142.696 682.547 154.598 694.278C166.05 705.539 176.619 717.119 182.458 731.477C193.722 759.424 189.967 790.505 203.653 818.753C218.461 849.643 242.743 875.004 272.964 891.144C317.588 914.849 373.664 916.745 420.147 896.587C444.064 886.189 465.635 870.31 490.979 864.192C520.321 857.21 550.866 859.237 580.546 860.269C604.426 861.02 628.531 861.189 651.19 855.033Z" stroke="#D7C029" stroke-miterlimit="10"/>
<path d="M657.705 866.163C679.012 860.532 709.725 847.713 728.405 828.362C739.293 817.213 746.033 803.681 744.644 787.972C743.517 775.472 736.121 764.736 728.198 754.938C726.734 753.062 725.232 751.354 723.787 749.608C700.771 721.98 655.339 684.255 656.203 645.347C656.672 622.374 673.099 602.385 689.995 586.488C748.98 531.289 766.252 458.992 717.629 387.952C694.594 354.168 660.314 325.564 652.88 285.38C647.248 255.219 658.399 224.625 658.211 193.995C658.005 156.457 637.26 114.753 607.167 91.8923C577.073 69.0319 545.215 73.4988 517.937 91.3105C508.807 97.3732 500.399 104.457 492.875 112.425C473.069 133.071 455.647 157.377 430.285 171.359C402.969 186.375 370.21 185.811 339.929 192.512C332.632 194.425 325.505 196.936 318.621 200.019C304.316 205.781 288.584 212.05 275.536 218.676C265.361 223.856 256.143 229.243 249.929 239.49C235.624 263.083 241.876 293.807 233.033 320.084C220.38 357.621 184.223 377.573 150.694 400.001C138.004 408.108 126.066 417.335 115.024 427.573C78.0408 463.365 62.8344 518.958 70.7568 570.403C76.0133 604.056 90.3749 635.963 110.031 663.478C119.774 677.142 133.178 688.666 145.587 700.697C157.546 712.258 168.603 724.251 174.742 739.098C186.663 767.983 182.777 800.153 197.064 829.301C212.381 861.033 237.354 887.104 268.402 903.775C314.341 928.175 372.05 930.052 419.734 908.993C444.308 898.163 466.461 881.553 492.556 875.209C522.593 867.983 554.038 870.066 584.733 871.174C609.495 872.112 634.163 872.337 657.705 866.163Z" stroke="#D6C426" stroke-miterlimit="10"/>
<path d="M664.2 877.292C686.146 871.662 718.117 858.711 737.641 838.891C748.905 827.461 756.096 813.647 754.688 797.412C753.561 784.556 745.92 773.538 737.679 763.497C736.158 761.62 734.6 759.743 733.079 758.035C709.143 729.788 661.478 690.899 661.929 650.809C662.191 627.123 679.031 606.552 696.547 590.242C757.823 533.241 775.657 458.335 725.213 384.836C701.334 349.982 665.777 320.346 658.118 278.754C652.373 247.523 663.937 215.86 663.75 184.16C663.618 145.308 642.254 102.234 611.184 78.66C579.814 54.8611 547.111 59.7786 519.007 78.341C509.594 84.6604 500.933 92.0343 493.194 100.319C472.769 121.847 454.859 147.016 428.689 161.468C400.529 177.046 366.737 176.652 335.31 183.146C327.88 184.917 320.599 187.264 313.533 190.166C298.724 195.418 284.297 201.69 270.355 208.934C260.236 214.565 251.168 220.59 245.048 230.969C230.555 255.575 236.9 287.276 227.758 314.378C214.71 353.117 177.258 373.687 142.339 396.81C129.198 405.538 116.338 414.622 105.318 425.208C66.8142 462.126 50.8756 519.634 59.0045 572.824C64.3549 607.584 79.1858 640.392 99.5924 668.827C109.711 682.904 123.641 694.765 136.557 707.134C149.023 719.034 160.568 731.421 167.007 746.736C179.51 776.56 175.587 809.8 190.455 839.848C206.334 872.446 232.049 899.238 263.972 916.444C311.243 941.538 370.604 943.396 419.584 921.53C444.796 910.269 467.55 893.058 494.377 886.489C525.221 878.982 557.474 881.159 589.163 882.341C614.563 883.204 640.001 883.467 664.2 877.292Z" stroke="#D5C822" stroke-miterlimit="10"/>
<path d="M670.714 888.422C693.242 882.792 726.546 869.653 746.915 849.439C758.705 837.728 766.177 823.538 764.769 806.834C763.661 793.696 755.758 782.341 747.197 772.056C745.62 770.179 744.024 768.302 742.429 766.425C717.61 737.502 667.561 697.506 667.748 656.233C667.748 631.834 685.132 610.681 703.174 593.958C766.646 535.155 785.063 457.697 732.798 381.702C708.073 345.703 671.24 315.091 663.337 272.092C657.423 239.809 669.382 207.058 669.4 174.268C669.288 134.178 647.379 89.6773 615.333 65.4093C582.93 40.8409 549.195 46.0398 520.228 65.4093C510.523 71.9901 501.598 79.6533 493.626 88.2509C472.618 110.605 454.202 136.693 427.224 151.633C398.163 167.718 363.395 167.568 330.842 173.799C323.278 175.433 315.838 177.597 308.577 180.274C293.709 185.38 278.146 191.536 265.267 199.156C255.186 205.106 246.287 211.862 240.242 222.41C225.58 247.992 232.038 280.594 222.614 308.634C209.172 348.631 170.349 369.765 134.098 393.545C120.412 402.516 107.102 411.882 95.6314 422.786C55.6442 460.85 38.9735 520.253 47.2713 575.189C52.7343 611.038 68.0346 644.934 89.1921 674.12C99.6676 688.609 114.142 700.79 127.584 713.534C140.556 725.772 152.59 738.516 159.329 754.338C172.471 785.081 168.453 819.409 183.904 850.359C200.312 883.804 226.737 911.305 259.504 929.038C308.145 954.901 369.14 956.722 419.396 934.012C445.303 922.262 468.62 904.413 496.198 897.525C527.793 889.792 560.891 892.026 593.575 893.265C619.632 894.297 645.746 894.616 670.714 888.422Z" stroke="#D4CC1E" stroke-miterlimit="10"/>
<path d="M677.229 899.552C700.451 893.922 734.957 880.633 756.189 859.988C768.467 847.994 776.277 833.449 774.963 816.294C773.836 802.743 765.689 791.162 756.809 780.633C755.176 778.756 753.524 776.879 751.872 775.002C725.983 745.366 673.737 704.206 673.587 661.733C673.437 636.601 691.271 614.811 709.819 597.75C775.47 537.164 794.468 457.096 740.401 378.642C714.794 341.48 676.703 309.911 668.593 265.523C662.51 232.152 674.957 198.33 675.032 164.453C675.032 123.161 652.504 77.2152 619.444 52.1776C586.028 26.8584 551.222 32.3577 521.391 52.4028C511.401 59.2379 502.218 67.1842 494.02 76.089C472.431 99.2685 453.526 126.277 425.723 141.78C395.798 158.39 360.016 158.465 326.318 164.453C318.622 165.938 311.028 167.912 303.583 170.365C288.433 175.151 272.983 181.326 260.161 189.359C250.117 195.684 241.387 203.135 235.417 213.758C220.605 240.354 227.138 273.819 217.433 302.798C203.597 344.089 163.422 365.748 125.838 390.185C111.664 399.42 97.8465 409.048 85.9442 420.215C44.4364 459.405 27.0335 520.722 35.5378 577.404C41.1698 614.341 56.8643 649.251 78.7165 679.263C89.5674 694.165 104.567 706.684 118.535 719.766C132.051 732.36 144.573 745.498 151.688 761.864C165.374 793.546 161.338 828.982 177.389 860.813C194.323 895.105 221.478 923.302 255.111 941.519C305.085 968.152 367.751 969.954 419.265 946.381C445.735 934.275 469.633 915.806 497.944 908.787C530.29 900.772 564.251 903.156 597.949 904.432C624.776 905.389 651.491 905.709 677.229 899.552Z" stroke="#D3D018" stroke-miterlimit="10"/>
<path d="M683.743 910.663C707.623 905.033 743.367 891.707 765.407 870.479C778.154 858.242 786.227 843.321 784.913 825.697C783.805 811.789 775.376 799.946 766.139 789.173C764.45 787.296 762.723 785.25 761.033 783.317C734.3 753.193 679.838 710.813 679.313 667.175C678.956 641.331 697.279 619.052 716.334 601.484C784.349 539.153 803.874 456.458 747.985 375.545C721.534 337.238 682.166 304.693 673.831 258.897C667.579 224.475 680.495 189.565 680.627 154.618C680.739 112.031 657.536 64.6961 623.537 38.9452C589.088 12.8566 553.231 18.6374 522.537 39.4333C512.254 46.5282 502.807 54.7639 494.377 63.9829C472.205 87.9882 452.813 115.916 424.202 131.832C393.395 148.968 356.505 149.325 321.756 155.012C313.924 156.35 306.176 158.142 298.552 160.38C283.121 164.847 267.764 170.984 255.017 179.505C244.885 185.924 236.5 194.752 230.612 205.2C215.593 232.808 222.257 267.268 212.289 297.054C198.04 339.603 156.513 361.844 117.596 386.957C102.915 396.341 88.6102 406.326 76.2949 417.869C33.2664 458.185 15.1502 521.417 23.8235 579.844C29.4555 617.87 45.7319 653.774 68.3913 684.649C79.6553 699.946 95.1433 712.802 109.693 726.222C123.66 739.173 136.67 752.649 144.01 769.39C158.259 802.011 154.204 838.516 170.837 871.249C188.465 906.102 215.893 935.626 250.661 954.132C276.534 967.647 305.144 975.097 334.324 975.917C363.503 976.736 392.487 970.904 419.077 958.862C446.298 946.268 470.741 927.142 499.802 919.822C532.787 911.583 567.63 914.023 602.248 915.393C629.77 916.482 657.254 916.857 683.743 910.663Z" stroke="#D2D311" stroke-miterlimit="10"/>
<path d="M794.975 835.138C793.661 818.246 781.74 804.338 770.401 791.763C742.729 761.02 686.071 717.457 685.17 672.637C684.644 646.061 703.399 623.2 722.998 605.257C793.116 541.049 813.279 455.82 755.57 372.524C728.273 333.109 687.629 299.551 679.069 252.403C672.648 216.93 686.052 180.95 686.221 144.896C686.446 101.052 662.623 52.3278 627.63 25.8449C580.696 -9.81582 531.041 12.4815 494.79 52.0086C472.018 76.8398 452.137 105.687 422.7 122.091C391.03 139.753 353.107 140.372 317.25 145.778C281.393 151.183 242.626 164.659 225.749 196.754C210.731 225.357 217.32 260.737 207.07 291.424C186.907 351.766 113.109 372.224 66.5327 415.579C22.0023 457.021 3.13515 522.149 12.09 582.322C17.8534 621.436 34.618 658.354 57.972 690.055C80.744 720.911 120.675 741.951 136.238 777.123C151.088 810.682 147.014 848.257 164.191 881.91C182.42 917.57 210.599 947.92 246.118 966.876C272.645 980.773 302.002 988.415 331.94 989.215C361.877 990.015 391.601 983.953 418.833 971.493C446.692 958.468 471.717 938.685 501.548 931.14C562.054 915.825 628.512 936.02 690.333 921.944C728.949 913.01 798.805 884.387 794.975 835.138Z" stroke="#D1D706" stroke-miterlimit="10"/>
</svg>
