<svg width="1024" height="677" viewBox="0 0 1024 677" fill="none" xmlns="http://www.w3.org/2000/svg">
<g clip-path="url(#clip0_12_8920)">
<path d="M69.8351 229.085C32.1885 241.881 13.4017 284.316 13.4017 357.076C13.4017 427.748 32.225 528.744 69.8716 610.647" stroke="#E73A1E" stroke-width="0.864115" stroke-miterlimit="10"/>
<path d="M114.122 261.856C61.331 267.844 34.9297 306.019 34.9297 384.17C34.9297 458.519 61.331 572.857 114.122 643.418" stroke="#E73A1E" stroke-width="0.864115" stroke-miterlimit="10"/>
<path d="M158.384 281.658C96.4313 291.136 65.449 333.473 65.449 416.183C65.449 494.098 96.4313 612.361 158.384 663.219" stroke="#E73A1E" stroke-width="0.864115" stroke-miterlimit="10"/>
<path d="M202.695 289.931C136.905 307.236 104.009 360.355 104.009 446.655C104.009 528.123 136.905 642.784 202.695 671.505" stroke="#E73A1E" stroke-width="0.864115" stroke-miterlimit="10"/>
<path d="M246.981 288.105C181.995 313.298 149.514 380.654 149.514 469.699C149.514 554.621 182.02 661.244 246.981 669.704" stroke="#E73A1E" stroke-width="0.864115" stroke-miterlimit="10"/>
<path d="M291.268 277.645C231.07 307.994 201.026 389.673 201.026 480.793C201.026 568.894 231.131 666.437 291.329 659.207" stroke="#E73A1E" stroke-width="0.864115" stroke-miterlimit="10"/>
<path d="M335.554 259.993C283.47 291.335 257.422 384.617 257.422 477.24C257.422 568.087 283.47 658.312 335.554 641.517" stroke="#E73A1E" stroke-width="0.864115" stroke-miterlimit="10"/>
<path d="M379.841 236.576C338.515 264.44 317.852 364.803 317.852 458.606C317.852 551.602 338.564 638.064 379.841 618.088" stroke="#E73A1E" stroke-width="0.864115" stroke-miterlimit="10"/>
<path d="M424.127 208.911C366.987 248.104 366.987 623.405 424.127 590.472" stroke="#E73A1E" stroke-width="0.864115" stroke-miterlimit="10"/>
<path d="M468.414 178.277C439.418 198.973 439.418 579.95 468.414 559.838" stroke="#E73A1E" stroke-width="0.864115" stroke-miterlimit="10"/>
<path d="M512.701 146.276C513.164 145.294 513.164 528.123 512.701 527.825" stroke="#E73A1E" stroke-width="0.864115" stroke-miterlimit="10"/>
<path d="M556.987 114.288C586.885 93.6287 586.885 474.544 556.987 495.849" stroke="#E73A1E" stroke-width="0.864115" stroke-miterlimit="10"/>
<path d="M601.274 83.7777C659.266 50.5968 659.266 425.661 601.274 465.327" stroke="#E73A1E" stroke-width="0.864115" stroke-miterlimit="10"/>
<path d="M645.56 56.1124C687.252 36.2362 708.097 122.723 708.097 215.644C708.097 309.472 687.252 409.698 645.56 437.724" stroke="#E73A1E" stroke-width="0.864115" stroke-miterlimit="10"/>
<path d="M689.847 32.9192C742.235 16.3226 768.429 106.735 768.429 197.494C768.429 290.118 742.235 383.089 689.847 414.468" stroke="#E73A1E" stroke-width="0.864115" stroke-miterlimit="10"/>
<path d="M734.121 15.4654C794.538 8.6454 824.741 106.449 824.741 194.463C824.741 285.521 794.538 366.778 734.121 397.027" stroke="#E73A1E" stroke-width="0.864115" stroke-miterlimit="10"/>
<path d="M778.408 5.25415C843.491 14.2481 875.984 121.157 875.984 205.979C875.984 294.95 843.443 361.834 778.359 386.816" stroke="#E73A1E" stroke-width="0.864115" stroke-miterlimit="10"/>
<path d="M822.694 3.73853C888.484 33.1305 921.379 147.978 921.379 229.346C921.379 315.547 888.484 368.244 822.694 385.288" stroke="#E73A1E" stroke-width="0.864115" stroke-miterlimit="10"/>
<path d="M866.981 12.3474C928.738 63.8765 959.574 182.153 959.574 259.956C959.574 342.529 928.702 384.629 866.981 393.897" stroke="#E73A1E" stroke-width="0.864115" stroke-miterlimit="10"/>
<path d="M911.316 32.5093C963.705 103.592 989.935 217.607 989.935 291.894C989.935 369.883 963.729 408.058 911.316 414.058" stroke="#E73A1E" stroke-width="0.864115" stroke-miterlimit="10"/>
<path d="M955.554 65.7275C992.628 147.779 1011.22 248.191 1011.22 318.752C1011.22 391.325 992.689 434.034 955.615 447.289" stroke="#E73A1E" stroke-width="0.864115" stroke-miterlimit="10"/>
<path d="M0 170.463C65.5709 261.086 145.981 310.491 233.811 298.354C321.641 289.658 416.891 219.296 512.128 150.711C607.365 82.1253 702.578 15.3039 790.372 13.1051C878.092 7.49007 958.502 66.6343 1024 170.102" stroke="#E73A1E" stroke-width="0.405365" stroke-miterlimit="10"/>
<path d="M0 188.277C26.1333 220.762 58.4802 254.875 95.4567 277.794C132.458 301.062 174.1 313.1 218.838 309.895C263.587 307.05 311.431 288.962 360.823 260.465C410.226 232.34 461.165 193.805 512.104 158.599C563.054 123.617 613.993 86.5479 663.372 60.9324C712.727 34.9939 760.596 20.6209 805.321 22.6831C850.046 24.385 891.664 42.5593 928.629 73.0445C965.593 103.207 997.903 145.779 1024 187.855" stroke="#E73A1E" stroke-width="0.864115" stroke-miterlimit="10"/>
<path d="M0 206.091C20.2244 225.483 48.8797 259.881 83.8338 284.354C118.8 309.534 160.077 324.74 205.558 323.199C296.519 323.311 404.305 249.52 512.091 171.332C619.878 92.8213 727.664 24.857 818.588 36.3976C864.057 40.8573 905.31 63.3423 940.239 97.2686C975.181 130.375 1003.8 174.86 1024 205.731" stroke="#E73A1E" stroke-width="0.864115" stroke-miterlimit="10"/>
<path d="M0 223.905C15.0708 233.073 40.4975 266.85 73.685 292.59C106.873 319.286 147.821 337.932 193.947 338.553C286.2 343.796 399.139 268.403 512.079 186.997C625.007 105.194 737.959 36 830.175 53.3296C876.289 60.3732 917.213 86.7341 950.388 122.648C983.551 157.605 1008.95 202.153 1024 223.483" stroke="#E73A1E" stroke-width="0.864115" stroke-miterlimit="10"/>
<path d="M0 241.719C10.6604 248.564 33.3337 278.204 65.0105 303.435C96.6872 329.262 137.355 350.641 184.03 354.927C230.704 359.747 283.373 347.349 339.051 319.261C394.717 291.77 453.392 248.576 512.055 205.619C570.718 162.661 629.405 120.797 685.059 96.2997C740.749 71.1811 793.418 63.2927 840.08 74.1128C886.742 84.3491 927.398 113.294 959.05 148.127C990.727 182.364 1013.35 222.501 1024 241.297" stroke="#E73A1E" stroke-width="0.864115" stroke-miterlimit="10"/>
<path d="M0 259.545C7.00544 262.726 27.3882 289.956 57.7979 315.733C88.2563 341.895 128.656 366.666 175.782 373.585C222.919 381.2 276.733 371.101 333.897 342.529C391.086 314.975 451.552 269.012 512.055 226.302C572.557 183.593 633.06 139.344 690.212 114.561C747.364 88.9081 801.178 82.9328 848.304 96.0386C895.417 108.461 935.853 140.027 966.251 174.363C988.912 200.034 1008.31 228.511 1024 259.123" stroke="#E73A1E" stroke-width="0.864115" stroke-miterlimit="10"/>
<path d="M0 277.36C8.18722 278.602 74.2454 377.523 169.227 393.872C216.742 403.81 271.445 395.524 329.792 367.3C388.126 340.131 450.09 293 512.043 249.471C573.995 206.141 635.972 160.326 694.294 135.617C752.628 109.791 807.355 105.02 854.834 119.766C949.864 145.009 1015.84 257.57 1024 276.999" stroke="#9381FF" stroke-width="0.864115" stroke-miterlimit="10"/>
<path d="M0 295.174C3.86213 291.745 68.8238 395.064 164.354 415.586C212.112 427.5 267.51 420.878 326.734 393.015C385.957 366.306 448.994 318.367 512.03 274.242C575.067 230.328 638.104 183.42 697.327 158.537C756.538 132.45 811.936 128.499 859.695 144.052C955.176 171.171 1020.16 284.689 1024 294.751" stroke="#9381FF" stroke-width="0.864115" stroke-miterlimit="10"/>
<path d="M0 312.988C1.0234 307.646 65.2907 414.605 161.162 438.531C209.103 452.059 264.94 446.767 324.736 419.301C384.532 393.052 448.275 344.641 512.018 300.13C575.762 255.856 639.505 208.203 699.301 183.059C759.085 156.761 814.933 153.071 862.863 168.86C958.734 196.687 1022.99 309.77 1024 312.565" stroke="#9381FF" stroke-width="0.864115" stroke-miterlimit="10"/>
<path d="M1.2248e-05 330.802C-0.316755 326.181 63.6094 436.084 159.602 462.482C207.629 477.178 263.673 472.83 323.737 445.761C383.801 419.947 447.873 371.424 511.957 326.727C576.03 282.279 640.114 234.092 700.178 208.712C760.242 182.065 816.286 178.227 864.3 193.718C960.342 221.048 1024.27 332.727 1023.9 330.367" stroke="#9381FF" stroke-width="0.864115" stroke-miterlimit="10"/>
<path d="M6.0122e-06 348.616C-0.146194 347.237 63.8043 459.277 159.821 487.004C207.836 502.408 263.855 498.57 323.883 471.873C383.922 446.419 447.958 398.12 511.994 353.448C576.03 309.025 640.065 260.688 700.093 234.911C760.12 207.892 816.152 203.445 864.154 218.141C960.183 243.868 1024.15 353.2 1024 348.206" stroke="#9381FF" stroke-width="0.864115" stroke-miterlimit="10"/>
<path d="M0 366.442C1.49855 370.641 65.8755 483.911 161.686 511.874C209.591 527.44 265.354 523.663 325.04 497.29C384.739 472.134 448.36 424.382 511.982 379.933C575.603 335.721 639.225 287.571 698.911 261.359C758.61 233.93 814.373 228.439 862.278 241.868C958.1 264.937 1022.48 371.175 1024 366.02" stroke="#9381FF" stroke-width="0.864115" stroke-miterlimit="10"/>
<path d="M0 384.256C4.65405 396.219 69.8107 509.613 165.219 536.645C212.929 551.825 268.192 547.639 327.257 521.539C386.31 496.57 449.091 449.699 511.982 405.685C574.811 361.883 637.641 314.255 696.694 287.571C755.747 259.744 811.023 252.85 858.733 264.589C954.165 284.055 1019.33 386.468 1024.01 383.846" stroke="#9381FF" stroke-width="0.864115" stroke-miterlimit="10"/>
<path d="M0 402.071C9.29591 423.823 75.61 535.925 170.445 560.857C217.851 575.081 272.396 570.037 330.498 544.148C388.613 519.303 450.285 473.588 511.945 430.22C573.617 387.039 635.29 340.293 693.404 313.124C751.519 284.937 806.064 276.341 853.482 286.043C948.329 301.137 1014.67 398.99 1024.05 401.648" stroke="#9381FF" stroke-width="0.864115" stroke-miterlimit="10"/>
<path d="M0 419.885C7.72426 435.227 28.5456 472.47 59.199 506.458C89.8402 540.832 130.325 571.938 177.378 584C224.405 596.709 277.976 590.385 334.836 564.646C391.695 539.8 451.796 495.563 511.957 453.066C572.119 410.568 632.232 365.213 689.091 337.634C745.951 309.162 799.546 298.64 846.586 305.745C893.626 312.205 934.111 336.293 964.764 362.256C995.381 387.797 1016.25 415.288 1024 419.462" stroke="#E73A1E" stroke-width="0.864115" stroke-miterlimit="10"/>
<path d="M0 437.699C11.5377 458.134 34.747 498.57 66.7161 532.682C98.6731 567.379 139.39 595.777 185.93 605.578C232.483 615.951 284.872 607.727 340.172 582.621C395.484 558.099 453.696 516.682 511.957 474.134C570.218 431.587 628.406 388.48 683.743 360.852C739.055 332.653 791.444 319.858 838.009 324.081C884.574 327.808 925.303 348.529 957.284 374.132C989.265 399.139 1012.5 428.953 1024.06 437.276" stroke="#E73A1E" stroke-width="0.864115" stroke-miterlimit="10"/>
<path d="M0 455.513C16.1064 478.942 42.1666 523.489 75.6953 558.099C109.236 593.615 150.233 619.194 196.201 625.504C288.161 641.902 400.029 572.956 511.909 492.197C623.789 411.04 735.681 335.932 827.665 339.821C873.657 340.206 914.666 358.132 948.219 384.542C981.772 409.984 1007.92 443.873 1024 455.14" stroke="#E73A1E" stroke-width="0.405365" stroke-miterlimit="10"/>
<path d="M0 473.327C21.4184 506.322 50.8047 550.72 86.1608 583.317C121.493 616.635 162.843 638.163 208.165 641.828C298.785 652.138 405.341 584.472 511.896 507.079C618.464 429.363 725.032 356.02 815.689 354.827C861.011 353.001 902.361 367.474 937.754 392.356C973.086 416.518 1002.55 451.103 1024 472.917" stroke="#E73A1E" stroke-width="0.405365" stroke-miterlimit="10"/>
<path d="M0 491.153C54.9714 581.404 132.689 655.207 221.798 654.635C310.895 659.443 411.384 589.888 511.884 518.123C612.385 446.357 712.91 372.368 802.031 368.082C891.177 358.417 968.943 418.493 1024 490.731" stroke="#E73A1E" stroke-width="0.405365" stroke-miterlimit="10"/>
<path d="M0 508.967C68.5924 616.001 149.709 670.81 237.113 663.58C324.516 659.319 418.182 593.081 511.872 525.465C605.562 457.848 699.252 388.816 786.692 378.952C874.132 366.144 955.322 412.493 1024 508.495" stroke="#E73A1E" stroke-width="0.405365" stroke-miterlimit="10"/>
<path d="M0 526.782C167.412 773.719 339.611 655.468 511.86 528.608C684.108 401.437 856.406 281.521 1024 526.359" stroke="#E73A1E" stroke-width="0.405365" stroke-miterlimit="10"/>
</g>
<defs>
<clipPath id="clip0_12_8920">
<rect width="1024" height="676.786" fill="white" transform="translate(0 0.210449)"/>
</clipPath>
</defs>
</svg>
