<svg width="674" height="1110" viewBox="0 0 674 1110" fill="none" xmlns="http://www.w3.org/2000/svg">
<path d="M371.481 458.778C364.355 459.759 356.624 461.638 352.403 467.463C347.305 474.499 349.415 484.353 352.863 492.307C356.31 500.261 361.012 508.257 360.49 516.921C359.152 538.613 328.958 545.795 319.242 565.231C312.43 578.864 317.382 595.587 325.51 608.489C332.093 618.928 341.14 628.385 352.821 632.393C364.502 636.402 378.982 633.73 386.254 623.813C391.499 616.735 392.397 607.382 396.263 599.47C403.973 583.687 424.639 575.649 441 582.121C453.391 587.027 465.302 599.115 477.734 594.313C486.949 590.743 490.481 578.989 488.642 569.261C486.803 559.532 481.099 551.118 476.71 542.266C472.322 533.414 469.251 522.934 472.97 513.769C476.418 505.272 485.382 498.883 485.508 489.697C486.343 454.185 391.749 455.96 371.481 458.778Z" stroke="#E6273D" stroke-miterlimit="10"/>
<path d="M345.152 455.187C339.281 462.139 340.095 472.202 342.582 480.699C343.919 485.334 345.779 490.073 347.346 495C348.786 499.034 349.644 503.251 349.895 507.526C349.895 508.299 349.895 509.071 349.895 509.823C349.018 523.727 338.194 532.663 327.287 543.227C321.394 548.542 316.223 554.606 311.907 561.264C309.113 565.732 307.355 570.768 306.762 576.002C306.17 581.237 306.757 586.537 308.481 591.516C310.298 596.923 313.098 602.1 315.125 607.591C316.651 611.767 317.549 615.817 319.304 619.658C322.761 627.083 327.795 633.665 334.057 638.949C339.041 643.196 345.099 645.991 351.567 647.028C353.707 647.383 355.876 647.53 358.045 647.467C363.834 647.191 369.544 646.015 374.97 643.98C381.134 641.788 387.278 639.158 391.415 634.46C397.182 627.905 397.934 618.447 401.863 610.723C409.928 595.065 430.448 587.09 446.767 592.977C459.116 597.466 471.298 609.679 483.188 603.791C487.66 601.704 490.063 597.153 492.257 592.476C495.338 586.346 497.258 579.7 497.919 572.872C498.076 570.422 498.013 567.963 497.731 565.523C496.833 557.173 493.552 548.383 489.875 539.615C486.689 532.662 484.38 525.34 483 517.819C482.393 514.17 482.393 510.445 483 506.796C483.71 503.503 484.863 500.322 486.427 497.338C489.436 491.263 493.301 485.23 492.904 478.152C492.298 467.108 484.191 459.154 472.009 453.726C458.385 447.609 440.018 444.895 422.507 444.561C413.543 444.414 404.788 444.895 396.576 445.124C383.767 445.479 372.839 445.918 366.57 446.586C358.713 447.358 350.146 449.174 345.152 455.187Z" stroke="#E6323E" stroke-miterlimit="10"/>
<path d="M337.901 442.661C331.257 449.53 330.755 459.822 332.281 468.841C333.277 474.085 334.561 479.27 336.125 484.374C337.594 488.757 338.664 493.264 339.322 497.839C339.322 498.675 339.469 499.468 339.489 500.261C339.761 514.875 331.257 525.063 320.809 536.901C314.962 543.192 309.525 549.852 304.531 556.839C296.758 568.426 294.501 581.453 300.018 594.71C302.797 601.391 306.997 607.654 309.275 614.71C310.988 620.013 311.364 625.316 313.036 630.347C316.366 639.386 322.033 647.381 329.46 653.521C335.327 658.43 342.703 661.179 350.355 661.308C352.804 661.374 355.254 661.2 357.669 660.787C364.205 659.441 370.59 657.44 376.725 654.816C383.851 652.06 391.352 649.805 396.534 644.732C402.678 638.636 403.409 629.157 407.588 621.621C415.946 606.547 436.361 598.656 452.555 604C464.884 608.176 477.275 620.034 488.663 613.458C493.761 610.535 495.642 604.668 498.149 599.032C501.597 591.223 505.4 583.729 507.239 576.651C507.962 573.916 508.438 571.121 508.66 568.3C509.412 558.655 506.967 547.778 503.06 536.984C499.752 528.767 496.96 520.351 494.701 511.786C493.711 507.782 493.199 503.675 493.176 499.551C493.324 495.869 494.029 492.23 495.266 488.758C497.627 481.639 501.43 474.436 500.489 466.315C499.089 454.331 490.313 445.438 477.212 439.55C462.084 432.64 441.898 429.905 422.884 430.531C413.167 430.865 403.785 432.097 394.758 432.619C381.113 433.308 369.224 433.558 361.848 434.206C353.134 434.999 343.71 436.711 337.901 442.661Z" stroke="#E53A3E" stroke-miterlimit="10"/>
<path d="M330.651 430.322C323.275 437.107 321.415 447.63 322 457.15C322.416 462.8 323.396 468.395 324.925 473.851C326.242 478.778 327.934 483.518 328.749 488.299C328.896 489.175 329.042 490.031 329.105 490.866C330.525 506.107 324.34 517.631 314.331 530.805C309.003 537.84 302.588 545.21 297.197 552.642C287.167 566.463 284.033 582.142 291.576 598.134C295.316 606.109 300.916 613.437 303.445 622.059C305.325 628.552 305.033 635.045 306.809 641.287C310.053 651.827 316.349 661.169 324.905 668.135C331.607 673.729 340.256 676.439 348.955 675.672C351.722 675.456 354.459 674.959 357.125 674.19C364.332 671.804 371.399 669.016 378.293 665.839C386.379 662.498 395.343 660.64 401.445 655.212C407.86 649.492 408.696 640.076 413.042 632.686C421.693 618.072 442.003 610.076 458.134 614.961C470.421 618.635 482.937 630.159 493.928 623.061C499.654 619.366 500.991 612.101 503.791 605.483C507.678 596.255 513.006 588.175 516.328 580.325C517.612 577.355 518.619 574.273 519.337 571.119C521.761 560.2 520.173 547.193 516.036 534.583C512.922 525.084 508.89 515.272 506.215 506.107C504.813 501.71 503.772 497.207 503.102 492.641C502.625 488.601 502.816 484.51 503.666 480.532C505.379 472.369 509.14 463.977 507.636 454.853C505.546 441.93 496.039 432.264 482.039 425.75C465.322 418.005 443.382 415.312 423.03 416.857C412.582 417.671 402.552 419.654 392.69 420.364C378.23 421.408 365.379 421.491 356.875 422.076C347.409 422.64 337.275 424.247 330.651 430.322Z" stroke="#E5433E" stroke-miterlimit="10"/>
<path d="M323.421 417.942C315.293 424.665 312.075 435.396 311.698 445.438C311.551 451.497 312.255 457.548 313.788 463.413C315.084 468.737 317.09 473.852 318.239 478.841C318.448 479.76 318.657 480.658 318.803 481.555C321.31 497.443 317.487 510.282 307.937 524.792C302.776 532.621 295.922 540.701 289.904 548.529C277.597 564.542 273.648 582.893 283.176 601.641C287.878 610.89 294.898 619.303 297.657 629.491C299.746 637.153 298.89 644.857 300.624 652.31C303.796 664.355 310.727 675.075 320.412 682.916C324.175 686.028 328.571 688.282 333.295 689.523C338.019 690.763 342.957 690.959 347.764 690.098C350.852 689.611 353.879 688.792 356.791 687.656C364.376 684.775 371.71 680.349 380.048 676.737C389.116 672.791 399.439 671.33 406.585 665.526C413.209 660.16 414.212 650.912 418.704 643.625C427.669 629.283 447.958 621.412 463.922 625.755C476.167 629.011 488.767 640.014 499.445 632.498C505.713 628.009 506.57 619.408 509.684 611.808C514.03 601.161 520.884 592.476 525.669 583.875C527.514 580.643 529.053 577.246 530.266 573.728C534.445 561.557 533.63 546.421 529.263 531.974C526.045 521.264 521.469 510.345 517.958 500.22C516.141 495.434 514.579 490.556 513.278 485.605C512.197 481.21 511.9 476.659 512.4 472.16C513.445 462.954 517.185 453.371 515.116 443.225C512.275 429.383 502.078 418.84 487.158 411.783C469 403.224 445.179 400.51 423.385 403.036C412.227 404.351 401.549 407.065 390.851 408.026C375.576 409.403 361.743 409.32 352.131 409.863C341.767 410.28 330.839 411.783 323.421 417.942Z" stroke="#E44B3F" stroke-miterlimit="10"/>
<path d="M316.17 405.562C307.311 412.222 302.734 423.161 301.397 433.725C300.646 440.143 301.021 446.643 302.505 452.932C303.821 458.632 306.099 464.018 307.603 469.3C307.875 470.281 308.146 471.242 308.355 472.181C311.97 488.716 310.445 502.892 301.418 518.717C296.445 527.339 289.111 536.107 282.487 544.354C267.86 562.559 263.116 583.603 274.672 605.107C280.334 615.545 288.755 625.107 291.764 636.861C294.042 645.692 292.621 654.607 294.334 663.25C297.416 676.796 304.976 688.909 315.794 697.635C319.997 701.105 324.958 703.536 330.276 704.733C335.595 705.93 341.121 705.859 346.406 704.524C349.812 703.753 353.125 702.619 356.29 701.142C364.648 697.322 372.442 691.873 381.678 687.718C391.708 683.209 403.346 682.102 411.579 675.943C418.349 670.891 419.561 661.684 424.221 654.669C433.499 640.682 453.475 632.894 469.564 636.673C481.746 639.554 494.409 649.909 504.731 642.06C511.69 636.736 511.94 626.798 515.367 618.218C520.131 606.172 528.51 596.86 534.779 587.507C537.206 584.02 539.305 580.316 541.048 576.442C546.836 562.997 546.919 545.753 542.322 529.26C539 517.339 533.964 505.314 529.555 494.249C527.466 488.633 524.937 483.476 523.287 478.382C521.62 473.637 520.834 468.628 520.967 463.601C521.364 453.35 525.146 442.619 522.43 431.429C518.919 416.627 507.97 405.207 492.152 397.649C472.49 388.255 446.83 385.562 423.615 389.027C411.705 390.823 400.421 394.288 388.866 395.499C372.776 397.19 357.982 396.981 347.242 397.441C336.502 397.9 324.424 399.341 316.17 405.562Z" stroke="#E4533F" stroke-miterlimit="10"/>
<path d="M308.919 393.182C299.349 399.8 293.373 410.927 291.116 422.013C289.749 428.757 289.814 435.713 291.304 442.431C292.876 448.32 294.788 454.112 297.03 459.78C297.364 460.803 297.698 461.868 297.97 462.807C302.672 479.989 303.633 495.522 294.94 512.641C290.176 522.078 282.403 531.431 275.131 540.178C258.164 560.534 252.648 584.313 266.23 608.551C272.833 620.347 282.675 630.911 285.934 644.231C288.4 654.252 286.436 664.336 288.024 674.21C291.07 689.267 299.326 702.772 311.343 712.353C315.999 716.18 321.536 718.788 327.453 719.939C333.371 721.091 339.483 720.751 345.236 718.95C348.963 717.897 352.564 716.441 355.976 714.608C364.878 709.89 373.319 703.418 383.475 698.699C394.466 693.605 406.46 691.079 416.74 686.382C422.654 680.411 425.098 672.54 429.904 665.713C439.495 652.081 459.451 644.335 475.373 647.571C487.513 650.055 498.922 657.864 510.206 651.6C516.621 644.231 517.519 634.21 521.239 624.627C526.463 611.182 536.346 601.265 544.098 591.223C547.057 587.472 549.659 583.453 551.872 579.219C559.352 564.605 560.23 545.147 555.445 526.713C551.644 513.603 546.881 500.791 541.194 488.382C538.582 482.307 535.573 476.774 533.337 471.284C531.047 466.21 529.742 460.747 529.492 455.187C529.242 443.893 532.961 431.993 529.701 419.696C525.522 403.975 513.8 391.679 497.063 383.578C475.895 373.348 448.397 370.676 423.782 375.102C411.14 377.378 399.209 381.574 386.818 383.056C369.892 385.144 354.158 384.706 342.31 385.144C330.463 385.582 318.009 386.898 308.919 393.182Z" stroke="#E35A40" stroke-miterlimit="10"/>
<path d="M301.669 380.802C291.394 387.81 283.979 398.27 280.773 410.28C278.822 417.346 278.578 424.773 280.063 431.951C281.648 438.215 283.745 444.339 286.331 450.26C286.749 451.346 287.146 452.348 287.502 453.434C293.269 471.263 296.654 488.132 288.379 506.587C283.803 516.817 275.487 526.901 267.672 536.003C248.343 558.509 242.075 585.002 257.663 611.996C265.227 625.086 276.469 636.715 280 651.663C282.654 662.853 280.146 674.148 281.755 685.213C283.991 700.725 293.833 717.092 306.579 727.155C311.699 731.332 317.818 734.105 324.336 735.203C330.853 736.302 337.545 735.686 343.752 733.418C347.802 732.083 351.691 730.305 355.349 728.116C364.899 722.479 373.905 714.984 384.937 709.744C396.91 704.065 410.012 701.602 421.567 696.842C427.606 691.059 430.302 683.438 435.275 676.799C445.179 663.521 465.009 655.922 480.869 658.532C492.967 660.62 504.293 667.697 515.388 661.204C522.2 652.853 522.764 641.642 526.818 631.099C532.481 616.214 543.869 605.691 553.105 594.856C556.618 590.834 559.758 586.502 562.487 581.912C571.639 565.941 573.352 544.458 568.316 524.082C564.395 509.779 559.134 495.875 552.603 482.557C549.594 476.023 545.979 470.031 543.158 464.248C540.33 458.822 538.57 452.904 537.976 446.816C537.078 434.477 540.818 421.387 536.931 408.13C532.063 391.428 519.609 378.317 501.973 369.695C479.302 358.63 449.964 355.979 423.928 361.344C410.534 364.121 397.976 369.027 384.77 370.76C367.009 373.098 350.293 372.618 337.337 372.952C324.842 373.244 311.615 374.455 301.669 380.802Z" stroke="#E36140" stroke-miterlimit="10"/>
<path d="M294.418 368.421C283.233 375.442 274.795 386.083 270.513 398.568C267.966 405.949 267.411 413.87 268.904 421.533C270.179 428.402 273.313 434.728 275.863 440.824C276.343 441.951 276.824 443.037 277.221 444.122C284.054 462.62 289.884 480.845 282.027 500.595C277.639 511.639 268.842 522.37 260.421 531.911C238.71 556.505 231.69 585.774 249.325 615.42C257.851 629.805 270.493 642.561 274.275 658.949C277.116 671.33 274.066 683.793 275.612 696.09C277.701 712.98 288.296 730.913 302.149 741.79C315.46 752.229 329.564 752.563 342.561 747.782C346.961 746.168 351.166 744.067 355.099 741.519C365.316 734.963 374.845 726.445 386.797 720.642C399.752 714.378 414.087 711.998 426.791 707.197C432.934 701.602 435.901 694.211 441.021 687.739C451.239 674.837 470.964 667.196 486.74 669.367C498.797 671.016 510.039 677.405 520.946 670.661C528.176 661.329 528.406 648.949 532.752 637.425C538.854 621.141 551.767 610.013 562.487 598.405C566.562 594.124 570.235 589.477 573.457 584.522C584.302 567.319 586.83 543.707 581.585 521.389C577.928 505.815 571.137 490.449 564.409 476.607C560.961 469.613 556.761 463.35 553.355 457.087C549.947 451.315 547.704 444.931 546.752 438.298C545.185 424.915 548.946 410.656 544.454 396.376C538.916 378.776 525.648 364.726 507.134 355.582C482.958 343.682 451.803 341.072 424.325 347.377C410.221 350.634 397.015 356.271 382.973 358.275C364.397 360.926 346.719 360.363 332.636 360.592C319.2 360.906 305.2 362.033 294.418 368.421Z" stroke="#E26840" stroke-miterlimit="10"/>
<path d="M287.167 356.041C275.038 363.069 265.57 373.901 260.233 386.856C257.09 394.477 256.205 402.839 257.684 410.948C258.979 418.214 262.385 424.853 265.29 431.22C265.833 432.389 266.376 433.537 266.836 434.665C274.734 453.809 283.009 473.371 275.57 494.436C271.391 506.274 262.072 517.673 253.066 527.673C228.952 554.375 221.221 586.422 240.884 618.907C250.349 634.544 264.412 648.302 268.445 666.34C271.475 679.889 267.901 693.48 269.385 707.071C271.475 725.339 282.654 744.859 297.594 756.529C312.054 767.782 327.307 767.845 341.287 762.229C345.984 760.335 350.45 757.912 354.597 755.005C365.484 747.552 375.493 737.99 388.427 731.665C402.343 724.838 417.89 722.52 431.785 717.656C438.054 712.249 441.251 705.13 446.537 698.866C456.985 686.34 476.669 678.72 492.382 680.348C504.397 681.601 515.555 687.28 526.254 680.348C533.901 670.014 533.818 656.486 538.457 643.959C545.018 626.276 559.352 614.522 571.639 602.205C576.267 597.662 580.465 592.699 584.176 587.382C596.713 568.926 600.036 543.185 594.624 518.925C590.863 502.224 583.633 485.668 575.985 470.908C572.119 463.455 567.334 456.816 563.343 450.156C559.352 444.055 556.617 437.22 555.298 430.051C553.104 415.646 556.866 400.196 551.746 384.893C545.478 366.354 531.561 351.49 512.045 341.782C486.385 329.047 453.391 326.437 424.493 333.702C409.636 337.439 395.824 343.807 380.925 346.083C361.534 349.047 342.896 348.316 327.704 348.504C313.558 348.567 298.806 349.611 287.167 356.041Z" stroke="#E26E40" stroke-miterlimit="10"/>
<path d="M280 343.661C266.912 350.697 256.409 361.718 250.015 375.123C246.312 383.024 245.109 391.866 246.567 400.468C247.863 408.109 251.561 415.082 254.8 421.7C255.406 422.911 256.012 424.101 256.555 425.291C265.498 445.103 276.218 466.002 269.093 488.361C265.122 501.013 255.301 513.059 245.71 523.498C219.194 552.287 210.752 587.131 232.421 622.351C242.869 639.283 258.331 654.106 262.615 673.709C265.833 688.428 261.716 703.293 263.158 718.011C265.039 737.657 277.012 758.784 293.039 771.248C308.627 783.357 325.072 783.106 340.012 776.655C345.025 774.472 349.777 771.734 354.179 768.492C365.713 760.141 376.349 749.536 390.099 742.646C404.997 735.235 421.755 733.001 436.821 728.032C443.09 722.813 446.663 715.902 452.116 709.806C462.961 697.614 482.436 690.056 498.087 691.163C510.06 691.998 522.555 698.679 531.645 689.743C541.549 680.014 539.272 663.73 544.182 650.243C551.161 631.141 567.167 618.76 580.791 605.67C585.99 600.878 590.726 595.608 594.937 589.929C609.188 570.242 613.304 542.35 607.642 516.149C603.755 498.153 596.003 480.657 587.519 464.853C583.34 456.941 577.866 449.947 573.31 442.89C568.741 436.451 565.515 429.16 563.824 421.45C560.961 406 564.743 389.361 559.018 373.056C552.164 353.557 537.391 337.773 517.018 327.606C489.854 314.015 455.021 311.447 424.701 319.652C409.113 323.827 394.654 330.967 378.919 333.514C358.693 336.771 339.093 335.936 322.794 336.062C307.916 336.187 292.412 337.168 280 343.661Z" stroke="#E1753F" stroke-miterlimit="10"/>
<path d="M272.666 331.281C258.623 338.315 247.094 349.506 239.651 363.327C235.366 371.477 233.834 380.792 235.284 389.883C236.558 397.921 240.549 405.186 244.143 412.076C244.791 413.349 245.481 414.602 246.087 415.833C256.096 436.314 269.281 458.548 262.636 482.202C258.854 495.668 248.531 508.361 238.355 519.238C209.436 550.116 200.284 587.758 223.979 625.713C235.346 643.938 252.251 659.826 256.785 680.996C260.191 696.904 255.552 712.959 256.91 728.888C258.707 749.911 271.37 772.605 288.484 785.904C305.2 798.848 322.836 798.284 338.633 790.998C343.972 788.526 349.018 785.466 353.678 781.874C365.86 772.563 377.039 760.997 391.708 753.565C407.567 745.548 425.537 743.398 441.857 738.429C448.334 733.397 452.075 726.738 457.675 720.829C468.854 709.013 488.203 701.476 503.77 702.04C515.702 702.478 528.113 708.303 537.015 699.263C547.463 688.616 544.725 671.121 549.991 656.632C557.43 636.13 574.899 623.228 590.048 609.303C595.796 604.232 601.063 598.641 605.782 592.601C621.725 571.724 626.678 541.64 620.764 513.518C616.773 494.29 608.499 475.584 599.179 458.924C594.499 450.573 588.522 443.204 583.382 435.75C578.451 428.631 574.251 421.491 572.454 412.994C568.943 396.501 572.746 378.672 566.394 361.344C558.913 340.884 543.409 324.266 522.054 313.556C493.385 299.13 456.734 296.583 424.994 305.748C408.675 310.466 393.651 318.274 376.934 321.072C355.872 324.662 335.31 323.702 317.884 323.744C302.275 323.911 285.997 324.767 272.666 331.281Z" stroke="#E17B3F" stroke-miterlimit="10"/>
<path d="M265.373 318.901C250.332 325.981 237.761 337.406 229.287 351.699C224.425 360.096 222.561 369.893 224 379.486C225.295 387.837 229.558 395.478 233.507 402.639C234.218 403.975 234.97 405.249 235.597 406.543C246.651 427.692 262.301 451.262 256.075 476.211C252.501 490.491 241.657 503.831 231 515.147C199.657 548.091 189.815 588.551 215.537 629.241C227.866 648.74 246.17 665.714 250.955 688.449C254.549 705.527 249.388 722.792 250.684 739.932C252.355 762.334 265.728 786.614 283.928 800.706C301.794 814.485 320.579 813.629 337.442 805.508C343.104 802.779 348.439 799.417 353.343 795.487C366.173 785.278 377.916 772.647 393.484 764.693C410.304 756.112 429.487 754.024 446.934 749.014C453.516 744.15 457.507 737.74 463.254 732.02C474.767 720.558 493.991 713.23 509.495 713.105C521.385 713.001 533.692 718.22 542.427 708.93C553.355 697.322 550.221 678.616 555.8 663.146C563.678 641.225 582.651 627.654 599.284 613.04C605.586 607.702 611.39 601.805 616.627 595.42C634.221 573.207 639.967 541.139 633.887 511.013C629.707 490.574 620.973 470.741 610.901 453.162C605.803 444.352 599.242 436.627 593.516 428.778C588.042 421.262 583.298 413.704 581.167 404.685C576.988 387.148 580.833 368.129 573.854 349.799C565.704 328.379 549.364 310.884 527.173 299.694C497 284.432 458.49 281.906 425.328 292.011C408.278 297.209 392.543 305.727 375.179 308.712C353.301 312.596 331.779 311.531 313.224 311.51C296.716 311.573 279.603 312.345 265.373 318.901Z" stroke="#E0803E" stroke-miterlimit="10"/>
<path d="M258.185 306.52C243.558 312.909 227.845 325.31 219.048 339.924C213.604 348.55 211.384 358.82 212.779 368.922C214.075 377.753 218.609 385.624 222.892 393.056C223.686 394.434 224.501 395.771 225.233 397.107C237.352 418.923 255.469 443.809 249.618 470.177C246.275 485.25 234.991 499.217 223.561 510.992C189.773 546.003 179.242 589.282 206.991 632.707C220.281 653.584 240.006 671.538 245.042 695.839C248.824 714.086 243.14 732.542 244.352 750.893C245.94 774.693 260.003 800.539 279.289 815.445C298.576 830.351 318.26 828.911 336.083 819.955C342.055 816.915 347.662 813.21 352.8 808.911C366.319 797.783 378.585 784.129 395.051 775.632C412.854 766.467 434.397 767.553 451.886 759.39C459.283 755.945 462.836 748.575 468.728 743.001C481.633 731.689 497.939 724.991 515.075 723.961C526.943 723.585 539.146 727.886 547.692 718.47C559.143 705.944 555.591 686.006 561.463 669.576C569.821 646.235 590.278 631.997 608.394 616.694C615.259 611.106 621.596 604.9 627.325 598.155C646.612 574.689 653.152 540.429 646.863 508.382C642.683 486.733 633.322 465.793 622.331 447.275C616.815 438.005 609.669 429.905 603.358 421.679C597.319 413.788 592.033 405.812 589.567 396.251C584.761 377.67 588.606 357.461 581 338.108C572.224 315.748 555.089 297.397 531.979 285.643C500.322 269.547 459.973 267.041 425.412 278.106C407.63 283.806 391.248 293.034 373.027 296.395C350.313 300.57 327.83 299.422 308.251 299.318C290.991 299.234 273.209 299.923 258.185 306.52Z" stroke="#E0863E" stroke-miterlimit="10"/>
<path d="M250.934 294.14C235.681 300.403 218.463 313.055 208.767 328.253C202.787 337.127 200.26 347.878 201.663 358.484C202.937 367.711 207.764 375.895 212.403 383.536C213.26 384.956 214.137 386.334 214.952 387.712C228.096 410.218 248.699 436.439 243.245 464.018C240.111 479.906 228.221 494.52 216.29 506.733C180.078 543.811 168.773 589.95 198.633 636.172C212.821 658.26 234.009 677.342 239.296 703.209C243.245 722.646 237.06 742.291 238.209 761.853C239.672 787.031 254.424 814.464 274.818 830.185C295.212 845.905 316.087 844.172 334.893 834.36C341.19 831.032 347.092 827.005 352.487 822.356C366.654 810.309 379.463 795.654 396.848 786.614C415.654 776.864 438.326 778.075 457.027 769.787C464.487 766.488 468.352 759.348 474.412 754.024C487.613 743.111 503.817 736.457 520.884 734.942C532.711 734.128 544.809 737.636 553.188 728.095C565.099 714.525 561.149 693.48 567.335 676.048C576.111 651.308 598.114 636.381 617.714 620.41C625.137 614.56 632.006 608.039 638.233 600.931C659.129 576.192 666.546 539.824 660.069 505.877C655.702 482.912 645.881 460.949 634.054 441.513C628.14 431.784 620.388 423.329 613.493 414.685C606.911 406.334 601.081 397.984 598.281 387.942C592.806 368.317 596.693 346.918 588.46 326.562C578.552 302.632 560.266 283.122 537.015 271.676C503.833 254.724 461.666 252.26 425.663 264.265C407.128 270.528 390.14 280.403 371.063 284.035C347.534 288.524 324.09 287.251 303.32 287.063C285.349 286.896 266.815 287.522 250.934 294.14Z" stroke="#DF8C3D" stroke-miterlimit="10"/>
<path d="M243.683 281.76C227.74 288.023 209.101 300.821 198.466 316.541C191.931 325.649 189.073 336.884 190.463 348.003C191.737 357.607 196.731 366.104 201.83 374.079C202.749 375.54 203.689 376.981 204.567 378.401C218.755 401.574 241.845 429.132 236.788 458.006C233.863 474.707 221.451 489.948 208.934 502.62C170.277 541.744 158.304 590.722 190.128 639.596C205.257 662.979 227.866 683.125 233.403 710.579C237.582 731.185 230.833 752.041 231.898 772.814C233.278 799.37 248.615 828.368 270.2 844.903C291.785 861.438 313.788 859.517 333.534 848.807C340.163 845.207 346.361 840.865 352.006 835.863C366.821 822.898 380.194 807.199 398.478 797.616C418.203 787.282 442.107 788.618 462.021 780.246C469.543 777.094 473.701 770.288 479.928 765.089C493.41 754.532 509.522 747.854 526.525 745.778C538.31 744.567 550.284 747.281 558.516 737.573C570.866 722.959 566.561 700.808 573.143 682.394C582.358 656.256 605.866 640.786 626.949 623.938C634.93 617.832 642.331 611.004 649.057 603.541C671.707 577.549 679.857 539.051 673.191 503.163C668.698 479.092 658.355 455.918 645.692 435.542C639.424 425.354 631.066 416.523 623.564 407.504C616.397 398.84 610.024 390.05 606.848 379.424C600.746 358.755 604.654 336.166 595.773 314.704C585.263 289.87 566.217 269.605 542.072 257.563C507.406 239.776 463.4 237.333 425.976 250.298C406.71 256.979 389.054 267.626 369.161 271.53C344.797 276.332 320.412 274.954 298.513 274.703C279.707 274.578 260.421 275.121 243.683 281.76Z" stroke="#DF913C" stroke-miterlimit="10"/>
<path d="M236.433 269.38C219.716 275.643 199.74 288.587 188.185 304.871C181.088 314.197 177.882 325.907 179.242 337.544C180.516 347.544 185.907 356.333 191.257 364.684C192.239 366.208 193.346 367.67 194.182 369.152C209.415 392.994 235.012 421.867 230.331 452.056C227.615 469.551 214.68 485.459 201.579 498.57C160.477 539.615 147.836 591.432 181.791 643.083C197.901 667.739 221.91 689.012 227.761 717.969C232.086 739.765 224.877 761.812 225.86 783.774C227.113 811.729 243.266 842.231 265.833 859.642C288.4 877.054 311.803 874.716 332.448 863.254C339.389 859.364 345.866 854.699 351.755 849.35C367.239 835.466 381.155 818.744 400.358 808.618C421.045 797.72 446.098 799.14 467.224 790.685C474.788 787.678 479.28 781.165 485.654 776.071C499.406 765.878 515.447 759.205 532.376 756.634C544.119 755.006 555.946 756.905 564.054 747.072C576.821 731.498 572.182 708.157 578.973 688.762C588.627 661.183 613.618 645.087 636.227 627.571C644.751 621.185 652.682 614.044 659.922 606.234C684.266 578.989 693.23 538.362 686.334 500.533C681.737 475.25 670.913 450.928 657.373 429.55C650.645 418.902 641.68 409.716 633.657 400.322C625.925 391.261 619.03 382.054 615.561 370.906C608.791 349.193 612.74 325.414 603.233 303.034C592.137 277.231 572.283 256.168 547.17 243.554C511.063 224.765 465.176 222.51 426.31 236.414C406.313 243.575 388.051 254.953 367.322 259.129C342.122 264.223 316.755 262.761 293.749 262.407C274.045 262.24 254.027 262.699 236.433 269.38Z" stroke="#DE973B" stroke-miterlimit="10"/>
<path d="M229.182 256.999C211.818 263.262 190.379 276.353 177.884 293.096C170.696 302.741 166.475 313.973 168.042 327.022C169.316 337.46 175 346.521 180.579 355.039C181.624 356.605 182.669 358.129 183.713 359.653C199.97 384.184 228.054 414.372 223.749 445.855C221.263 464.164 207.806 480.699 194.119 494.269C150.573 537.464 137.263 592.142 173.224 646.485C190.275 672.436 215.704 694.712 221.743 725.297C226.257 748.262 218.525 771.499 219.445 794.693C220.594 824.026 237.436 856.177 261.11 874.319C284.785 892.461 309.337 889.977 330.985 877.639C338.254 873.471 345.019 868.483 351.149 862.774C367.281 847.972 381.761 830.247 401.842 819.579C423.51 808.075 449.734 809.558 472.113 801.082C479.761 798.18 484.546 791.979 491.087 787.136C505.123 777.343 521.098 770.672 537.934 767.574C549.636 765.486 561.337 766.655 569.278 756.655C582.484 740.057 577.49 715.589 584.615 695.213C594.707 666.235 621.224 649.513 645.212 631.266C654.382 624.629 662.928 617.173 670.746 608.99C696.782 580.492 706.54 537.757 699.457 497.965C694.63 471.471 683.284 446.043 668.907 423.871C661.782 412.785 652.191 403.224 643.603 393.411C635.245 383.996 627.869 374.371 624.066 362.68C616.648 339.924 620.639 314.934 610.484 291.551C598.8 264.791 578.158 242.927 552.101 229.713C514.49 210.193 466.764 207.875 426.478 222.719C405.749 230.36 386.776 242.448 365.275 246.916C339.26 252.302 312.931 250.736 288.818 250.319C268.403 249.901 247.633 250.298 229.182 256.999Z" stroke="#DD9C3A" stroke-miterlimit="10"/>
<path d="M221.931 244.619C203.878 250.882 180.997 264.098 167.603 281.384C159.893 291.342 155.296 302.992 156.863 316.52C158.116 327.293 164.093 336.73 170.131 345.498C171.239 347.127 172.367 348.692 173.454 350.279C190.755 375.478 221.325 407.002 217.334 439.78C215.057 458.903 201.078 476.064 186.806 490.094C140.836 535.335 126.836 592.852 164.782 649.951C182.773 677.092 209.624 700.516 215.913 732.667C220.615 756.801 212.361 781.248 213.197 805.737C214.242 836.448 231.794 870.185 256.555 889.142C281.316 908.098 307.081 905.322 329.69 892.148C337.292 887.703 344.353 882.393 350.731 876.323C367.448 860.624 382.534 841.855 403.534 830.644C426.185 818.556 453.537 820.059 477.17 811.583C484.86 808.827 489.979 802.919 496.666 798.263C510.969 788.853 526.897 782.177 543.639 778.576C555.299 776.133 566.854 776.488 574.669 766.3C588.251 748.659 583.027 723.063 590.382 701.727C600.83 671.329 628.955 653.98 654.511 634.92C664.173 628.026 673.195 620.277 681.466 611.767C709.152 581.996 719.725 537.151 712.433 495.418C707.585 467.714 695.716 441.137 680.525 418.005C672.982 406.46 662.827 396.543 653.633 386.334C644.794 376.522 636.812 366.48 632.737 354.246C624.672 330.466 628.684 304.286 617.902 279.881C605.605 252.181 584.162 229.541 557.158 215.746C518.042 195.37 468.499 193.073 426.791 208.877C405.311 217.019 385.773 229.755 363.373 234.556C336.418 240.151 309.254 238.523 283.949 238.064C262.761 237.584 241.218 237.897 221.931 244.619Z" stroke="#DDA138" stroke-miterlimit="10"/>
<path d="M214.681 232.239C195.875 238.502 171.636 251.864 157.302 269.672C148.943 279.923 144.075 291.99 145.621 306.019C146.896 317.189 153.143 326.896 159.516 335.978L162.985 340.884C181.331 366.793 214.409 399.612 210.878 433.725C208.788 453.642 194.308 471.43 179.534 485.919C131.078 533.185 116.451 593.562 156.424 653.396C175.376 681.893 203.627 706.32 210.146 740.037C215.057 765.361 206.281 790.998 207.054 816.593C207.994 848.703 226.236 884.027 252.084 903.777C277.931 923.527 304.928 920.479 328.499 906.512C336.403 901.784 343.748 896.181 350.397 889.81C367.845 873.108 383.412 853.379 405.311 841.625C428.922 828.974 457.424 830.456 482.311 822.021C490.063 819.391 495.475 813.775 502.328 809.307C516.899 800.287 532.79 793.595 549.427 789.474C561.045 786.614 572.412 786.134 580.143 775.841C594.081 757.177 588.502 730.475 596.233 708.136C607.224 676.34 636.77 658.365 663.809 638.636C674.001 631.451 683.532 623.375 692.29 614.502C721.669 583.478 733.036 536.504 725.555 492.85C720.582 463.914 708.212 436.252 692.122 412.159C684.161 400.155 673.421 389.862 663.642 379.278C654.26 369.069 645.714 358.63 641.242 345.874C632.528 321.051 636.582 293.681 625.173 268.273C612.279 239.591 590.044 216.117 562.09 201.675C521.469 180.463 470.149 178.209 426.958 194.952C404.746 203.575 384.561 217.082 361.325 222.093C333.66 228.084 305.409 226.268 279.06 225.746C257.119 225.245 234.824 225.537 214.681 232.239Z" stroke="#DCA637" stroke-miterlimit="10"/>
<path d="M207.451 219.859C187.955 226.122 162.275 239.609 147 257.96C138.203 268.524 132.854 280.925 134.463 295.539C135.737 307.084 142.257 317.147 149.089 326.458C150.343 328.17 151.597 329.84 152.809 331.51C172.2 358.108 207.764 392.242 204.609 427.65C202.77 448.36 187.746 466.795 172.304 481.743C121.194 531.034 105.961 594.251 147.94 656.841C167.854 686.633 197.525 712.124 204.358 747.406C209.457 773.9 200.179 800.727 200.848 827.554C201.704 860.958 220.636 897.931 247.57 918.495C274.504 939.06 302.713 935.761 327.266 920.938C335.498 915.911 343.126 909.957 350 903.192C368.116 885.656 384.227 864.82 407.024 852.544C431.618 839.287 461.352 840.749 487.409 832.356C495.224 829.851 500.949 824.548 507.949 820.268C522.776 811.634 538.646 804.927 555.173 800.309C566.749 797.032 577.991 795.758 585.555 785.299C599.848 765.57 594.039 737.782 602.063 714.462C613.492 681.246 644.543 662.686 673.107 642.185C683.866 634.757 693.93 626.372 703.176 617.132C734.248 584.877 746.409 535.711 738.698 490.178C733.621 460.031 720.728 431.241 703.845 406.23C695.487 393.704 684.119 383.14 673.776 372.117C663.809 361.678 654.761 350.676 649.955 337.377C640.573 311.51 644.669 282.929 632.612 256.519C619.127 226.892 596.092 202.635 567.188 187.624C525.063 165.578 471.842 163.323 427.292 181.027C404.307 190.13 383.537 204.347 359.486 209.65C330.964 215.913 301.773 214.097 274.316 213.408C251.478 213.011 228.43 213.115 207.451 219.859Z" stroke="#DBAB35" stroke-miterlimit="10"/>
<path d="M200.2 207.478C179.994 213.742 152.893 227.374 136.72 246.227C127.463 257.104 121.654 269.985 123.284 285.037C124.537 297 131.349 307.355 138.433 316.938C139.749 318.712 141.066 320.424 142.361 322.136C162.776 349.402 200.869 384.768 198.069 421.575C196.439 443.099 180.872 462.181 164.866 477.568C111.436 528.884 95.4927 595.065 139.499 660.285C160.394 691.371 191.445 717.927 198.466 754.776C203.752 782.438 193.952 810.476 194.558 838.494C195.311 873.379 214.931 911.856 242.952 933.214C270.973 954.571 300.415 951.001 325.908 935.301C334.469 929.958 342.392 923.654 349.52 916.512C368.326 898.056 384.937 876.219 408.654 863.379C434.209 849.558 465.072 850.853 492.382 842.648C500.281 840.247 506.299 835.258 513.466 831.166C528.544 822.92 544.405 816.192 560.815 811.082C572.349 807.386 583.445 805.299 590.884 794.714C605.511 773.837 599.43 745.047 607.767 720.746C619.636 686.11 652.233 666.924 682.218 645.692C693.531 637.988 704.126 629.282 713.875 619.679C746.618 586.15 759.594 534.938 751.717 487.401C746.514 456.085 733.099 426.147 715.379 400.196C706.603 387.273 694.651 376.271 683.743 364.872C673.296 353.932 663.6 342.638 658.46 328.796C648.451 301.885 652.567 272.114 639.884 244.703C625.761 214.204 601.934 189.232 572.12 173.678C528.49 150.713 473.43 148.625 427.46 167.227C403.785 176.831 382.326 191.758 357.439 197.332C328.185 203.908 297.949 201.967 269.364 201.215C245.836 200.589 222.036 200.714 200.2 207.478Z" stroke="#DBAF33" stroke-miterlimit="10"/>
<path d="M192.949 195.119C172.054 201.382 143.531 215.12 126.418 234.515C116.534 245.705 110.454 259.004 112 274.557C113.275 286.896 120.358 297.522 127.797 307.418C129.176 309.234 130.555 311.009 131.976 312.763C153.436 340.717 193.994 377.482 191.612 415.5C190.212 437.838 174.101 457.546 157.51 473.392C101.678 526.734 85.0656 595.67 131.119 663.73C152.934 696.09 185.448 723.731 192.698 762.146C198.173 790.998 187.851 820.226 188.373 849.454C189.021 885.718 209.269 925.761 238.522 947.953C267.776 970.146 298.304 966.262 324.758 949.79C333.634 944.183 341.843 937.585 349.227 930.124C368.66 910.75 385.857 887.889 410.472 874.507C436.988 860.102 468.979 861.396 497.564 853.212C505.525 850.936 511.836 846.281 519.17 842.335C534.506 834.505 550.369 827.752 566.645 822.126C578.137 817.95 589.066 815.153 596.4 804.401C611.298 782.543 605.03 752.584 613.68 727.301C625.988 691.267 660.089 671.455 691.558 649.471C703.424 641.506 714.55 632.493 724.803 622.539C759.239 587.758 772.863 534.437 764.922 484.937C759.531 452.369 745.657 421.345 727.122 394.476C717.928 381.094 705.391 369.737 693.898 357.941C682.803 346.605 672.669 334.976 667.194 320.529C656.516 292.574 660.674 261.592 647.343 233.179C632.653 201.678 608.026 175.862 577.239 159.691C532.125 135.953 475.227 133.761 427.836 153.427C403.283 163.448 381.197 179.086 355.475 184.952C325.301 191.821 294.188 189.796 264.495 188.94C240.298 188.251 215.642 188.313 192.949 195.119Z" stroke="#DAB431" stroke-miterlimit="10"/>
<path d="M185.699 182.739C164.093 189.002 134.17 202.886 116.116 222.802C105.669 234.285 99.2329 248.001 100.8 264.056C102.054 276.791 109.43 287.793 117.224 297.898C118.645 299.756 120.108 301.572 121.528 303.389C144.033 332.032 187.099 370.196 185.072 409.424C183.902 432.577 167.269 452.912 150.114 469.217C91.815 524.583 74.5344 596.38 122.594 667.196C145.37 700.829 179.284 729.535 186.806 769.494C192.469 799.516 181.645 830.038 182.084 860.394C182.627 897.973 203.627 939.727 233.842 962.692C264.057 985.657 295.922 981.482 323.358 964.237C332.559 958.356 341.049 951.435 348.663 943.611C368.764 923.339 386.505 899.434 412.018 885.509C439.516 870.54 472.615 871.709 502.496 863.651C510.519 861.563 517.122 857.158 524.624 853.4C539.606 845.926 557.534 838.786 572.203 833.065C583.654 828.535 594.436 824.882 601.666 813.984C616.857 791.019 610.379 759.995 619.322 733.732C632.069 696.299 667.696 675.881 700.648 653.145C713.082 644.905 724.753 635.571 735.522 625.253C771.63 589.219 786.11 533.769 777.919 482.328C772.403 448.548 758.006 416.397 738.636 388.61C729.024 374.768 715.901 363.035 703.824 350.843C692.185 339.131 681.487 327.022 675.678 312.115C664.352 283.117 668.573 250.945 654.594 221.529C639.299 189.071 613.869 162.454 582.128 145.682C535.49 121.151 476.773 119.063 427.94 139.502C402.866 150.066 380.069 166.413 353.51 172.551C322.522 179.733 290.448 177.603 259.627 176.726C234.552 175.933 209.248 175.912 185.699 182.739Z" stroke="#D9B82F" stroke-miterlimit="10"/>
<path d="M178.448 170.359C156.131 176.622 124.788 190.652 105.836 211.07C94.8658 222.886 88.0329 236.999 89.6001 253.555C90.8538 266.687 98.5225 278.002 106.651 288.378C108.134 290.278 109.66 292.157 111.164 294.015C134.693 323.243 180.245 362.701 178.615 403.37C177.654 427.295 160.499 448.277 142.758 465.041C81.9941 522.412 64.0658 597.153 114.152 670.641C137.869 705.568 173.203 735.36 181.018 776.885C186.869 808.201 175.522 839.726 175.899 871.355C176.337 910.416 198.027 953.59 229.328 977.39C260.63 1001.19 293.728 996.785 322.105 978.643C331.625 972.473 340.409 965.237 348.287 957.077C369.036 935.865 387.34 910.938 413.752 896.533C442.212 880.958 476.439 881.918 507.573 874.11C515.681 872.023 522.597 868.035 530.245 864.465C545.54 857.346 563.364 850.31 577.949 843.985C589.358 839.057 599.973 834.611 607.078 823.546C622.54 799.516 615.875 767.428 625.152 740.183C638.337 701.309 675.469 680.286 709.905 656.82C722.893 648.329 735.09 638.687 746.346 628.009C784.146 590.722 799.442 533.122 791.021 479.781C785.4 444.79 770.481 411.533 750.275 382.785C740.266 368.505 726.537 356.417 713.875 343.828C701.672 331.74 690.451 319.214 684.308 303.765C672.334 273.722 676.576 240.339 661.949 209.921C646.083 176.493 619.859 149.063 587.164 131.694C539.105 106.287 478.508 104.157 428.233 125.64C402.364 136.705 378.982 153.741 351.588 160.171C319.764 167.645 286.812 165.432 254.821 164.346C228.911 163.595 202.833 163.532 178.448 170.359Z" stroke="#D8BC2C" stroke-miterlimit="10"/>
<path d="M171.197 157.978C148.212 164.242 115.406 178.355 95.5342 199.357C84.0208 211.445 76.8327 225.997 78.3999 243.074C79.6327 256.582 87.5939 268.127 96.0566 278.837C97.6238 280.799 99.2118 282.72 100.779 284.62C125.373 314.662 173.433 355.31 172.158 397.295C171.406 422.034 153.728 443.642 135.403 460.866C72.173 520.262 53.5969 597.8 105.71 674.085C130.388 710.286 167.164 741.206 175.146 784.254C181.164 816.635 169.337 849.454 169.609 882.378C169.964 922.817 192.343 967.578 224.731 992.192C257.119 1016.81 291.451 1012.11 320.851 993.131C330.689 986.671 339.761 979.114 347.889 970.605C369.286 948.475 388.134 922.587 415.466 907.535C444.886 891.376 480.242 892.232 512.651 884.57C520.842 882.628 528.051 878.933 535.845 875.551C551.454 868.786 569.152 861.793 583.674 854.945C595.042 849.579 605.469 844.381 612.489 833.149C628.182 808.096 621.37 774.86 630.94 746.634C644.585 706.361 683.179 684.712 719.14 660.494C732.686 651.747 745.414 641.797 757.17 630.765C796.642 592.205 812.773 532.496 804.143 477.192C798.418 440.991 782.955 406.606 761.913 376.981C751.466 362.242 737.173 349.84 723.925 336.792C711.179 324.266 699.415 311.385 692.916 295.413C680.379 264.327 684.558 229.755 669.325 198.334C652.843 163.973 625.817 135.764 592.179 117.811C542.51 91.4427 480.095 89.3341 428.358 111.756C401.737 123.322 377.728 140.984 349.519 147.79C316.86 155.557 282.863 153.302 249.827 152.154C223.248 151.319 196.418 151.131 171.197 157.978Z" stroke="#D7C029" stroke-miterlimit="10"/>
<path d="M163.946 145.598C140.23 151.862 106.045 166.121 85.2538 187.645C73.1344 200.046 65.6329 215.099 67.1792 232.573C68.4329 246.477 76.6658 258.419 85.4837 269.317C87.1135 271.405 88.7852 273.305 90.3941 275.246C116.012 305.977 166.579 347.941 165.618 391.219C165.096 416.773 146.812 439.007 128.006 456.69C62.3523 518.09 43.1284 598.51 97.2478 677.53C122.887 715.109 161.042 746.926 169.316 791.624C175.585 825.174 163.173 859.204 163.382 893.276C163.612 935.03 186.702 981.419 220.197 1006.85C253.693 1032.28 289.152 1027.31 319.514 1007.5C329.676 1000.75 339.034 992.871 347.409 984.008C369.454 961.043 388.845 934.007 417.075 918.454C447.478 901.752 483.94 902.378 517.645 894.925C525.767 892.797 533.699 890.004 541.361 886.574C557.284 880.165 574.794 873.192 589.316 865.822C600.642 860.06 610.902 854.068 617.818 842.669C633.74 816.426 626.782 782.25 636.624 753.022C650.708 711.268 690.952 689.075 728.272 664.127C742.396 655.109 755.683 644.845 767.973 633.458C809.137 593.645 826.063 531.807 817.245 474.582C811.394 437.149 795.409 401.658 773.531 371.052C762.687 355.853 747.767 343.035 733.955 329.652C720.645 316.792 708.337 303.451 701.505 286.937C688.236 254.807 692.561 219.024 676.66 186.601C659.61 151.304 631.815 122.305 597.257 103.76C546.125 76.62 481.893 74.5322 428.818 97.9565C401.466 110.003 376.809 128.479 347.764 135.536C314.331 143.573 279.331 141.256 245.167 140.024C217.606 138.98 190.149 138.73 163.946 145.598Z" stroke="#D6C426" stroke-miterlimit="10"/>
<path d="M156.716 133.218C132.29 139.481 96.7045 153.887 74.9732 175.933C62.4358 188.647 54.4329 204.013 56 222.072C57.2538 236.373 65.7582 248.628 74.9314 259.797C76.6239 261.885 78.3582 263.972 80.0508 265.872C106.693 297.292 159.746 340.55 159.245 385.144C158.952 411.491 140.209 434.373 120.713 452.515C52.5105 515.919 32.6597 599.24 88.806 680.996C115.385 719.765 154.961 752.73 163.487 798.994C169.881 833.734 157.009 868.953 157.218 904.215C157.364 947.431 181.143 995.344 215.725 1021.57C250.642 1048.04 287.042 1042.57 318.322 1021.92C328.8 1014.89 338.44 1006.69 347.054 997.474C369.788 973.528 389.722 945.531 418.851 929.456C450.194 912.128 487.806 912.566 522.785 905.343C531.056 903.373 539.16 900.762 547.024 897.534C563.507 891.692 579.565 884.716 595.084 876.657C606.346 870.394 616.439 863.692 623.251 852.147C639.382 824.777 632.32 789.516 642.496 759.369C657.018 716.278 698.705 693.397 737.57 667.676C752.197 657.968 766.511 647.863 778.776 636.089C821.633 595.023 839.373 531.055 830.325 471.889C824.37 433.224 807.863 396.731 785.149 365.102C773.887 349.444 758.382 336.249 744.006 322.491C730.131 309.255 717.281 295.476 710.114 278.44C696.197 245.266 700.564 208.293 684.015 174.868C666.341 138.608 637.72 108.807 602.188 89.6681C549.573 61.7552 483.502 59.6883 428.985 84.0103C400.922 96.5367 375.597 115.681 345.737 122.988C311.406 131.339 275.507 128.917 240.236 127.602C211.964 126.642 183.651 126.349 156.716 133.218Z" stroke="#D5C822" stroke-miterlimit="10"/>
<path d="M149.466 120.838C124.391 127.101 87.3224 141.715 64.6507 164.2C51.5283 177.228 43.2119 193.011 44.7791 211.592C46.0119 226.206 54.8089 238.836 64.3373 250.277C66.0925 252.365 67.8686 254.453 69.6447 256.54C97.2686 288.712 152.976 333.202 152.767 379.111C152.767 406.251 133.418 429.78 113.337 448.381C42.6895 513.79 22.191 599.95 80.3641 684.482C107.884 724.525 148.881 758.576 157.678 806.406C164.26 842.314 150.949 878.745 150.928 915.218C151.054 959.812 175.439 1009.31 211.107 1036.31C247.173 1063.63 284.722 1057.85 316.964 1036.31C327.766 1028.99 337.7 1020.46 346.573 1010.9C369.955 986.034 390.454 957.014 420.481 940.396C452.827 922.504 491.525 922.671 527.758 915.74C536.178 913.922 544.459 911.516 552.54 908.537C569.089 902.858 586.412 896.011 600.746 887.535C611.967 880.916 621.872 873.401 628.6 861.668C644.919 833.212 637.731 796.948 648.221 765.758C663.182 721.268 706.394 697.76 746.743 671.309C761.976 661.329 776.791 650.912 789.558 638.782C834.066 596.443 852.621 530.366 843.385 469.259C837.304 429.383 820.275 391.679 796.725 359.215C785.066 343.097 768.955 329.548 753.994 315.372C739.555 301.76 726.161 287.585 718.66 269.985C704.033 235.788 708.504 197.604 691.307 163.177C673.044 125.976 643.632 95.3851 607.161 75.6597C553.021 46.8908 485.131 44.8657 429.194 70.1272C400.358 83.1964 374.406 103.051 343.71 110.713C308.543 119.314 271.704 116.83 235.325 115.452C206.322 114.303 177.257 113.949 149.466 120.838Z" stroke="#D4CC1E" stroke-miterlimit="10"/>
<path d="M142.215 108.458C116.367 114.721 77.9613 129.502 54.3285 152.467C40.6628 165.808 31.9703 181.987 33.4329 201.069C34.6867 216.143 43.7553 229.024 53.6389 240.736C55.4568 242.824 57.2956 244.911 59.1344 246.999C87.9494 279.964 146.102 325.748 146.269 372.993C146.436 400.948 126.585 425.187 105.94 444.164C32.8688 511.556 11.7225 600.618 71.9016 687.885C100.403 729.222 142.8 764.338 151.827 813.712C158.597 850.832 144.743 888.453 144.66 926.136C144.66 972.066 169.734 1023.17 206.531 1051.02C243.725 1079.19 282.466 1073.07 315.669 1050.77C326.789 1043.17 337.009 1034.33 346.134 1024.43C370.164 998.643 391.206 968.601 422.152 951.356C455.46 932.88 495.287 932.796 532.794 926.136C541.36 924.485 549.813 922.288 558.099 919.56C574.961 914.236 592.158 907.368 606.43 898.432C617.609 891.397 627.326 883.108 633.97 871.292C650.457 841.709 643.185 804.485 653.988 772.25C669.388 726.32 714.105 702.228 755.937 675.046C771.714 664.774 787.093 654.064 800.34 641.642C846.54 598.05 865.911 529.844 856.445 466.795C850.176 425.709 832.708 386.877 808.385 353.494C796.308 336.918 779.612 322.992 764.066 308.441C749.021 294.432 735.084 279.818 727.164 261.613C711.932 226.372 716.424 186.956 698.558 151.548C679.71 113.405 649.486 82.0403 612.051 61.7761C556.427 32.1513 486.678 30.1471 429.34 56.3689C399.878 69.8348 373.278 90.378 341.767 98.1861C305.764 107.101 267.964 104.449 230.457 103.03C200.597 101.965 170.863 101.61 142.215 108.458Z" stroke="#D3D018" stroke-miterlimit="10"/>
<path d="M134.964 96.0984C108.385 102.362 68.6001 117.184 44.0688 140.797C29.8807 154.409 20.8956 171.006 22.3583 190.61C23.5911 206.08 32.9732 219.253 43.2538 231.237C45.1344 233.325 47.0568 235.6 48.9374 237.751C78.6926 271.259 139.311 318.399 139.896 366.939C140.293 395.687 119.899 420.468 98.6897 440.009C22.9852 509.343 1.25383 601.328 63.4598 691.33C92.9016 733.94 136.72 770.142 145.997 821.082C152.955 859.371 138.579 898.203 138.433 937.076C138.308 984.447 164.134 1037.1 201.976 1065.74C240.32 1094.76 280.23 1088.33 314.394 1065.2C325.839 1057.31 336.354 1048.15 345.737 1037.89C370.415 1011.19 392 980.125 423.845 962.421C458.134 943.36 499.194 942.964 537.872 936.638C546.589 935.149 555.213 933.155 563.699 930.667C580.875 925.698 597.967 918.871 612.155 909.393C623.433 902.252 632.765 892.433 639.319 880.812C656.036 850.101 648.618 811.771 659.714 778.639C675.573 731.31 721.794 706.57 765.111 678.637C781.451 668.198 797.373 657.091 811.081 644.252C858.973 599.407 879.137 529.072 869.484 464.081C863.215 421.784 845.099 381.845 819.878 347.502C807.34 330.487 790.102 316.186 773.908 301.259C758.361 286.854 743.881 271.864 735.711 253.242C719.851 216.957 724.364 176.351 705.851 139.941C686.23 101.172 655.702 68.3317 617.003 47.7467C588.206 32.713 556.362 24.4263 523.884 23.5148C491.405 22.6032 459.146 29.0908 429.549 42.4856C399.251 56.4943 372.045 77.7682 339.699 85.9103C302.985 95.0754 264.203 92.3614 225.672 90.8374C195.039 89.6265 164.448 89.2089 134.964 96.0984Z" stroke="#D2D311" stroke-miterlimit="10"/>
<path d="M11.1583 180.108C12.6209 198.898 25.8896 214.368 38.5105 228.356C69.3105 262.553 132.373 311.009 133.376 360.864C133.961 390.426 113.087 415.854 91.2717 435.813C13.2269 507.234 -9.21487 602.038 55.018 694.691C85.4001 738.533 130.639 775.862 140.167 828.306C147.314 867.764 132.394 907.785 132.206 947.89C131.955 996.66 158.472 1050.86 197.421 1080.31C249.66 1119.98 304.928 1095.18 345.278 1051.21C370.624 1023.59 392.752 991.503 425.516 973.256C460.767 953.611 502.976 952.922 542.887 946.909C582.797 940.897 625.946 925.907 644.731 890.207C661.448 858.39 654.114 819.036 665.523 784.902C687.964 717.781 770.105 695.025 821.946 646.799C871.511 600.702 892.511 528.258 882.543 461.325C876.128 417.817 857.469 376.751 831.475 341.49C806.129 307.167 761.684 283.764 744.361 244.64C727.833 207.311 732.367 165.515 713.248 128.082C692.958 88.4155 661.594 54.6569 622.06 33.5709C592.534 18.1126 559.859 9.61272 526.537 8.7225C493.215 7.83228 460.131 14.5754 429.821 28.4351C398.812 42.9239 370.958 64.9286 337.755 73.3212C270.409 90.3571 196.439 67.8931 127.63 83.5511C84.6478 93.4887 6.89558 125.326 11.1583 180.108Z" stroke="#D1D706" stroke-miterlimit="10"/>
</svg>
