<svg width="1024" height="2415" viewBox="0 0 1024 2415" fill="none" xmlns="http://www.w3.org/2000/svg">
<path d="M721.481 458.778C714.355 459.759 706.624 461.638 702.403 467.463C697.305 474.499 699.415 484.353 702.863 492.307C706.31 500.261 711.012 508.257 710.49 516.921C709.152 538.613 678.958 545.795 669.242 565.231C662.43 578.864 667.382 595.587 675.51 608.489C682.093 618.928 691.14 628.385 702.821 632.393C714.502 636.402 728.982 633.73 736.254 623.813C741.499 616.735 742.397 607.382 746.263 599.47C753.973 583.687 774.639 575.649 791 582.121C803.391 587.027 815.302 599.115 827.734 594.313C836.949 590.743 840.481 578.989 838.642 569.261C836.803 559.532 831.099 551.118 826.71 542.266C822.322 533.414 819.251 522.934 822.97 513.769C826.418 505.272 835.382 498.883 835.508 489.697C836.343 454.185 741.749 455.96 721.481 458.778Z" stroke="#E6273D" stroke-miterlimit="10"/>
<path d="M695.152 455.187C689.281 462.139 690.095 472.202 692.582 480.699C693.919 485.334 695.779 490.073 697.346 495C698.786 499.034 699.644 503.251 699.895 507.526C699.895 508.299 699.895 509.071 699.895 509.823C699.018 523.727 688.194 532.663 677.287 543.227C671.394 548.542 666.223 554.606 661.907 561.264C659.113 565.732 657.355 570.768 656.762 576.002C656.17 581.237 656.757 586.537 658.481 591.516C660.298 596.923 663.098 602.1 665.125 607.591C666.651 611.767 667.549 615.817 669.304 619.658C672.761 627.083 677.795 633.665 684.057 638.949C689.041 643.196 695.099 645.991 701.567 647.028C703.707 647.383 705.876 647.53 708.045 647.467C713.834 647.191 719.544 646.015 724.97 643.98C731.134 641.788 737.278 639.158 741.415 634.46C747.182 627.905 747.934 618.447 751.863 610.723C759.928 595.065 780.448 587.09 796.767 592.977C809.116 597.466 821.298 609.679 833.188 603.791C837.66 601.704 840.063 597.153 842.257 592.476C845.338 586.346 847.258 579.7 847.919 572.872C848.076 570.422 848.013 567.963 847.731 565.523C846.833 557.173 843.552 548.383 839.875 539.615C836.689 532.662 834.38 525.34 833 517.819C832.393 514.17 832.393 510.445 833 506.796C833.71 503.503 834.863 500.322 836.427 497.338C839.436 491.263 843.301 485.23 842.904 478.152C842.298 467.108 834.191 459.154 822.009 453.726C808.385 447.609 790.018 444.895 772.507 444.561C763.543 444.414 754.788 444.895 746.576 445.124C733.767 445.479 722.839 445.918 716.57 446.586C708.713 447.358 700.146 449.174 695.152 455.187Z" stroke="#E6323E" stroke-miterlimit="10"/>
<path d="M687.901 442.661C681.257 449.53 680.755 459.822 682.281 468.841C683.277 474.085 684.561 479.27 686.125 484.374C687.594 488.757 688.664 493.264 689.322 497.839C689.322 498.675 689.469 499.468 689.489 500.261C689.761 514.875 681.257 525.063 670.809 536.901C664.962 543.192 659.525 549.852 654.531 556.839C646.758 568.426 644.501 581.453 650.018 594.71C652.797 601.391 656.997 607.654 659.275 614.71C660.988 620.013 661.364 625.316 663.036 630.347C666.366 639.386 672.033 647.381 679.46 653.521C685.327 658.43 692.703 661.179 700.355 661.308C702.804 661.374 705.254 661.2 707.669 660.787C714.205 659.441 720.59 657.44 726.725 654.816C733.851 652.06 741.352 649.805 746.534 644.732C752.678 638.636 753.409 629.157 757.588 621.621C765.946 606.547 786.361 598.656 802.555 604C814.884 608.176 827.275 620.034 838.663 613.458C843.761 610.535 845.642 604.668 848.149 599.032C851.597 591.223 855.4 583.729 857.239 576.651C857.962 573.916 858.438 571.121 858.66 568.3C859.412 558.655 856.967 547.778 853.06 536.984C849.752 528.767 846.96 520.351 844.701 511.786C843.711 507.782 843.199 503.675 843.176 499.551C843.324 495.869 844.029 492.23 845.266 488.758C847.627 481.639 851.43 474.436 850.489 466.315C849.089 454.331 840.313 445.438 827.212 439.55C812.084 432.64 791.898 429.905 772.884 430.531C763.167 430.865 753.785 432.097 744.758 432.619C731.113 433.308 719.224 433.558 711.848 434.206C703.134 434.999 693.71 436.711 687.901 442.661Z" stroke="#E53A3E" stroke-miterlimit="10"/>
<path d="M680.651 430.322C673.275 437.107 671.415 447.63 672 457.15C672.416 462.8 673.396 468.395 674.925 473.851C676.242 478.778 677.934 483.518 678.749 488.299C678.896 489.175 679.042 490.031 679.105 490.866C680.525 506.107 674.34 517.631 664.331 530.805C659.003 537.84 652.588 545.21 647.197 552.642C637.167 566.463 634.033 582.142 641.576 598.134C645.316 606.109 650.916 613.437 653.445 622.059C655.325 628.552 655.033 635.045 656.809 641.287C660.053 651.827 666.349 661.169 674.905 668.135C681.607 673.729 690.256 676.439 698.955 675.672C701.722 675.456 704.459 674.959 707.125 674.19C714.332 671.804 721.399 669.016 728.293 665.839C736.379 662.498 745.343 660.64 751.445 655.212C757.86 649.492 758.696 640.076 763.042 632.686C771.693 618.072 792.003 610.076 808.134 614.961C820.421 618.635 832.937 630.159 843.928 623.061C849.654 619.366 850.991 612.101 853.791 605.483C857.678 596.255 863.006 588.175 866.328 580.325C867.612 577.355 868.619 574.273 869.337 571.119C871.761 560.2 870.173 547.193 866.036 534.583C862.922 525.084 858.89 515.272 856.215 506.107C854.813 501.71 853.772 497.207 853.102 492.641C852.625 488.601 852.816 484.51 853.666 480.532C855.379 472.369 859.14 463.977 857.636 454.853C855.546 441.93 846.039 432.264 832.039 425.75C815.322 418.005 793.382 415.312 773.03 416.857C762.582 417.671 752.552 419.654 742.69 420.364C728.23 421.408 715.379 421.491 706.875 422.076C697.409 422.64 687.275 424.247 680.651 430.322Z" stroke="#E5433E" stroke-miterlimit="10"/>
<path d="M673.421 417.942C665.293 424.665 662.075 435.396 661.698 445.438C661.551 451.497 662.255 457.548 663.788 463.413C665.084 468.737 667.09 473.852 668.239 478.841C668.448 479.76 668.657 480.658 668.803 481.555C671.31 497.443 667.487 510.282 657.937 524.792C652.776 532.621 645.922 540.701 639.904 548.529C627.597 564.542 623.648 582.893 633.176 601.641C637.878 610.89 644.898 619.303 647.657 629.491C649.746 637.153 648.89 644.857 650.624 652.31C653.796 664.355 660.727 675.075 670.412 682.916C674.175 686.028 678.571 688.282 683.295 689.523C688.019 690.763 692.957 690.959 697.764 690.098C700.852 689.611 703.879 688.792 706.791 687.656C714.376 684.775 721.71 680.349 730.048 676.737C739.116 672.791 749.439 671.33 756.585 665.526C763.209 660.16 764.212 650.912 768.704 643.625C777.669 629.283 797.958 621.412 813.922 625.755C826.167 629.011 838.767 640.014 849.445 632.498C855.713 628.009 856.57 619.408 859.684 611.808C864.03 601.161 870.884 592.476 875.669 583.875C877.514 580.643 879.053 577.246 880.266 573.728C884.445 561.557 883.63 546.421 879.263 531.974C876.045 521.264 871.469 510.345 867.958 500.22C866.141 495.434 864.579 490.556 863.278 485.605C862.197 481.21 861.9 476.659 862.4 472.16C863.445 462.954 867.185 453.371 865.116 443.225C862.275 429.383 852.078 418.84 837.158 411.783C819 403.224 795.179 400.51 773.385 403.036C762.227 404.351 751.549 407.065 740.851 408.026C725.576 409.403 711.743 409.32 702.131 409.863C691.767 410.28 680.839 411.783 673.421 417.942Z" stroke="#E44B3F" stroke-miterlimit="10"/>
<path d="M666.17 405.562C657.311 412.222 652.734 423.161 651.397 433.725C650.646 440.143 651.021 446.643 652.505 452.932C653.821 458.632 656.099 464.018 657.603 469.3C657.875 470.281 658.146 471.242 658.355 472.181C661.97 488.716 660.445 502.892 651.418 518.717C646.445 527.339 639.111 536.107 632.487 544.354C617.86 562.559 613.116 583.603 624.672 605.107C630.334 615.545 638.755 625.107 641.764 636.861C644.042 645.692 642.621 654.607 644.334 663.25C647.416 676.796 654.976 688.909 665.794 697.635C669.997 701.105 674.958 703.536 680.276 704.733C685.595 705.93 691.121 705.859 696.406 704.524C699.812 703.753 703.125 702.619 706.29 701.142C714.648 697.322 722.442 691.873 731.678 687.718C741.708 683.209 753.346 682.102 761.579 675.943C768.349 670.891 769.561 661.684 774.221 654.669C783.499 640.682 803.475 632.894 819.564 636.673C831.746 639.554 844.409 649.909 854.731 642.06C861.69 636.736 861.94 626.798 865.367 618.218C870.131 606.172 878.51 596.86 884.779 587.507C887.206 584.02 889.305 580.316 891.048 576.442C896.836 562.997 896.919 545.753 892.322 529.26C889 517.339 883.964 505.314 879.555 494.249C877.466 488.633 874.937 483.476 873.287 478.382C871.62 473.637 870.834 468.628 870.967 463.601C871.364 453.35 875.146 442.619 872.43 431.429C868.919 416.627 857.97 405.207 842.152 397.649C822.49 388.255 796.83 385.562 773.615 389.027C761.705 390.823 750.421 394.288 738.866 395.499C722.776 397.19 707.982 396.981 697.242 397.441C686.502 397.9 674.424 399.341 666.17 405.562Z" stroke="#E4533F" stroke-miterlimit="10"/>
<path d="M658.919 393.182C649.349 399.8 643.373 410.927 641.116 422.013C639.749 428.757 639.814 435.713 641.304 442.431C642.876 448.32 644.788 454.112 647.03 459.78C647.364 460.803 647.698 461.868 647.97 462.807C652.672 479.989 653.633 495.522 644.94 512.641C640.176 522.078 632.403 531.431 625.131 540.178C608.164 560.534 602.648 584.313 616.23 608.551C622.833 620.347 632.675 630.911 635.934 644.231C638.4 654.252 636.436 664.336 638.024 674.21C641.07 689.267 649.326 702.772 661.343 712.353C665.999 716.18 671.536 718.788 677.453 719.939C683.371 721.091 689.483 720.751 695.236 718.95C698.963 717.897 702.564 716.441 705.976 714.608C714.878 709.89 723.319 703.418 733.475 698.699C744.466 693.605 756.46 691.079 766.74 686.382C772.654 680.411 775.098 672.54 779.904 665.713C789.495 652.081 809.451 644.335 825.373 647.571C837.513 650.055 848.922 657.864 860.206 651.6C866.621 644.231 867.519 634.21 871.239 624.627C876.463 611.182 886.346 601.265 894.098 591.223C897.057 587.472 899.659 583.453 901.872 579.219C909.352 564.605 910.23 545.147 905.445 526.713C901.644 513.603 896.881 500.791 891.194 488.382C888.582 482.307 885.573 476.774 883.337 471.284C881.047 466.21 879.742 460.747 879.492 455.187C879.242 443.893 882.961 431.993 879.701 419.696C875.522 403.975 863.8 391.679 847.063 383.578C825.895 373.348 798.397 370.676 773.782 375.102C761.14 377.378 749.209 381.574 736.818 383.056C719.892 385.144 704.158 384.706 692.31 385.144C680.463 385.582 668.009 386.898 658.919 393.182Z" stroke="#E35A40" stroke-miterlimit="10"/>
<path d="M651.669 380.802C641.394 387.81 633.979 398.27 630.773 410.28C628.822 417.346 628.578 424.773 630.063 431.951C631.648 438.215 633.745 444.339 636.331 450.26C636.749 451.346 637.146 452.348 637.502 453.434C643.269 471.263 646.654 488.132 638.379 506.587C633.803 516.817 625.487 526.901 617.672 536.003C598.343 558.509 592.075 585.002 607.663 611.996C615.227 625.086 626.469 636.715 630 651.663C632.654 662.853 630.146 674.148 631.755 685.213C633.991 700.725 643.833 717.092 656.579 727.155C661.699 731.332 667.818 734.105 674.336 735.203C680.853 736.302 687.545 735.686 693.752 733.418C697.802 732.083 701.691 730.305 705.349 728.116C714.899 722.479 723.905 714.984 734.937 709.744C746.91 704.065 760.012 701.602 771.567 696.842C777.606 691.059 780.302 683.438 785.275 676.799C795.179 663.521 815.009 655.922 830.869 658.532C842.967 660.62 854.293 667.697 865.388 661.204C872.2 652.853 872.764 641.642 876.818 631.099C882.481 616.214 893.869 605.691 903.105 594.856C906.618 590.834 909.758 586.502 912.487 581.912C921.639 565.941 923.352 544.458 918.316 524.082C914.395 509.779 909.134 495.875 902.603 482.557C899.594 476.023 895.979 470.031 893.158 464.248C890.33 458.822 888.57 452.904 887.976 446.816C887.078 434.477 890.818 421.387 886.931 408.13C882.063 391.428 869.609 378.317 851.973 369.695C829.302 358.63 799.964 355.979 773.928 361.344C760.534 364.121 747.976 369.027 734.77 370.76C717.009 373.098 700.293 372.618 687.337 372.952C674.842 373.244 661.615 374.455 651.669 380.802Z" stroke="#E36140" stroke-miterlimit="10"/>
<path d="M644.418 368.421C633.233 375.442 624.795 386.083 620.513 398.568C617.966 405.949 617.411 413.87 618.904 421.533C620.179 428.402 623.313 434.728 625.863 440.824C626.343 441.951 626.824 443.037 627.221 444.122C634.054 462.62 639.884 480.845 632.027 500.595C627.639 511.639 618.842 522.37 610.421 531.911C588.71 556.505 581.69 585.774 599.325 615.42C607.851 629.805 620.493 642.561 624.275 658.949C627.116 671.33 624.066 683.793 625.612 696.09C627.701 712.98 638.296 730.913 652.149 741.79C665.46 752.229 679.564 752.563 692.561 747.782C696.961 746.168 701.166 744.067 705.099 741.519C715.316 734.963 724.845 726.445 736.797 720.642C749.752 714.378 764.087 711.998 776.791 707.197C782.934 701.602 785.901 694.211 791.021 687.739C801.239 674.837 820.964 667.196 836.74 669.367C848.797 671.016 860.039 677.405 870.946 670.661C878.176 661.329 878.406 648.949 882.752 637.425C888.854 621.141 901.767 610.013 912.487 598.405C916.562 594.124 920.235 589.477 923.457 584.522C934.302 567.319 936.83 543.707 931.585 521.389C927.928 505.815 921.137 490.449 914.409 476.607C910.961 469.613 906.761 463.35 903.355 457.087C899.947 451.315 897.704 444.931 896.752 438.298C895.185 424.915 898.946 410.656 894.454 396.376C888.916 378.776 875.648 364.726 857.134 355.582C832.958 343.682 801.803 341.072 774.325 347.377C760.221 350.634 747.015 356.271 732.973 358.275C714.397 360.926 696.719 360.363 682.636 360.592C669.2 360.906 655.2 362.033 644.418 368.421Z" stroke="#E26840" stroke-miterlimit="10"/>
<path d="M637.167 356.041C625.038 363.069 615.57 373.901 610.233 386.856C607.09 394.477 606.205 402.839 607.684 410.948C608.979 418.214 612.385 424.853 615.29 431.22C615.833 432.389 616.376 433.537 616.836 434.665C624.734 453.809 633.009 473.371 625.57 494.436C621.391 506.274 612.072 517.673 603.066 527.673C578.952 554.375 571.221 586.422 590.884 618.907C600.349 634.544 614.412 648.302 618.445 666.34C621.475 679.889 617.901 693.48 619.385 707.071C621.475 725.339 632.654 744.859 647.594 756.529C662.054 767.782 677.307 767.845 691.287 762.229C695.984 760.335 700.45 757.912 704.597 755.005C715.484 747.552 725.493 737.99 738.427 731.665C752.343 724.838 767.89 722.52 781.785 717.656C788.054 712.249 791.251 705.13 796.537 698.866C806.985 686.34 826.669 678.72 842.382 680.348C854.397 681.601 865.555 687.28 876.254 680.348C883.901 670.014 883.818 656.486 888.457 643.959C895.018 626.276 909.352 614.522 921.639 602.205C926.267 597.662 930.465 592.699 934.176 587.382C946.713 568.926 950.036 543.185 944.624 518.925C940.863 502.224 933.633 485.668 925.985 470.908C922.119 463.455 917.334 456.816 913.343 450.156C909.352 444.055 906.617 437.22 905.298 430.051C903.104 415.646 906.866 400.196 901.746 384.893C895.478 366.354 881.561 351.49 862.045 341.782C836.385 329.047 803.391 326.437 774.493 333.702C759.636 337.439 745.824 343.807 730.925 346.083C711.534 349.047 692.896 348.316 677.704 348.504C663.558 348.567 648.806 349.611 637.167 356.041Z" stroke="#E26E40" stroke-miterlimit="10"/>
<path d="M630 343.661C616.912 350.697 606.409 361.718 600.015 375.123C596.312 383.024 595.109 391.866 596.567 400.468C597.863 408.109 601.561 415.082 604.8 421.7C605.406 422.911 606.012 424.101 606.555 425.291C615.498 445.103 626.218 466.002 619.093 488.361C615.122 501.013 605.301 513.059 595.71 523.498C569.194 552.287 560.752 587.131 582.421 622.351C592.869 639.283 608.331 654.106 612.615 673.709C615.833 688.428 611.716 703.293 613.158 718.011C615.039 737.657 627.012 758.784 643.039 771.248C658.627 783.357 675.072 783.106 690.012 776.655C695.025 774.472 699.777 771.734 704.179 768.492C715.713 760.141 726.349 749.536 740.099 742.646C754.997 735.235 771.755 733.001 786.821 728.032C793.09 722.813 796.663 715.902 802.116 709.806C812.961 697.614 832.436 690.056 848.087 691.163C860.06 691.998 872.555 698.679 881.645 689.743C891.549 680.014 889.272 663.73 894.182 650.243C901.161 631.141 917.167 618.76 930.791 605.67C935.99 600.878 940.726 595.608 944.937 589.929C959.188 570.242 963.304 542.35 957.642 516.149C953.755 498.153 946.003 480.657 937.519 464.853C933.34 456.941 927.866 449.947 923.31 442.89C918.741 436.451 915.515 429.16 913.824 421.45C910.961 406 914.743 389.361 909.018 373.056C902.164 353.557 887.391 337.773 867.018 327.606C839.854 314.015 805.021 311.447 774.701 319.652C759.113 323.827 744.654 330.967 728.919 333.514C708.693 336.771 689.093 335.936 672.794 336.062C657.916 336.187 642.412 337.168 630 343.661Z" stroke="#E1753F" stroke-miterlimit="10"/>
<path d="M622.666 331.281C608.623 338.315 597.094 349.506 589.651 363.327C585.366 371.477 583.834 380.792 585.284 389.883C586.558 397.921 590.549 405.186 594.143 412.076C594.791 413.349 595.481 414.602 596.087 415.833C606.096 436.314 619.281 458.548 612.636 482.202C608.854 495.668 598.531 508.361 588.355 519.238C559.436 550.116 550.284 587.758 573.979 625.713C585.346 643.938 602.251 659.826 606.785 680.996C610.191 696.904 605.552 712.959 606.91 728.888C608.707 749.911 621.37 772.605 638.484 785.904C655.2 798.848 672.836 798.284 688.633 790.998C693.972 788.526 699.018 785.466 703.678 781.874C715.86 772.563 727.039 760.997 741.708 753.565C757.567 745.548 775.537 743.398 791.857 738.429C798.334 733.397 802.075 726.738 807.675 720.829C818.854 709.013 838.203 701.476 853.77 702.04C865.702 702.478 878.113 708.303 887.015 699.263C897.463 688.616 894.725 671.121 899.991 656.632C907.43 636.13 924.899 623.228 940.048 609.303C945.796 604.232 951.063 598.641 955.782 592.601C971.725 571.724 976.678 541.64 970.764 513.518C966.773 494.29 958.499 475.584 949.179 458.924C944.499 450.573 938.522 443.204 933.382 435.75C928.451 428.631 924.251 421.491 922.454 412.994C918.943 396.501 922.746 378.672 916.394 361.344C908.913 340.884 893.409 324.266 872.054 313.556C843.385 299.13 806.734 296.583 774.994 305.748C758.675 310.466 743.651 318.274 726.934 321.072C705.872 324.662 685.31 323.702 667.884 323.744C652.275 323.911 635.997 324.767 622.666 331.281Z" stroke="#E17B3F" stroke-miterlimit="10"/>
<path d="M615.373 318.901C600.332 325.981 587.761 337.406 579.287 351.699C574.425 360.096 572.561 369.893 574 379.486C575.295 387.837 579.558 395.478 583.507 402.639C584.218 403.975 584.97 405.249 585.597 406.543C596.651 427.692 612.301 451.262 606.075 476.211C602.501 490.491 591.657 503.831 581 515.147C549.657 548.091 539.815 588.551 565.537 629.241C577.866 648.74 596.17 665.714 600.955 688.449C604.549 705.527 599.388 722.792 600.684 739.932C602.355 762.334 615.728 786.614 633.928 800.706C651.794 814.485 670.579 813.629 687.442 805.508C693.104 802.779 698.439 799.417 703.343 795.487C716.173 785.278 727.916 772.647 743.484 764.693C760.304 756.112 779.487 754.024 796.934 749.014C803.516 744.15 807.507 737.74 813.254 732.02C824.767 720.558 843.991 713.23 859.495 713.105C871.385 713.001 883.692 718.22 892.427 708.93C903.355 697.322 900.221 678.616 905.8 663.146C913.678 641.225 932.651 627.654 949.284 613.04C955.586 607.702 961.39 601.805 966.627 595.42C984.221 573.207 989.967 541.139 983.887 511.013C979.707 490.574 970.973 470.741 960.901 453.162C955.803 444.352 949.242 436.627 943.516 428.778C938.042 421.262 933.298 413.704 931.167 404.685C926.988 387.148 930.833 368.129 923.854 349.799C915.704 328.379 899.364 310.884 877.173 299.694C847 284.432 808.49 281.906 775.328 292.011C758.278 297.209 742.543 305.727 725.179 308.712C703.301 312.596 681.779 311.531 663.224 311.51C646.716 311.573 629.603 312.345 615.373 318.901Z" stroke="#E0803E" stroke-miterlimit="10"/>
<path d="M608.185 306.52C593.558 312.909 577.845 325.31 569.048 339.924C563.604 348.55 561.384 358.82 562.779 368.922C564.075 377.753 568.609 385.624 572.892 393.056C573.686 394.434 574.501 395.771 575.233 397.107C587.352 418.923 605.469 443.809 599.618 470.177C596.275 485.25 584.991 499.217 573.561 510.992C539.773 546.003 529.242 589.282 556.991 632.707C570.281 653.584 590.006 671.538 595.042 695.839C598.824 714.086 593.14 732.542 594.352 750.893C595.94 774.693 610.003 800.539 629.289 815.445C648.576 830.351 668.26 828.911 686.083 819.955C692.055 816.915 697.662 813.21 702.8 808.911C716.319 797.783 728.585 784.129 745.051 775.632C762.854 766.467 784.397 767.553 801.886 759.39C809.283 755.945 812.836 748.575 818.728 743.001C831.633 731.689 847.939 724.991 865.075 723.961C876.943 723.585 889.146 727.886 897.692 718.47C909.143 705.944 905.591 686.006 911.463 669.576C919.821 646.235 940.278 631.997 958.394 616.694C965.259 611.106 971.596 604.9 977.325 598.155C996.612 574.689 1003.15 540.429 996.863 508.382C992.683 486.733 983.322 465.793 972.331 447.275C966.815 438.005 959.669 429.905 953.358 421.679C947.319 413.788 942.033 405.812 939.567 396.251C934.761 377.67 938.606 357.461 931 338.108C922.224 315.748 905.089 297.397 881.979 285.643C850.322 269.547 809.973 267.041 775.412 278.106C757.63 283.806 741.248 293.034 723.027 296.395C700.313 300.57 677.83 299.422 658.251 299.318C640.991 299.234 623.209 299.923 608.185 306.52Z" stroke="#E0863E" stroke-miterlimit="10"/>
<path d="M600.934 294.14C585.681 300.403 568.463 313.055 558.767 328.253C552.787 337.127 550.26 347.878 551.663 358.484C552.937 367.711 557.764 375.895 562.403 383.536C563.26 384.956 564.137 386.334 564.952 387.712C578.096 410.218 598.699 436.439 593.245 464.018C590.111 479.906 578.221 494.52 566.29 506.733C530.078 543.811 518.773 589.95 548.633 636.172C562.821 658.26 584.009 677.342 589.296 703.209C593.245 722.646 587.06 742.291 588.209 761.853C589.672 787.031 604.424 814.464 624.818 830.185C645.212 845.905 666.087 844.172 684.893 834.36C691.19 831.032 697.092 827.005 702.487 822.356C716.654 810.309 729.463 795.654 746.848 786.614C765.654 776.864 788.326 778.075 807.027 769.787C814.487 766.488 818.352 759.348 824.412 754.024C837.613 743.111 853.817 736.457 870.884 734.942C882.711 734.128 894.809 737.636 903.188 728.095C915.099 714.525 911.149 693.48 917.335 676.048C926.111 651.308 948.114 636.381 967.714 620.41C975.137 614.56 982.006 608.039 988.233 600.931C1009.13 576.192 1016.55 539.824 1010.07 505.877C1005.7 482.912 995.881 460.949 984.054 441.513C978.14 431.784 970.388 423.329 963.493 414.685C956.911 406.334 951.081 397.984 948.281 387.942C942.806 368.317 946.693 346.918 938.46 326.562C928.552 302.632 910.266 283.122 887.015 271.676C853.833 254.724 811.666 252.26 775.663 264.265C757.128 270.528 740.14 280.403 721.063 284.035C697.534 288.524 674.09 287.251 653.32 287.063C635.349 286.896 616.815 287.522 600.934 294.14Z" stroke="#DF8C3D" stroke-miterlimit="10"/>
<path d="M593.683 281.76C577.74 288.023 559.101 300.821 548.466 316.541C541.931 325.649 539.073 336.884 540.463 348.003C541.737 357.607 546.731 366.104 551.83 374.079C552.749 375.54 553.689 376.981 554.567 378.401C568.755 401.574 591.845 429.132 586.788 458.006C583.863 474.707 571.451 489.948 558.934 502.62C520.277 541.744 508.304 590.722 540.128 639.596C555.257 662.979 577.866 683.125 583.403 710.579C587.582 731.185 580.833 752.041 581.898 772.814C583.278 799.37 598.615 828.368 620.2 844.903C641.785 861.438 663.788 859.517 683.534 848.807C690.163 845.207 696.361 840.865 702.006 835.863C716.821 822.898 730.194 807.199 748.478 797.616C768.203 787.282 792.107 788.618 812.021 780.246C819.543 777.094 823.701 770.288 829.928 765.089C843.41 754.532 859.522 747.854 876.525 745.778C888.31 744.567 900.284 747.281 908.516 737.573C920.866 722.959 916.561 700.808 923.143 682.394C932.358 656.256 955.866 640.786 976.949 623.938C984.93 617.832 992.331 611.004 999.057 603.541C1021.71 577.549 1029.86 539.051 1023.19 503.163C1018.7 479.092 1008.36 455.918 995.692 435.542C989.424 425.354 981.066 416.523 973.564 407.504C966.397 398.84 960.024 390.05 956.848 379.424C950.746 358.755 954.654 336.166 945.773 314.704C935.263 289.87 916.217 269.605 892.072 257.563C857.406 239.776 813.4 237.333 775.976 250.298C756.71 256.979 739.054 267.626 719.161 271.53C694.797 276.332 670.412 274.954 648.513 274.703C629.707 274.578 610.421 275.121 593.683 281.76Z" stroke="#DF913C" stroke-miterlimit="10"/>
<path d="M586.433 269.38C569.716 275.643 549.74 288.587 538.185 304.871C531.088 314.197 527.882 325.907 529.242 337.544C530.516 347.544 535.907 356.333 541.257 364.684C542.239 366.208 543.346 367.67 544.182 369.152C559.415 392.994 585.012 421.867 580.331 452.056C577.615 469.551 564.68 485.459 551.579 498.57C510.477 539.615 497.836 591.432 531.791 643.083C547.901 667.739 571.91 689.012 577.761 717.969C582.086 739.765 574.877 761.812 575.86 783.774C577.113 811.729 593.266 842.231 615.833 859.642C638.4 877.054 661.803 874.716 682.448 863.254C689.389 859.364 695.866 854.699 701.755 849.35C717.239 835.466 731.155 818.744 750.358 808.618C771.045 797.72 796.098 799.14 817.224 790.685C824.788 787.678 829.28 781.165 835.654 776.071C849.406 765.878 865.447 759.205 882.376 756.634C894.119 755.006 905.946 756.905 914.054 747.072C926.821 731.498 922.182 708.157 928.973 688.762C938.627 661.183 963.618 645.087 986.227 627.571C994.751 621.185 1002.68 614.044 1009.92 606.234C1034.27 578.989 1043.23 538.362 1036.33 500.533C1031.74 475.25 1020.91 450.928 1007.37 429.55C1000.64 418.902 991.68 409.716 983.657 400.322C975.925 391.261 969.03 382.054 965.561 370.906C958.791 349.193 962.74 325.414 953.233 303.034C942.137 277.231 922.283 256.168 897.17 243.554C861.063 224.765 815.176 222.51 776.31 236.414C756.313 243.575 738.051 254.953 717.322 259.129C692.122 264.223 666.755 262.761 643.749 262.407C624.045 262.24 604.027 262.699 586.433 269.38Z" stroke="#DE973B" stroke-miterlimit="10"/>
<path d="M579.182 256.999C561.818 263.262 540.379 276.353 527.884 293.096C520.696 302.741 516.475 313.973 518.042 327.022C519.316 337.46 525 346.521 530.579 355.039C531.624 356.605 532.669 358.129 533.713 359.653C549.97 384.184 578.054 414.372 573.749 445.855C571.263 464.164 557.806 480.699 544.119 494.269C500.573 537.464 487.263 592.142 523.224 646.485C540.275 672.436 565.704 694.712 571.743 725.297C576.257 748.262 568.525 771.499 569.445 794.693C570.594 824.026 587.436 856.177 611.11 874.319C634.785 892.461 659.337 889.977 680.985 877.639C688.254 873.471 695.019 868.483 701.149 862.774C717.281 847.972 731.761 830.247 751.842 819.579C773.51 808.075 799.734 809.558 822.113 801.082C829.761 798.18 834.546 791.979 841.087 787.136C855.123 777.343 871.098 770.672 887.934 767.574C899.636 765.486 911.337 766.655 919.278 756.655C932.484 740.057 927.49 715.589 934.615 695.213C944.707 666.235 971.224 649.513 995.212 631.266C1004.38 624.629 1012.93 617.173 1020.75 608.99C1046.78 580.492 1056.54 537.757 1049.46 497.965C1044.63 471.471 1033.28 446.043 1018.91 423.871C1011.78 412.785 1002.19 403.224 993.603 393.411C985.245 383.996 977.869 374.371 974.066 362.68C966.648 339.924 970.639 314.934 960.484 291.551C948.8 264.791 928.158 242.927 902.101 229.713C864.49 210.193 816.764 207.875 776.478 222.719C755.749 230.36 736.776 242.448 715.275 246.916C689.26 252.302 662.931 250.736 638.818 250.319C618.403 249.901 597.633 250.298 579.182 256.999Z" stroke="#DD9C3A" stroke-miterlimit="10"/>
<path d="M571.931 244.619C553.878 250.882 530.997 264.098 517.603 281.384C509.893 291.342 505.296 302.992 506.863 316.52C508.116 327.293 514.093 336.73 520.131 345.498C521.239 347.127 522.367 348.692 523.454 350.279C540.755 375.478 571.325 407.002 567.334 439.78C565.057 458.903 551.078 476.064 536.806 490.094C490.836 535.335 476.836 592.852 514.782 649.951C532.773 677.092 559.624 700.516 565.913 732.667C570.615 756.801 562.361 781.248 563.197 805.737C564.242 836.448 581.794 870.185 606.555 889.142C631.316 908.098 657.081 905.322 679.69 892.148C687.292 887.703 694.353 882.393 700.731 876.323C717.448 860.624 732.534 841.855 753.534 830.644C776.185 818.556 803.537 820.059 827.17 811.583C834.86 808.827 839.979 802.919 846.666 798.263C860.969 788.853 876.897 782.177 893.639 778.576C905.299 776.133 916.854 776.488 924.669 766.3C938.251 748.659 933.027 723.063 940.382 701.727C950.83 671.329 978.955 653.98 1004.51 634.92C1014.17 628.026 1023.19 620.277 1031.47 611.767C1059.15 581.996 1069.73 537.151 1062.43 495.418C1057.59 467.714 1045.72 441.137 1030.53 418.005C1022.98 406.46 1012.83 396.543 1003.63 386.334C994.794 376.522 986.812 366.48 982.737 354.246C974.672 330.466 978.684 304.286 967.902 279.881C955.605 252.181 934.162 229.541 907.158 215.746C868.042 195.37 818.499 193.073 776.791 208.877C755.311 217.019 735.773 229.755 713.373 234.556C686.418 240.151 659.254 238.523 633.949 238.064C612.761 237.584 591.218 237.897 571.931 244.619Z" stroke="#DDA138" stroke-miterlimit="10"/>
<path d="M564.681 232.239C545.875 238.502 521.636 251.864 507.302 269.672C498.943 279.923 494.075 291.99 495.621 306.019C496.896 317.189 503.143 326.896 509.516 335.978L512.985 340.884C531.331 366.793 564.409 399.612 560.878 433.725C558.788 453.642 544.308 471.43 529.534 485.919C481.078 533.185 466.451 593.562 506.424 653.396C525.376 681.893 553.627 706.32 560.146 740.037C565.057 765.361 556.281 790.998 557.054 816.593C557.994 848.703 576.236 884.027 602.084 903.777C627.931 923.527 654.928 920.479 678.499 906.512C686.403 901.784 693.748 896.181 700.397 889.81C717.845 873.108 733.412 853.379 755.311 841.625C778.922 828.974 807.424 830.456 832.311 822.021C840.063 819.391 845.475 813.775 852.328 809.307C866.899 800.287 882.79 793.595 899.427 789.474C911.045 786.614 922.412 786.134 930.143 775.841C944.081 757.177 938.502 730.475 946.233 708.136C957.224 676.34 986.77 658.365 1013.81 638.636C1024 631.451 1033.53 623.375 1042.29 614.502C1071.67 583.478 1083.04 536.504 1075.56 492.85C1070.58 463.914 1058.21 436.252 1042.12 412.159C1034.16 400.155 1023.42 389.862 1013.64 379.278C1004.26 369.069 995.714 358.63 991.242 345.874C982.528 321.051 986.582 293.681 975.173 268.273C962.279 239.591 940.044 216.117 912.09 201.675C871.469 180.463 820.149 178.209 776.958 194.952C754.746 203.575 734.561 217.082 711.325 222.093C683.66 228.084 655.409 226.268 629.06 225.746C607.119 225.245 584.824 225.537 564.681 232.239Z" stroke="#DCA637" stroke-miterlimit="10"/>
<path d="M557.451 219.859C537.955 226.122 512.275 239.609 497 257.96C488.203 268.524 482.854 280.925 484.463 295.539C485.737 307.084 492.257 317.147 499.089 326.458C500.343 328.17 501.597 329.84 502.809 331.51C522.2 358.108 557.764 392.242 554.609 427.65C552.77 448.36 537.746 466.795 522.304 481.743C471.194 531.034 455.961 594.251 497.94 656.841C517.854 686.633 547.525 712.124 554.358 747.406C559.457 773.9 550.179 800.727 550.848 827.554C551.704 860.958 570.636 897.931 597.57 918.495C624.504 939.06 652.713 935.761 677.266 920.938C685.498 915.911 693.126 909.957 700 903.192C718.116 885.656 734.227 864.82 757.024 852.544C781.618 839.287 811.352 840.749 837.409 832.356C845.224 829.851 850.949 824.548 857.949 820.268C872.776 811.634 888.646 804.927 905.173 800.309C916.749 797.032 927.991 795.758 935.555 785.299C949.848 765.57 944.039 737.782 952.063 714.462C963.492 681.246 994.543 662.686 1023.11 642.185C1033.87 634.757 1043.93 626.372 1053.18 617.132C1084.25 584.877 1096.41 535.711 1088.7 490.178C1083.62 460.031 1070.73 431.241 1053.84 406.23C1045.49 393.704 1034.12 383.14 1023.78 372.117C1013.81 361.678 1004.76 350.676 999.955 337.377C990.573 311.51 994.669 282.929 982.612 256.519C969.127 226.892 946.092 202.635 917.188 187.624C875.063 165.578 821.842 163.323 777.292 181.027C754.307 190.13 733.537 204.347 709.486 209.65C680.964 215.913 651.773 214.097 624.316 213.408C601.478 213.011 578.43 213.115 557.451 219.859Z" stroke="#DBAB35" stroke-miterlimit="10"/>
<path d="M550.2 207.478C529.994 213.742 502.893 227.374 486.72 246.227C477.463 257.104 471.654 269.985 473.284 285.037C474.537 297 481.349 307.355 488.433 316.938C489.749 318.712 491.066 320.424 492.361 322.136C512.776 349.402 550.869 384.768 548.069 421.575C546.439 443.099 530.872 462.181 514.866 477.568C461.436 528.884 445.493 595.065 489.499 660.285C510.394 691.371 541.445 717.927 548.466 754.776C553.752 782.438 543.952 810.476 544.558 838.494C545.311 873.379 564.931 911.856 592.952 933.214C620.973 954.571 650.415 951.001 675.908 935.301C684.469 929.958 692.392 923.654 699.52 916.512C718.326 898.056 734.937 876.219 758.654 863.379C784.209 849.558 815.072 850.853 842.382 842.648C850.281 840.247 856.299 835.258 863.466 831.166C878.544 822.92 894.405 816.192 910.815 811.082C922.349 807.386 933.445 805.299 940.884 794.714C955.511 773.837 949.43 745.047 957.767 720.746C969.636 686.11 1002.23 666.924 1032.22 645.692C1043.53 637.988 1054.13 629.282 1063.87 619.679C1096.62 586.15 1109.59 534.938 1101.72 487.401C1096.51 456.085 1083.1 426.147 1065.38 400.196C1056.6 387.273 1044.65 376.271 1033.74 364.872C1023.3 353.932 1013.6 342.638 1008.46 328.796C998.451 301.885 1002.57 272.114 989.884 244.703C975.761 214.204 951.934 189.232 922.12 173.678C878.49 150.713 823.43 148.625 777.46 167.227C753.785 176.831 732.326 191.758 707.439 197.332C678.185 203.908 647.949 201.967 619.364 201.215C595.836 200.589 572.036 200.714 550.2 207.478Z" stroke="#DBAF33" stroke-miterlimit="10"/>
<path d="M542.949 195.119C522.054 201.382 493.531 215.12 476.418 234.515C466.534 245.705 460.454 259.004 462 274.557C463.275 286.896 470.358 297.522 477.797 307.418C479.176 309.234 480.555 311.009 481.976 312.763C503.436 340.717 543.994 377.482 541.612 415.5C540.212 437.838 524.101 457.546 507.51 473.392C451.678 526.734 435.066 595.67 481.119 663.73C502.934 696.09 535.448 723.731 542.698 762.146C548.173 790.998 537.851 820.226 538.373 849.454C539.021 885.718 559.269 925.761 588.522 947.953C617.776 970.146 648.304 966.262 674.758 949.79C683.634 944.183 691.843 937.585 699.227 930.124C718.66 910.75 735.857 887.889 760.472 874.507C786.988 860.102 818.979 861.396 847.564 853.212C855.525 850.936 861.836 846.281 869.17 842.335C884.506 834.505 900.369 827.752 916.645 822.126C928.137 817.95 939.066 815.153 946.4 804.401C961.298 782.543 955.03 752.584 963.68 727.301C975.988 691.267 1010.09 671.455 1041.56 649.471C1053.42 641.506 1064.55 632.493 1074.8 622.539C1109.24 587.758 1122.86 534.437 1114.92 484.937C1109.53 452.369 1095.66 421.345 1077.12 394.476C1067.93 381.094 1055.39 369.737 1043.9 357.941C1032.8 346.605 1022.67 334.976 1017.19 320.529C1006.52 292.574 1010.67 261.592 997.343 233.179C982.653 201.678 958.026 175.862 927.239 159.691C882.125 135.953 825.227 133.761 777.836 153.427C753.283 163.448 731.197 179.086 705.475 184.952C675.301 191.821 644.188 189.796 614.495 188.94C590.298 188.251 565.642 188.313 542.949 195.119Z" stroke="#DAB431" stroke-miterlimit="10"/>
<path d="M535.699 182.739C514.093 189.002 484.17 202.886 466.116 222.802C455.669 234.285 449.233 248.001 450.8 264.056C452.054 276.791 459.43 287.793 467.224 297.898C468.645 299.756 470.108 301.572 471.528 303.389C494.033 332.032 537.099 370.196 535.072 409.424C533.902 432.577 517.269 452.912 500.114 469.217C441.815 524.583 424.534 596.38 472.594 667.196C495.37 700.829 529.284 729.535 536.806 769.494C542.469 799.516 531.645 830.038 532.084 860.394C532.627 897.973 553.627 939.727 583.842 962.692C614.057 985.657 645.922 981.482 673.358 964.237C682.559 958.356 691.049 951.435 698.663 943.611C718.764 923.339 736.505 899.434 762.018 885.509C789.516 870.54 822.615 871.709 852.496 863.651C860.519 861.563 867.122 857.158 874.624 853.4C889.606 845.926 907.534 838.786 922.203 833.065C933.654 828.535 944.436 824.882 951.666 813.984C966.857 791.019 960.379 759.995 969.322 733.732C982.069 696.299 1017.7 675.881 1050.65 653.145C1063.08 644.905 1074.75 635.571 1085.52 625.253C1121.63 589.219 1136.11 533.769 1127.92 482.328C1122.4 448.548 1108.01 416.397 1088.64 388.61C1079.02 374.768 1065.9 363.035 1053.82 350.843C1042.19 339.131 1031.49 327.022 1025.68 312.115C1014.35 283.117 1018.57 250.945 1004.59 221.529C989.299 189.071 963.869 162.454 932.128 145.682C885.49 121.151 826.773 119.063 777.94 139.502C752.866 150.066 730.069 166.413 703.51 172.551C672.522 179.733 640.448 177.603 609.627 176.726C584.552 175.933 559.248 175.912 535.699 182.739Z" stroke="#D9B82F" stroke-miterlimit="10"/>
<path d="M528.448 170.359C506.131 176.622 474.788 190.652 455.836 211.07C444.866 222.886 438.033 236.999 439.6 253.555C440.854 266.687 448.522 278.002 456.651 288.378C458.134 290.278 459.66 292.157 461.164 294.015C484.693 323.243 530.245 362.701 528.615 403.37C527.654 427.295 510.499 448.277 492.758 465.041C431.994 522.412 414.066 597.153 464.152 670.641C487.869 705.568 523.203 735.36 531.018 776.885C536.869 808.201 525.522 839.726 525.899 871.355C526.337 910.416 548.027 953.59 579.328 977.39C610.63 1001.19 643.728 996.785 672.105 978.643C681.625 972.473 690.409 965.237 698.287 957.077C719.036 935.865 737.34 910.938 763.752 896.533C792.212 880.958 826.439 881.918 857.573 874.11C865.681 872.023 872.597 868.035 880.245 864.465C895.54 857.346 913.364 850.31 927.949 843.985C939.358 839.057 949.973 834.611 957.078 823.546C972.54 799.516 965.875 767.428 975.152 740.183C988.337 701.309 1025.47 680.286 1059.9 656.82C1072.89 648.329 1085.09 638.687 1096.35 628.009C1134.15 590.722 1149.44 533.122 1141.02 479.781C1135.4 444.79 1120.48 411.533 1100.27 382.785C1090.27 368.505 1076.54 356.417 1063.87 343.828C1051.67 331.74 1040.45 319.214 1034.31 303.765C1022.33 273.722 1026.58 240.339 1011.95 209.921C996.083 176.493 969.859 149.063 937.164 131.694C889.105 106.287 828.508 104.157 778.233 125.64C752.364 136.705 728.982 153.741 701.588 160.171C669.764 167.645 636.812 165.432 604.821 164.346C578.911 163.595 552.833 163.532 528.448 170.359Z" stroke="#D8BC2C" stroke-miterlimit="10"/>
<path d="M521.197 157.978C498.212 164.242 465.406 178.355 445.534 199.357C434.021 211.445 426.833 225.997 428.4 243.074C429.633 256.582 437.594 268.127 446.057 278.837C447.624 280.799 449.212 282.72 450.779 284.62C475.373 314.662 523.433 355.31 522.158 397.295C521.406 422.034 503.728 443.642 485.403 460.866C422.173 520.262 403.597 597.8 455.71 674.085C480.388 710.286 517.164 741.206 525.146 784.254C531.164 816.635 519.337 849.454 519.609 882.378C519.964 922.817 542.343 967.578 574.731 992.192C607.119 1016.81 641.451 1012.11 670.851 993.131C680.689 986.671 689.761 979.114 697.889 970.605C719.286 948.475 738.134 922.587 765.466 907.535C794.886 891.376 830.242 892.232 862.651 884.57C870.842 882.628 878.051 878.933 885.845 875.551C901.454 868.786 919.152 861.793 933.674 854.945C945.042 849.579 955.469 844.381 962.489 833.149C978.182 808.096 971.37 774.86 980.94 746.634C994.585 706.361 1033.18 684.712 1069.14 660.494C1082.69 651.747 1095.41 641.797 1107.17 630.765C1146.64 592.205 1162.77 532.496 1154.14 477.192C1148.42 440.991 1132.96 406.606 1111.91 376.981C1101.47 362.242 1087.17 349.84 1073.93 336.792C1061.18 324.266 1049.41 311.385 1042.92 295.413C1030.38 264.327 1034.56 229.755 1019.33 198.334C1002.84 163.973 975.817 135.764 942.179 117.811C892.51 91.4427 830.095 89.3341 778.358 111.756C751.737 123.322 727.728 140.984 699.519 147.79C666.86 155.557 632.863 153.302 599.827 152.154C573.248 151.319 546.418 151.131 521.197 157.978Z" stroke="#D7C029" stroke-miterlimit="10"/>
<path d="M513.946 145.598C490.23 151.862 456.045 166.121 435.254 187.645C423.134 200.046 415.633 215.099 417.179 232.573C418.433 246.477 426.666 258.419 435.484 269.317C437.114 271.405 438.785 273.305 440.394 275.246C466.012 305.977 516.579 347.941 515.618 391.219C515.096 416.773 496.812 439.007 478.006 456.69C412.352 518.09 393.128 598.51 447.248 677.53C472.887 715.109 511.042 746.926 519.316 791.624C525.585 825.174 513.173 859.204 513.382 893.276C513.612 935.03 536.702 981.419 570.197 1006.85C603.693 1032.28 639.152 1027.31 669.514 1007.5C679.676 1000.75 689.034 992.871 697.409 984.008C719.454 961.043 738.845 934.007 767.075 918.454C797.478 901.752 833.94 902.378 867.645 894.925C875.767 892.797 883.699 890.004 891.361 886.574C907.284 880.165 924.794 873.192 939.316 865.822C950.642 860.06 960.902 854.068 967.818 842.669C983.74 816.426 976.782 782.25 986.624 753.022C1000.71 711.268 1040.95 689.075 1078.27 664.127C1092.4 655.109 1105.68 644.845 1117.97 633.458C1159.14 593.645 1176.06 531.807 1167.24 474.582C1161.39 437.149 1145.41 401.658 1123.53 371.052C1112.69 355.853 1097.77 343.035 1083.96 329.652C1070.64 316.792 1058.34 303.451 1051.5 286.937C1038.24 254.807 1042.56 219.024 1026.66 186.601C1009.61 151.304 981.815 122.305 947.257 103.76C896.125 76.62 831.893 74.5322 778.818 97.9565C751.466 110.003 726.809 128.479 697.764 135.536C664.331 143.573 629.331 141.256 595.167 140.024C567.606 138.98 540.149 138.73 513.946 145.598Z" stroke="#D6C426" stroke-miterlimit="10"/>
<path d="M506.716 133.218C482.29 139.481 446.705 153.887 424.973 175.933C412.436 188.647 404.433 204.013 406 222.072C407.254 236.373 415.758 248.628 424.931 259.797C426.624 261.885 428.358 263.972 430.051 265.872C456.693 297.292 509.746 340.55 509.245 385.144C508.952 411.491 490.209 434.373 470.713 452.515C402.51 515.919 382.66 599.24 438.806 680.996C465.385 719.765 504.961 752.73 513.487 798.994C519.881 833.734 507.009 868.953 507.218 904.215C507.364 947.431 531.143 995.344 565.725 1021.57C600.642 1048.04 637.042 1042.57 668.322 1021.92C678.8 1014.89 688.44 1006.69 697.054 997.474C719.788 973.528 739.722 945.531 768.851 929.456C800.194 912.128 837.806 912.566 872.785 905.343C881.056 903.373 889.16 900.762 897.024 897.534C913.507 891.692 929.565 884.716 945.084 876.657C956.346 870.394 966.439 863.692 973.251 852.147C989.382 824.777 982.32 789.516 992.496 759.369C1007.02 716.278 1048.7 693.397 1087.57 667.676C1102.2 657.968 1116.51 647.863 1128.78 636.089C1171.63 595.023 1189.37 531.055 1180.33 471.889C1174.37 433.224 1157.86 396.731 1135.15 365.102C1123.89 349.444 1108.38 336.249 1094.01 322.491C1080.13 309.255 1067.28 295.476 1060.11 278.44C1046.2 245.266 1050.56 208.293 1034.02 174.868C1016.34 138.608 987.72 108.807 952.188 89.6681C899.573 61.7552 833.502 59.6883 778.985 84.0103C750.922 96.5367 725.597 115.681 695.737 122.988C661.406 131.339 625.507 128.917 590.236 127.602C561.964 126.642 533.651 126.349 506.716 133.218Z" stroke="#D5C822" stroke-miterlimit="10"/>
<path d="M499.466 120.838C474.391 127.101 437.322 141.715 414.651 164.2C401.528 177.228 393.212 193.011 394.779 211.592C396.012 226.206 404.809 238.836 414.337 250.277C416.093 252.365 417.869 254.453 419.645 256.54C447.269 288.712 502.976 333.202 502.767 379.111C502.767 406.251 483.418 429.78 463.337 448.381C392.69 513.79 372.191 599.95 430.364 684.482C457.884 724.525 498.881 758.576 507.678 806.406C514.26 842.314 500.949 878.745 500.928 915.218C501.054 959.812 525.439 1009.31 561.107 1036.31C597.173 1063.63 634.722 1057.85 666.964 1036.31C677.766 1028.99 687.7 1020.46 696.573 1010.9C719.955 986.034 740.454 957.014 770.481 940.396C802.827 922.504 841.525 922.671 877.758 915.74C886.178 913.922 894.459 911.516 902.54 908.537C919.089 902.858 936.412 896.011 950.746 887.535C961.967 880.916 971.872 873.401 978.6 861.668C994.919 833.212 987.731 796.948 998.221 765.758C1013.18 721.268 1056.39 697.76 1096.74 671.309C1111.98 661.329 1126.79 650.912 1139.56 638.782C1184.07 596.443 1202.62 530.366 1193.38 469.259C1187.3 429.383 1170.27 391.679 1146.73 359.215C1135.07 343.097 1118.96 329.548 1103.99 315.372C1089.56 301.76 1076.16 287.585 1068.66 269.985C1054.03 235.788 1058.5 197.604 1041.31 163.177C1023.04 125.976 993.632 95.3851 957.161 75.6597C903.021 46.8908 835.131 44.8657 779.194 70.1272C750.358 83.1964 724.406 103.051 693.71 110.713C658.543 119.314 621.704 116.83 585.325 115.452C556.322 114.303 527.257 113.949 499.466 120.838Z" stroke="#D4CC1E" stroke-miterlimit="10"/>
<path d="M492.215 108.458C466.367 114.721 427.961 129.502 404.328 152.467C390.663 165.808 381.97 181.987 383.433 201.069C384.687 216.143 393.755 229.024 403.639 240.736C405.457 242.824 407.296 244.911 409.134 246.999C437.949 279.964 496.102 325.748 496.269 372.993C496.436 400.948 476.585 425.187 455.94 444.164C382.869 511.556 361.722 600.618 421.902 687.885C450.403 729.222 492.8 764.338 501.827 813.712C508.597 850.832 494.743 888.453 494.66 926.136C494.66 972.066 519.734 1023.17 556.531 1051.02C593.725 1079.19 632.466 1073.07 665.669 1050.77C676.789 1043.17 687.009 1034.33 696.134 1024.43C720.164 998.643 741.206 968.601 772.152 951.356C805.46 932.88 845.287 932.796 882.794 926.136C891.36 924.485 899.813 922.288 908.099 919.56C924.961 914.236 942.158 907.368 956.43 898.432C967.609 891.397 977.326 883.108 983.97 871.292C1000.46 841.709 993.185 804.485 1003.99 772.25C1019.39 726.32 1064.1 702.228 1105.94 675.046C1121.71 664.774 1137.09 654.064 1150.34 641.642C1196.54 598.05 1215.91 529.844 1206.44 466.795C1200.18 425.709 1182.71 386.877 1158.39 353.494C1146.31 336.918 1129.61 322.992 1114.07 308.441C1099.02 294.432 1085.08 279.818 1077.16 261.613C1061.93 226.372 1066.42 186.956 1048.56 151.548C1029.71 113.405 999.486 82.0403 962.051 61.7761C906.427 32.1513 836.678 30.1471 779.34 56.3689C749.878 69.8348 723.278 90.378 691.767 98.1861C655.764 107.101 617.964 104.449 580.457 103.03C550.597 101.965 520.863 101.61 492.215 108.458Z" stroke="#D3D018" stroke-miterlimit="10"/>
<path d="M484.964 96.0984C458.385 102.362 418.6 117.184 394.069 140.797C379.881 154.409 370.896 171.006 372.358 190.61C373.591 206.08 382.973 219.253 393.254 231.237C395.134 233.325 397.057 235.6 398.937 237.751C428.693 271.259 489.311 318.399 489.896 366.939C490.293 395.687 469.899 420.468 448.69 440.009C372.985 509.343 351.254 601.328 413.46 691.33C442.902 733.94 486.72 770.142 495.997 821.082C502.955 859.371 488.579 898.203 488.433 937.076C488.308 984.447 514.134 1037.1 551.976 1065.74C590.32 1094.76 630.23 1088.33 664.394 1065.2C675.839 1057.31 686.354 1048.15 695.737 1037.89C720.415 1011.19 742 980.125 773.845 962.421C808.134 943.36 849.194 942.964 887.872 936.638C896.589 935.149 905.213 933.155 913.699 930.667C930.875 925.698 947.967 918.871 962.155 909.393C973.433 902.252 982.765 892.433 989.319 880.812C1006.04 850.101 998.618 811.771 1009.71 778.639C1025.57 731.31 1071.79 706.57 1115.11 678.637C1131.45 668.198 1147.37 657.091 1161.08 644.252C1208.97 599.407 1229.14 529.072 1219.48 464.081C1213.21 421.784 1195.1 381.845 1169.88 347.502C1157.34 330.487 1140.1 316.186 1123.91 301.259C1108.36 286.854 1093.88 271.864 1085.71 253.242C1069.85 216.957 1074.36 176.351 1055.85 139.941C1036.23 101.172 1005.7 68.3317 967.003 47.7467C938.206 32.713 906.362 24.4263 873.884 23.5148C841.405 22.6032 809.146 29.0908 779.549 42.4856C749.251 56.4943 722.045 77.7682 689.699 85.9103C652.985 95.0754 614.203 92.3614 575.672 90.8374C545.039 89.6265 514.448 89.2089 484.964 96.0984Z" stroke="#D2D311" stroke-miterlimit="10"/>
<path d="M361.158 180.108C362.621 198.898 375.89 214.368 388.511 228.356C419.311 262.553 482.373 311.009 483.376 360.864C483.961 390.426 463.087 415.854 441.272 435.813C363.227 507.234 340.785 602.038 405.018 694.691C435.4 738.533 480.639 775.862 490.167 828.306C497.314 867.764 482.394 907.785 482.206 947.89C481.955 996.66 508.472 1050.86 547.421 1080.31C599.66 1119.98 654.928 1095.18 695.278 1051.21C720.624 1023.59 742.752 991.503 775.516 973.256C810.767 953.611 852.976 952.922 892.887 946.909C932.797 940.897 975.946 925.907 994.731 890.207C1011.45 858.39 1004.11 819.036 1015.52 784.902C1037.96 717.781 1120.1 695.025 1171.95 646.799C1221.51 600.702 1242.51 528.258 1232.54 461.325C1226.13 417.817 1207.47 376.751 1181.47 341.49C1156.13 307.167 1111.68 283.764 1094.36 244.64C1077.83 207.311 1082.37 165.515 1063.25 128.082C1042.96 88.4155 1011.59 54.6569 972.06 33.5709C942.534 18.1126 909.859 9.61272 876.537 8.7225C843.215 7.83228 810.131 14.5754 779.821 28.4351C748.812 42.9239 720.958 64.9286 687.755 73.3212C620.409 90.3571 546.439 67.8931 477.63 83.5511C434.648 93.4887 356.896 125.326 361.158 180.108Z" stroke="#D1D706" stroke-miterlimit="10"/>
<path d="M193.358 1749.71C186.082 1750.71 178.186 1752.63 173.876 1758.58C168.669 1765.77 170.824 1775.83 174.345 1783.96C177.866 1792.09 182.667 1800.26 182.134 1809.11C180.768 1831.27 149.934 1838.6 140.012 1858.46C133.055 1872.39 138.112 1889.47 146.413 1902.66C153.135 1913.32 162.374 1922.98 174.303 1927.08C186.231 1931.17 201.019 1928.44 208.445 1918.31C213.801 1911.08 214.718 1901.53 218.666 1893.44C226.54 1877.32 247.644 1869.11 264.352 1875.72C277.005 1880.73 289.168 1893.08 301.865 1888.17C311.275 1884.53 314.882 1872.52 313.004 1862.58C311.126 1852.64 305.3 1844.04 300.819 1835C296.338 1825.96 293.201 1815.25 297 1805.89C300.521 1797.21 309.675 1790.68 309.803 1781.29C310.656 1745.01 214.057 1746.83 193.358 1749.71Z" stroke="#E6273D" stroke-miterlimit="10"/>
<path d="M166.471 1746.04C160.475 1753.14 161.307 1763.42 163.847 1772.1C165.212 1776.84 167.111 1781.68 168.712 1786.71C170.182 1790.83 171.058 1795.14 171.315 1799.51C171.315 1800.3 171.315 1801.09 171.315 1801.85C170.419 1816.06 159.365 1825.19 148.227 1835.98C142.209 1841.41 136.929 1847.61 132.522 1854.41C129.668 1858.97 127.873 1864.12 127.267 1869.47C126.662 1874.81 127.261 1880.23 129.022 1885.32C130.878 1890.84 133.738 1896.13 135.808 1901.74C137.365 1906 138.283 1910.14 140.075 1914.07C143.605 1921.65 148.746 1928.38 155.14 1933.77C160.231 1938.11 166.417 1940.97 173.022 1942.03C175.208 1942.39 177.423 1942.54 179.637 1942.48C185.549 1942.2 191.38 1940.99 196.921 1938.92C203.216 1936.68 209.49 1933.99 213.715 1929.19C219.604 1922.49 220.373 1912.83 224.384 1904.94C232.621 1888.94 253.575 1880.79 270.241 1886.81C282.852 1891.39 295.293 1903.87 307.434 1897.86C312.001 1895.72 314.455 1891.07 316.695 1886.3C319.842 1880.03 321.803 1873.24 322.478 1866.27C322.638 1863.77 322.574 1861.25 322.286 1858.76C321.368 1850.23 318.018 1841.25 314.263 1832.29C311.01 1825.19 308.651 1817.71 307.242 1810.02C306.622 1806.3 306.622 1802.49 307.242 1798.76C307.968 1795.4 309.145 1792.15 310.742 1789.1C313.814 1782.89 317.762 1776.73 317.357 1769.5C316.738 1758.22 308.458 1750.09 296.018 1744.54C282.105 1738.29 263.349 1735.52 245.467 1735.18C236.313 1735.03 227.372 1735.52 218.986 1735.76C205.905 1736.12 194.745 1736.57 188.343 1737.25C180.32 1738.04 171.571 1739.89 166.471 1746.04Z" stroke="#E6323E" stroke-miterlimit="10"/>
<path d="M159.067 1733.24C152.281 1740.26 151.769 1750.77 153.327 1759.99C154.344 1765.34 155.655 1770.64 157.253 1775.85C158.753 1780.33 159.846 1784.94 160.518 1789.61C160.518 1790.47 160.667 1791.28 160.688 1792.09C160.966 1807.02 152.281 1817.43 141.612 1829.52C135.641 1835.95 130.089 1842.75 124.989 1849.89C117.051 1861.73 114.746 1875.03 120.38 1888.58C123.218 1895.4 127.507 1901.8 129.833 1909.01C131.583 1914.43 131.967 1919.85 133.674 1924.99C137.075 1934.22 142.862 1942.39 150.446 1948.66C156.438 1953.68 163.97 1956.49 171.785 1956.62C174.285 1956.69 176.787 1956.51 179.253 1956.09C185.928 1954.71 192.448 1952.67 198.714 1949.99C205.99 1947.17 213.651 1944.87 218.943 1939.68C225.216 1933.46 225.963 1923.77 230.231 1916.07C238.766 1900.67 259.614 1892.61 276.152 1898.07C288.742 1902.34 301.395 1914.45 313.025 1907.73C318.231 1904.75 320.152 1898.75 322.713 1892.99C326.233 1885.02 330.117 1877.36 331.995 1870.13C332.734 1867.33 333.219 1864.48 333.446 1861.6C334.214 1851.74 331.717 1840.63 327.727 1829.6C324.349 1821.21 321.498 1812.61 319.192 1803.86C318.18 1799.77 317.657 1795.57 317.634 1791.36C317.785 1787.6 318.505 1783.88 319.768 1780.33C322.179 1773.06 326.063 1765.7 325.103 1757.41C323.673 1745.16 314.711 1736.08 301.331 1730.06C285.882 1723 265.269 1720.21 245.851 1720.85C235.928 1721.19 226.347 1722.45 217.129 1722.98C203.195 1723.68 191.053 1723.94 183.521 1724.6C174.623 1725.41 164.999 1727.16 159.067 1733.24Z" stroke="#E53A3E" stroke-miterlimit="10"/>
<path d="M151.662 1720.63C144.13 1727.57 142.231 1738.32 142.828 1748.04C143.253 1753.81 144.253 1759.53 145.816 1765.1C147.16 1770.14 148.888 1774.98 149.72 1779.86C149.87 1780.76 150.019 1781.63 150.083 1782.49C151.534 1798.06 145.218 1809.83 134.997 1823.29C129.555 1830.48 123.005 1838.01 117.499 1845.6C107.257 1859.72 104.056 1875.74 111.759 1892.08C115.579 1900.22 121.297 1907.71 123.879 1916.52C125.8 1923.15 125.501 1929.79 127.315 1936.16C130.627 1946.93 137.058 1956.48 145.794 1963.59C152.639 1969.31 161.471 1972.08 170.355 1971.29C173.18 1971.07 175.976 1970.56 178.698 1969.78C186.058 1967.34 193.274 1964.49 200.314 1961.25C208.572 1957.83 217.727 1955.94 223.958 1950.39C230.508 1944.55 231.362 1934.93 235.8 1927.38C244.635 1912.45 265.376 1904.28 281.849 1909.27C294.396 1913.02 307.178 1924.8 318.402 1917.54C324.249 1913.77 325.615 1906.35 328.474 1899.58C332.443 1890.16 337.884 1881.9 341.277 1873.88C342.588 1870.85 343.617 1867.7 344.35 1864.48C346.825 1853.32 345.204 1840.03 340.979 1827.15C337.799 1817.45 333.681 1807.42 330.949 1798.06C329.518 1793.57 328.454 1788.97 327.77 1784.3C327.283 1780.17 327.478 1775.99 328.346 1771.93C330.096 1763.59 333.937 1755.02 332.4 1745.7C330.267 1732.49 320.557 1722.62 306.261 1715.96C289.19 1708.05 266.784 1705.3 246 1706.88C235.331 1707.71 225.088 1709.73 215.017 1710.46C200.25 1711.53 187.127 1711.61 178.442 1712.21C168.776 1712.78 158.427 1714.43 151.662 1720.63Z" stroke="#E5433E" stroke-miterlimit="10"/>
<path d="M144.279 1707.99C135.978 1714.85 132.692 1725.82 132.308 1736.08C132.158 1742.27 132.876 1748.45 134.442 1754.44C135.765 1759.88 137.814 1765.1 138.987 1770.2C139.201 1771.14 139.414 1772.06 139.563 1772.98C142.124 1789.21 138.219 1802.32 128.467 1817.15C123.197 1825.15 116.198 1833.4 110.052 1841.4C97.4835 1857.76 93.4505 1876.51 103.181 1895.66C107.982 1905.11 115.152 1913.7 117.969 1924.11C120.102 1931.94 119.228 1939.81 120.999 1947.43C124.238 1959.73 131.316 1970.68 141.206 1978.69C145.049 1981.87 149.539 1984.18 154.363 1985.44C159.187 1986.71 164.229 1986.91 169.139 1986.03C172.292 1985.53 175.383 1984.7 178.357 1983.54C186.103 1980.59 193.593 1976.07 202.107 1972.38C211.368 1968.35 221.909 1966.86 229.207 1960.93C235.971 1955.45 236.995 1946 241.583 1938.55C250.738 1923.9 271.457 1915.86 287.76 1920.3C300.264 1923.62 313.132 1934.86 324.036 1927.18C330.437 1922.6 331.312 1913.81 334.492 1906.05C338.93 1895.17 345.929 1886.3 350.816 1877.51C352.701 1874.21 354.272 1870.74 355.51 1867.14C359.778 1854.71 358.946 1839.24 354.486 1824.48C351.2 1813.54 346.527 1802.39 342.942 1792.04C341.086 1787.15 339.491 1782.17 338.162 1777.11C337.058 1772.62 336.755 1767.97 337.266 1763.38C338.333 1753.97 342.152 1744.18 340.04 1733.82C337.138 1719.67 326.724 1708.9 311.489 1701.69C292.945 1692.95 268.619 1690.18 246.363 1692.76C234.968 1694.1 224.064 1696.87 213.139 1697.85C197.54 1699.26 183.414 1699.18 173.598 1699.73C163.014 1700.16 151.854 1701.69 144.279 1707.99Z" stroke="#E44B3F" stroke-miterlimit="10"/>
<path d="M136.875 1695.34C127.827 1702.14 123.154 1713.32 121.788 1724.11C121.021 1730.67 121.404 1737.31 122.919 1743.73C124.263 1749.56 126.589 1755.06 128.126 1760.46C128.403 1761.46 128.681 1762.44 128.894 1763.4C132.586 1780.29 131.028 1794.77 121.809 1810.94C116.731 1819.75 109.241 1828.71 102.477 1837.13C87.5397 1855.73 82.6958 1877.23 94.4961 1899.2C100.279 1909.87 108.878 1919.63 111.951 1931.64C114.277 1940.66 112.826 1949.77 114.576 1958.6C117.723 1972.44 125.443 1984.82 136.49 1993.73C140.782 1997.28 145.849 1999.76 151.28 2000.98C156.711 2002.21 162.354 2002.13 167.752 2000.77C171.23 1999.98 174.613 1998.82 177.845 1997.31C186.38 1993.41 194.339 1987.84 203.771 1983.6C214.014 1978.99 225.899 1977.86 234.307 1971.57C241.22 1966.41 242.458 1957 247.217 1949.84C256.691 1935.55 277.091 1927.59 293.521 1931.45C305.962 1934.39 318.893 1944.97 329.434 1936.95C336.54 1931.51 336.796 1921.36 340.296 1912.6C345.161 1900.29 353.718 1890.78 360.119 1881.22C362.598 1877.66 364.741 1873.87 366.521 1869.92C372.432 1856.18 372.517 1838.56 367.822 1821.71C364.43 1809.53 359.287 1797.25 354.785 1785.94C352.651 1780.21 350.069 1774.94 348.383 1769.73C346.681 1764.89 345.878 1759.77 346.014 1754.63C346.42 1744.16 350.282 1733.2 347.508 1721.76C343.923 1706.64 332.742 1694.97 316.588 1687.25C296.509 1677.66 270.305 1674.9 246.598 1678.44C234.435 1680.28 222.912 1683.82 211.112 1685.06C194.681 1686.78 179.573 1686.57 168.605 1687.04C157.637 1687.51 145.303 1688.98 136.875 1695.34Z" stroke="#E4533F" stroke-miterlimit="10"/>
<path d="M129.47 1682.69C119.697 1689.45 113.594 1700.82 111.29 1712.14C109.894 1719.03 109.959 1726.14 111.482 1733C113.087 1739.02 115.039 1744.94 117.329 1750.73C117.67 1751.77 118.011 1752.86 118.289 1753.82C123.09 1771.38 124.072 1787.24 115.195 1804.73C110.33 1814.37 102.392 1823.93 94.9657 1832.87C77.6387 1853.66 72.0054 1877.96 85.8755 1902.72C92.6185 1914.77 102.669 1925.56 105.998 1939.17C108.516 1949.41 106.51 1959.71 108.132 1969.8C111.242 1985.18 119.673 1998.98 131.946 2008.77C136.7 2012.68 142.354 2015.34 148.397 2016.52C154.44 2017.7 160.682 2017.35 166.557 2015.51C170.363 2014.43 174.041 2012.94 177.525 2011.07C186.615 2006.25 195.236 1999.64 205.606 1994.82C216.831 1989.61 229.079 1987.03 239.578 1982.23C245.616 1976.13 248.113 1968.09 253.021 1961.12C262.815 1947.19 283.194 1939.28 299.454 1942.58C311.851 1945.12 323.502 1953.1 335.025 1946.7C341.576 1939.17 342.494 1928.93 346.292 1919.14C351.627 1905.41 361.72 1895.28 369.636 1885.02C372.658 1881.18 375.315 1877.08 377.574 1872.75C385.214 1857.82 386.11 1837.94 381.223 1819.11C377.342 1805.72 372.478 1792.63 366.67 1779.95C364.003 1773.74 360.93 1768.09 358.647 1762.48C356.308 1757.3 354.976 1751.72 354.721 1746.04C354.465 1734.5 358.263 1722.34 354.934 1709.78C350.666 1693.72 338.695 1681.15 321.603 1672.88C299.987 1662.43 271.906 1659.7 246.769 1664.22C233.859 1666.54 221.674 1670.83 209.021 1672.34C191.736 1674.48 175.668 1674.03 163.569 1674.48C151.47 1674.93 138.753 1676.27 129.47 1682.69Z" stroke="#E35A40" stroke-miterlimit="10"/>
<path d="M122.066 1670.04C111.573 1677.2 104.001 1687.89 100.727 1700.16C98.734 1707.38 98.4853 1714.96 100.001 1722.3C101.62 1728.7 103.761 1734.95 106.403 1741C106.83 1742.11 107.235 1743.14 107.598 1744.25C113.487 1762.46 116.944 1779.69 108.494 1798.55C103.821 1809 95.3283 1819.3 87.3476 1828.6C67.6094 1851.59 61.2078 1878.66 77.1264 1906.24C84.851 1919.61 96.3312 1931.49 99.9374 1946.76C102.647 1958.2 100.087 1969.74 101.73 1981.04C104.013 1996.89 114.064 2013.61 127.08 2023.89C132.309 2028.16 138.558 2030.99 145.213 2032.11C151.869 2033.23 158.702 2032.61 165.042 2030.29C169.177 2028.93 173.149 2027.11 176.884 2024.87C186.636 2019.11 195.833 2011.46 207.1 2006.1C219.327 2000.3 232.706 1997.78 244.507 1992.92C250.673 1987.01 253.426 1979.23 258.505 1972.44C268.619 1958.88 288.87 1951.12 305.066 1953.78C317.421 1955.91 328.986 1963.15 340.317 1956.51C347.273 1947.98 347.849 1936.53 351.989 1925.76C357.772 1910.55 369.402 1899.8 378.833 1888.73C382.421 1884.62 385.628 1880.19 388.414 1875.5C397.761 1859.19 399.51 1837.24 394.368 1816.42C390.363 1801.81 384.99 1787.61 378.321 1774C375.248 1767.32 371.557 1761.2 368.676 1755.29C365.787 1749.75 363.991 1743.7 363.384 1737.48C362.466 1724.88 366.286 1711.5 362.317 1697.96C357.345 1680.9 344.627 1667.5 326.618 1658.69C303.465 1647.39 273.506 1644.68 246.918 1650.16C233.24 1653 220.415 1658.01 206.929 1659.78C188.791 1662.17 171.721 1661.68 158.491 1662.02C145.73 1662.32 132.223 1663.56 122.066 1670.04Z" stroke="#E36140" stroke-miterlimit="10"/>
<path d="M114.661 1657.39C103.239 1664.57 94.6223 1675.44 90.2497 1688.19C87.6481 1695.73 87.0814 1703.83 88.6066 1711.65C89.9083 1718.67 93.1091 1725.13 95.7124 1731.36C96.2032 1732.51 96.6939 1733.62 97.0994 1734.73C104.077 1753.63 110.031 1772.25 102.007 1792.43C97.5261 1803.71 88.5426 1814.67 79.9431 1824.42C57.7723 1849.55 50.6025 1879.45 68.6123 1909.74C77.3185 1924.43 90.2283 1937.46 94.0906 1954.21C96.9927 1966.86 93.8772 1979.59 95.4563 1992.15C97.5901 2009.41 108.409 2027.73 122.556 2038.84C136.149 2049.51 150.553 2049.85 163.825 2044.96C168.318 2043.31 172.613 2041.17 176.628 2038.56C187.063 2031.87 196.793 2023.17 208.999 2017.24C222.229 2010.84 236.867 2008.41 249.841 2003.5C256.115 1997.78 259.145 1990.23 264.373 1983.62C274.807 1970.44 294.951 1962.63 311.062 1964.85C323.374 1966.54 334.854 1973.06 345.993 1966.17C353.376 1956.64 353.611 1943.99 358.049 1932.22C364.28 1915.58 377.467 1904.21 388.414 1892.35C392.576 1887.98 396.327 1883.23 399.617 1878.17C410.692 1860.6 413.274 1836.47 407.918 1813.67C404.183 1797.76 397.248 1782.06 390.377 1767.92C386.856 1760.77 382.567 1754.38 379.089 1747.98C375.609 1742.08 373.318 1735.56 372.346 1728.78C370.746 1715.11 374.587 1700.54 369.999 1685.95C364.344 1667.97 350.794 1653.62 331.888 1644.28C307.199 1632.12 275.384 1629.45 247.323 1635.89C232.92 1639.22 219.434 1644.98 205.094 1647.03C186.124 1649.74 168.072 1649.16 153.689 1649.39C139.969 1649.71 125.672 1650.87 114.661 1657.39Z" stroke="#E26840" stroke-miterlimit="10"/>
<path d="M107.257 1644.74C94.8701 1651.93 85.2014 1662.99 79.7511 1676.23C76.5415 1684.01 75.6379 1692.56 77.1478 1700.84C78.4708 1708.26 81.949 1715.05 84.915 1721.55C85.4698 1722.75 86.0246 1723.92 86.4941 1725.07C94.5601 1744.63 103.01 1764.61 95.4136 1786.14C91.1459 1798.23 81.6289 1809.87 72.4319 1820.09C47.8072 1847.37 39.9119 1880.11 59.9915 1913.3C69.6579 1929.27 84.0188 1943.33 88.1372 1961.76C91.2313 1975.6 87.5823 1989.49 89.0974 2003.37C91.2313 2022.03 102.647 2041.98 117.905 2053.9C132.671 2065.4 148.248 2065.46 162.524 2059.72C167.321 2057.79 171.881 2055.31 176.116 2052.34C187.234 2044.73 197.455 2034.96 210.664 2028.5C224.875 2021.52 240.751 2019.16 254.941 2014.19C261.343 2008.66 264.608 2001.39 270.006 1994.99C280.676 1982.19 300.777 1974.41 316.823 1976.07C329.093 1977.35 340.488 1983.15 351.413 1976.07C359.223 1965.51 359.138 1951.69 363.875 1938.89C370.575 1920.83 385.213 1908.82 397.761 1896.24C402.487 1891.59 406.773 1886.52 410.564 1881.09C423.367 1862.24 426.76 1835.94 421.233 1811.15C417.392 1794.09 410.009 1777.18 402.199 1762.1C398.251 1754.48 393.365 1747.7 389.289 1740.9C385.213 1734.66 382.42 1727.68 381.074 1720.36C378.833 1705.64 382.674 1689.86 377.446 1674.22C371.045 1655.28 356.833 1640.1 336.903 1630.18C310.699 1617.17 277.005 1614.5 247.494 1621.92C232.322 1625.74 218.217 1632.25 203.003 1634.57C183.201 1637.6 164.167 1636.85 148.653 1637.05C134.207 1637.11 119.142 1638.18 107.257 1644.74Z" stroke="#E26E40" stroke-miterlimit="10"/>
<path d="M99.9376 1632.1C86.5721 1639.29 75.8463 1650.54 69.3166 1664.24C65.5351 1672.31 64.3068 1681.34 65.7958 1690.13C67.1188 1697.94 70.8957 1705.06 74.2032 1711.82C74.822 1713.06 75.4408 1714.28 75.9956 1715.49C85.1285 1735.73 96.0753 1757.09 88.7988 1779.93C84.7445 1792.85 74.7153 1805.16 64.9209 1815.83C37.8422 1845.24 29.2214 1880.84 51.3495 1916.82C62.0188 1934.12 77.8094 1949.26 82.1838 1969.29C85.47 1984.32 81.2663 1999.51 82.7386 2014.55C84.6591 2034.62 96.8861 2056.2 113.253 2068.94C129.171 2081.31 145.965 2081.05 161.222 2074.46C166.341 2072.23 171.194 2069.43 175.69 2066.12C187.469 2057.59 198.33 2046.76 212.371 2039.72C227.585 2032.14 244.699 2029.86 260.084 2024.79C266.485 2019.45 270.134 2012.39 275.704 2006.17C286.779 1993.71 306.666 1985.99 322.649 1987.12C334.876 1987.97 347.636 1994.8 356.919 1985.67C367.033 1975.73 364.707 1959.09 369.722 1945.31C376.849 1925.8 393.194 1913.15 407.107 1899.78C412.416 1894.88 417.253 1889.5 421.553 1883.69C436.106 1863.58 440.31 1835.09 434.527 1808.32C430.558 1789.93 422.642 1772.06 413.978 1755.91C409.71 1747.83 404.12 1740.68 399.468 1733.47C394.802 1726.9 391.507 1719.45 389.78 1711.57C386.857 1695.79 390.719 1678.79 384.872 1662.13C377.873 1642.21 362.787 1626.08 341.982 1615.69C314.241 1601.81 278.67 1599.19 247.707 1607.57C231.789 1611.83 217.023 1619.13 200.955 1621.73C180.299 1625.06 160.283 1624.2 143.639 1624.33C128.446 1624.46 112.613 1625.46 99.9376 1632.1Z" stroke="#E1753F" stroke-miterlimit="10"/>
<path d="M92.4475 1619.45C78.1073 1626.64 66.3338 1638.07 58.7325 1652.19C54.3572 1660.51 52.7928 1670.03 54.2727 1679.32C55.5744 1687.53 59.6501 1694.95 63.3203 1701.99C63.9818 1703.29 64.686 1704.57 65.3048 1705.83C75.526 1726.76 88.9907 1749.47 82.205 1773.64C78.3427 1787.39 67.8014 1800.36 57.4095 1811.47C27.8769 1843.02 18.5306 1881.48 42.7285 1920.25C54.3368 1938.87 71.5997 1955.1 76.2302 1976.73C79.7084 1992.98 74.9712 2009.39 76.3582 2025.66C78.1933 2047.14 91.1245 2070.32 108.601 2083.91C125.672 2097.13 143.682 2096.56 159.814 2089.11C165.266 2086.59 170.419 2083.46 175.177 2079.79C187.618 2070.28 199.034 2058.46 214.014 2050.87C230.21 2042.68 248.561 2040.48 265.226 2035.41C271.841 2030.27 275.661 2023.46 281.38 2017.43C292.796 2005.36 312.555 1997.66 328.453 1998.23C340.637 1998.68 353.312 2004.63 362.402 1995.39C373.072 1984.52 370.276 1966.64 375.654 1951.84C383.25 1930.9 401.089 1917.71 416.56 1903.49C422.43 1898.31 427.809 1892.59 432.628 1886.42C448.909 1865.1 453.966 1834.36 447.928 1805.63C443.852 1785.99 435.402 1766.88 425.885 1749.85C421.105 1741.32 415.002 1733.79 409.753 1726.18C404.717 1718.91 400.428 1711.61 398.593 1702.93C395.008 1686.08 398.891 1667.87 392.404 1650.16C384.765 1629.26 368.932 1612.28 347.124 1601.34C317.847 1586.6 280.419 1584 248.006 1593.36C231.341 1598.18 215.998 1606.16 198.927 1609.02C177.418 1612.69 156.421 1611.71 138.624 1611.75C122.684 1611.92 106.062 1612.79 92.4475 1619.45Z" stroke="#E17B3F" stroke-miterlimit="10"/>
<path d="M85.0004 1606.8C69.6401 1614.03 56.8032 1625.71 48.1486 1640.31C43.1839 1648.89 41.2804 1658.9 42.7499 1668.7C44.0729 1677.23 48.426 1685.04 52.459 1692.35C53.1845 1693.72 53.9527 1695.02 54.5929 1696.34C65.881 1717.95 81.8636 1742.03 75.5047 1767.52C71.8558 1782.1 60.7811 1795.73 49.8984 1807.29C17.8905 1840.95 7.83996 1882.29 34.1078 1923.86C46.6976 1943.78 65.3902 1961.12 70.2768 1984.35C73.947 2001.79 68.6764 2019.43 69.9994 2036.94C71.7065 2059.83 85.3632 2084.64 103.949 2099.03C122.194 2113.11 141.377 2112.24 158.597 2103.94C164.38 2101.15 169.828 2097.72 174.836 2093.7C187.938 2083.27 199.93 2070.37 215.827 2062.24C233.005 2053.47 252.594 2051.34 270.412 2046.22C277.133 2041.25 281.209 2034.7 287.077 2028.86C298.835 2017.15 318.466 2009.66 334.3 2009.54C346.441 2009.43 359.01 2014.76 367.929 2005.27C379.089 1993.41 375.888 1974.3 381.586 1958.5C389.631 1936.1 409.006 1922.24 425.992 1907.31C432.427 1901.85 438.355 1895.83 443.703 1889.3C461.67 1866.61 467.538 1833.85 461.328 1803.07C457.061 1782.19 448.141 1761.93 437.856 1743.97C432.649 1734.97 425.949 1727.08 420.102 1719.06C414.511 1711.38 409.668 1703.66 407.491 1694.44C403.223 1676.53 407.15 1657.09 400.022 1638.37C391.7 1616.48 375.014 1598.61 352.352 1587.18C321.539 1571.59 282.212 1569.01 248.348 1579.33C230.935 1584.64 214.867 1593.34 197.135 1596.39C174.793 1600.36 152.815 1599.27 133.866 1599.25C117.008 1599.31 99.532 1600.1 85.0004 1606.8Z" stroke="#E0803E" stroke-miterlimit="10"/>
<path d="M77.66 1594.15C62.723 1600.68 46.6764 1613.35 37.6928 1628.28C32.1336 1637.09 29.8664 1647.58 31.2912 1657.9C32.6142 1666.93 37.2447 1674.97 41.6191 1682.56C42.43 1683.97 43.2622 1685.33 44.009 1686.7C56.3854 1708.99 74.886 1734.41 68.9112 1761.35C65.497 1776.75 53.9742 1791.02 42.302 1803.05C7.7974 1838.82 -2.95726 1883.03 25.3804 1927.4C38.9518 1948.73 59.0954 1967.07 64.238 1991.9C68.1003 2010.54 62.2962 2029.39 63.5339 2048.14C65.1556 2072.46 79.5165 2098.86 99.2121 2114.09C118.908 2129.32 139.009 2127.85 157.21 2118.7C163.308 2115.59 169.035 2111.81 174.281 2107.42C188.087 2096.05 200.613 2082.1 217.428 2073.42C235.609 2064.05 257.609 2065.16 275.469 2056.82C283.023 2053.3 286.651 2045.77 292.668 2040.08C305.846 2028.52 322.498 2021.68 339.997 2020.63C352.117 2020.24 364.579 2024.64 373.307 2015.02C385 2002.22 381.373 1981.85 387.369 1965.06C395.904 1941.22 416.795 1926.67 435.295 1911.04C442.306 1905.33 448.777 1898.99 454.628 1892.1C474.324 1868.12 481.003 1833.12 474.58 1800.38C470.312 1778.26 460.752 1756.87 449.528 1737.95C443.895 1728.48 436.597 1720.21 430.153 1711.8C423.986 1703.74 418.587 1695.59 416.069 1685.82C411.161 1666.84 415.088 1646.2 407.32 1626.42C398.358 1603.58 380.86 1584.83 357.26 1572.82C324.932 1556.38 283.727 1553.82 248.433 1565.12C230.274 1570.95 213.544 1580.37 194.937 1583.81C171.742 1588.07 148.782 1586.9 128.787 1586.79C111.162 1586.71 93.0025 1587.41 77.66 1594.15Z" stroke="#E0863E" stroke-miterlimit="10"/>
<path d="M70.2554 1581.5C54.6782 1587.9 37.0952 1600.83 27.1941 1616.36C21.0871 1625.42 18.5067 1636.41 19.9389 1647.24C21.2406 1656.67 26.1698 1665.03 30.907 1672.84C31.7819 1674.29 32.6781 1675.69 33.5103 1677.1C46.9323 1700.09 67.9722 1726.88 62.4028 1755.06C59.202 1771.29 47.0603 1786.22 34.876 1798.7C-2.10387 1836.58 -13.6481 1883.72 16.8448 1930.94C31.3337 1953.5 52.9711 1973 58.3698 1999.43C62.4028 2019.28 56.0865 2039.35 57.2602 2059.34C58.7539 2085.06 73.8189 2113.09 94.6454 2129.15C115.472 2145.21 136.789 2143.44 155.994 2133.41C162.425 2130.01 168.452 2125.9 173.961 2121.15C188.429 2108.84 201.509 2093.87 219.263 2084.64C238.468 2074.67 261.62 2075.91 280.718 2067.44C288.336 2064.07 292.284 2056.78 298.472 2051.34C311.953 2040.19 328.501 2033.39 345.929 2031.85C358.007 2031.01 370.362 2034.6 378.919 2024.85C391.082 2010.99 387.049 1989.49 393.365 1971.68C402.327 1946.4 424.797 1931.15 444.812 1914.83C452.393 1908.86 459.407 1902.2 465.767 1894.93C487.105 1869.66 494.681 1832.5 488.066 1797.82C483.606 1774.36 473.577 1751.92 461.499 1732.07C455.46 1722.13 447.544 1713.49 440.502 1704.66C433.78 1696.13 427.827 1687.59 424.967 1677.34C419.377 1657.29 423.346 1635.42 414.938 1614.63C404.82 1590.18 386.146 1570.25 362.402 1558.55C328.517 1541.23 285.455 1538.72 248.689 1550.98C229.762 1557.38 212.413 1567.47 192.931 1571.18C168.904 1575.77 144.962 1574.47 123.751 1574.27C105.4 1574.1 86.4727 1574.74 70.2554 1581.5Z" stroke="#DF8C3D" stroke-miterlimit="10"/>
<path d="M62.851 1568.86C46.5696 1575.25 27.5356 1588.33 16.6742 1604.39C10.0009 1613.7 7.08256 1625.17 8.50153 1636.53C9.80319 1646.34 14.9031 1655.03 20.1097 1663.17C21.0486 1664.67 22.0089 1666.14 22.9051 1667.59C37.394 1691.26 60.9732 1719.42 55.8092 1748.92C52.8218 1765.98 40.1467 1781.55 27.3649 1794.5C-12.1116 1834.47 -24.3386 1884.5 8.16011 1934.44C23.6093 1958.32 46.6977 1978.91 52.3524 2006.96C56.6201 2028.01 49.7278 2049.31 50.816 2070.54C52.2244 2097.67 67.8869 2127.29 89.9297 2144.19C111.972 2161.08 134.442 2159.12 154.607 2148.17C161.377 2144.5 167.705 2140.06 173.47 2134.95C188.599 2121.71 202.256 2105.67 220.927 2095.88C241.071 2085.32 265.483 2086.68 285.818 2078.13C293.5 2074.91 297.747 2067.96 304.105 2062.65C317.873 2051.86 334.327 2045.04 351.691 2042.92C363.726 2041.68 375.953 2044.45 384.36 2034.53C396.971 2019.6 392.575 1996.97 399.297 1978.16C408.707 1951.46 432.713 1935.65 454.244 1918.44C462.394 1912.2 469.952 1905.23 476.82 1897.6C499.951 1871.05 508.273 1831.72 501.466 1795.05C496.879 1770.46 486.316 1746.78 473.385 1725.97C466.983 1715.56 458.448 1706.54 450.787 1697.32C443.468 1688.47 436.96 1679.49 433.716 1668.63C427.485 1647.52 431.476 1624.44 422.407 1602.51C411.673 1577.14 392.224 1556.44 367.567 1544.14C332.166 1525.96 287.227 1523.47 249.009 1536.71C229.335 1543.54 211.304 1554.42 190.989 1558.4C166.109 1563.31 141.206 1561.9 118.844 1561.65C99.6388 1561.52 79.9432 1562.07 62.851 1568.86Z" stroke="#DF913C" stroke-miterlimit="10"/>
<path d="M55.4463 1556.21C38.3754 1562.61 17.9757 1575.83 6.1754 1592.47C-1.0724 1602 -4.34574 1613.96 -2.95752 1625.85C-1.65587 1636.06 3.8495 1645.04 9.31218 1653.58C10.3151 1655.13 11.446 1656.63 12.2996 1658.14C27.8554 1682.5 53.9953 1712 49.2154 1742.84C46.4414 1760.71 33.2328 1776.96 19.8535 1790.36C-22.1196 1832.29 -35.0295 1885.23 -0.354208 1938C16.0979 1963.19 40.6159 1984.92 46.5908 2014.51C51.0078 2036.77 43.646 2059.3 44.6489 2081.73C45.9292 2110.29 62.424 2141.46 85.4697 2159.24C108.515 2177.03 132.415 2174.64 153.497 2162.93C160.586 2158.96 167.201 2154.19 173.214 2148.73C189.026 2134.55 203.238 2117.46 222.848 2107.12C243.973 2095.98 269.558 2097.43 291.131 2088.79C298.856 2085.72 303.444 2079.07 309.952 2073.86C323.996 2063.45 340.377 2056.63 357.665 2054.01C369.657 2052.34 381.735 2054.28 390.015 2044.24C403.052 2028.33 398.315 2004.48 405.25 1984.67C415.109 1956.49 440.63 1940.05 463.718 1922.15C472.424 1915.63 480.522 1908.33 487.916 1900.35C512.776 1872.52 521.93 1831.01 514.888 1792.36C510.194 1766.53 499.14 1741.69 485.313 1719.84C478.442 1708.97 469.287 1699.58 461.093 1689.98C453.198 1680.73 446.156 1671.32 442.614 1659.93C435.7 1637.75 439.734 1613.46 430.024 1590.59C418.693 1564.23 398.419 1542.71 372.773 1529.82C335.9 1510.63 289.04 1508.32 249.35 1522.53C228.929 1529.85 210.279 1541.47 189.111 1545.74C163.377 1550.94 137.472 1549.45 113.978 1549.08C93.8558 1548.91 73.4134 1549.38 55.4463 1556.21Z" stroke="#DE973B" stroke-miterlimit="10"/>
<path d="M48.0421 1543.56C30.3097 1549.96 8.41623 1563.33 -4.34426 1580.44C-11.6847 1590.29 -15.9951 1601.77 -14.3948 1615.1C-13.0931 1625.76 -7.28899 1635.02 -1.59158 1643.72C-0.524648 1645.32 0.542283 1646.88 1.60921 1648.43C18.2107 1673.5 46.8898 1704.34 42.494 1736.5C39.9547 1755.21 26.2126 1772.1 12.2359 1785.96C-32.2338 1830.09 -45.8265 1885.96 -9.10277 1941.47C8.30955 1967.99 34.2787 1990.75 40.4455 2021.99C45.0547 2045.45 37.1594 2069.19 38.0983 2092.89C39.2719 2122.86 56.4708 2155.7 80.6475 2174.24C104.824 2192.77 129.897 2190.24 152.004 2177.63C159.426 2173.37 166.336 2168.28 172.596 2162.44C189.069 2147.32 203.857 2129.21 224.363 2118.31C246.491 2106.56 273.271 2108.08 296.125 2099.42C303.935 2096.45 308.821 2090.12 315.5 2085.17C329.834 2075.16 346.148 2068.35 363.341 2065.18C375.291 2063.05 387.241 2064.24 395.349 2054.03C408.835 2037.07 403.735 2012.07 411.012 1991.26C421.319 1961.65 448.397 1944.57 472.894 1925.93C482.258 1919.15 490.986 1911.53 498.97 1903.17C525.558 1874.05 535.523 1830.39 528.289 1789.74C523.36 1762.67 511.773 1736.69 497.092 1714.04C489.815 1702.72 480.021 1692.95 471.251 1682.92C462.715 1673.3 455.183 1663.47 451.299 1651.53C443.724 1628.28 447.8 1602.75 437.429 1578.86C425.498 1551.52 404.418 1529.18 377.809 1515.68C339.4 1495.74 290.662 1493.37 249.521 1508.54C228.353 1516.34 208.978 1528.69 187.02 1533.26C160.454 1538.76 133.567 1537.16 108.942 1536.73C88.0946 1536.31 66.8841 1536.71 48.0421 1543.56Z" stroke="#DD9C3A" stroke-miterlimit="10"/>
<path d="M40.6376 1530.91C22.201 1537.31 -1.1648 1550.81 -14.8429 1568.47C-22.7168 1578.65 -27.4113 1590.55 -25.8109 1604.37C-24.5306 1615.37 -18.4277 1625.02 -12.2609 1633.97C-11.1299 1635.64 -9.97764 1637.24 -8.86804 1638.86C8.80034 1664.6 40.0187 1696.81 35.9431 1730.3C33.6172 1749.83 19.3416 1767.37 4.76734 1781.7C-42.1776 1827.92 -56.4745 1886.68 -17.7236 1945.02C0.648984 1972.74 28.0691 1996.67 34.492 2029.52C39.2932 2054.18 30.8645 2079.15 31.718 2104.17C32.7849 2135.55 50.7094 2170.02 75.9957 2189.38C101.282 2208.75 127.592 2205.91 150.681 2192.45C158.444 2187.91 165.655 2182.49 172.169 2176.29C189.24 2160.25 204.646 2141.07 226.091 2129.62C249.223 2117.27 277.155 2118.8 301.289 2110.15C309.141 2107.33 314.369 2101.29 321.198 2096.54C335.804 2086.92 352.07 2080.1 369.167 2076.42C381.074 2073.93 392.874 2074.29 400.855 2063.88C414.725 2045.86 409.39 2019.71 416.901 1997.91C427.571 1966.86 456.293 1949.13 482.39 1929.66C492.257 1922.62 501.47 1914.7 509.916 1906C538.19 1875.59 548.988 1829.77 541.54 1787.14C536.59 1758.83 524.469 1731.68 508.956 1708.05C501.253 1696.25 490.882 1686.12 481.493 1675.69C472.467 1665.67 464.316 1655.41 460.155 1642.91C451.918 1618.62 456.015 1591.87 445.004 1566.94C432.447 1538.64 410.549 1515.51 382.973 1501.41C343.027 1480.6 292.433 1478.25 249.841 1494.4C227.905 1502.71 207.954 1515.73 185.079 1520.63C157.552 1526.35 129.812 1524.68 103.971 1524.21C82.3332 1523.72 60.3331 1524.04 40.6376 1530.91Z" stroke="#DDA138" stroke-miterlimit="10"/>
<path d="M33.2328 1518.26C14.0281 1524.66 -10.7247 1538.31 -25.363 1556.51C-33.8985 1566.98 -38.8704 1579.31 -37.2913 1593.64C-35.9896 1605.05 -29.6094 1614.97 -23.1011 1624.25L-19.5589 1629.26C-0.8236 1655.73 32.9554 1689.26 29.3492 1724.11C27.2153 1744.46 12.4277 1762.63 -2.65872 1777.43C-52.143 1825.72 -67.08 1887.41 -26.2592 1948.53C-6.90511 1977.65 21.9447 2002.6 28.6024 2037.05C33.6169 2062.92 24.6547 2089.11 25.4442 2115.26C26.4045 2148.07 45.0331 2184.16 71.429 2204.33C97.8248 2224.51 125.394 2221.4 149.464 2207.13C157.536 2202.3 165.038 2196.57 171.827 2190.07C189.645 2173 205.542 2152.85 227.905 2140.84C252.018 2127.91 281.124 2129.43 306.538 2120.81C314.455 2118.12 319.981 2112.38 326.98 2107.82C341.86 2098.6 358.088 2091.77 375.078 2087.56C386.942 2084.64 398.55 2084.14 406.445 2073.63C420.678 2054.56 414.981 2027.28 422.876 2004.46C434.1 1971.98 464.273 1953.61 491.885 1933.46C502.293 1926.12 512.026 1917.86 520.97 1908.8C550.972 1877.1 562.58 1829.11 554.941 1784.51C549.862 1754.95 537.23 1726.69 520.799 1702.08C512.669 1689.81 501.701 1679.3 491.714 1668.48C482.133 1658.05 473.406 1647.39 468.839 1634.36C459.941 1609 464.081 1581.03 452.43 1555.08C439.262 1525.77 416.556 1501.79 388.009 1487.04C346.526 1465.37 294.119 1463.06 250.012 1480.17C227.329 1488.98 206.716 1502.78 182.987 1507.9C154.735 1514.02 125.885 1512.16 98.9771 1511.63C76.5716 1511.12 53.8033 1511.42 33.2328 1518.26Z" stroke="#DCA637" stroke-miterlimit="10"/>
<path d="M25.8498 1505.62C5.94085 1512.01 -20.2843 1525.79 -35.8828 1544.54C-44.8664 1555.33 -50.3291 1568 -48.686 1582.93C-47.3844 1594.73 -40.7267 1605.01 -33.749 1614.52C-32.4687 1616.27 -31.1883 1617.98 -29.9507 1619.68C-10.1485 1646.86 26.1699 1681.73 22.9477 1717.9C21.0699 1739.06 5.72747 1757.9 -10.0418 1773.17C-62.236 1823.53 -77.7919 1888.11 -34.9226 1952.05C-14.5869 1982.49 15.7139 2008.53 22.6917 2044.58C27.8983 2071.65 18.4239 2099.05 19.1068 2126.46C19.9817 2160.59 39.3145 2198.36 66.8199 2219.37C94.3254 2240.38 123.133 2237.01 148.205 2221.87C156.612 2216.73 164.402 2210.65 171.422 2203.74C189.922 2185.82 206.374 2164.53 229.655 2151.99C254.77 2138.45 285.135 2139.94 311.745 2131.37C319.725 2128.81 325.572 2123.39 332.72 2119.02C347.862 2110.2 364.068 2103.34 380.946 2098.63C392.767 2095.28 404.248 2093.98 411.972 2083.29C426.568 2063.14 420.636 2034.75 428.83 2010.92C440.502 1976.99 472.211 1958.03 501.381 1937.08C512.368 1929.49 522.645 1920.93 532.087 1911.49C563.818 1878.53 576.237 1828.3 568.363 1781.78C563.178 1750.98 550.012 1721.57 532.77 1696.02C524.235 1683.22 512.626 1672.43 502.064 1661.17C491.885 1650.5 482.646 1639.26 477.738 1625.68C468.157 1599.25 472.339 1570.05 460.027 1543.07C446.255 1512.8 422.732 1488.02 393.215 1472.68C350.197 1450.16 295.847 1447.86 250.353 1465.94C226.881 1475.24 205.67 1489.77 181.11 1495.19C151.982 1501.58 122.172 1499.73 94.1334 1499.02C70.8103 1498.62 47.2738 1498.73 25.8498 1505.62Z" stroke="#DBAB35" stroke-miterlimit="10"/>
<path d="M18.4452 1492.97C-2.1893 1499.37 -29.8655 1513.29 -46.3816 1532.55C-55.8346 1543.67 -61.7667 1556.83 -60.1023 1572.2C-58.822 1584.43 -51.8656 1595.01 -44.6318 1604.8C-43.2875 1606.61 -41.9431 1608.36 -40.6202 1610.11C-19.7723 1637.96 19.128 1674.09 16.2686 1711.7C14.6042 1733.69 -1.29306 1753.18 -17.6384 1768.9C-72.2013 1821.33 -88.4827 1888.94 -43.5435 1955.57C-22.2049 1987.33 9.50428 2014.46 16.6741 2052.11C22.0727 2080.37 12.0649 2109.01 12.6837 2137.64C13.4519 2173.28 33.4889 2212.59 62.104 2234.41C90.7191 2256.23 120.785 2252.58 146.818 2236.54C155.562 2231.08 163.652 2224.64 170.931 2217.34C190.136 2198.49 207.1 2176.18 231.319 2163.06C257.416 2148.94 288.933 2150.27 316.823 2141.88C324.889 2139.43 331.035 2134.33 338.354 2130.15C353.752 2121.73 369.949 2114.85 386.707 2109.63C398.486 2105.86 409.817 2103.73 417.413 2092.91C432.35 2071.58 426.141 2042.17 434.655 2017.34C446.775 1981.96 480.064 1962.36 510.684 1940.66C522.237 1932.79 533.057 1923.9 543.013 1914.09C576.45 1879.83 589.701 1827.51 581.657 1778.95C576.343 1746.95 562.644 1716.37 544.549 1689.86C535.587 1676.65 523.381 1665.41 512.242 1653.77C501.573 1642.59 491.672 1631.05 486.422 1616.91C476.201 1589.42 480.405 1559 467.452 1531C453.03 1499.84 428.698 1474.33 398.251 1458.44C353.696 1434.97 297.469 1432.84 250.524 1451.84C226.347 1461.66 204.433 1476.91 179.018 1482.6C149.144 1489.32 118.267 1487.34 89.076 1486.57C65.0487 1485.93 40.744 1486.06 18.4452 1492.97Z" stroke="#DBAF33" stroke-miterlimit="10"/>
<path d="M11.0408 1480.34C-10.2978 1486.74 -39.425 1500.77 -56.9014 1520.59C-66.9945 1532.02 -73.2041 1545.61 -71.625 1561.5C-70.3234 1574.1 -63.0896 1584.96 -55.493 1595.07C-54.0847 1596.93 -52.6763 1598.74 -51.2253 1600.53C-29.3105 1629.09 12.1077 1666.65 9.67511 1705.49C8.24542 1728.31 -8.20665 1748.45 -25.1495 1764.64C-82.1663 1819.13 -99.1305 1889.56 -52.1002 1959.09C-29.8227 1992.15 3.38023 2020.39 10.7847 2059.64C16.3754 2089.11 5.83417 2118.98 6.36763 2148.84C7.02913 2185.88 27.7063 2226.79 57.5803 2249.47C87.4544 2272.14 118.63 2268.17 145.645 2251.34C154.709 2245.61 163.092 2238.87 170.632 2231.25C190.477 2211.46 208.039 2188.1 233.176 2174.43C260.255 2159.71 292.924 2161.04 322.115 2152.68C330.245 2150.35 336.689 2145.59 344.179 2141.56C359.84 2133.56 376.04 2126.66 392.661 2120.92C404.397 2116.65 415.557 2113.79 423.047 2102.81C438.261 2080.48 431.86 2049.87 440.694 2024.04C453.262 1987.23 488.087 1966.98 520.223 1944.52C532.341 1936.39 543.703 1927.18 554.173 1917.01C589.339 1881.48 603.252 1827 595.143 1776.43C589.637 1743.16 575.469 1711.46 556.541 1684.01C547.152 1670.34 534.349 1658.74 522.613 1646.69C511.282 1635.1 500.933 1623.22 495.342 1608.46C484.438 1579.9 488.684 1548.25 475.07 1519.22C460.069 1487.04 434.919 1460.67 403.479 1444.14C357.409 1419.89 299.304 1417.65 250.908 1437.75C225.835 1447.98 203.28 1463.96 177.013 1469.95C146.2 1476.97 114.426 1474.9 84.1042 1474.03C59.3941 1473.32 34.2145 1473.39 11.0408 1480.34Z" stroke="#DAB431" stroke-miterlimit="10"/>
<path d="M3.63621 1467.69C-18.4279 1474.09 -48.9848 1488.27 -67.4214 1508.62C-78.0907 1520.35 -84.663 1534.37 -83.0626 1550.77C-81.7823 1563.78 -74.2498 1575.02 -66.2905 1585.34C-64.8394 1587.24 -63.3457 1589.1 -61.8947 1590.95C-38.913 1620.22 5.06589 1659.21 2.99604 1699.28C1.80108 1722.94 -15.1845 1743.71 -32.7035 1760.37C-92.2382 1816.93 -109.885 1890.29 -60.8064 1962.63C-37.5473 1996.99 -2.91475 2026.32 4.76715 2067.15C10.5499 2097.82 -0.503491 2129 -0.0553799 2160.01C0.499424 2198.4 21.9447 2241.06 52.8004 2264.52C83.656 2287.99 116.197 2283.72 144.215 2266.1C153.61 2260.09 162.281 2253.02 170.056 2245.03C190.584 2224.32 208.7 2199.9 234.755 2185.67C262.836 2170.38 296.637 2171.57 327.151 2163.34C335.345 2161.21 342.088 2156.71 349.749 2152.87C365.048 2145.23 383.357 2137.94 398.337 2132.09C410.03 2127.46 421.041 2123.73 428.424 2112.6C443.937 2089.14 437.322 2057.44 446.455 2030.61C459.472 1992.37 495.854 1971.51 529.505 1948.28C542.203 1939.86 554.122 1930.32 565.119 1919.78C601.992 1882.97 616.78 1826.32 608.415 1773.76C602.782 1739.25 588.08 1706.41 568.299 1678.02C558.483 1663.88 545.082 1651.89 532.749 1639.43C520.863 1627.47 509.938 1615.1 504.005 1599.87C492.44 1570.24 496.75 1537.37 482.475 1507.32C466.856 1474.16 440.886 1446.97 408.473 1429.83C360.845 1404.77 300.883 1402.64 251.015 1423.52C225.408 1434.31 202.128 1451.01 175.007 1457.28C143.361 1464.62 110.607 1462.45 79.1322 1461.55C53.5259 1460.74 27.6848 1460.72 3.63621 1467.69Z" stroke="#D9B82F" stroke-miterlimit="10"/>
<path d="M-3.76811 1455.04C-26.5578 1461.44 -58.5657 1475.78 -77.9198 1496.64C-89.1226 1508.71 -96.1003 1523.13 -94.4999 1540.04C-93.2196 1553.46 -85.3883 1565.02 -77.0876 1575.62C-75.5726 1577.56 -74.0149 1579.48 -72.4785 1581.38C-48.4512 1611.24 -1.93298 1651.55 -3.5974 1693.1C-4.57897 1717.54 -22.098 1738.98 -40.2145 1756.1C-102.267 1814.72 -120.576 1891.07 -69.427 1966.15C-45.2077 2001.84 -9.12411 2032.27 -1.14347 2074.7C4.83135 2106.69 -6.75552 2138.9 -6.37142 2171.21C-5.92331 2211.12 16.2262 2255.23 48.1914 2279.54C80.1567 2303.86 113.957 2299.36 142.935 2280.82C152.657 2274.52 161.628 2267.12 169.672 2258.79C190.861 2237.12 209.554 2211.65 236.526 2196.93C265.589 2181.02 300.542 2182 332.336 2174.03C340.616 2171.89 347.679 2167.82 355.489 2164.17C371.109 2156.9 389.311 2149.71 404.205 2143.25C415.856 2138.21 426.696 2133.67 433.951 2122.37C449.742 2097.82 442.935 2065.03 452.409 2037.2C465.874 1997.48 503.792 1976.01 538.958 1952.03C552.222 1943.36 564.677 1933.51 576.173 1922.6C614.774 1884.5 630.394 1825.66 621.795 1771.16C616.055 1735.41 600.819 1701.44 580.185 1672.07C569.963 1657.48 555.944 1645.13 543.013 1632.27C530.551 1619.92 519.092 1607.12 512.819 1591.34C500.591 1560.64 504.923 1526.54 489.986 1495.46C473.783 1461.31 447.003 1433.29 413.615 1415.54C364.536 1389.59 302.654 1387.41 251.314 1409.36C224.897 1420.66 201.019 1438.07 173.044 1444.64C140.545 1452.27 106.894 1450.01 74.2245 1448.9C47.7646 1448.13 21.1341 1448.07 -3.76811 1455.04Z" stroke="#D8BC2C" stroke-miterlimit="10"/>
<path d="M-11.1729 1442.4C-34.6454 1448.79 -68.147 1463.21 -88.44 1484.67C-100.198 1497.02 -107.538 1511.89 -105.938 1529.33C-104.679 1543.13 -96.5487 1554.93 -87.9066 1565.87C-86.3062 1567.87 -84.6844 1569.84 -83.084 1571.78C-57.9685 1602.47 -8.88966 1644 -10.1913 1686.89C-10.9595 1712.17 -29.012 1734.24 -47.7259 1751.84C-112.297 1812.52 -131.267 1891.74 -78.0481 1969.67C-52.8472 2006.66 -15.2912 2038.24 -7.1399 2082.23C-0.994374 2115.31 -13.072 2148.84 -12.7946 2182.47C-12.4319 2223.79 10.4218 2269.52 43.4967 2294.66C76.5715 2319.81 111.631 2315.01 141.654 2295.62C151.702 2289.02 160.965 2281.3 169.266 2272.61C191.117 2250 210.365 2223.55 238.276 2208.17C268.32 2191.66 304.425 2192.54 337.521 2184.71C345.886 2182.73 353.248 2178.95 361.207 2175.5C377.147 2168.59 395.221 2161.44 410.051 2154.45C421.66 2148.96 432.308 2143.65 439.477 2132.18C455.503 2106.58 448.546 2072.63 458.319 2043.79C472.254 2002.65 511.666 1980.53 548.39 1955.79C562.223 1946.85 575.221 1936.69 587.226 1925.41C627.535 1886.02 644.008 1825.02 635.195 1768.52C629.348 1731.53 613.558 1696.4 592.07 1666.14C581.401 1651.08 566.805 1638.41 553.276 1625.08C540.26 1612.28 528.246 1599.12 521.61 1582.81C508.807 1551.05 513.074 1515.73 497.518 1483.63C480.687 1448.52 453.087 1419.7 418.736 1401.36C368.014 1374.42 304.276 1372.27 251.441 1395.17C224.256 1406.99 199.738 1425.03 170.931 1431.99C137.579 1439.92 102.861 1437.62 69.1243 1436.45C41.9816 1435.59 14.5828 1435.4 -11.1729 1442.4Z" stroke="#D7C029" stroke-miterlimit="10"/>
<path d="M-18.5771 1429.75C-42.7964 1436.15 -77.7064 1450.71 -98.9383 1472.7C-111.315 1485.37 -118.975 1500.75 -117.396 1518.6C-116.116 1532.81 -107.709 1545.01 -98.7036 1556.14C-97.0392 1558.28 -95.3321 1560.22 -93.689 1562.2C-67.5279 1593.6 -15.8884 1636.47 -16.87 1680.68C-17.4035 1706.79 -36.0748 1729.51 -55.2795 1747.57C-122.325 1810.3 -141.957 1892.46 -86.69 1973.19C-60.5075 2011.58 -21.5432 2044.09 -13.0931 2089.75C-6.6915 2124.03 -19.3666 2158.8 -19.1532 2193.61C-18.9185 2236.26 4.66065 2283.66 38.8665 2309.64C73.0723 2335.61 109.284 2330.54 140.289 2310.3C150.666 2303.41 160.224 2295.36 168.776 2286.3C191.288 2262.84 211.09 2235.22 239.919 2219.33C270.967 2202.27 308.203 2202.91 342.622 2195.29C350.916 2193.12 359.016 2190.26 366.841 2186.76C383.101 2180.21 400.983 2173.09 415.813 2165.56C427.379 2159.67 437.856 2153.55 444.919 2141.9C461.179 2115.09 454.073 2080.18 464.124 2050.32C478.506 2007.66 519.604 1984.99 557.715 1959.5C572.139 1950.29 585.707 1939.8 598.258 1928.17C640.295 1887.49 657.58 1824.31 648.575 1765.85C642.6 1727.61 626.276 1691.35 603.934 1660.08C592.86 1644.55 577.624 1631.46 563.519 1617.78C549.926 1604.65 537.358 1591.02 530.38 1574.15C516.83 1541.32 521.247 1504.76 505.009 1471.64C487.598 1435.58 459.213 1405.95 423.922 1387C371.706 1359.28 306.111 1357.14 251.911 1381.07C223.979 1393.38 198.799 1412.26 169.139 1419.47C134.997 1427.68 99.2548 1425.31 64.3661 1424.05C36.2205 1422.99 8.18152 1422.73 -18.5771 1429.75Z" stroke="#D6C426" stroke-miterlimit="10"/>
<path d="M-25.9606 1417.1C-50.9054 1423.5 -87.2451 1438.22 -109.437 1460.74C-122.24 1473.73 -130.413 1489.43 -128.813 1507.88C-127.532 1522.49 -118.848 1535.01 -109.48 1546.42C-107.752 1548.55 -105.98 1550.68 -104.252 1552.62C-77.0452 1584.72 -22.8665 1628.92 -23.3786 1674.48C-23.6774 1701.39 -42.8181 1724.77 -62.727 1743.31C-132.376 1808.08 -152.648 1893.21 -95.3111 1976.73C-68.1684 2016.34 -27.753 2050.02 -19.0469 2097.28C-12.5173 2132.78 -25.6618 2168.76 -25.4485 2204.78C-25.2991 2248.93 -1.01574 2297.88 34.2997 2324.67C69.9565 2351.72 107.128 2346.13 139.072 2325.04C149.772 2317.85 159.616 2309.47 168.413 2300.06C191.629 2275.59 211.986 2246.99 241.732 2230.57C273.74 2212.87 312.15 2213.31 347.871 2205.93C356.316 2203.92 364.592 2201.25 372.624 2197.96C389.456 2191.99 405.855 2184.86 421.702 2176.63C433.204 2170.23 443.51 2163.38 450.467 2151.59C466.94 2123.63 459.728 2087.6 470.12 2056.8C484.95 2012.78 527.521 1989.4 567.21 1963.12C582.147 1953.21 596.764 1942.88 609.29 1930.85C653.056 1888.9 671.172 1823.55 661.933 1763.1C655.851 1723.6 638.994 1686.32 615.798 1654C604.297 1638.01 588.464 1624.53 573.783 1610.47C559.614 1596.95 546.491 1582.87 539.171 1565.46C524.96 1531.57 529.42 1493.8 512.52 1459.65C494.471 1422.61 465.242 1392.16 428.957 1372.61C375.227 1344.09 307.754 1341.98 252.082 1366.83C223.424 1379.62 197.561 1399.18 167.069 1406.65C132.009 1415.18 95.3495 1412.71 59.3299 1411.36C30.4587 1410.38 1.5449 1410.08 -25.9606 1417.1Z" stroke="#D5C822" stroke-miterlimit="10"/>
<path d="M-33.3649 1404.45C-58.9712 1410.85 -96.8259 1425.78 -119.978 1448.75C-133.379 1462.06 -141.872 1478.19 -140.271 1497.17C-139.012 1512.1 -130.029 1525 -120.298 1536.69C-118.506 1538.82 -116.692 1540.96 -114.878 1543.09C-86.6688 1575.96 -29.78 1621.41 -29.9934 1668.31C-29.9934 1696.04 -49.7529 1720.08 -70.2594 1739.08C-142.405 1805.91 -163.338 1893.93 -103.932 1980.29C-75.8287 2021.2 -33.9624 2055.99 -24.9788 2104.86C-18.2571 2141.54 -31.8498 2178.76 -31.8712 2216.02C-31.7431 2261.58 -6.841 2312.15 29.584 2339.73C66.4145 2367.65 104.76 2361.74 137.685 2339.73C148.716 2332.25 158.861 2323.54 167.922 2313.77C191.8 2288.37 212.733 2258.72 243.397 2241.75C276.429 2223.47 315.948 2223.64 352.949 2216.56C361.548 2214.7 370.004 2212.24 378.257 2209.2C395.157 2203.4 412.847 2196.4 427.485 2187.74C438.944 2180.98 449.059 2173.3 455.93 2161.31C472.595 2132.24 465.255 2095.19 475.967 2063.33C491.245 2017.88 535.373 1993.86 576.578 1966.84C592.134 1956.64 607.263 1946 620.301 1933.6C665.752 1890.35 684.701 1822.84 675.269 1760.41C669.06 1719.67 651.669 1681.15 627.62 1647.99C615.713 1631.52 599.261 1617.68 583.983 1603.2C569.238 1589.29 555.56 1574.81 547.899 1556.83C532.962 1521.89 537.528 1482.88 519.967 1447.71C501.316 1409.7 471.281 1378.45 434.036 1358.3C378.748 1328.9 309.419 1326.84 252.295 1352.64C222.848 1366 196.345 1386.28 164.999 1394.11C129.086 1402.89 91.466 1400.36 54.3155 1398.95C24.6975 1397.78 -4.98453 1397.41 -33.3649 1404.45Z" stroke="#D4CC1E" stroke-miterlimit="10"/>
<path d="M-40.7692 1391.8C-67.1651 1398.2 -106.385 1413.3 -130.519 1436.77C-144.475 1450.39 -153.352 1466.92 -151.858 1486.42C-150.578 1501.82 -141.317 1514.98 -131.224 1526.94C-129.367 1529.08 -127.489 1531.21 -125.612 1533.34C-96.1856 1567.02 -36.8003 1613.8 -36.6295 1662.06C-36.4588 1690.62 -56.7305 1715.39 -77.8131 1734.77C-152.434 1803.63 -174.029 1894.61 -112.574 1983.77C-83.4678 2026 -40.1718 2061.88 -30.9535 2112.32C-24.0398 2150.24 -38.1873 2188.68 -38.2726 2227.18C-38.2726 2274.1 -12.6663 2326.32 24.911 2354.77C62.8938 2383.54 102.456 2377.29 136.363 2354.51C147.718 2346.74 158.156 2337.71 167.474 2327.59C192.014 2301.25 213.502 2270.56 245.104 2252.94C279.118 2234.07 319.789 2233.98 358.092 2227.18C366.84 2225.49 375.471 2223.25 383.933 2220.46C401.154 2215.02 418.715 2208 433.29 2198.87C444.706 2191.69 454.628 2183.22 461.414 2171.15C478.25 2140.92 470.824 2102.89 481.856 2069.96C497.583 2023.04 543.247 1998.42 585.967 1970.65C602.078 1960.16 617.783 1949.22 631.312 1936.53C678.492 1891.99 698.273 1822.31 688.606 1757.9C682.205 1715.92 664.365 1676.25 639.527 1642.14C627.194 1625.21 610.144 1610.98 594.268 1596.11C578.904 1581.8 564.671 1566.87 556.584 1548.27C541.028 1512.27 545.616 1472 527.372 1435.83C508.123 1396.86 477.258 1364.81 439.03 1344.11C382.226 1313.85 310.998 1311.8 252.445 1338.59C222.357 1352.34 195.193 1373.33 163.015 1381.31C126.248 1390.42 87.6466 1387.71 49.3438 1386.26C18.8509 1385.17 -11.514 1384.81 -40.7692 1391.8Z" stroke="#D3D018" stroke-miterlimit="10"/>
<path d="M-48.1736 1379.18C-75.3164 1385.58 -115.945 1400.72 -140.997 1424.84C-155.486 1438.75 -164.661 1455.71 -163.167 1475.73C-161.908 1491.54 -152.327 1505 -141.829 1517.24C-139.908 1519.37 -137.945 1521.7 -136.025 1523.89C-105.639 1558.13 -43.7352 1606.29 -43.1377 1655.88C-42.7323 1685.25 -63.5588 1710.57 -85.2175 1730.53C-162.527 1801.36 -184.719 1895.34 -121.194 1987.29C-91.1283 2030.82 -46.3812 2067.81 -36.9068 2119.85C-29.8011 2158.97 -44.4821 2198.64 -44.6314 2238.35C-44.7595 2286.75 -18.3849 2340.54 20.2593 2369.81C59.4157 2399.45 100.172 2392.88 135.061 2369.25C146.749 2361.19 157.487 2351.83 167.069 2341.35C192.27 2314.07 214.313 2282.33 246.833 2264.25C281.849 2244.77 323.78 2244.37 363.278 2237.91C372.18 2236.39 380.986 2234.35 389.652 2231.81C407.192 2226.73 424.647 2219.76 439.136 2210.07C450.653 2202.78 460.183 2192.75 466.877 2180.87C483.947 2149.5 476.372 2110.34 487.703 2076.49C503.899 2028.13 551.1 2002.86 595.335 1974.32C612.022 1963.66 628.282 1952.31 642.28 1939.19C691.188 1893.38 711.78 1821.52 701.921 1755.12C695.52 1711.91 677.019 1671.11 651.264 1636.02C638.46 1618.64 620.856 1604.03 604.319 1588.78C588.443 1574.06 573.655 1558.75 565.312 1539.72C549.116 1502.65 553.725 1461.17 534.819 1423.97C514.782 1384.36 483.606 1350.81 444.087 1329.78C414.679 1314.42 382.16 1305.95 348.993 1305.02C315.826 1304.09 282.882 1310.72 252.658 1324.4C221.717 1338.72 193.934 1360.45 160.902 1368.77C123.41 1378.13 83.8057 1375.36 44.4573 1373.8C13.1749 1372.56 -18.0649 1372.14 -48.1736 1379.18Z" stroke="#D2D311" stroke-miterlimit="10"/>
<path d="M-174.605 1465C-173.111 1484.2 -159.561 1500.01 -146.673 1514.3C-115.22 1549.23 -50.8197 1598.74 -49.7954 1649.67C-49.1979 1679.87 -70.5152 1705.85 -92.7927 1726.24C-172.492 1799.21 -195.41 1896.07 -129.815 1990.72C-98.7889 2035.51 -52.5908 2073.65 -42.8604 2127.23C-35.5626 2167.54 -50.7983 2208.43 -50.9904 2249.4C-51.2464 2299.23 -24.1677 2354.6 15.6075 2384.69C68.954 2425.22 125.395 2399.88 166.6 2354.96C192.483 2326.74 215.081 2293.96 248.54 2275.32C284.538 2255.25 327.642 2254.54 368.399 2248.4C409.156 2242.26 453.22 2226.94 472.403 2190.47C489.474 2157.96 481.984 2117.76 493.635 2082.89C516.553 2014.31 600.435 1991.06 653.376 1941.79C703.991 1894.7 725.437 1820.69 715.258 1752.31C708.707 1707.86 689.652 1665.9 663.107 1629.88C637.223 1594.81 591.836 1570.9 574.146 1530.93C557.267 1492.8 561.897 1450.1 542.373 1411.85C521.653 1371.33 489.624 1336.84 449.251 1315.3C419.099 1299.5 385.731 1290.82 351.702 1289.91C317.674 1289 283.889 1295.89 252.936 1310.05C221.269 1324.85 192.825 1347.33 158.918 1355.91C90.1432 1373.31 14.6045 1350.36 -55.6635 1366.36C-99.5571 1376.51 -178.958 1409.04 -174.605 1465Z" stroke="#D1D706" stroke-miterlimit="10"/>
</svg>
