<svg width="729" height="1134" viewBox="0 0 729 1134" fill="none" xmlns="http://www.w3.org/2000/svg">
<path d="M193.358 468.705C186.082 469.708 178.186 471.627 173.876 477.578C168.669 484.766 170.824 494.833 174.345 502.96C177.866 511.086 182.667 519.255 182.134 528.107C180.768 550.268 149.934 557.605 140.012 577.462C133.055 591.39 138.112 608.475 146.413 621.656C153.135 632.32 162.374 641.983 174.303 646.078C186.231 650.173 201.019 647.443 208.445 637.311C213.801 630.081 214.718 620.525 218.666 612.442C226.54 596.317 247.644 588.105 264.352 594.717C277.005 599.73 289.168 612.079 301.865 607.174C311.275 603.526 314.882 591.518 313.004 581.579C311.126 571.639 305.3 563.044 300.819 554C296.338 544.957 293.201 534.249 297 524.886C300.521 516.205 309.675 509.678 309.803 500.294C310.656 464.013 214.057 465.826 193.358 468.705Z" stroke="#E6273D" stroke-miterlimit="10"/>
<path d="M166.471 465.037C160.475 472.139 161.307 482.42 163.847 491.101C165.212 495.836 167.111 500.677 168.712 505.711C170.182 509.832 171.058 514.141 171.315 518.509C171.315 519.298 171.315 520.087 171.315 520.855C170.419 535.06 159.365 544.189 148.227 554.981C142.209 560.412 136.929 566.607 132.522 573.41C129.668 577.974 127.873 583.118 127.267 588.466C126.662 593.814 127.261 599.229 129.022 604.315C130.878 609.84 133.738 615.129 135.808 620.739C137.365 625.005 138.283 629.142 140.075 633.067C143.605 640.652 148.746 647.377 155.14 652.775C160.231 657.114 166.417 659.969 173.022 661.029C175.208 661.392 177.423 661.542 179.637 661.477C185.549 661.196 191.38 659.994 196.921 657.915C203.216 655.676 209.49 652.988 213.715 648.189C219.604 641.492 220.373 631.83 224.384 623.938C232.621 607.941 253.575 599.794 270.241 605.808C282.852 610.394 295.293 622.872 307.434 616.857C312.001 614.724 314.455 610.074 316.695 605.297C319.842 599.034 321.803 592.244 322.478 585.269C322.638 582.765 322.574 580.253 322.286 577.761C321.368 569.229 318.018 560.25 314.263 551.291C311.01 544.188 308.651 536.708 307.242 529.024C306.622 525.295 306.622 521.49 307.242 517.762C307.968 514.398 309.145 511.148 310.742 508.1C313.814 501.893 317.762 495.729 317.357 488.499C316.738 477.215 308.458 469.089 296.018 463.544C282.105 457.294 263.349 454.521 245.467 454.18C236.313 454.031 227.372 454.521 218.986 454.756C205.905 455.119 194.745 455.566 188.343 456.249C180.32 457.038 171.571 458.894 166.471 465.037Z" stroke="#E6323E" stroke-miterlimit="10"/>
<path d="M159.067 452.239C152.281 459.257 151.769 469.772 153.327 478.986C154.344 484.343 155.655 489.641 157.253 494.855C158.753 499.333 159.846 503.937 160.518 508.612C160.518 509.465 160.667 510.276 160.688 511.086C160.966 526.016 152.281 536.425 141.612 548.519C135.641 554.946 130.089 561.75 124.989 568.888C117.051 580.726 114.746 594.035 120.38 607.579C123.218 614.404 127.507 620.803 129.833 628.012C131.583 633.43 131.967 638.847 133.674 643.988C137.075 653.221 142.862 661.39 150.446 667.663C156.438 672.678 163.97 675.486 171.785 675.619C174.285 675.686 176.787 675.507 179.253 675.085C185.928 673.71 192.448 671.667 198.714 668.985C205.99 666.17 213.651 663.866 218.943 658.683C225.216 652.455 225.963 642.772 230.231 635.072C238.766 619.672 259.614 611.61 276.152 617.07C288.742 621.336 301.395 633.451 313.025 626.732C318.231 623.746 320.152 617.753 322.713 611.994C326.233 604.017 330.117 596.36 331.995 589.129C332.734 586.335 333.219 583.479 333.446 580.598C334.214 570.744 331.717 559.631 327.727 548.604C324.349 540.208 321.498 531.61 319.192 522.86C318.18 518.77 317.657 514.574 317.634 510.361C317.785 506.599 318.505 502.881 319.768 499.334C322.179 492.061 326.063 484.702 325.103 476.405C323.673 464.162 314.711 455.076 301.331 449.061C285.882 442.001 265.269 439.207 245.851 439.847C235.928 440.188 226.347 441.447 217.129 441.98C203.195 442.684 191.053 442.94 183.521 443.601C174.623 444.411 164.999 446.16 159.067 452.239Z" stroke="#E53A3E" stroke-miterlimit="10"/>
<path d="M151.662 439.634C144.13 446.566 142.231 457.315 142.828 467.042C143.253 472.815 144.253 478.531 145.816 484.105C147.16 489.138 148.888 493.98 149.72 498.865C149.87 499.76 150.019 500.635 150.083 501.488C151.534 517.058 145.218 528.832 134.997 542.29C129.555 549.478 123.005 557.008 117.499 564.601C107.257 578.721 104.056 594.739 111.759 611.077C115.579 619.224 121.297 626.711 123.879 635.52C125.8 642.153 125.501 648.787 127.315 655.164C130.627 665.932 137.058 675.476 145.794 682.593C152.639 688.308 161.471 691.076 170.355 690.293C173.18 690.072 175.976 689.565 178.698 688.779C186.058 686.341 193.274 683.493 200.314 680.247C208.572 676.834 217.727 674.936 223.958 669.39C230.508 663.546 231.362 653.927 235.8 646.376C244.635 631.446 265.376 623.277 281.849 628.268C294.396 632.022 307.178 643.796 318.402 636.544C324.249 632.768 325.615 625.346 328.474 618.585C332.443 609.157 337.884 600.903 341.277 592.883C342.588 589.849 343.617 586.7 344.35 583.477C346.825 572.322 345.204 559.034 340.979 546.151C337.799 536.446 333.681 526.422 330.949 517.058C329.518 512.566 328.454 507.965 327.77 503.301C327.283 499.174 327.478 494.994 328.346 490.93C330.096 482.59 333.937 474.016 332.4 464.695C330.267 451.493 320.557 441.617 306.261 434.963C289.19 427.05 266.784 424.298 246 425.876C235.331 426.708 225.088 428.735 215.017 429.46C200.25 430.526 187.127 430.611 178.442 431.209C168.776 431.785 158.427 433.427 151.662 439.634Z" stroke="#E5433E" stroke-miterlimit="10"/>
<path d="M144.279 426.986C135.978 433.854 132.692 444.817 132.308 455.076C132.158 461.267 132.876 467.449 134.442 473.44C135.765 478.879 137.814 484.105 138.987 489.202C139.201 490.141 139.414 491.058 139.563 491.975C142.124 508.207 138.219 521.324 128.467 536.148C123.197 544.146 116.198 552.4 110.052 560.399C97.4835 576.758 93.4505 595.507 103.181 614.66C107.982 624.109 115.152 632.704 117.969 643.113C120.102 650.941 119.228 658.811 120.999 666.426C124.238 678.731 131.316 689.683 141.206 697.694C145.049 700.873 149.539 703.176 154.363 704.443C159.187 705.71 164.229 705.911 169.139 705.031C172.292 704.533 175.383 703.697 178.357 702.536C186.103 699.592 193.593 695.071 202.107 691.381C211.368 687.35 221.909 685.856 229.207 679.927C235.971 674.445 236.995 664.997 241.583 657.553C250.738 642.9 271.457 634.859 287.76 639.295C300.264 642.622 313.132 653.863 324.036 646.184C330.437 641.599 331.312 632.811 334.492 625.047C338.93 614.169 345.929 605.297 350.816 596.509C352.701 593.208 354.272 589.737 355.51 586.143C359.778 573.708 358.946 558.245 354.486 543.485C351.2 532.543 346.527 521.388 342.942 511.043C341.086 506.154 339.491 501.171 338.162 496.113C337.058 491.623 336.755 486.973 337.266 482.377C338.333 472.971 342.152 463.181 340.04 452.815C337.138 438.674 326.724 427.903 311.489 420.694C292.945 411.949 268.619 409.176 246.363 411.757C234.968 413.1 224.064 415.873 213.139 416.854C197.54 418.262 183.414 418.177 173.598 418.731C163.014 419.158 151.854 420.694 144.279 426.986Z" stroke="#E44B3F" stroke-miterlimit="10"/>
<path d="M136.875 414.337C127.827 421.141 123.154 432.318 121.788 443.11C121.021 449.667 121.404 456.308 122.919 462.733C124.263 468.556 126.589 474.059 128.126 479.455C128.403 480.458 128.681 481.439 128.894 482.398C132.586 499.291 131.028 513.773 121.809 529.941C116.731 538.75 109.241 547.708 102.477 556.133C87.5397 574.732 82.6958 596.232 94.4961 618.201C100.279 628.865 108.878 638.634 111.951 650.642C114.277 659.664 112.826 668.772 114.576 677.602C117.723 691.441 125.443 703.816 136.49 712.731C140.782 716.276 145.849 718.76 151.28 719.983C156.711 721.206 162.354 721.133 167.752 719.77C171.23 718.981 174.613 717.823 177.845 716.314C186.38 712.411 194.339 706.844 203.771 702.6C214.014 697.993 225.899 696.862 234.307 690.57C241.22 685.408 242.458 676.002 247.217 668.836C256.691 654.545 277.091 646.59 293.521 650.45C305.962 653.394 318.893 663.973 329.434 655.953C336.54 650.514 336.796 640.362 340.296 631.595C345.161 619.288 353.718 609.776 360.119 600.22C362.598 596.658 364.741 592.873 366.521 588.916C372.432 575.18 372.517 557.562 367.822 540.712C364.43 528.533 359.287 516.248 354.785 504.943C352.651 499.206 350.069 493.937 348.383 488.733C346.681 483.886 345.878 478.768 346.014 473.632C346.42 463.16 350.282 452.196 347.508 440.764C343.923 425.642 332.742 413.975 316.588 406.254C296.509 396.656 270.305 393.904 246.598 397.445C234.435 399.279 222.912 402.82 211.112 404.057C194.681 405.784 179.573 405.571 168.605 406.04C157.637 406.51 145.303 407.981 136.875 414.337Z" stroke="#E4533F" stroke-miterlimit="10"/>
<path d="M129.47 401.689C119.697 408.451 113.594 419.819 111.29 431.145C109.894 438.035 109.959 445.141 111.482 452.004C113.087 458.021 115.039 463.939 117.329 469.729C117.67 470.774 118.011 471.862 118.289 472.822C123.09 490.375 124.072 506.244 115.195 523.734C110.33 533.375 102.392 542.93 94.9657 551.867C77.6387 572.663 72.0054 596.957 85.8755 621.72C92.6185 633.771 102.669 644.563 105.998 658.171C108.516 668.409 106.51 678.711 108.132 688.8C111.242 704.183 119.673 717.979 131.946 727.768C136.7 731.678 142.354 734.342 148.397 735.518C154.44 736.695 160.682 736.348 166.557 734.508C170.363 733.432 174.041 731.944 177.525 730.072C186.615 725.251 195.236 718.639 205.606 713.819C216.831 708.615 229.079 706.034 239.578 701.235C245.616 695.134 248.113 687.093 253.021 680.119C262.815 666.191 283.194 658.278 299.454 661.584C311.851 664.122 323.502 672.099 335.025 665.7C341.576 658.171 342.494 647.933 346.292 638.143C351.627 624.407 361.72 614.276 369.636 604.017C372.658 600.184 375.315 596.078 377.574 591.753C385.214 576.822 386.11 556.943 381.223 538.11C377.342 524.717 372.478 511.628 366.67 498.95C364.003 492.743 360.93 487.091 358.647 481.481C356.308 476.298 354.976 470.717 354.721 465.037C354.465 453.498 358.263 441.34 354.934 428.777C350.666 412.716 338.695 400.154 321.603 391.878C299.987 381.427 271.906 378.696 246.769 383.218C233.859 385.543 221.674 389.83 209.021 391.345C191.736 393.478 175.668 393.03 163.569 393.478C151.47 393.925 138.753 395.269 129.47 401.689Z" stroke="#E35A40" stroke-miterlimit="10"/>
<path d="M122.066 389.041C111.573 396.201 104.001 406.888 100.727 419.158C98.734 426.376 98.4853 433.964 100.001 441.297C101.62 447.697 103.761 453.953 106.403 460.003C106.83 461.112 107.235 462.136 107.598 463.245C113.487 481.46 116.944 498.694 108.494 517.549C103.821 528 95.3283 538.302 87.3476 547.601C67.6094 570.594 61.2078 597.661 77.1264 625.239C84.851 638.613 96.3312 650.493 99.9374 665.764C102.647 677.197 100.087 688.736 101.73 700.04C104.013 715.888 114.064 732.61 127.08 742.89C132.309 747.157 138.558 749.991 145.213 751.113C151.869 752.235 158.702 751.606 165.042 749.289C169.177 747.925 173.149 746.108 176.884 743.872C186.636 738.113 195.833 730.456 207.1 725.102C219.327 719.3 232.706 716.784 244.507 711.921C250.673 706.012 253.426 698.227 258.505 691.445C268.619 677.879 288.87 670.116 305.066 672.782C317.421 674.915 328.986 682.145 340.317 675.512C347.273 666.98 347.849 655.527 351.989 644.755C357.772 629.548 369.402 618.798 378.833 607.728C382.421 603.619 385.628 599.193 388.414 594.504C397.761 578.187 399.51 556.24 394.368 535.423C390.363 520.809 384.99 506.605 378.321 492.999C375.248 486.323 371.557 480.202 368.676 474.293C365.787 468.75 363.991 462.704 363.384 456.484C362.466 443.878 366.286 430.505 362.317 416.961C357.345 399.898 344.627 386.503 326.618 377.694C303.465 366.39 273.506 363.681 246.918 369.163C233.24 371.999 220.415 377.012 206.929 378.782C188.791 381.171 171.721 380.68 158.491 381.021C145.73 381.32 132.223 382.557 122.066 389.041Z" stroke="#E36140" stroke-miterlimit="10"/>
<path d="M114.661 376.393C103.239 383.566 94.6223 394.437 90.2497 407.192C87.6481 414.732 87.0814 422.825 88.6066 430.654C89.9083 437.671 93.1091 444.134 95.7124 450.362C96.2032 451.514 96.6939 452.623 97.0994 453.732C104.077 472.63 110.031 491.25 102.007 511.427C97.5261 522.71 88.5426 533.674 79.9431 543.421C57.7723 568.547 50.6025 598.45 68.6123 628.737C77.3185 643.433 90.2283 656.465 94.0906 673.208C96.9927 685.856 93.8772 698.59 95.4563 711.153C97.5901 728.408 108.409 746.73 122.556 757.842C136.149 768.507 150.553 768.848 163.825 763.963C168.318 762.314 172.613 760.168 176.628 757.565C187.063 750.867 196.793 742.165 208.999 736.236C222.229 729.837 236.867 727.405 249.841 722.5C256.115 716.784 259.145 709.233 264.373 702.621C274.807 689.44 294.951 681.633 311.062 683.851C323.374 685.536 334.854 692.063 345.993 685.174C353.376 675.64 353.611 662.992 358.049 651.218C364.28 634.581 377.467 623.213 388.414 611.354C392.576 606.98 396.327 602.232 399.617 597.17C410.692 579.595 413.274 555.472 407.918 532.671C404.183 516.76 397.248 501.061 390.377 486.92C386.856 479.775 382.567 473.376 379.089 466.978C375.609 461.08 373.318 454.559 372.346 447.781C370.746 434.109 374.587 419.542 369.999 404.953C364.344 386.972 350.794 372.618 331.888 363.276C307.199 351.118 275.384 348.452 247.323 354.893C232.92 358.221 219.434 363.979 205.094 366.027C186.124 368.736 168.072 368.16 153.689 368.395C139.969 368.715 125.672 369.866 114.661 376.393Z" stroke="#E26840" stroke-miterlimit="10"/>
<path d="M107.257 363.745C94.8701 370.925 85.2014 381.992 79.7511 395.227C76.5415 403.012 75.6379 411.556 77.1478 419.84C78.4708 427.263 81.949 434.046 84.915 440.551C85.4698 441.745 86.0246 442.918 86.4941 444.07C94.5601 463.629 103.01 483.614 95.4136 505.135C91.1459 517.229 81.6289 528.875 72.4319 539.091C47.8072 566.371 39.9119 599.111 59.9915 632.299C69.6579 648.275 84.0188 662.33 88.1372 680.759C91.2313 694.601 87.5823 708.487 89.0974 722.372C91.2313 741.035 102.647 760.977 117.905 772.9C132.671 784.397 148.248 784.461 162.524 778.723C167.321 776.788 171.881 774.312 176.116 771.343C187.234 763.729 197.455 753.96 210.664 747.497C224.875 740.523 240.751 738.155 254.941 733.186C261.343 727.661 264.608 720.388 270.006 713.989C280.676 701.192 300.777 693.407 316.823 695.071C329.093 696.35 340.488 702.152 351.413 695.071C359.223 684.513 359.138 670.691 363.875 657.894C370.575 639.828 385.213 627.82 397.761 615.236C402.487 610.594 406.773 605.525 410.564 600.092C423.367 581.237 426.76 554.939 421.233 530.154C417.392 513.091 410.009 496.177 402.199 481.097C398.251 473.483 393.365 466.7 389.289 459.896C385.213 453.663 382.42 446.681 381.074 439.356C378.833 424.639 382.674 408.856 377.446 393.222C371.045 374.281 356.833 359.095 336.903 349.177C310.699 336.166 277.005 333.5 247.494 340.923C232.322 344.741 218.217 351.246 203.003 353.571C183.201 356.6 164.167 355.853 148.653 356.045C134.207 356.109 119.142 357.176 107.257 363.745Z" stroke="#E26E40" stroke-miterlimit="10"/>
<path d="M99.9376 351.097C86.5721 358.286 75.8463 369.544 69.3166 383.24C65.5351 391.312 64.3068 400.345 65.7958 409.133C67.1188 416.94 70.8957 424.063 74.2032 430.825C74.822 432.062 75.4408 433.278 75.9956 434.493C85.1285 454.735 96.0753 476.085 88.7988 498.928C84.7445 511.854 74.7153 524.161 64.9209 534.825C37.8422 564.238 29.2214 599.836 51.3495 635.818C62.0188 653.116 77.8094 668.26 82.1838 688.288C85.47 703.325 81.2663 718.511 82.7386 733.548C84.6591 753.619 96.8861 775.204 113.253 787.937C129.171 800.308 145.965 800.052 161.222 793.462C166.341 791.231 171.194 788.434 175.69 785.122C187.469 776.59 198.33 765.755 212.371 758.717C227.585 751.145 244.699 748.862 260.084 743.786C266.485 738.454 270.134 731.394 275.704 725.166C286.779 712.71 306.666 704.989 322.649 706.119C334.876 706.972 347.636 713.798 356.919 704.669C367.033 694.729 364.707 678.093 369.722 664.314C376.849 644.798 393.194 632.15 407.107 618.776C412.416 613.88 417.253 608.496 421.553 602.694C436.106 582.581 440.31 554.085 434.527 527.317C430.558 508.932 422.642 491.058 413.978 474.912C409.71 466.828 404.12 459.683 399.468 452.474C394.802 445.895 391.507 438.446 389.78 430.569C386.857 414.785 390.719 397.786 384.872 381.128C377.873 361.207 362.787 345.082 341.982 334.695C314.241 320.809 278.67 318.186 247.707 326.568C231.789 330.834 217.023 338.129 200.955 340.731C180.299 344.058 160.283 343.205 143.639 343.333C128.446 343.461 112.613 344.463 99.9376 351.097Z" stroke="#E1753F" stroke-miterlimit="10"/>
<path d="M92.4475 338.449C78.1073 345.635 66.3338 357.068 58.7325 371.189C54.3572 379.515 52.7928 389.032 54.2727 398.319C55.5744 406.531 59.6501 413.953 63.3203 420.992C63.9818 422.293 64.686 423.573 65.3048 424.831C75.526 445.755 88.9907 468.471 82.205 492.636C78.3427 506.394 67.8014 519.362 57.4095 530.474C27.8769 562.02 18.5306 600.476 42.7285 639.252C54.3368 657.873 71.5997 674.104 76.2302 695.732C79.7084 711.985 74.9712 728.387 76.3582 744.661C78.1933 766.139 91.1245 789.324 108.601 802.91C125.672 816.134 143.682 815.558 159.814 808.115C165.266 805.589 170.419 802.463 175.177 798.794C187.618 789.281 199.034 777.465 214.014 769.872C230.21 761.681 248.561 759.484 265.226 754.408C271.841 749.268 275.661 742.464 281.38 736.428C292.796 724.355 312.555 716.656 328.453 717.231C340.637 717.679 353.312 723.63 362.402 714.395C373.072 703.517 370.276 685.643 375.654 670.841C383.25 649.896 401.089 636.714 416.56 622.488C422.43 617.307 427.809 611.595 432.628 605.425C448.909 584.095 453.966 553.36 447.928 524.63C443.852 504.986 435.402 485.875 425.885 468.854C421.105 460.323 415.002 452.794 409.753 445.179C404.717 437.906 400.428 430.611 398.593 421.931C395.008 405.081 398.891 386.866 392.404 369.162C384.765 348.26 368.932 331.282 347.124 320.34C317.847 305.602 280.419 303 248.006 312.363C231.341 317.184 215.998 325.161 198.927 328.019C177.418 331.687 156.421 330.706 138.624 330.749C122.684 330.919 106.062 331.794 92.4475 338.449Z" stroke="#E17B3F" stroke-miterlimit="10"/>
<path d="M85.0004 325.801C69.6401 333.034 56.8032 344.706 48.1486 359.309C43.1839 367.887 41.2804 377.897 42.7499 387.698C44.0729 396.229 48.426 404.036 52.459 411.351C53.1845 412.717 53.9527 414.018 54.5929 415.34C65.881 436.946 81.8636 461.027 75.5047 486.515C71.8558 501.104 60.7811 514.733 49.8984 526.294C17.8905 559.951 7.83996 601.287 34.1078 642.857C46.6976 662.779 65.3902 680.119 70.2768 703.346C73.947 720.794 68.6764 738.433 69.9994 755.944C71.7065 778.83 85.3632 803.636 103.949 818.033C122.194 832.11 141.377 831.235 158.597 822.938C164.38 820.15 169.828 816.716 174.836 812.701C187.938 802.271 199.93 789.367 215.827 781.24C233.005 772.474 252.594 770.341 270.412 765.222C277.133 760.252 281.209 753.704 287.077 747.86C298.835 736.151 318.466 728.664 334.3 728.536C346.441 728.429 359.01 733.762 367.929 724.27C379.089 712.411 375.888 693.3 381.586 677.496C389.631 655.1 409.006 641.236 425.992 626.306C432.427 620.852 438.355 614.827 443.703 608.304C461.67 585.61 467.538 552.849 461.328 522.071C457.061 501.19 448.141 480.927 437.856 462.968C432.649 453.967 425.949 446.075 420.102 438.055C414.511 430.377 409.668 422.656 407.491 413.442C403.223 395.525 407.15 376.095 400.022 357.368C391.7 335.484 375.014 317.61 352.352 306.178C321.539 290.586 282.212 288.005 248.348 298.329C230.935 303.64 214.867 312.342 197.135 315.392C174.793 319.359 152.815 318.271 133.866 318.25C117.008 318.314 99.532 319.103 85.0004 325.801Z" stroke="#E0803E" stroke-miterlimit="10"/>
<path d="M77.66 313.152C62.723 319.679 46.6764 332.349 37.6928 347.279C32.1336 356.092 29.8664 366.584 31.2912 376.905C32.6142 385.927 37.2447 393.968 41.6191 401.561C42.43 402.969 43.2622 404.334 44.009 405.699C56.3854 427.988 74.886 453.412 68.9112 480.351C65.497 495.751 53.9742 510.02 42.302 522.049C7.7974 557.818 -2.95726 602.033 25.3804 646.398C38.9518 667.727 59.0954 686.07 64.238 710.897C68.1003 729.538 62.2962 748.393 63.5339 767.142C65.1556 791.457 79.5165 817.862 99.2121 833.091C118.908 848.32 139.009 846.848 157.21 837.698C163.308 834.593 169.035 830.808 174.281 826.415C188.087 815.047 200.613 801.097 217.428 792.417C235.609 783.053 257.609 784.162 275.469 775.823C283.023 772.303 286.651 764.774 292.668 759.079C305.846 747.523 322.498 740.679 339.997 739.627C352.117 739.243 364.579 743.637 373.307 734.018C385 721.22 381.373 700.851 387.369 684.065C395.904 660.219 416.795 645.673 435.295 630.038C442.306 624.33 448.777 617.99 454.628 611.098C474.324 587.124 481.003 552.123 474.58 519.383C470.312 497.265 460.752 475.872 449.528 456.953C443.895 447.483 436.597 439.207 430.153 430.804C423.986 422.741 418.587 414.593 416.069 404.825C411.161 385.842 415.088 365.195 407.32 345.423C398.358 322.58 380.86 303.832 357.26 291.823C324.932 275.379 283.727 272.819 248.433 284.124C230.274 289.946 213.544 299.374 194.937 302.808C171.742 307.074 148.782 305.901 128.787 305.794C111.162 305.709 93.0025 306.412 77.66 313.152Z" stroke="#E0863E" stroke-miterlimit="10"/>
<path d="M70.2554 300.504C54.6782 306.903 37.0952 319.828 27.1941 335.356C21.0871 344.421 18.5067 355.405 19.9389 366.24C21.2406 375.668 26.1698 384.029 30.907 391.835C31.7819 393.286 32.6781 394.693 33.5103 396.101C46.9323 419.094 67.9722 445.883 62.4028 474.059C59.202 490.29 47.0603 505.22 34.876 517.698C-2.10387 555.578 -13.6481 602.716 16.8448 649.938C31.3337 672.504 52.9711 691.999 58.3698 718.426C62.4028 738.283 56.0865 758.354 57.2602 778.339C58.7539 804.062 73.8189 832.088 94.6454 848.149C115.472 864.21 136.789 862.44 155.994 852.415C162.425 849.015 168.452 844.901 173.961 840.151C188.429 827.844 201.509 812.871 219.263 803.635C238.468 793.675 261.62 794.912 280.718 786.444C288.336 783.074 292.284 775.78 298.472 770.341C311.953 759.192 328.501 752.394 345.929 750.846C358.007 750.014 370.362 753.597 378.919 743.85C391.082 729.986 387.049 708.486 393.365 690.677C402.327 665.402 424.797 650.152 444.812 633.835C452.393 627.858 459.407 621.196 465.767 613.935C487.105 588.66 494.681 551.505 488.066 516.823C483.606 493.362 473.577 470.923 461.499 451.066C455.46 441.127 447.544 432.488 440.502 423.658C433.78 415.127 427.827 406.595 424.967 396.336C419.377 376.286 423.346 354.424 414.938 333.628C404.82 309.18 386.146 289.248 362.402 277.554C328.517 260.235 285.455 257.718 248.689 269.982C229.762 276.381 212.413 286.47 192.931 290.181C168.904 294.767 144.962 293.466 123.751 293.274C105.4 293.103 86.4727 293.743 70.2554 300.504Z" stroke="#DF8C3D" stroke-miterlimit="10"/>
<path d="M62.851 287.856C46.5696 294.255 27.5356 307.33 16.6742 323.39C10.0009 332.695 7.08256 344.173 8.50153 355.533C9.80319 365.345 14.9031 374.026 20.1097 382.173C21.0486 383.666 22.0089 385.138 22.9051 386.588C37.394 410.264 60.9732 438.418 55.8092 467.916C52.8218 484.979 40.1467 500.55 27.3649 513.496C-12.1116 553.467 -24.3386 603.505 8.16011 653.436C23.6093 677.325 46.6977 697.907 52.3524 725.955C56.6201 747.007 49.7278 768.315 50.816 789.537C52.2244 816.668 67.8869 846.294 89.9297 863.186C111.972 880.079 134.442 878.117 154.607 867.175C161.377 863.497 167.705 859.06 173.47 853.951C188.599 840.706 202.256 824.666 220.927 814.876C241.071 804.318 265.483 805.683 285.818 797.13C293.5 793.91 297.747 786.956 304.105 781.645C317.873 770.859 334.327 764.037 351.691 761.916C363.726 760.679 375.953 763.452 384.36 753.534C396.971 738.603 392.575 715.973 399.297 697.161C408.707 670.457 432.713 654.652 454.244 637.44C462.394 631.202 469.952 624.226 476.82 616.601C499.951 590.046 508.273 550.716 501.466 514.051C496.879 489.458 486.316 465.783 473.385 444.966C466.983 434.557 458.448 425.535 450.787 416.321C443.468 407.47 436.96 398.49 433.716 387.634C427.485 366.518 431.476 343.44 422.407 321.513C411.673 296.142 392.224 275.438 367.567 263.136C332.166 244.963 287.227 242.468 249.009 255.713C229.335 262.539 211.304 273.416 190.989 277.405C166.109 282.311 141.206 280.903 118.844 280.647C99.6388 280.519 79.9432 281.073 62.851 287.856Z" stroke="#DF913C" stroke-miterlimit="10"/>
<path d="M55.4463 275.208C38.3754 281.607 17.9757 294.831 6.1754 311.467C-1.0724 320.995 -4.34574 332.959 -2.95752 344.847C-1.65587 355.064 3.8495 364.043 9.31218 372.575C10.3151 374.132 11.446 375.625 12.2996 377.139C27.8554 401.497 53.9953 430.995 49.2154 461.837C46.4414 479.711 33.2328 495.964 19.8535 509.358C-22.1196 551.291 -35.0295 604.23 -0.354208 656.998C16.0979 682.188 40.6159 703.922 46.5908 733.506C51.0078 755.773 43.646 778.297 44.6489 800.735C45.9292 829.294 62.424 860.456 85.4697 878.245C108.515 896.033 132.415 893.644 153.497 881.934C160.586 877.96 167.201 873.195 173.214 867.729C189.026 853.545 203.238 836.461 222.848 826.116C243.973 814.983 269.558 816.433 291.131 807.795C298.856 804.723 303.444 798.069 309.952 792.864C323.996 782.451 340.377 775.633 357.665 773.007C369.657 771.343 381.735 773.284 390.015 763.238C403.052 747.327 398.315 723.481 405.25 703.666C415.109 675.49 440.63 659.046 463.718 641.151C472.424 634.627 480.522 627.331 487.916 619.352C512.776 591.518 521.93 550.012 514.888 511.363C510.194 485.534 499.14 460.685 485.313 438.844C478.442 427.967 469.287 418.582 461.093 408.984C453.198 399.727 446.156 390.321 442.614 378.931C435.7 356.749 439.734 332.455 430.024 309.59C418.693 283.229 398.419 261.71 372.773 248.824C335.9 229.628 289.04 227.324 249.35 241.529C228.929 248.845 210.279 260.469 189.111 264.735C163.377 269.94 137.472 268.447 113.978 268.084C93.8558 267.913 73.4134 268.383 55.4463 275.208Z" stroke="#DE973B" stroke-miterlimit="10"/>
<path d="M48.0421 262.56C30.3097 268.959 8.41623 282.332 -4.34426 299.438C-11.6847 309.292 -15.9951 320.767 -14.3948 334.098C-13.0931 344.762 -7.28899 354.019 -1.59158 362.721C-0.524648 364.321 0.542283 365.878 1.60921 367.435C18.2107 392.497 46.8898 423.338 42.494 455.503C39.9547 474.208 26.2126 491.101 12.2359 504.965C-32.2338 549.095 -45.8265 604.955 -9.10277 660.475C8.30955 686.987 34.2787 709.745 40.4455 740.992C45.0547 764.454 37.1594 788.193 38.0983 811.89C39.2719 841.857 56.4708 874.704 80.6475 893.239C104.824 911.774 129.897 909.236 152.004 896.63C159.426 892.372 166.336 887.277 172.596 881.444C189.069 866.322 203.857 848.213 224.363 837.314C246.491 825.562 273.271 827.076 296.125 818.417C303.935 815.452 308.821 809.117 315.5 804.169C329.834 794.164 346.148 787.349 363.341 784.183C375.291 782.051 387.241 783.245 395.349 773.028C408.835 756.072 403.735 731.074 411.012 710.257C421.319 680.652 448.397 663.568 472.894 644.926C482.258 638.146 490.986 630.528 498.97 622.168C525.558 593.054 535.523 549.393 528.289 508.74C523.36 481.673 511.773 455.695 497.092 433.043C489.815 421.717 480.021 411.949 471.251 401.924C462.715 392.305 455.183 382.472 451.299 370.528C443.724 347.279 447.8 321.748 437.429 297.859C425.498 270.52 404.418 248.183 377.809 234.683C339.4 214.74 290.662 212.373 249.521 227.538C228.353 235.344 208.978 247.693 187.02 252.258C160.454 257.761 133.567 256.161 108.942 255.735C88.0946 255.308 66.8841 255.713 48.0421 262.56Z" stroke="#DD9C3A" stroke-miterlimit="10"/>
<path d="M40.6376 249.912C22.201 256.31 -1.1648 269.812 -14.8429 287.472C-22.7168 297.646 -27.4113 309.548 -25.8109 323.369C-24.5306 334.375 -18.4277 344.015 -12.2609 352.974C-11.1299 354.637 -9.97764 356.237 -8.86804 357.858C8.80034 383.602 40.0187 415.809 35.9431 449.296C33.6172 468.833 19.3416 486.366 4.76734 500.699C-42.1776 546.919 -56.4745 605.68 -17.7236 664.015C0.648984 691.743 28.0691 715.674 34.492 748.521C39.2932 773.178 30.8645 798.154 31.718 823.173C32.7849 854.548 50.7094 889.016 75.9957 908.382C101.282 927.749 127.592 924.913 150.681 911.454C158.444 906.913 165.655 901.487 172.169 895.286C189.24 879.247 204.646 860.072 226.091 848.618C249.223 836.269 277.155 837.805 301.289 829.145C309.141 826.33 314.369 820.293 321.198 815.537C335.804 805.923 352.07 799.103 369.167 795.424C381.074 792.928 392.874 793.291 400.855 782.882C414.725 764.859 409.39 738.71 416.901 716.911C427.571 685.856 456.293 668.132 482.39 648.658C492.257 641.616 501.47 633.699 509.916 625.005C538.19 594.589 548.988 548.774 541.54 506.138C536.59 477.834 524.469 450.682 508.956 427.049C501.253 415.255 490.882 405.123 481.493 394.693C472.467 384.669 464.316 374.409 460.155 361.911C451.918 337.617 456.015 310.87 445.004 285.936C432.447 257.637 410.549 234.507 382.973 220.414C343.027 199.596 292.433 197.25 249.841 213.396C227.905 221.715 207.954 234.725 185.079 239.631C157.552 245.347 129.812 243.684 103.971 243.214C82.3332 242.724 60.3331 243.044 40.6376 249.912Z" stroke="#DDA138" stroke-miterlimit="10"/>
<path d="M33.2328 237.264C14.0281 243.662 -10.7247 257.313 -25.363 275.507C-33.8985 285.979 -38.8704 298.307 -37.2913 312.64C-35.9896 324.052 -29.6094 333.97 -23.1011 343.248L-19.5589 348.26C-0.8236 374.729 32.9554 408.259 29.3492 443.11C27.2153 463.458 12.4277 481.631 -2.65872 496.433C-52.143 544.722 -67.08 606.406 -26.2592 667.535C-6.90511 696.649 21.9447 721.604 28.6024 756.05C33.6169 781.923 24.6547 808.115 25.4442 834.264C26.4045 867.068 45.0331 903.157 71.429 923.334C97.8248 943.512 125.394 940.397 149.464 926.128C157.536 921.298 165.038 915.574 171.827 909.065C189.645 892.002 205.542 871.846 227.905 859.838C252.018 846.912 281.124 848.427 306.538 839.81C314.455 837.122 319.981 831.385 326.98 826.82C341.86 817.605 358.088 810.768 375.078 806.558C386.942 803.636 398.55 803.145 406.445 792.63C420.678 773.562 414.981 746.282 422.876 723.46C434.1 690.975 464.273 672.611 491.885 652.455C502.293 645.115 512.026 636.864 520.97 627.799C550.972 596.104 562.58 548.113 554.941 503.514C549.862 473.952 537.23 445.691 520.799 421.077C512.669 408.813 501.701 398.298 491.714 387.484C482.133 377.054 473.406 366.39 468.839 353.358C459.941 327.997 464.081 300.035 452.43 274.078C439.262 244.775 416.556 220.792 388.009 206.038C346.526 184.367 294.119 182.064 250.012 199.17C227.329 207.979 206.716 221.779 182.987 226.898C154.735 233.019 125.885 231.163 98.9771 230.63C76.5716 230.118 53.8033 230.417 33.2328 237.264Z" stroke="#DCA637" stroke-miterlimit="10"/>
<path d="M25.8498 224.615C5.94085 231.014 -20.2843 244.793 -35.8828 263.541C-44.8664 274.333 -50.3291 287.003 -48.686 301.933C-47.3844 313.728 -40.7267 324.009 -33.749 333.522C-32.4687 335.27 -31.1883 336.977 -29.9507 338.683C-10.1485 365.856 26.1699 400.729 22.9477 436.904C21.0699 458.062 5.72747 476.896 -10.0418 492.167C-62.236 542.525 -77.7919 607.109 -34.9226 671.054C-14.5869 701.491 15.7139 727.533 22.6917 763.579C27.8983 790.646 18.4239 818.054 19.1068 845.462C19.9817 879.588 39.3145 917.362 66.8199 938.371C94.3254 959.38 123.133 956.01 148.205 940.867C156.612 935.73 164.402 929.648 171.422 922.737C189.922 904.821 206.374 883.534 229.655 870.993C254.77 857.449 285.135 858.942 311.745 850.367C319.725 847.808 325.572 842.39 332.72 838.018C347.862 829.197 364.068 822.345 380.946 817.627C392.767 814.279 404.248 812.978 411.972 802.292C426.568 782.136 420.636 753.747 428.83 729.922C440.502 695.988 472.211 677.026 501.381 656.081C512.368 648.492 522.645 639.926 532.087 630.486C563.818 597.533 576.237 547.303 568.363 500.784C563.178 469.985 550.012 440.572 532.77 415.02C524.235 402.222 512.626 391.43 502.064 380.168C491.885 369.504 482.646 358.263 477.738 344.677C468.157 318.25 472.339 289.05 460.027 262.069C446.255 231.801 422.732 207.019 393.215 191.683C350.197 169.16 295.847 166.856 250.353 184.943C226.881 194.243 205.67 208.768 181.11 214.185C151.982 220.584 122.172 218.728 94.1334 218.025C70.8103 217.619 47.2738 217.726 25.8498 224.615Z" stroke="#DBAB35" stroke-miterlimit="10"/>
<path d="M18.4452 211.967C-2.1893 218.366 -29.8655 232.294 -46.3816 251.554C-55.8346 262.666 -61.7667 275.827 -60.1023 291.205C-58.822 303.426 -51.8656 314.006 -44.6318 323.796C-43.2875 325.609 -41.9431 327.358 -40.6202 329.107C-19.7723 356.962 19.128 393.094 16.2686 430.697C14.6042 452.687 -1.29306 472.182 -17.6384 487.901C-72.2013 540.328 -88.4827 607.941 -43.5435 674.573C-22.2049 706.332 9.50428 733.463 16.6741 771.109C22.0727 799.37 12.0649 828.015 12.6837 856.638C13.4519 892.279 33.4889 931.589 62.104 953.408C90.7191 975.228 120.785 971.581 146.818 955.541C155.562 950.082 163.652 943.642 170.931 936.345C190.136 917.49 207.1 895.18 231.319 882.062C257.416 867.943 288.933 869.265 316.823 860.883C324.889 858.43 331.035 853.332 338.354 849.152C353.752 840.728 369.949 833.854 386.707 828.633C398.486 824.858 409.817 822.725 417.413 811.911C432.35 790.582 426.141 761.169 434.655 736.342C446.775 700.957 480.064 681.356 510.684 659.664C522.237 651.794 533.057 642.899 543.013 633.088C576.45 598.834 589.701 546.514 581.657 497.947C576.343 465.954 562.644 435.368 544.549 408.856C535.587 395.653 523.381 384.413 512.242 372.767C501.573 361.591 491.672 350.052 486.422 335.911C476.201 308.417 480.405 278.002 467.452 249.997C453.03 218.839 428.698 193.326 398.251 177.436C353.696 153.974 297.469 151.841 250.524 170.845C226.347 180.656 204.433 195.907 179.018 201.601C149.144 208.32 118.267 206.336 89.076 205.569C65.0487 204.929 40.744 205.057 18.4452 211.967Z" stroke="#DBAF33" stroke-miterlimit="10"/>
<path d="M11.0408 199.34C-10.2978 205.739 -39.425 219.774 -56.9014 239.588C-66.9945 251.021 -73.2041 264.607 -71.625 280.497C-70.3234 293.103 -63.0896 303.959 -55.493 314.069C-54.0847 315.925 -52.6763 317.738 -51.2253 319.53C-29.3105 348.089 12.1077 385.65 9.67511 424.49C8.24542 447.312 -8.20665 467.447 -25.1495 483.635C-82.1663 538.131 -99.1305 608.56 -52.1002 678.093C-29.8227 711.153 3.38023 739.392 10.7847 778.638C16.3754 808.114 5.83417 837.975 6.36763 867.836C7.02913 904.884 27.7063 945.794 57.5803 968.466C87.4544 991.139 118.63 987.172 145.645 970.343C154.709 964.615 163.092 957.874 170.632 950.251C190.477 930.458 208.039 907.103 233.176 893.431C260.255 878.714 292.924 880.036 322.115 871.675C330.245 869.35 336.689 864.594 344.179 860.563C359.84 852.563 376.04 845.664 392.661 839.916C404.397 835.65 415.557 832.792 423.047 821.808C438.261 799.476 431.86 768.869 440.694 743.04C453.262 706.226 488.087 685.984 520.223 663.525C532.341 655.387 543.703 646.179 554.173 636.01C589.339 600.476 603.252 546.002 595.143 495.43C589.637 462.157 575.469 430.462 556.541 403.012C547.152 389.34 534.349 377.737 522.613 365.686C511.282 354.104 500.933 342.224 495.342 327.464C484.438 298.904 488.684 267.252 475.07 238.223C460.069 206.041 434.919 179.666 403.479 163.145C357.409 138.894 299.304 136.654 250.908 156.746C225.835 166.984 203.28 182.96 177.013 188.953C146.2 195.97 114.426 193.901 84.1042 193.027C59.3941 192.323 34.2145 192.387 11.0408 199.34Z" stroke="#DAB431" stroke-miterlimit="10"/>
<path d="M3.63621 186.692C-18.4279 193.091 -48.9848 207.275 -67.4214 227.623C-78.0907 239.354 -84.663 253.367 -83.0626 269.769C-81.7823 282.78 -74.2498 294.02 -66.2905 304.344C-64.8394 306.242 -63.3457 308.097 -61.8947 309.953C-38.913 339.217 5.06589 378.206 2.99604 418.283C1.80108 441.937 -15.1845 462.712 -32.7035 479.37C-92.2382 535.935 -109.885 609.285 -60.8064 681.633C-37.5473 715.994 -2.91475 745.322 4.76715 786.146C10.5499 816.817 -0.503491 848 -0.0553799 879.012C0.499424 917.405 21.9447 960.063 52.8004 983.525C83.656 1006.99 116.197 1002.72 144.215 985.103C153.61 979.095 162.281 972.024 170.056 964.03C190.584 943.32 208.7 918.898 234.755 904.671C262.836 889.378 296.637 890.573 327.151 882.34C335.345 880.207 342.088 875.706 349.749 871.867C365.048 864.231 383.357 856.937 398.337 851.093C410.03 846.464 421.041 842.732 428.424 831.598C443.937 808.136 437.322 776.441 446.455 749.609C459.472 711.366 495.854 690.506 529.505 667.279C542.203 658.861 554.122 649.324 565.119 638.783C601.992 601.969 616.78 545.319 608.415 492.764C602.782 458.254 588.08 425.407 568.299 397.018C558.483 382.877 545.082 370.89 532.749 358.434C520.863 346.468 509.938 334.098 504.005 318.869C492.44 289.243 496.75 256.374 482.475 226.322C466.856 193.162 440.886 165.969 408.473 148.833C360.845 123.772 300.883 121.639 251.015 142.52C225.408 153.312 202.128 170.013 175.007 176.284C143.361 183.621 110.607 181.445 79.1322 180.55C53.5259 179.739 27.6848 179.718 3.63621 186.692Z" stroke="#D9B82F" stroke-miterlimit="10"/>
<path d="M-3.76811 174.044C-26.5578 180.443 -58.5657 194.776 -77.9198 215.636C-89.1226 227.708 -96.1003 242.127 -94.4999 259.041C-93.2196 272.456 -85.3883 284.017 -77.0876 294.617C-75.5726 296.558 -74.0149 298.478 -72.4785 300.376C-48.4512 330.237 -1.93298 370.549 -3.5974 412.098C-4.57897 436.541 -22.098 457.977 -40.2145 475.104C-102.267 533.716 -120.576 610.074 -69.427 685.153C-45.2077 720.836 -9.12411 751.273 -1.14347 793.696C4.83135 825.69 -6.75552 857.897 -6.37142 890.21C-5.92331 930.117 16.2262 974.225 48.1914 998.541C80.1567 1022.86 113.957 1018.36 142.935 999.82C152.657 993.517 161.628 986.125 169.672 977.787C190.861 956.117 209.554 930.65 236.526 915.933C265.589 900.022 300.542 901.003 332.336 893.026C340.616 890.893 347.679 886.819 355.489 883.172C371.109 875.898 389.311 868.711 404.205 862.248C415.856 857.214 426.696 852.671 433.951 841.367C449.742 816.817 442.935 784.034 452.409 756.2C465.874 716.485 503.792 695.007 538.958 671.033C552.222 662.358 564.677 652.507 576.173 641.599C614.774 603.505 630.394 544.658 621.795 490.162C616.055 454.415 600.819 420.438 580.185 391.067C569.963 376.478 555.944 364.129 543.013 351.267C530.551 338.918 519.092 326.12 512.819 310.337C500.591 279.644 504.923 245.539 489.986 214.463C473.783 180.312 447.003 152.287 413.615 134.543C364.536 108.585 302.654 106.41 251.314 128.357C224.897 139.662 201.019 157.066 173.044 163.636C140.545 171.271 106.894 169.011 74.2245 167.901C47.7646 167.134 21.1341 167.07 -3.76811 174.044Z" stroke="#D8BC2C" stroke-miterlimit="10"/>
<path d="M-11.1729 161.396C-34.6454 167.795 -68.147 182.213 -88.44 203.67C-100.198 216.02 -107.538 230.886 -105.938 248.333C-104.679 262.133 -96.5487 273.928 -87.9066 284.87C-86.3062 286.875 -84.6844 288.837 -83.084 290.778C-57.9685 321.471 -8.88966 362.998 -10.1913 405.891C-10.9595 431.166 -29.012 453.242 -47.7259 470.838C-112.297 531.519 -131.267 610.735 -78.0481 688.672C-52.8472 725.656 -15.2912 757.245 -7.1399 801.225C-0.994374 834.307 -13.072 867.836 -12.7946 901.472C-12.4319 942.786 10.4218 988.516 43.4967 1013.66C76.5715 1038.81 111.631 1034.01 141.654 1014.62C151.702 1008.02 160.965 1000.3 169.266 991.608C191.117 969 210.365 942.552 238.276 927.173C268.32 910.665 304.425 911.539 337.521 903.711C345.886 901.728 353.248 897.953 361.207 894.497C377.147 887.587 395.221 880.441 410.051 873.445C421.66 867.964 432.308 862.653 439.477 851.178C455.503 825.583 448.546 791.627 458.319 762.79C472.254 721.647 511.666 699.528 548.39 674.787C562.223 665.851 575.221 655.685 587.226 644.414C627.535 605.019 644.008 544.018 635.195 487.517C629.348 450.533 613.558 415.404 592.07 385.138C581.401 370.08 566.805 357.41 553.276 344.079C540.26 331.282 528.246 318.122 521.61 301.805C508.807 270.046 513.074 234.725 497.518 202.625C480.687 167.521 453.087 138.701 418.736 120.359C368.014 93.4203 304.276 91.266 251.441 114.173C224.256 125.99 199.738 144.034 170.931 150.987C137.579 158.922 102.861 156.618 69.1243 155.445C41.9816 154.592 14.5828 154.4 -11.1729 161.396Z" stroke="#D7C029" stroke-miterlimit="10"/>
<path d="M-18.5771 148.748C-42.7964 155.147 -77.7064 169.714 -98.9383 191.705C-111.315 204.374 -118.975 219.752 -117.396 237.605C-116.116 251.81 -107.709 264.01 -98.7036 275.144C-97.0392 277.277 -95.3321 279.218 -93.689 281.201C-67.5279 312.598 -15.8884 355.469 -16.87 399.684C-17.4035 425.791 -36.0748 448.506 -55.2795 466.572C-122.325 529.301 -141.957 611.461 -86.69 692.191C-60.5075 730.583 -21.5432 763.089 -13.0931 808.754C-6.6915 843.03 -19.3666 877.797 -19.1532 912.606C-18.9185 955.264 4.66065 1002.66 38.8665 1028.64C73.0723 1054.61 109.284 1049.54 140.289 1029.3C150.666 1022.41 160.224 1014.36 168.776 1005.3C191.288 981.84 211.09 954.219 239.919 938.328C270.967 921.265 308.203 921.905 342.622 914.291C350.916 912.117 359.016 909.263 366.841 905.759C383.101 899.211 400.983 892.087 415.813 884.558C427.379 878.671 437.856 872.55 444.919 860.904C461.179 834.093 454.073 799.178 464.124 769.317C478.506 726.659 519.604 703.986 557.715 678.498C572.139 669.285 585.707 658.799 598.258 647.165C640.295 606.491 657.58 543.314 648.575 484.851C642.6 446.608 626.276 410.349 603.934 379.08C592.86 363.553 577.624 350.457 563.519 336.785C549.926 323.646 537.358 310.017 530.38 293.146C516.83 260.32 521.247 223.762 505.009 190.638C487.598 154.577 459.213 124.95 423.922 106.004C371.706 78.2766 306.111 76.1437 251.911 100.075C223.979 112.382 198.799 131.258 169.139 138.467C134.997 146.679 99.2548 144.311 64.3661 143.053C36.2205 141.986 8.18152 141.731 -18.5771 148.748Z" stroke="#D6C426" stroke-miterlimit="10"/>
<path d="M-25.9606 136.1C-50.9054 142.499 -87.2451 157.216 -109.437 179.739C-122.24 192.729 -130.413 208.427 -128.813 226.876C-127.532 241.487 -118.848 254.007 -109.48 265.418C-107.752 267.551 -105.98 269.684 -104.252 271.625C-77.0452 303.725 -22.8665 347.919 -23.3786 393.478C-23.6774 420.395 -42.8181 443.772 -62.727 462.307C-132.376 527.083 -152.648 612.207 -95.3111 695.732C-68.1684 735.34 -27.753 769.019 -19.0469 816.284C-12.5173 851.775 -25.6618 887.757 -25.4485 923.782C-25.2991 967.933 -1.01574 1016.88 34.2997 1043.67C69.9565 1070.72 107.128 1065.13 139.072 1044.04C149.772 1036.85 159.616 1028.47 168.413 1019.06C191.629 994.595 211.986 965.993 241.732 949.569C273.74 931.866 312.15 932.314 347.871 924.934C356.316 922.922 364.592 920.255 372.624 916.957C389.456 910.988 405.855 903.861 421.702 895.628C433.204 889.229 443.51 882.383 450.467 870.588C466.94 842.625 459.728 806.6 470.12 775.801C484.95 731.778 527.521 708.401 567.21 682.124C582.147 672.206 596.764 661.883 609.29 649.853C653.056 607.899 671.172 542.547 661.933 482.1C655.851 442.599 638.994 405.315 615.798 373.002C604.297 357.005 588.464 343.525 573.783 329.469C559.614 315.947 546.491 301.869 539.171 284.465C524.96 250.573 529.42 212.799 512.52 178.651C494.471 141.607 465.242 111.161 428.957 91.6074C375.227 63.0905 307.754 60.9789 252.082 85.8272C223.424 98.6247 197.561 118.183 167.069 125.649C132.009 134.18 95.3495 131.706 59.3299 130.362C30.4587 129.381 1.5449 129.083 -25.9606 136.1Z" stroke="#D5C822" stroke-miterlimit="10"/>
<path d="M-33.3649 123.452C-58.9712 129.85 -96.8259 144.781 -119.978 167.752C-133.379 181.062 -141.872 197.186 -140.271 216.169C-139.012 231.1 -130.029 244.004 -120.298 255.692C-118.506 257.825 -116.692 259.958 -114.878 262.091C-86.6688 294.959 -29.78 340.411 -29.9934 387.314C-29.9934 415.041 -49.7529 439.079 -70.2594 458.083C-142.405 524.907 -163.338 612.932 -103.932 699.294C-75.8287 740.203 -33.9624 774.991 -24.9788 823.856C-18.2571 860.542 -31.8498 897.761 -31.8712 935.023C-31.7431 980.582 -6.841 1031.15 29.584 1058.73C66.4145 1086.65 104.76 1080.74 137.685 1058.73C148.716 1051.25 158.861 1042.54 167.922 1032.77C191.8 1007.37 212.733 977.724 243.397 960.746C276.429 942.467 315.948 942.637 352.949 935.556C361.548 933.699 370.004 931.24 378.257 928.197C395.157 922.396 412.847 915.4 427.485 906.74C438.944 899.979 449.059 892.301 455.93 880.314C472.595 851.242 465.255 814.194 475.967 782.328C491.245 736.876 535.373 712.859 576.578 685.835C592.134 675.64 607.263 664.997 620.301 652.605C665.752 609.349 684.701 541.843 675.269 479.413C669.06 438.674 651.669 400.154 627.62 366.987C615.713 350.521 599.261 336.678 583.983 322.196C569.238 308.289 555.56 293.807 547.899 275.827C532.962 240.89 537.528 201.879 519.967 166.707C501.316 128.701 471.281 97.448 434.036 77.2956C378.748 47.9042 309.419 45.8353 252.295 71.6434C222.848 84.9954 196.345 105.279 164.999 113.107C129.086 121.895 91.466 119.357 54.3155 117.949C24.6975 116.776 -4.98453 116.413 -33.3649 123.452Z" stroke="#D4CC1E" stroke-miterlimit="10"/>
<path d="M-40.7692 110.803C-67.1651 117.202 -106.385 132.303 -130.519 155.765C-144.475 169.394 -153.352 185.924 -151.858 205.419C-150.578 220.819 -141.317 233.979 -131.224 245.944C-129.367 248.077 -127.489 250.21 -125.612 252.343C-96.1856 286.022 -36.8003 332.796 -36.6295 381.064C-36.4588 409.624 -56.7305 434.387 -77.8131 453.775C-152.434 522.625 -174.029 613.615 -112.574 702.77C-83.4678 745.002 -40.1718 780.877 -30.9535 831.321C-24.0398 869.244 -38.1873 907.679 -38.2726 946.178C-38.2726 993.101 -12.6663 1045.32 24.911 1073.77C62.8938 1102.54 102.456 1096.29 136.363 1073.51C147.718 1065.74 158.156 1056.71 167.474 1046.59C192.014 1020.25 213.502 989.561 245.104 971.943C279.118 953.067 319.789 952.981 358.092 946.178C366.84 944.49 375.471 942.246 383.933 939.459C401.154 934.02 418.715 927.003 433.29 917.874C444.706 910.686 454.628 902.218 461.414 890.146C478.25 859.923 470.824 821.893 481.856 788.961C497.583 742.037 543.247 717.423 585.967 689.653C602.078 679.159 617.783 668.217 631.312 655.526C678.492 610.991 698.273 541.309 688.606 476.895C682.205 434.92 664.365 395.248 639.527 361.143C627.194 344.207 610.144 329.981 594.268 315.115C578.904 300.803 564.671 285.872 556.584 267.273C541.028 231.27 545.616 191.001 527.372 154.827C508.123 115.858 477.258 83.8143 439.03 63.1116C382.226 32.8457 310.998 30.7981 252.445 57.5874C222.357 71.3447 195.193 92.3325 163.015 100.31C126.248 109.417 87.6466 106.708 49.3438 105.258C18.8509 104.17 -11.514 103.807 -40.7692 110.803Z" stroke="#D3D018" stroke-miterlimit="10"/>
<path d="M-48.1736 98.1767C-75.3164 104.575 -115.945 119.719 -140.997 143.842C-155.486 157.749 -164.661 174.705 -163.167 194.733C-161.908 210.538 -152.327 223.997 -141.829 236.24C-139.908 238.373 -137.945 240.697 -136.025 242.894C-105.639 277.128 -43.7352 325.289 -43.1377 374.879C-42.7323 404.249 -63.5588 429.566 -85.2175 449.53C-162.527 520.364 -184.719 614.34 -121.194 706.29C-91.1283 749.822 -46.3812 786.807 -36.9068 838.85C-29.8011 877.967 -44.4821 917.639 -44.6314 957.354C-44.7595 1005.75 -18.3849 1059.54 20.2593 1088.81C59.4157 1118.45 100.172 1111.88 135.061 1088.25C146.749 1080.19 157.487 1070.83 167.069 1060.35C192.27 1033.07 214.313 1001.33 246.833 983.248C281.849 963.774 323.78 963.369 363.278 956.906C372.18 955.385 380.986 953.349 389.652 950.806C407.192 945.73 424.647 938.755 439.136 929.072C450.653 921.777 460.183 911.745 466.877 899.872C483.947 868.497 476.372 829.337 487.703 795.488C503.899 747.135 551.1 721.86 595.335 693.322C612.022 682.657 628.282 671.31 642.28 658.193C691.188 612.378 711.78 540.52 701.921 474.123C695.52 430.91 677.019 390.108 651.264 355.021C638.46 337.638 620.856 323.028 604.319 307.777C588.443 293.06 573.655 277.746 565.312 258.721C549.116 221.651 553.725 180.166 534.819 142.968C514.782 103.36 483.606 69.809 444.087 48.7785C414.679 33.4195 382.16 24.9535 348.993 24.0222C315.826 23.0909 282.882 29.7189 252.658 43.4036C221.717 57.7154 193.934 79.4497 160.902 87.7681C123.41 97.1315 83.8057 94.3588 44.4573 92.8017C13.1749 91.5646 -18.0649 91.1381 -48.1736 98.1767Z" stroke="#D2D311" stroke-miterlimit="10"/>
<path d="M-174.605 184.005C-173.111 203.201 -159.561 219.006 -146.673 233.296C-115.22 268.233 -50.8197 317.738 -49.7954 368.672C-49.1979 398.874 -70.5152 424.853 -92.7927 445.243C-172.492 518.21 -195.41 615.065 -129.815 709.724C-98.7889 754.515 -52.5908 792.651 -42.8604 846.23C-35.5626 886.542 -50.7983 927.429 -50.9904 968.403C-51.2464 1018.23 -24.1677 1073.6 15.6075 1103.69C68.954 1144.22 125.395 1118.88 166.6 1073.96C192.483 1045.74 215.081 1012.96 248.54 994.317C284.538 974.247 327.642 973.543 368.399 967.4C409.156 961.257 453.22 945.943 472.403 909.47C489.474 876.965 481.984 836.76 493.635 801.887C516.553 733.314 600.435 710.065 653.376 660.795C703.991 613.7 725.437 539.688 715.258 471.307C708.707 426.858 689.652 384.903 663.107 348.879C637.223 313.814 591.836 289.904 574.146 249.933C557.267 211.797 561.897 169.096 542.373 130.853C521.653 90.3276 489.624 55.8385 449.251 34.2961C419.099 18.5033 385.731 9.81946 351.702 8.90998C317.674 8.00049 283.889 14.8895 252.936 29.0492C221.269 43.8516 192.825 66.3324 158.918 74.9067C90.1432 92.3112 14.6045 69.3611 -55.6635 85.3579C-99.5571 95.5106 -178.958 128.037 -174.605 184.005Z" stroke="#D1D706" stroke-miterlimit="10"/>
</svg>
